<svg width="535" height="310" viewBox="0 0 535 310" fill="none" xmlns="http://www.w3.org/2000/svg">
<path d="M79.2292 5.6146C79.2292 6.13173 79.0759 6.63723 78.7886 7.0672C78.5013 7.49717 78.0929 7.83229 77.6152 8.03019C77.1374 8.22808 76.6117 8.27986 76.1045 8.17898C75.5973 8.07809 75.1315 7.82907 74.7658 7.46341C74.4001 7.09775 74.1511 6.63187 74.0502 6.12469C73.9494 5.6175 74.0011 5.0918 74.199 4.61404C74.3969 4.13628 74.732 3.72794 75.162 3.44064C75.592 3.15334 76.0975 3 76.6146 3C77.3081 3 77.9731 3.27546 78.4634 3.7658C78.9538 4.25613 79.2292 4.92117 79.2292 5.6146V5.6146Z" fill="#A4A9B9"/>
<path d="M7.8757 2.61463C7.8757 3.13229 7.72203 3.63829 7.43418 4.06853C7.14632 4.49877 6.73725 4.83387 6.25876 5.03139C5.78027 5.22891 5.25393 5.27996 4.7464 5.17805C4.23888 5.07615 3.77303 4.82589 3.40787 4.45897C3.04272 4.09206 2.79468 3.62501 2.69521 3.11701C2.59574 2.609 2.64931 2.0829 2.84912 1.60537C3.04893 1.12783 3.386 0.720356 3.81762 0.434569C4.24923 0.148782 4.75595 -0.00244686 5.2736 2.99433e-05C5.61637 2.59819e-05 5.95577 0.06774 6.27229 0.199289C6.58881 0.330839 6.87622 0.523628 7.11801 0.766582C7.3598 1.00954 7.55121 1.29787 7.68124 1.61502C7.81127 1.93216 7.87735 2.27187 7.8757 2.61463V2.61463Z" fill="white"/>
<path d="M100.497 5.6146C100.497 6.13173 100.343 6.63723 100.056 7.0672C99.7689 7.49717 99.3605 7.83229 98.8828 8.03019C98.405 8.22808 97.8793 8.27986 97.3721 8.17898C96.8649 8.07809 96.399 7.82907 96.0334 7.46341C95.6677 7.09775 95.4187 6.63187 95.3178 6.12469C95.2169 5.6175 95.2687 5.0918 95.4666 4.61404C95.6645 4.13628 95.9996 3.72794 96.4296 3.44064C96.8596 3.15334 97.3651 3 97.8822 3C98.5756 3 99.2407 3.27546 99.731 3.7658C100.221 4.25613 100.497 4.92117 100.497 5.6146V5.6146Z" fill="#FFD96C"/>
<path d="M323.769 127.941H211.128V240.582H323.769V127.941Z" fill="#FFD96C"/>
<path d="M309.894 124.475H313.822V110.301H309.894V124.475Z" fill="#A4A9B9"/>
<path d="M298.785 124.475H302.713V110.301H298.785V124.475Z" fill="#A4A9B9"/>
<path d="M287.676 124.475H291.604V110.301H287.676V124.475Z" fill="#A4A9B9"/>
<path d="M276.592 124.475H280.521V110.301H276.592V124.475Z" fill="#A4A9B9"/>
<path d="M265.484 124.475H269.412V110.301H265.484V124.475Z" fill="#A4A9B9"/>
<path d="M254.375 124.475H258.303V110.301H254.375V124.475Z" fill="#A4A9B9"/>
<path d="M243.292 124.475H247.22V110.301H243.292V124.475Z" fill="#A4A9B9"/>
<path d="M232.182 124.475H236.11V110.301H232.182V124.475Z" fill="#A4A9B9"/>
<path d="M221.073 124.475H225.001V110.301H221.073V124.475Z" fill="#A4A9B9"/>
<path d="M219.76 127.941H226.328V122.599H219.76V127.941Z" fill="#FFD96C"/>
<path opacity="0.1" d="M219.76 127.941H226.328V122.599H219.76V127.941Z" fill="black"/>
<path d="M230.857 127.941H237.425V122.599H230.857V127.941Z" fill="#FFD96C"/>
<path opacity="0.1" d="M230.857 127.941H237.425V122.599H230.857V127.941Z" fill="black"/>
<path d="M241.965 127.941H248.533V122.599H241.965V127.941Z" fill="#FFD96C"/>
<path opacity="0.1" d="M241.965 127.941H248.533V122.599H241.965V127.941Z" fill="black"/>
<path d="M253.062 127.941H259.63V122.599H253.062V127.941Z" fill="#FFD96C"/>
<path opacity="0.1" d="M253.062 127.941H259.63V122.599H253.062V127.941Z" fill="black"/>
<path d="M264.158 127.941H270.726V122.599H264.158V127.941Z" fill="#FFD96C"/>
<path opacity="0.1" d="M264.158 127.941H270.726V122.599H264.158V127.941Z" fill="black"/>
<path d="M275.266 127.941H281.834V122.599H275.266V127.941Z" fill="#FFD96C"/>
<path opacity="0.1" d="M275.266 127.941H281.834V122.599H275.266V127.941Z" fill="black"/>
<path d="M286.363 127.941H292.931V122.599H286.363V127.941Z" fill="#FFD96C"/>
<path opacity="0.1" d="M286.363 127.941H292.931V122.599H286.363V127.941Z" fill="black"/>
<path d="M297.46 127.941H304.027V122.599H297.46V127.941Z" fill="#FFD96C"/>
<path opacity="0.1" d="M297.46 127.941H304.027V122.599H297.46V127.941Z" fill="black"/>
<path d="M308.569 127.941H315.137V122.599H308.569V127.941Z" fill="#FFD96C"/>
<path opacity="0.1" d="M308.569 127.941H315.137V122.599H308.569V127.941Z" fill="black"/>
<path d="M327.234 226.696V230.624H341.408V226.696H327.234Z" fill="#A4A9B9"/>
<path d="M327.234 215.599V219.527H341.408V215.599H327.234Z" fill="#A4A9B9"/>
<path d="M327.234 204.503V208.431H341.408V204.503H327.234Z" fill="#A4A9B9"/>
<path d="M327.234 193.393V197.322H341.408V193.393H327.234Z" fill="#A4A9B9"/>
<path d="M327.234 182.297V186.225H341.408V182.297H327.234Z" fill="#A4A9B9"/>
<path d="M327.234 171.188V175.116H341.408V171.188H327.234Z" fill="#A4A9B9"/>
<path d="M327.234 160.092V164.02H341.408V160.092H327.234Z" fill="#A4A9B9"/>
<path d="M327.246 148.995V152.923H341.42V148.995H327.246Z" fill="#A4A9B9"/>
<path d="M327.234 137.886V141.814H341.408V137.886H327.234Z" fill="#A4A9B9"/>
<path d="M323.769 136.573V143.14H329.11V136.573H323.769Z" fill="#FFD96C"/>
<path opacity="0.1" d="M323.769 136.573V143.14H329.11V136.573H323.769Z" fill="black"/>
<path d="M323.769 147.669V154.237H329.11V147.669H323.769Z" fill="#FFD96C"/>
<path opacity="0.1" d="M323.769 147.669V154.237H329.11V147.669H323.769Z" fill="black"/>
<path d="M323.769 158.778V165.346H329.11V158.778H323.769Z" fill="#FFD96C"/>
<path opacity="0.1" d="M323.769 158.778V165.346H329.11V158.778H323.769Z" fill="black"/>
<path d="M323.769 169.875V176.443H329.11V169.875H323.769Z" fill="#FFD96C"/>
<path opacity="0.1" d="M323.769 169.875V176.443H329.11V169.875H323.769Z" fill="black"/>
<path d="M323.769 180.984V187.552H329.11V180.984H323.769Z" fill="#FFD96C"/>
<path opacity="0.1" d="M323.769 180.984V187.552H329.11V180.984H323.769Z" fill="black"/>
<path d="M323.769 192.08V198.648H329.11V192.08H323.769Z" fill="#FFD96C"/>
<path opacity="0.1" d="M323.769 192.08V198.648H329.11V192.08H323.769Z" fill="black"/>
<path d="M323.769 203.177V209.744H329.11V203.177H323.769Z" fill="#FFD96C"/>
<path opacity="0.1" d="M323.769 203.177V209.744H329.11V203.177H323.769Z" fill="black"/>
<path d="M323.769 214.285V220.853H329.11V214.285H323.769Z" fill="#FFD96C"/>
<path opacity="0.1" d="M323.769 214.285V220.853H329.11V214.285H323.769Z" fill="black"/>
<path d="M323.769 225.382V231.95H329.11V225.382H323.769Z" fill="#FFD96C"/>
<path opacity="0.1" d="M323.769 225.382V231.95H329.11V225.382H323.769Z" fill="black"/>
<path d="M225.013 244.047H221.085V258.221H225.013V244.047Z" fill="#A4A9B9"/>
<path d="M236.11 244.047H232.182V258.221H236.11V244.047Z" fill="#A4A9B9"/>
<path d="M247.207 244.047H243.278V258.221H247.207V244.047Z" fill="#A4A9B9"/>
<path d="M258.316 244.047H254.388V258.221H258.316V244.047Z" fill="#A4A9B9"/>
<path d="M269.413 244.047H265.484V258.221H269.413V244.047Z" fill="#A4A9B9"/>
<path d="M280.508 244.047H276.58V258.221H280.508V244.047Z" fill="#A4A9B9"/>
<path d="M291.618 244.047H287.689V258.221H291.618V244.047Z" fill="#A4A9B9"/>
<path d="M302.714 244.047H298.786V258.221H302.714V244.047Z" fill="#A4A9B9"/>
<path d="M313.81 244.047H309.882V258.221H313.81V244.047Z" fill="#A4A9B9"/>
<path d="M315.136 240.581H308.568V245.923H315.136V240.581Z" fill="#FFD96C"/>
<path opacity="0.1" d="M315.136 240.581H308.568V245.923H315.136V240.581Z" fill="black"/>
<path d="M304.04 240.581H297.473V245.923H304.04V240.581Z" fill="#FFD96C"/>
<path opacity="0.1" d="M304.04 240.581H297.473V245.923H304.04V240.581Z" fill="black"/>
<path d="M292.932 240.581H286.364V245.923H292.932V240.581Z" fill="#FFD96C"/>
<path opacity="0.1" d="M292.932 240.581H286.364V245.923H292.932V240.581Z" fill="black"/>
<path d="M281.834 240.581H275.267V245.923H281.834V240.581Z" fill="#FFD96C"/>
<path opacity="0.1" d="M281.834 240.581H275.267V245.923H281.834V240.581Z" fill="black"/>
<path d="M270.738 240.581H264.17V245.923H270.738V240.581Z" fill="#FFD96C"/>
<path opacity="0.1" d="M270.738 240.581H264.17V245.923H270.738V240.581Z" fill="black"/>
<path d="M259.63 240.581H253.062V245.923H259.63V240.581Z" fill="#FFD96C"/>
<path opacity="0.1" d="M259.63 240.581H253.062V245.923H259.63V240.581Z" fill="black"/>
<path d="M248.533 240.581H241.965V245.923H248.533V240.581Z" fill="#FFD96C"/>
<path opacity="0.1" d="M248.533 240.581H241.965V245.923H248.533V240.581Z" fill="black"/>
<path d="M237.436 240.581H230.868V245.923H237.436V240.581Z" fill="#FFD96C"/>
<path opacity="0.1" d="M237.436 240.581H230.868V245.923H237.436V240.581Z" fill="black"/>
<path d="M226.328 240.581H219.76V245.923H226.328V240.581Z" fill="#FFD96C"/>
<path opacity="0.1" d="M226.328 240.581H219.76V245.923H226.328V240.581Z" fill="black"/>
<path d="M207.663 141.752V137.824H193.489V141.752H207.663Z" fill="#A4A9B9"/>
<path d="M207.663 152.848V148.92H193.489V152.848H207.663Z" fill="#A4A9B9"/>
<path d="M207.663 163.945V160.017H193.489V163.945H207.663Z" fill="#A4A9B9"/>
<path d="M207.663 175.053V171.125H193.489V175.053H207.663Z" fill="#A4A9B9"/>
<path d="M207.663 186.15V182.222H193.489V186.15H207.663Z" fill="#A4A9B9"/>
<path d="M207.663 197.247V193.318H193.489V197.247H207.663Z" fill="#A4A9B9"/>
<path d="M207.65 208.356V204.428H193.476V208.356H207.65Z" fill="#A4A9B9"/>
<path d="M207.663 219.452V215.524H193.489V219.452H207.663Z" fill="#A4A9B9"/>
<path d="M207.663 230.548V226.62H193.489V230.548H207.663Z" fill="#A4A9B9"/>
<path d="M211.128 231.875V225.307H205.786V231.875H211.128Z" fill="#FFD96C"/>
<path opacity="0.1" d="M211.128 231.875V225.307H205.786V231.875H211.128Z" fill="black"/>
<path d="M211.128 220.778V214.21H205.786V220.778H211.128Z" fill="#FFD96C"/>
<path opacity="0.1" d="M211.128 220.778V214.21H205.786V220.778H211.128Z" fill="black"/>
<path d="M211.128 209.669V203.101H205.786V209.669H211.128Z" fill="#FFD96C"/>
<path opacity="0.1" d="M211.128 209.669V203.101H205.786V209.669H211.128Z" fill="black"/>
<path d="M211.141 198.585V192.017H205.799V198.585H211.141Z" fill="#FFD96C"/>
<path opacity="0.1" d="M211.141 198.585V192.017H205.799V198.585H211.141Z" fill="black"/>
<path d="M211.128 187.476V180.908H205.786V187.476H211.128Z" fill="#FFD96C"/>
<path opacity="0.1" d="M211.128 187.476V180.908H205.786V187.476H211.128Z" fill="black"/>
<path d="M211.128 176.367V169.8H205.786V176.367H211.128Z" fill="#FFD96C"/>
<path opacity="0.1" d="M211.128 176.367V169.8H205.786V176.367H211.128Z" fill="black"/>
<path d="M211.128 165.271V158.703H205.786V165.271H211.128Z" fill="#FFD96C"/>
<path opacity="0.1" d="M211.128 165.271V158.703H205.786V165.271H211.128Z" fill="black"/>
<path d="M211.128 154.174V147.607H205.786V154.174H211.128Z" fill="#FFD96C"/>
<path opacity="0.1" d="M211.128 154.174V147.607H205.786V154.174H211.128Z" fill="black"/>
<path d="M211.128 143.066V136.498H205.786V143.066H211.128Z" fill="#FFD96C"/>
<path opacity="0.1" d="M211.128 143.066V136.498H205.786V143.066H211.128Z" fill="black"/>
<path opacity="0.1" d="M223.288 137.248C223.288 138.025 223.058 138.784 222.626 139.43C222.194 140.076 221.581 140.58 220.863 140.877C220.145 141.174 219.355 141.252 218.593 141.101C217.831 140.949 217.132 140.575 216.582 140.026C216.033 139.476 215.659 138.776 215.507 138.014C215.356 137.252 215.433 136.463 215.731 135.745C216.028 135.027 216.531 134.413 217.177 133.982C217.823 133.55 218.583 133.32 219.36 133.32C220.401 133.323 221.398 133.738 222.134 134.474C222.87 135.21 223.285 136.207 223.288 137.248V137.248Z" fill="black"/>
<path d="M297.797 211.821H237.098V193.131H241.026V207.893H293.868V194.082H297.797V211.821Z" fill="white"/>
<path d="M258.116 180.696H276.769V156.701H258.116V180.696Z" fill="white"/>
<path d="M286.301 180.696H248.596L267.448 200.187L286.301 180.696Z" fill="white"/>
<path d="M396.927 184.737H341.407V183.798H396.614L447.743 146.343H492.854V147.282H448.043L396.927 184.737Z" fill="#A4A9B9"/>
<path d="M496.12 150.609C495.378 150.609 494.652 150.389 494.035 149.977C493.418 149.564 492.937 148.978 492.653 148.292C492.369 147.607 492.294 146.852 492.439 146.124C492.584 145.396 492.942 144.727 493.466 144.202C493.991 143.677 494.66 143.32 495.388 143.175C496.116 143.03 496.871 143.105 497.556 143.389C498.242 143.673 498.828 144.154 499.241 144.771C499.653 145.388 499.873 146.114 499.873 146.856C499.873 147.851 499.478 148.806 498.774 149.51C498.07 150.214 497.116 150.609 496.12 150.609V150.609ZM496.12 143.941C495.554 143.941 495 144.109 494.529 144.424C494.058 144.739 493.69 145.186 493.473 145.71C493.257 146.233 493.2 146.809 493.31 147.365C493.421 147.921 493.694 148.431 494.094 148.832C494.495 149.232 495.006 149.505 495.561 149.616C496.117 149.726 496.693 149.67 497.216 149.453C497.74 149.236 498.187 148.869 498.502 148.398C498.817 147.927 498.985 147.373 498.985 146.806C498.985 146.046 498.683 145.318 498.146 144.78C497.609 144.243 496.88 143.941 496.12 143.941V143.941Z" fill="#A4A9B9"/>
<path d="M390.747 173.79H341.407V172.852H390.434L441.563 135.397H466.583V136.335H441.863L390.747 173.79Z" fill="#A4A9B9"/>
<path d="M469.849 139.663C469.106 139.663 468.381 139.443 467.764 139.03C467.146 138.618 466.665 138.032 466.381 137.346C466.097 136.66 466.023 135.906 466.168 135.178C466.313 134.45 466.67 133.781 467.195 133.256C467.72 132.731 468.389 132.374 469.117 132.229C469.845 132.084 470.599 132.158 471.285 132.442C471.971 132.726 472.557 133.208 472.969 133.825C473.382 134.442 473.602 135.167 473.602 135.91C473.602 136.905 473.206 137.86 472.503 138.564C471.799 139.267 470.844 139.663 469.849 139.663V139.663ZM469.849 133.007C469.282 133.007 468.727 133.176 468.256 133.491C467.784 133.806 467.417 134.255 467.201 134.779C466.984 135.303 466.928 135.88 467.04 136.436C467.151 136.992 467.426 137.502 467.827 137.902C468.229 138.303 468.741 138.574 469.298 138.684C469.854 138.793 470.43 138.734 470.954 138.515C471.477 138.297 471.924 137.927 472.237 137.455C472.55 136.982 472.716 136.427 472.714 135.86C472.714 135.484 472.639 135.112 472.495 134.765C472.351 134.418 472.14 134.103 471.874 133.838C471.608 133.573 471.292 133.364 470.944 133.221C470.597 133.078 470.224 133.006 469.849 133.007V133.007Z" fill="#A4A9B9"/>
<path d="M453.873 194.845H341.407V195.783H453.873V194.845Z" fill="#A4A9B9"/>
<path d="M457.201 199.111C456.459 199.111 455.733 198.891 455.116 198.479C454.499 198.066 454.018 197.48 453.734 196.794C453.45 196.108 453.376 195.354 453.52 194.626C453.665 193.898 454.023 193.229 454.547 192.704C455.072 192.179 455.741 191.822 456.469 191.677C457.197 191.532 457.952 191.607 458.637 191.891C459.323 192.175 459.909 192.656 460.322 193.273C460.734 193.89 460.954 194.616 460.954 195.358C460.954 196.353 460.559 197.308 459.855 198.012C459.151 198.716 458.197 199.111 457.201 199.111V199.111ZM457.201 192.456C456.634 192.453 456.079 192.619 455.606 192.932C455.133 193.246 454.764 193.692 454.546 194.215C454.327 194.739 454.268 195.315 454.377 195.872C454.487 196.428 454.758 196.94 455.159 197.342C455.559 197.744 456.069 198.018 456.625 198.129C457.181 198.241 457.758 198.185 458.282 197.968C458.806 197.752 459.255 197.385 459.57 196.913C459.885 196.442 460.054 195.888 460.054 195.321C460.05 194.564 459.749 193.839 459.215 193.303C458.681 192.767 457.958 192.462 457.201 192.456V192.456Z" fill="#A4A9B9"/>
<path d="M527.695 232.362H429.078L428.978 232.312L381.114 206.942H341.407V206.004H381.352L429.316 231.424H527.695V232.362Z" fill="#A4A9B9"/>
<path d="M531.023 235.703C530.28 235.703 529.555 235.483 528.938 235.07C528.32 234.658 527.839 234.072 527.555 233.386C527.271 232.7 527.197 231.946 527.342 231.218C527.486 230.49 527.844 229.821 528.369 229.296C528.894 228.771 529.562 228.414 530.29 228.269C531.018 228.124 531.773 228.198 532.459 228.482C533.145 228.767 533.731 229.248 534.143 229.865C534.555 230.482 534.776 231.208 534.776 231.95C534.776 232.945 534.38 233.9 533.676 234.604C532.973 235.307 532.018 235.703 531.023 235.703V235.703ZM531.023 229.035C530.456 229.035 529.902 229.203 529.431 229.518C528.96 229.833 528.593 230.28 528.376 230.803C528.159 231.327 528.102 231.903 528.213 232.459C528.323 233.014 528.596 233.525 528.997 233.925C529.398 234.326 529.908 234.599 530.464 234.71C531.019 234.82 531.595 234.763 532.119 234.547C532.642 234.33 533.09 233.962 533.405 233.491C533.719 233.02 533.887 232.466 533.887 231.9C533.887 231.524 533.813 231.151 533.669 230.803C533.525 230.456 533.314 230.14 533.048 229.874C532.782 229.608 532.466 229.397 532.119 229.253C531.771 229.109 531.399 229.035 531.023 229.035V229.035Z" fill="#A4A9B9"/>
<path d="M485.761 248.013H429.015L428.903 247.95L375.985 218.039H341.407V217.101H376.235L376.335 217.163L429.253 247.075H485.761V248.013Z" fill="#A4A9B9"/>
<path d="M489.089 251.34C488.347 251.34 487.621 251.12 487.004 250.707C486.387 250.295 485.906 249.709 485.622 249.023C485.338 248.337 485.263 247.583 485.408 246.855C485.553 246.127 485.91 245.458 486.435 244.933C486.96 244.408 487.629 244.051 488.357 243.906C489.085 243.761 489.839 243.835 490.525 244.119C491.211 244.404 491.797 244.885 492.209 245.502C492.622 246.119 492.842 246.845 492.842 247.587C492.842 248.582 492.447 249.537 491.743 250.241C491.039 250.944 490.084 251.34 489.089 251.34ZM489.089 244.684C488.522 244.684 487.968 244.852 487.497 245.167C487.026 245.482 486.659 245.929 486.442 246.453C486.225 246.976 486.169 247.552 486.279 248.108C486.39 248.664 486.663 249.174 487.063 249.575C487.464 249.976 487.974 250.248 488.53 250.359C489.086 250.47 489.662 250.413 490.185 250.196C490.709 249.979 491.156 249.612 491.471 249.141C491.786 248.67 491.954 248.116 491.954 247.549C491.954 246.789 491.652 246.061 491.115 245.524C490.577 244.986 489.849 244.684 489.089 244.684Z" fill="#A4A9B9"/>
<path d="M193.488 173.565H126.697L126.572 173.465L75.5682 136.097H30.7695V135.159H75.8809L76.006 135.259L126.997 172.627H193.488V173.565Z" fill="#A4A9B9"/>
<path d="M27.4923 139.425C26.75 139.425 26.0244 139.205 25.4072 138.793C24.79 138.38 24.309 137.794 24.0249 137.108C23.7409 136.422 23.6666 135.668 23.8114 134.94C23.9562 134.212 24.3136 133.543 24.8385 133.018C25.3634 132.493 26.0321 132.136 26.7601 131.991C27.4881 131.846 28.2427 131.921 28.9285 132.205C29.6143 132.489 30.2004 132.97 30.6128 133.587C31.0252 134.204 31.2453 134.93 31.2453 135.672C31.2453 136.667 30.8499 137.622 30.1461 138.326C29.4422 139.03 28.4876 139.425 27.4923 139.425V139.425ZM27.4923 132.77C26.9257 132.77 26.3718 132.938 25.9007 133.252C25.4296 133.567 25.0624 134.015 24.8455 134.538C24.6287 135.062 24.572 135.638 24.6825 136.193C24.7931 136.749 25.0659 137.26 25.4666 137.66C25.8672 138.061 26.3777 138.334 26.9334 138.444C27.4891 138.555 28.0651 138.498 28.5886 138.281C29.1121 138.064 29.5595 137.697 29.8743 137.226C30.1891 136.755 30.3571 136.201 30.3571 135.634C30.3571 134.875 30.0553 134.146 29.518 133.609C28.9808 133.071 28.2521 132.77 27.4923 132.77Z" fill="#A4A9B9"/>
<path d="M193.49 162.456H132.878L132.753 162.368L81.7494 125.001H57.042V124.062H82.0622L82.1873 124.15L133.178 161.517H193.49V162.456Z" fill="#A4A9B9"/>
<path d="M53.7628 128.329C53.0205 128.329 52.2949 128.108 51.6777 127.696C51.0605 127.284 50.5795 126.698 50.2954 126.012C50.0114 125.326 49.9371 124.571 50.0819 123.843C50.2267 123.115 50.5841 122.447 51.109 121.922C51.6339 121.397 52.3026 121.039 53.0306 120.895C53.7586 120.75 54.5132 120.824 55.199 121.108C55.8848 121.392 56.4709 121.873 56.8833 122.49C57.2957 123.108 57.5158 123.833 57.5158 124.576C57.5158 125.571 57.1204 126.525 56.4166 127.229C55.7128 127.933 54.7582 128.329 53.7628 128.329V128.329ZM53.7628 121.673C53.1957 121.673 52.6413 121.842 52.1699 122.157C51.6985 122.472 51.3313 122.92 51.1149 123.445C50.8984 123.969 50.8424 124.545 50.954 125.102C51.0655 125.658 51.3396 126.168 51.7415 126.568C52.1434 126.968 52.6551 127.24 53.2116 127.349C53.7681 127.458 54.3446 127.4 54.8678 127.181C55.3911 126.962 55.8376 126.593 56.1509 126.12C56.4642 125.648 56.6301 125.093 56.6276 124.526C56.6309 124.148 56.5592 123.773 56.4165 123.423C56.2739 123.074 56.0632 122.756 55.7967 122.488C55.5302 122.22 55.2131 122.008 54.864 121.864C54.5148 121.72 54.1405 121.647 53.7628 121.648V121.673Z" fill="#A4A9B9"/>
<path d="M193.489 183.798H7.20117V184.736H193.489V183.798Z" fill="#A4A9B9"/>
<path d="M3.87217 188.064C3.12989 188.064 2.40429 187.844 1.78711 187.431C1.16992 187.019 0.68888 186.433 0.404823 185.747C0.120765 185.061 0.0464449 184.307 0.191256 183.579C0.336068 182.851 0.693501 182.182 1.21837 181.657C1.74324 181.132 2.41198 180.775 3.13999 180.63C3.86801 180.485 4.62262 180.559 5.30839 180.844C5.99417 181.128 6.58031 181.609 6.9927 182.226C7.40509 182.843 7.62519 183.569 7.62519 184.311C7.62519 185.306 7.22979 186.261 6.52596 186.965C5.82213 187.669 4.86753 188.064 3.87217 188.064ZM3.87217 181.409C3.3045 181.406 2.7489 181.572 2.27588 181.886C1.80285 182.2 1.43372 182.647 1.21534 183.171C0.996957 183.695 0.93918 184.272 1.04932 184.829C1.15946 185.386 1.43255 185.898 1.83395 186.299C2.23535 186.7 2.74697 186.974 3.30385 187.084C3.86073 187.194 4.43778 187.136 4.96176 186.918C5.48574 186.699 5.93304 186.33 6.24688 185.857C6.56072 185.384 6.72694 184.828 6.72446 184.261C6.72117 183.505 6.41961 182.782 5.88541 182.248C5.35121 181.713 4.62763 181.412 3.87217 181.409V181.409Z" fill="#A4A9B9"/>
<path d="M94.5342 221.191H70.9902V220.253H94.309L142.273 194.82H193.489V195.758H142.498L94.5342 221.191Z" fill="#A4A9B9"/>
<path d="M67.6495 224.519C66.9072 224.519 66.1816 224.299 65.5644 223.886C64.9473 223.474 64.4662 222.888 64.1822 222.202C63.8981 221.516 63.8238 220.762 63.9686 220.034C64.1134 219.306 64.4709 218.637 64.9957 218.112C65.5206 217.587 66.1893 217.23 66.9173 217.085C67.6454 216.94 68.4 217.015 69.0857 217.299C69.7715 217.583 70.3577 218.064 70.77 218.681C71.1824 219.298 71.4025 220.024 71.4025 220.766C71.4025 221.761 71.0071 222.716 70.3033 223.42C69.5995 224.124 68.6449 224.519 67.6495 224.519V224.519ZM67.6495 217.864C67.0829 217.864 66.529 218.032 66.0579 218.346C65.5868 218.661 65.2196 219.109 65.0028 219.632C64.7859 220.156 64.7292 220.732 64.8398 221.287C64.9503 221.843 65.2231 222.353 65.6238 222.754C66.0244 223.155 66.5349 223.428 67.0906 223.538C67.6463 223.649 68.2224 223.592 68.7458 223.375C69.2693 223.158 69.7167 222.791 70.0315 222.32C70.3463 221.849 70.5143 221.295 70.5143 220.728C70.5143 219.969 70.2125 219.24 69.6752 218.703C69.138 218.165 68.4093 217.864 67.6495 217.864V217.864Z" fill="#A4A9B9"/>
<path d="M94.6089 236.841H37.8506V235.903H94.3587L147.389 205.929H193.489V206.867H147.639L94.6089 236.841Z" fill="#A4A9B9"/>
<path d="M34.5226 240.169C33.7803 240.169 33.0547 239.949 32.4375 239.536C31.8203 239.124 31.3393 238.538 31.0552 237.852C30.7712 237.166 30.6968 236.411 30.8416 235.683C30.9865 234.955 31.3439 234.287 31.8688 233.762C32.3936 233.237 33.0624 232.88 33.7904 232.735C34.5184 232.59 35.273 232.664 35.9588 232.948C36.6446 233.232 37.2307 233.713 37.6431 234.331C38.0555 234.948 38.2756 235.673 38.2756 236.416C38.2756 237.411 37.8802 238.366 37.1763 239.069C36.4725 239.773 35.5179 240.169 34.5226 240.169ZM34.5226 233.513C33.956 233.513 33.4021 233.681 32.931 233.996C32.4598 234.311 32.0927 234.758 31.8758 235.282C31.659 235.805 31.6022 236.381 31.7128 236.937C31.8233 237.493 32.0962 238.003 32.4968 238.404C32.8975 238.804 33.408 239.077 33.9637 239.188C34.5194 239.298 35.0954 239.242 35.6189 239.025C36.1423 238.808 36.5898 238.441 36.9046 237.97C37.2194 237.499 37.3874 236.945 37.3874 236.378C37.3874 235.618 37.0855 234.89 36.5483 234.352C36.011 233.815 35.2824 233.513 34.5226 233.513Z" fill="#A4A9B9"/>
<path d="M279.057 110.301H278.119V84.7933L278.219 84.6682L300.212 54.6565V46.1121H301.15V54.9567L301.05 55.0818L279.057 85.0935V110.301Z" fill="#A4A9B9"/>
<path d="M300.675 46.4501C299.933 46.4501 299.207 46.23 298.59 45.8177C297.973 45.4053 297.492 44.8191 297.208 44.1333C296.923 43.4476 296.849 42.693 296.994 41.9649C297.139 41.2369 297.496 40.5682 298.021 40.0433C298.546 39.5185 299.215 39.161 299.943 39.0162C300.671 38.8714 301.425 38.9457 302.111 39.2298C302.797 39.5138 303.383 39.9949 303.795 40.612C304.208 41.2292 304.428 41.9548 304.428 42.6971C304.428 43.6925 304.033 44.6471 303.329 45.3509C302.625 46.0547 301.67 46.4501 300.675 46.4501V46.4501ZM300.675 39.7948C300.108 39.7948 299.553 39.9631 299.082 40.2785C298.611 40.5938 298.243 41.042 298.027 41.5662C297.811 42.0904 297.755 42.667 297.866 43.2231C297.978 43.7791 298.252 44.2896 298.654 44.6897C299.056 45.0899 299.567 45.3617 300.124 45.4709C300.68 45.58 301.257 45.5215 301.78 45.3027C302.303 45.084 302.75 44.7148 303.063 44.2421C303.376 43.7693 303.542 43.2142 303.54 42.6471C303.54 42.2715 303.466 41.8995 303.321 41.5526C303.177 41.2058 302.966 40.8908 302.7 40.6258C302.434 40.3607 302.118 40.1509 301.77 40.0083C301.423 39.8657 301.051 39.7931 300.675 39.7948Z" fill="#A4A9B9"/>
<path d="M290.167 110.302H289.229V90.9737L289.316 90.8486L315.888 54.5819V37.5056H316.826V54.8946L316.738 55.0197L290.167 91.274V110.302Z" fill="#A4A9B9"/>
<path d="M316.351 37.9685C315.608 37.9685 314.883 37.7484 314.266 37.336C313.648 36.9236 313.167 36.3374 312.883 35.6517C312.599 34.9659 312.525 34.2113 312.67 33.4833C312.815 32.7552 313.172 32.0865 313.697 31.5616C314.222 31.0368 314.89 30.6793 315.619 30.5345C316.347 30.3897 317.101 30.464 317.787 30.7481C318.473 31.0321 319.059 31.5132 319.471 32.1303C319.884 32.7475 320.104 33.4731 320.104 34.2154C320.104 35.2108 319.708 36.1654 319.004 36.8692C318.301 37.573 317.346 37.9685 316.351 37.9685V37.9685ZM316.351 31.3131C315.784 31.3131 315.23 31.4811 314.759 31.7959C314.288 32.1107 313.921 32.5581 313.704 33.0816C313.487 33.6051 313.43 34.1811 313.541 34.7368C313.651 35.2925 313.924 35.803 314.325 36.2036C314.726 36.6043 315.236 36.8771 315.792 36.9877C316.348 37.0982 316.924 37.0415 317.447 36.8246C317.97 36.6078 318.418 36.2406 318.733 35.7695C319.047 35.2984 319.216 34.7445 319.216 34.1779C319.216 33.8017 319.141 33.4292 318.997 33.0816C318.853 32.734 318.642 32.4182 318.376 32.1522C318.11 31.8861 317.795 31.6751 317.447 31.5311C317.099 31.3872 316.727 31.3131 316.351 31.3131Z" fill="#A4A9B9"/>
<path d="M267.961 59.2852H267.022V110.301H267.961V59.2852Z" fill="#A4A9B9"/>
<path d="M267.447 59.7607C266.705 59.7607 265.979 59.5406 265.362 59.1282C264.745 58.7158 264.264 58.1297 263.98 57.4439C263.696 56.7581 263.622 56.0035 263.766 55.2755C263.911 54.5475 264.269 53.8787 264.794 53.3539C265.318 52.829 265.987 52.4716 266.715 52.3268C267.443 52.1819 268.198 52.2563 268.884 52.5403C269.569 52.8244 270.156 53.3054 270.568 53.9226C270.98 54.5398 271.2 55.2654 271.2 56.0077C271.2 57.003 270.805 57.9576 270.101 58.6615C269.397 59.3653 268.443 59.7607 267.447 59.7607ZM267.447 53.1053C266.88 53.1029 266.324 53.2691 265.851 53.5829C265.378 53.8968 265.009 54.344 264.791 54.868C264.572 55.392 264.514 55.9691 264.624 56.5259C264.735 57.0828 265.008 57.5944 265.409 57.9958C265.811 58.3972 266.322 58.6703 266.879 58.7805C267.436 58.8906 268.013 58.8328 268.537 58.6145C269.061 58.3961 269.508 58.0269 269.822 57.5539C270.136 57.0809 270.302 56.5253 270.3 55.9576C270.296 55.2022 269.995 54.4786 269.461 53.9444C268.926 53.4102 268.203 53.1086 267.447 53.1053V53.1053Z" fill="#A4A9B9"/>
<path d="M256.865 110.302H255.927V100.606L238.9 68.5055V38.2061H239.839V68.2678L256.865 100.369V110.302Z" fill="#A4A9B9"/>
<path d="M239.375 38.3437C238.633 38.3437 237.907 38.1236 237.29 37.7112C236.673 37.2988 236.192 36.7127 235.908 36.0269C235.624 35.3411 235.549 34.5865 235.694 33.8585C235.839 33.1305 236.196 32.4617 236.721 31.9369C237.246 31.412 237.915 31.0546 238.643 30.9098C239.371 30.765 240.126 30.8393 240.811 31.1233C241.497 31.4074 242.083 31.8884 242.496 32.5056C242.908 33.1228 243.128 33.8484 243.128 34.5907C243.128 35.586 242.733 36.5406 242.029 37.2445C241.325 37.9483 240.37 38.3437 239.375 38.3437ZM239.375 31.6883C238.808 31.6858 238.253 31.8518 237.78 32.165C237.307 32.4783 236.938 32.9249 236.719 33.4481C236.501 33.9714 236.442 34.5478 236.551 35.1043C236.66 35.6609 236.932 36.1725 237.332 36.5744C237.733 36.9763 238.243 37.2504 238.799 37.362C239.355 37.4735 239.932 37.4175 240.456 37.2011C240.98 36.9846 241.428 36.6174 241.744 36.146C242.059 35.6747 242.227 35.1203 242.227 34.5531C242.224 33.7965 241.923 33.0716 241.389 32.5354C240.855 31.9992 240.132 31.6949 239.375 31.6883V31.6883Z" fill="#A4A9B9"/>
<path d="M245.755 110.302H244.817V105.735L220.372 62.4881V53.9187H221.31V62.2504L245.755 105.485V110.302Z" fill="#A4A9B9"/>
<path d="M220.849 54.1686C220.106 54.1686 219.381 53.9485 218.764 53.5362C218.146 53.1238 217.665 52.5376 217.381 51.8519C217.097 51.1661 217.023 50.4115 217.168 49.6834C217.313 48.9554 217.67 48.2867 218.195 47.7618C218.72 47.237 219.389 46.8795 220.117 46.7347C220.845 46.5899 221.599 46.6642 222.285 46.9483C222.971 47.2323 223.557 47.7134 223.969 48.3306C224.382 48.9477 224.602 49.6733 224.602 50.4156C224.602 51.411 224.206 52.3656 223.503 53.0694C222.799 53.7732 221.844 54.1686 220.849 54.1686ZM220.849 47.5133C220.279 47.5034 219.718 47.6639 219.24 47.9742C218.761 48.2846 218.386 48.7307 218.163 49.2555C217.94 49.7802 217.878 50.3597 217.986 50.9197C218.094 51.4797 218.366 51.9947 218.769 52.3989C219.171 52.8031 219.685 53.0779 220.244 53.1883C220.804 53.2987 221.384 53.2396 221.909 53.0185C222.435 52.7974 222.883 52.4245 223.195 51.9474C223.508 51.4703 223.671 50.9108 223.663 50.3406C223.651 49.5969 223.35 48.887 222.826 48.3599C222.301 47.8328 221.592 47.5294 220.849 47.5133V47.5133Z" fill="#A4A9B9"/>
<path d="M383.466 309.95H151.429V289.934H383.466V309.95ZM152.68 308.699H382.215V291.185H152.68V308.699Z" fill="#A4A9B9"/>
<path d="M291.754 294.901H157.483V304.972H291.754V294.901Z" fill="#FFD96C"/>
<path opacity="0.2" d="M171.983 304.984H165.115L157.483 294.901H164.364L171.983 304.984Z" fill="white"/>
<path opacity="0.2" d="M186.484 304.984H179.616L171.984 294.901H178.865L186.484 304.984Z" fill="white"/>
<path opacity="0.2" d="M200.982 304.984H194.114L186.482 294.901H193.363L200.982 304.984Z" fill="white"/>
<path opacity="0.2" d="M215.482 304.984H208.614L200.982 294.901H207.863L215.482 304.984Z" fill="white"/>
<path opacity="0.2" d="M229.981 304.984H223.113L215.481 294.901H222.362L229.981 304.984Z" fill="white"/>
<path opacity="0.2" d="M244.48 304.984H237.612L229.98 294.901H236.861L244.48 304.984Z" fill="white"/>
<path opacity="0.2" d="M258.98 304.984H252.112L244.48 294.901H251.361L258.98 304.984Z" fill="white"/>
<path opacity="0.2" d="M273.478 304.984H266.61L258.979 294.901H265.859L273.478 304.984Z" fill="white"/>
<path opacity="0.2" d="M287.977 304.984H281.109L273.478 294.901H280.358L287.977 304.984Z" fill="white"/>
<path opacity="0.2" d="M291.767 294.901V299.905L287.977 294.901H291.767Z" fill="white"/>
<path d="M246.382 283.028C245.519 283.028 244.692 282.686 244.082 282.076C243.472 281.466 243.129 280.638 243.129 279.776V275.772C243.129 275.691 243.145 275.61 243.177 275.535C243.208 275.46 243.255 275.392 243.313 275.335C243.371 275.277 243.44 275.233 243.516 275.202C243.592 275.172 243.673 275.158 243.754 275.159C243.836 275.158 243.917 275.172 243.993 275.202C244.069 275.233 244.138 275.277 244.196 275.335C244.254 275.392 244.3 275.46 244.332 275.535C244.364 275.61 244.38 275.691 244.38 275.772V279.788C244.42 280.293 244.649 280.765 245.021 281.109C245.393 281.453 245.881 281.644 246.388 281.644C246.895 281.644 247.383 281.453 247.755 281.109C248.127 280.765 248.356 280.293 248.396 279.788V275.772C248.396 275.607 248.462 275.447 248.579 275.33C248.696 275.213 248.855 275.147 249.021 275.147C249.187 275.147 249.346 275.213 249.463 275.33C249.581 275.447 249.647 275.607 249.647 275.772V279.788C249.645 280.215 249.559 280.638 249.394 281.032C249.229 281.426 248.988 281.784 248.685 282.084C248.382 282.385 248.022 282.624 247.627 282.786C247.232 282.947 246.809 283.03 246.382 283.028V283.028Z" fill="#A4A9B9"/>
<path d="M254.938 279.975H253.55V282.415C253.55 282.581 253.484 282.74 253.367 282.857C253.249 282.975 253.09 283.04 252.924 283.04C252.758 283.04 252.599 282.975 252.482 282.857C252.365 282.74 252.299 282.581 252.299 282.415V275.772C252.299 275.691 252.315 275.61 252.347 275.535C252.378 275.459 252.425 275.391 252.483 275.334C252.541 275.277 252.61 275.232 252.686 275.202C252.762 275.172 252.843 275.157 252.924 275.159H254.938C255.269 275.135 255.601 275.18 255.914 275.29C256.227 275.4 256.514 275.574 256.757 275.8C257 276.026 257.193 276.299 257.326 276.603C257.458 276.907 257.527 277.236 257.527 277.567C257.527 277.899 257.458 278.227 257.326 278.531C257.193 278.835 257 279.109 256.757 279.335C256.514 279.561 256.227 279.734 255.914 279.845C255.601 279.955 255.269 279.999 254.938 279.975V279.975ZM253.55 278.724H254.938C255.247 278.724 255.543 278.602 255.761 278.384C255.979 278.166 256.102 277.87 256.102 277.561C256.102 277.252 255.979 276.957 255.761 276.738C255.543 276.52 255.247 276.398 254.938 276.398H253.55V278.724Z" fill="#A4A9B9"/>
<path d="M258.854 282.415V275.772C258.852 275.691 258.867 275.611 258.897 275.536C258.927 275.461 258.972 275.392 259.029 275.335C259.087 275.278 259.155 275.233 259.23 275.203C259.305 275.172 259.386 275.158 259.467 275.159H260.793C261.838 275.159 262.84 275.574 263.579 276.314C264.318 277.053 264.733 278.055 264.733 279.1C264.733 280.145 264.318 281.147 263.579 281.886C262.84 282.625 261.838 283.041 260.793 283.041H259.467C259.385 283.041 259.304 283.024 259.229 282.993C259.154 282.961 259.086 282.915 259.029 282.857C258.972 282.798 258.927 282.729 258.897 282.654C258.867 282.578 258.852 282.497 258.854 282.415V282.415ZM260.105 281.79H260.793C261.476 281.743 262.116 281.439 262.584 280.938C263.051 280.438 263.311 279.779 263.311 279.094C263.311 278.409 263.051 277.75 262.584 277.249C262.116 276.749 261.476 276.444 260.793 276.398H260.105V281.79Z" fill="#A4A9B9"/>
<path d="M270.238 281.177H267.448L266.898 282.64C266.851 282.758 266.77 282.859 266.665 282.93C266.56 283.001 266.437 283.04 266.31 283.041C266.24 283.054 266.168 283.054 266.097 283.041C265.942 282.979 265.817 282.86 265.747 282.709C265.678 282.558 265.668 282.385 265.722 282.227L268.224 275.597C268.273 275.479 268.357 275.377 268.464 275.306C268.57 275.235 268.696 275.197 268.824 275.197C268.953 275.195 269.08 275.233 269.187 275.304C269.294 275.375 269.377 275.478 269.425 275.597L271.927 282.227C271.98 282.385 271.971 282.558 271.901 282.709C271.832 282.86 271.706 282.979 271.552 283.041C271.481 283.054 271.409 283.054 271.339 283.041C271.213 283.043 271.09 283.005 270.987 282.933C270.884 282.861 270.805 282.759 270.763 282.64L270.238 281.177ZM269.775 279.926L268.862 277.511L267.949 279.926H269.775Z" fill="#A4A9B9"/>
<path d="M277.18 276.398H275.391V282.415C275.391 282.581 275.325 282.74 275.208 282.857C275.091 282.975 274.932 283.041 274.766 283.041C274.6 283.041 274.441 282.975 274.323 282.857C274.206 282.74 274.14 282.581 274.14 282.415V276.398H272.364C272.198 276.398 272.039 276.332 271.921 276.215C271.804 276.097 271.738 275.938 271.738 275.772C271.738 275.691 271.755 275.61 271.786 275.535C271.818 275.46 271.864 275.391 271.922 275.334C271.98 275.277 272.05 275.232 272.125 275.202C272.201 275.172 272.282 275.158 272.364 275.159H277.168C277.249 275.158 277.33 275.172 277.406 275.202C277.482 275.232 277.551 275.277 277.609 275.334C277.667 275.391 277.714 275.46 277.745 275.535C277.777 275.61 277.793 275.691 277.793 275.772C277.79 275.935 277.725 276.091 277.611 276.207C277.497 276.323 277.343 276.391 277.18 276.398V276.398Z" fill="#A4A9B9"/>
<path d="M279.658 282.415V275.772C279.657 275.691 279.671 275.611 279.702 275.536C279.732 275.461 279.777 275.392 279.834 275.335C279.891 275.278 279.96 275.233 280.035 275.203C280.11 275.172 280.19 275.158 280.271 275.159H283.962C284.124 275.159 284.28 275.224 284.395 275.339C284.51 275.454 284.575 275.61 284.575 275.772C284.575 275.936 284.511 276.093 284.396 276.21C284.281 276.327 284.126 276.395 283.962 276.398H280.909V278.462H283.536C283.699 278.468 283.853 278.537 283.967 278.653C284.081 278.769 284.146 278.925 284.149 279.087C284.151 279.169 284.136 279.25 284.106 279.326C284.076 279.402 284.031 279.471 283.974 279.529C283.917 279.587 283.849 279.634 283.774 279.665C283.699 279.697 283.618 279.713 283.536 279.713H280.909V281.777H283.962C284.126 281.78 284.281 281.848 284.396 281.965C284.511 282.082 284.575 282.239 284.575 282.403C284.572 282.565 284.507 282.721 284.393 282.837C284.279 282.953 284.125 283.022 283.962 283.028H280.271C280.11 283.025 279.956 282.959 279.841 282.845C279.727 282.731 279.662 282.577 279.658 282.415V282.415Z" fill="#A4A9B9"/>
<path d="M286.913 281.439C287.136 281.439 287.349 281.528 287.506 281.685C287.663 281.842 287.752 282.055 287.752 282.278C287.752 282.5 287.663 282.713 287.506 282.87C287.349 283.027 287.136 283.116 286.913 283.116C286.691 283.116 286.478 283.027 286.321 282.87C286.163 282.713 286.075 282.5 286.075 282.278C286.075 282.055 286.163 281.842 286.321 281.685C286.478 281.528 286.691 281.439 286.913 281.439Z" fill="#A4A9B9"/>
<path d="M289.503 281.439C289.726 281.439 289.939 281.528 290.096 281.685C290.253 281.842 290.341 282.055 290.341 282.278C290.341 282.5 290.253 282.713 290.096 282.87C289.939 283.027 289.726 283.116 289.503 283.116C289.281 283.116 289.068 283.027 288.911 282.87C288.753 282.713 288.665 282.5 288.665 282.278C288.665 282.055 288.753 281.842 288.911 281.685C289.068 281.528 289.281 281.439 289.503 281.439Z" fill="#A4A9B9"/>
<path d="M292.093 281.439C292.315 281.439 292.529 281.528 292.686 281.685C292.843 281.842 292.931 282.055 292.931 282.278C292.931 282.5 292.843 282.713 292.686 282.87C292.529 283.027 292.315 283.116 292.093 283.116C291.871 283.116 291.658 283.027 291.5 282.87C291.343 282.713 291.255 282.5 291.255 282.278C291.255 282.055 291.343 281.842 291.5 281.685C291.658 281.528 291.871 281.439 292.093 281.439V281.439Z" fill="#A4A9B9"/>
</svg>
