<svg width="131" height="119" viewBox="0 0 131 119" fill="none" xmlns="http://www.w3.org/2000/svg">
<path opacity="0.4" d="M78.9177 75H42.0823V101.112H33L60.4831 119L88 101.112H78.9177V75Z" fill="#EBF2FF"/>
<path opacity="0.8" d="M130.438 62.1874C130.428 58.2939 128.878 54.5624 126.125 51.8092C123.371 49.0561 119.64 47.5053 115.746 47.4963C114.318 47.5007 112.898 47.7201 111.534 48.147C111.753 46.6499 111.867 45.1395 111.877 43.6266C111.877 39.5404 111.071 35.4941 109.507 31.7193C107.942 27.9446 105.648 24.5152 102.757 21.6274C99.8662 18.7395 96.4343 16.4499 92.6578 14.8892C88.8813 13.3286 84.8342 12.5276 80.7479 12.5321C78.83 12.5285 76.9157 12.7005 75.0291 13.0458C71.9637 8.01324 67.3463 4.11269 61.8722 1.93144C56.3981 -0.249808 50.3635 -0.593708 44.6771 0.951526C38.9906 2.49676 33.96 5.84749 30.3427 10.4992C26.7254 15.151 24.7172 20.8519 24.6204 26.7438H24.1409C17.6575 26.9836 11.5195 29.7277 7.01747 34.3993C2.51541 39.071 0 45.3062 0 51.794C0 58.2819 2.51541 64.5171 7.01747 69.1887C11.5195 73.8604 17.6575 76.6045 24.1409 76.8443H116.157C119.976 76.7374 123.603 75.1472 126.269 72.411C128.935 69.6747 130.43 66.0077 130.438 62.1874Z" fill="#F2F7FF"/>
</svg>
