<svg width="117" height="69" viewBox="0 0 117 69" fill="none" xmlns="http://www.w3.org/2000/svg">
<path opacity="0.8" d="M116.364 55.0622C116.366 53.3517 116.031 51.6574 115.378 50.0766C114.724 48.4958 113.765 47.0594 112.556 45.8499C111.346 44.6403 109.91 43.6814 108.329 43.028C106.748 42.3746 105.054 42.0395 103.344 42.0421C102.078 42.0444 100.82 42.2279 99.6069 42.587C99.7982 41.2983 99.8958 39.9974 99.8988 38.6946C99.8961 34.6459 99.002 30.6474 97.28 26.9832C95.5579 23.319 93.0502 20.0788 89.9348 17.4929C86.8195 14.9071 83.173 13.0388 79.2543 12.021C75.3356 11.0031 71.2409 10.8605 67.2609 11.6034C64.5507 7.12825 60.4564 3.65776 55.5977 1.71723C50.739 -0.223299 45.3805 -0.528239 40.333 0.848541C35.2856 2.22532 30.824 5.20888 27.6235 9.34767C24.4231 13.4865 22.658 18.5552 22.5954 23.7867H22.2062C16.3168 23.7867 10.6685 26.1262 6.50401 30.2907C2.33953 34.4552 0 40.1034 0 45.9929C0 51.8823 2.33953 57.5306 6.50401 61.6951C10.6685 65.8595 16.3168 68.1991 22.2062 68.1991H103.713C107.122 68.1024 110.357 66.6721 112.723 64.2155C115.088 61.759 116.396 58.4724 116.364 55.0622Z" fill="#F5F9FF"/>
</svg>
