<svg width="102" height="102" viewBox="0 0 102 102" fill="none" xmlns="http://www.w3.org/2000/svg">
<path d="M59.3118 102H43.9732L43.2428 92.7482C37.7974 91.8519 32.5894 89.8644 27.9313 86.905L20.8031 93.0052L9.98224 82.1843L15.8661 75.3131C12.6613 70.7565 10.4241 65.5915 9.29241 60.1369L0 59.42V44.0679L9.17068 43.3375C10.2107 37.9734 12.3074 32.8697 15.3386 28.3236L8.99483 20.9113L19.8157 10.0904L27.228 16.3801C31.6313 13.4694 36.5544 11.4349 41.7279 10.388L42.5395 0H57.878L58.6896 10.3745C63.6932 11.3917 68.4636 13.332 72.7567 16.096L81.0482 9.00836L91.869 19.8292L84.9166 27.9448C87.7521 32.1225 89.7968 36.7851 90.9492 41.7008L101.878 42.553V57.9186L91.4227 58.7166C90.5301 63.7917 88.695 68.6547 86.0122 73.0542L92.8699 81.0617L82.0491 91.8825L74.5016 85.4577C70.1739 88.5957 65.2765 90.8606 60.0828 92.126L59.3118 102ZM45.2176 100.647H58.0674L58.8113 91.0574L59.2983 90.9357C64.6735 89.7384 69.7405 87.4352 74.1769 84.1727L74.6098 83.8616L82.0085 90.1647L91.098 81.0887L84.4026 73.2707L84.6731 72.8514C87.502 68.34 89.4013 63.3091 90.2594 58.0538L90.3406 57.5263L100.607 56.7418V43.8921L89.9213 43.0534L89.8131 42.5665C88.6894 37.4705 86.5753 32.645 83.5911 28.3641L83.2935 27.9313L90.0565 19.978L80.967 10.8885L72.8514 17.8274L72.4321 17.5433C68.0313 14.6381 63.0985 12.6337 57.9186 11.6459L57.4046 11.5512L56.6201 1.39318H43.7703L42.9858 11.5512L42.4718 11.6459C37.1438 12.674 32.0812 14.7773 27.5932 17.8274L27.4173 17.9355H26.971L26.6869 17.7327L19.9239 11.8894L10.8344 20.9789L17.0428 28.2289L16.7453 28.6617C13.5612 33.2986 11.3989 38.5592 10.4015 44.095L10.3069 44.6089L1.35261 45.3123V58.1621L10.4151 58.8654L10.5098 59.3794C11.6151 65 13.9221 70.3153 17.2728 74.9614L17.5704 75.3943L11.8083 82.0896L20.8978 91.1656L27.8366 85.2277L28.256 85.4982C33.0133 88.6048 38.3826 90.6529 44.0003 91.5038L44.5278 91.585L45.2176 100.647ZM50.2087 71.3635C46.2688 71.3608 42.418 70.19 39.1433 67.9991C35.8686 65.8083 33.317 62.6956 31.8111 59.0548C30.3052 55.4139 29.9126 51.4083 30.6829 47.5444C31.4532 43.6804 33.3518 40.1316 36.1387 37.3465C38.9257 34.5615 42.4758 32.6652 46.3403 31.8976C50.2048 31.1299 54.2101 31.5252 57.8499 33.0336C61.4898 34.542 64.6007 37.0957 66.7893 40.3719C68.978 43.6481 70.1462 47.4996 70.1462 51.4396C70.139 56.7239 68.0357 61.7895 64.2979 65.5248C60.5601 69.2601 55.493 71.3599 50.2087 71.3635ZM50.2087 32.8683C46.5363 32.871 42.947 33.9625 39.8948 36.0047C36.8425 38.047 34.4643 40.9484 33.0608 44.3421C31.6572 47.7357 31.2914 51.4694 32.0095 55.071C32.7276 58.6726 34.4974 61.9804 37.0952 64.5763C39.693 67.1721 43.0021 68.9395 46.6042 69.655C50.2063 70.3705 53.9396 70.002 57.3323 68.5959C60.725 67.1899 63.6246 64.8096 65.6647 61.7558C67.7047 58.7021 68.7936 55.1121 68.7936 51.4396C68.7864 46.514 66.8256 41.7925 63.3415 38.3109C59.8573 34.8292 55.1343 32.8719 50.2087 32.8683Z" fill="#E3D6FF"/>
</svg>
