<svg width="48" height="48" viewBox="0 0 48 48" fill="none" xmlns="http://www.w3.org/2000/svg">
<g clip-path="url(#clip0_339_22159)">
<path d="M23.9996 47.9999C37.2548 47.9999 47.9992 37.2556 47.9992 24.0003C47.9992 10.745 37.2548 0.000732422 23.9996 0.000732422C10.7443 0.000732422 0 10.745 0 24.0003C0 37.2556 10.7443 47.9999 23.9996 47.9999Z" fill="#F6F9FB"/>
<path d="M19.5768 14.5934L17.8398 16.5509L25.6847 23.5212L39.159 6.26405L37.0965 4.65308L25.3397 19.7098L19.5768 14.5934Z" fill="white"/>
<path d="M20.5736 13.4731L19.4516 12.4772L18.4556 13.5991L16.7186 15.5566L15.7227 16.6786L16.8431 17.6746L24.688 24.6434L25.8835 25.7054L26.8675 24.4454L40.3402 7.18825L41.2627 6.00627L40.0807 5.08378L38.0183 3.47281L36.8363 2.54883L35.9123 3.73081L25.1395 17.5291L20.5736 13.4731Z" fill="#FBBC05"/>
<path d="M42.5523 34.1548C39.2899 35.7792 28.7946 39.0297 23.8297 34.1548C23.8297 34.1548 35.3194 35.1553 35.7439 34.1548C36.1699 33.1543 34.4675 31.5298 25.5321 29.6549C16.5968 27.7799 10.2129 29.6549 10.2129 29.6549V41.6546C10.2129 41.6546 15.8858 38.7792 18.7237 40.1547C21.5617 41.5301 29.3616 43.5296 34.043 43.1546C38.7244 42.7796 46.2408 36.7797 47.6597 34.7803C49.0757 32.7793 45.8133 32.5288 42.5523 34.1548Z" fill="#ADADAD"/>
<path d="M6.80838 29.6548H0V43.1545H6.80838V29.6548Z" fill="#FBBC05"/>
</g>
<defs>
<clipPath id="clip0_339_22159">
<rect width="48" height="48" fill="white"/>
</clipPath>
</defs>
</svg>
