<svg width="77" height="72" viewBox="0 0 77 72" fill="none" xmlns="http://www.w3.org/2000/svg">
<path d="M38.9552 71.0464C59.9658 71.0464 76.9983 61.6003 76.9983 49.948C76.9983 38.2956 59.9658 28.8495 38.9552 28.8495C17.9446 28.8495 0.912109 38.2956 0.912109 49.948C0.912109 61.6003 17.9446 71.0464 38.9552 71.0464Z" fill="#F5F5F5"/>
<path d="M36.5753 67.2732L71.217 48.0622C71.6257 47.8355 71.6257 47.4675 71.217 47.2408L42.8292 31.4959C42.5997 31.384 42.346 31.3257 42.0887 31.3257C41.8314 31.3257 41.5777 31.384 41.3482 31.4959L6.70821 50.7151C6.29778 50.9418 6.29778 51.3097 6.70821 51.5364L35.096 67.2814C35.326 67.3917 35.5797 67.4484 35.8367 67.447C36.0937 67.4455 36.3467 67.386 36.5753 67.2732V67.2732Z" fill="#E0E0E0"/>
<path d="M9.15898 45.0443C9.0444 43.676 8.39285 41.4304 6.73575 39.295C4.96408 37.0067 2.8025 35.5743 1.19842 36.2445C-0.29622 36.8687 0.269827 38.8498 2.84354 40.8046C4.64771 42.1778 6.52028 43.9618 7.52582 46.1186L9.15898 48.8569V45.0443Z" fill="#FFE393"/>
<g opacity="0.2">
<path d="M9.16093 45.0442C9.04636 43.6758 8.3948 41.4303 6.73771 39.2948C4.96603 37.0066 2.80445 35.5742 1.20037 36.2444C-0.294267 36.8686 0.27178 38.8497 2.8455 40.8044C4.64966 42.1777 6.52223 43.9617 7.52778 46.1185L9.16093 48.8568V45.0442Z" fill="black"/>
</g>
<path d="M9.0141 46.0872C8.99319 46.0874 8.97275 46.0813 8.95559 46.0699C8.93844 46.0584 8.92542 46.0421 8.91833 46.0232C7.48868 42.2303 4.4977 38.3913 1.97186 37.0953C1.94829 37.0831 1.93063 37.0625 1.92264 37.0379C1.91465 37.0134 1.91697 36.9868 1.92911 36.9639C1.94215 36.9411 1.96389 36.9241 1.98973 36.9164C2.01557 36.9088 2.0435 36.9111 2.06763 36.9228C4.63279 38.2369 7.65969 42.1235 9.10815 45.9575C9.1128 45.9694 9.11493 45.9822 9.11443 45.9949C9.11393 46.0077 9.11081 46.0202 9.10525 46.0318C9.09969 46.0434 9.09179 46.0539 9.08202 46.0625C9.07225 46.0712 9.06079 46.0779 9.0483 46.0823C9.03736 46.0861 9.02573 46.0878 9.0141 46.0872Z" fill="white"/>
<path d="M9.78413 51.5656C8.9552 52.1912 7.96982 52.5968 6.92653 52.7418C5.12579 53.0145 4.33059 52.1882 4.33059 52.1882C4.33059 52.1882 5.04028 50.5652 6.06293 50.1102C6.06293 50.1102 4.32888 50.4503 2.93856 51.3422C2.93856 51.3422 1.83896 51.3586 1.39946 49.7455C1.39946 49.7455 2.05101 48.7764 4.23653 48.2524C4.23653 48.2524 2.90606 47.9238 0.987321 48.4002C0.843672 48.4544 0.231452 46.3715 0.0450502 45.4105C-0.141352 44.4496 0.262235 44.4578 1.04204 44.2607C1.82186 44.0636 4.47937 43.9321 4.9753 44.3461C5.47123 44.7601 5.71236 46.1678 5.71236 46.1678C5.80184 45.6058 5.8185 45.0353 5.76195 44.4693C6.42556 44.4375 7.08997 44.5141 7.72686 44.696C8.60415 44.99 8.54772 45.4007 8.54772 46.0101C8.55122 46.6273 8.46311 47.2418 8.28607 47.8351C8.28607 47.8351 8.89145 47.3308 8.91197 45.4763C8.91197 45.4763 10.0971 46.4504 10.5725 47.2832C11.0479 48.116 10.9265 50.3172 9.78413 51.5656Z" fill="#FFE393"/>
<path d="M9.78478 51.6627C9.766 51.6614 9.74782 51.6558 9.73175 51.6464C9.71569 51.6369 9.70221 51.6239 9.69243 51.6085C7.61978 48.7437 2.83831 45.3401 0.904175 44.9787C0.877944 44.9731 0.854949 44.9581 0.839977 44.9367C0.825005 44.9152 0.819211 44.8891 0.8238 44.8637C0.829183 44.8386 0.844506 44.8165 0.866528 44.8021C0.88855 44.7877 0.915543 44.7821 0.941798 44.7865C2.90842 45.1544 7.83183 48.4923 9.87541 51.5214C9.88197 51.5328 9.88593 51.5454 9.88704 51.5584C9.88815 51.5713 9.88639 51.5844 9.88186 51.5966C9.87734 51.6089 9.87015 51.6201 9.86079 51.6295C9.85142 51.6389 9.84009 51.6463 9.82753 51.6512C9.81439 51.6581 9.79976 51.6621 9.78478 51.6627V51.6627Z" fill="white"/>
<path d="M66.1843 43.7024L64.6948 42.8811C64.6948 42.8811 63.98 39.1029 64.5153 35.8472C65.266 31.2773 68.5049 29.7003 69.6815 30.1553C70.8581 30.6103 71.1351 31.9623 69.0094 34.6037C67.7559 36.1675 66.1484 39.461 66.1843 43.7024Z" fill="#FFE393"/>
<g opacity="0.2">
<path d="M66.1863 43.7025L64.6968 42.8812C64.6968 42.8812 63.982 39.1031 64.5172 35.8473C65.268 31.2774 68.5069 29.7004 69.6835 30.1554C70.86 30.6105 71.1371 31.9624 69.0114 34.6038C67.7579 36.1676 66.1504 39.4612 66.1863 43.7025Z" fill="black"/>
</g>
<path d="M65.6415 41.8875H65.6569C65.6846 41.8835 65.7096 41.8692 65.7265 41.8477C65.7434 41.8262 65.751 41.7993 65.7475 41.7726C65.1319 37.4934 66.9224 32.8052 68.9352 30.9162C68.9553 30.8972 68.9669 30.8713 68.9672 30.8442C68.9675 30.8171 68.9566 30.791 68.9369 30.7716C68.9171 30.7522 68.8902 30.7412 68.862 30.7409C68.8338 30.7405 68.8066 30.751 68.7864 30.77C66.7343 32.6935 64.9113 37.4573 65.5372 41.8005C65.5405 41.8247 65.553 41.847 65.5722 41.863C65.5914 41.879 65.616 41.8878 65.6415 41.8875V41.8875Z" fill="white"/>
<path d="M70.3179 45.9953C70.5522 46.1251 71.0379 45.8426 71.2226 45.7227C71.5407 45.5148 71.798 45.232 71.9699 44.9013C72.1622 44.5252 72.228 44.101 72.158 43.6874C72.1196 43.469 72.0659 43.2533 71.9973 43.0418C71.9357 42.8332 71.8724 42.6246 71.8091 42.4143C71.7332 42.2125 71.7012 41.9978 71.7151 41.7835C71.7715 41.3548 72.1683 41.0542 72.5274 40.7979C72.9258 40.5121 73.3397 40.1409 73.338 39.6169C73.3092 39.2166 73.1425 38.8369 72.8643 38.5376C72.6078 38.2239 72.3034 37.9479 72.0708 37.6194C71.8879 37.3891 71.7925 37.1057 71.8006 36.8161C71.826 36.6393 71.8876 36.469 71.9819 36.3151C72.1717 35.9866 72.4231 35.6712 72.553 35.3114C72.683 34.9517 72.6659 34.5016 72.3718 34.2421C72.1306 34.0302 71.7732 34.0006 71.4483 34.0219C71.1448 34.0584 70.8531 34.1576 70.5933 34.3127C69.7382 34.7677 69.2542 35.7385 68.3479 36.0884C68.0059 36.2248 67.616 36.2527 67.2534 36.3463C66.8909 36.44 66.5181 36.6174 66.3488 36.941C66.017 37.5783 66.6344 38.3635 66.4001 39.0403C66.1931 39.6382 65.5878 39.8616 65.2475 40.407C65.1089 40.6452 65.0532 40.9198 65.0884 41.1905C65.1173 41.6488 65.2332 42.098 65.4304 42.5162C65.6523 42.9309 65.9055 43.3295 66.188 43.7088C66.1983 43.7153 70.2803 45.9756 70.3179 45.9953Z" fill="#FFE393"/>
<path d="M67.9005 44.7586C67.9146 44.7582 67.9285 44.7551 67.9414 44.7495C67.9544 44.7439 67.966 44.7359 67.9757 44.726C67.9854 44.7161 67.9929 44.7044 67.9979 44.6917C68.0029 44.679 68.0052 44.6654 68.0048 44.6519C67.8338 40.6027 69.8158 36.1313 71.254 34.832C71.2746 34.8135 71.2868 34.7878 71.2877 34.7607C71.2887 34.7336 71.2784 34.7072 71.2591 34.6874C71.2399 34.6676 71.2132 34.656 71.1849 34.655C71.1567 34.6541 71.1293 34.664 71.1086 34.6825C69.6345 36.0081 67.608 40.5534 67.7842 44.6601C67.7848 44.674 67.7884 44.6876 67.7946 44.7001C67.8009 44.7127 67.8097 44.7239 67.8205 44.7331C67.8314 44.7423 67.8441 44.7493 67.8578 44.7537C67.8715 44.7581 67.886 44.7597 67.9005 44.7586V44.7586Z" fill="white"/>
<path d="M68.5289 39.9733C68.5391 39.9749 68.5495 39.9749 68.5597 39.9733C69.5582 39.7065 70.5841 39.5457 71.6191 39.4937C71.6471 39.492 71.6733 39.4799 71.6921 39.46C71.7109 39.44 71.721 39.4138 71.72 39.3869C71.7201 39.3733 71.7172 39.3598 71.7115 39.3474C71.7058 39.3349 71.6974 39.3238 71.6869 39.3146C71.6764 39.3055 71.6641 39.2986 71.6506 39.2943C71.6372 39.2901 71.6229 39.2886 71.6089 39.29C70.5561 39.3411 69.5124 39.503 68.4964 39.7729C68.4698 39.7809 68.4474 39.7986 68.4343 39.8223C68.4212 39.846 68.4183 39.8737 68.4263 39.8994C68.4324 39.921 68.4458 39.9399 68.4644 39.9533C68.483 39.9667 68.5057 39.9738 68.5289 39.9733V39.9733Z" fill="white"/>
<path d="M9.58984 51.0225C9.6113 51.3039 9.70144 51.5765 9.85296 51.8182C10.0045 52.0599 10.2131 52.264 10.462 52.4138L34.9166 65.9724C35.1871 66.1044 35.4862 66.1732 35.7896 66.1732C36.093 66.1732 36.3921 66.1044 36.6626 65.9724L70.1089 47.4201C70.3724 47.2864 70.5929 47.0862 70.7467 46.841C70.9005 46.5958 70.9817 46.315 70.9817 46.0288C70.9817 45.7426 70.9005 45.4617 70.7467 45.2166C70.5929 44.9714 70.3724 44.7712 70.1089 44.6375L45.6544 31.0772C45.3839 30.946 45.0852 30.8776 44.7822 30.8776C44.4792 30.8776 44.1805 30.946 43.91 31.0772L10.462 49.6295C10.2129 49.7795 10.0041 49.9839 9.85259 50.2259C9.70106 50.4679 9.61104 50.7408 9.58984 51.0225V51.0225Z" fill="#37474F"/>
<path d="M35.7844 64.3589V66.1658C35.4806 66.1722 35.1801 66.1032 34.9122 65.9654L10.4577 52.4068C10.2018 52.2773 9.98637 52.0848 9.83333 51.8491C9.6803 51.6134 9.59517 51.3429 9.58665 51.0652C9.57812 50.7876 9.64651 50.5127 9.78482 50.2687C9.92314 50.0248 10.1264 49.8205 10.3739 49.6767C9.98224 49.9461 10.013 50.3338 10.4628 50.5917L34.9174 64.1502C35.1833 64.2893 35.4816 64.3611 35.7844 64.3589V64.3589Z" fill="#263238"/>
<path d="M8.77031 49.6605C8.52758 49.5014 8.32704 49.2898 8.18479 49.0427C8.04254 48.7957 7.96253 48.5201 7.95117 48.238V20.2124C7.9679 19.9216 8.05554 19.6387 8.20704 19.3865C8.35854 19.1342 8.56965 18.9197 8.82333 18.7603L42.2765 0.207996C42.5364 0.0765651 42.8248 0.00543379 43.1185 0.000299241C43.4122 -0.0048353 43.7031 0.0561696 43.9678 0.178428C44.2105 0.337594 44.4111 0.54918 44.5533 0.79622C44.6956 1.04326 44.7756 1.31888 44.7869 1.60098V29.6265C44.7704 29.9171 44.6828 30.1999 44.5312 30.4518C44.3797 30.7038 44.1685 30.918 43.9148 31.077L10.4616 49.6293C10.2018 49.761 9.91352 49.8324 9.61982 49.8378C9.32612 49.8432 9.03519 49.7825 8.77031 49.6605V49.6605Z" fill="#455A64"/>
<path d="M10.3573 49.6771C10.1069 49.7851 9.83494 49.8391 9.56049 49.8354C9.28604 49.8318 9.01576 49.7704 8.7686 49.6557C8.52574 49.4972 8.32517 49.286 8.18315 49.0391C8.04113 48.7922 7.96166 48.5167 7.95117 48.2348V20.2126C7.96116 19.9223 8.04893 19.6394 8.20598 19.3912L9.84255 20.2963C9.68643 20.545 9.5982 20.8275 9.58604 21.1177V49.1465C9.58604 49.6426 9.92293 49.8644 10.3573 49.6771Z" fill="#263238"/>
<path d="M9.58984 21.1209V49.1465C9.58984 49.6803 9.97975 49.8972 10.462 49.6294L43.9118 31.0771C44.1655 30.9181 44.3767 30.704 44.5282 30.452C44.6797 30.2 44.7673 29.9172 44.7839 29.6267V1.6011C44.7839 1.06559 44.3923 0.850402 43.9118 1.11651L10.462 19.6688C10.2079 19.8279 9.99654 20.0423 9.845 20.2946C9.69345 20.5469 9.60603 20.83 9.58984 21.1209V21.1209Z" fill="#37474F"/>
<path d="M10.4593 50.5987L34.9139 64.1573C35.1846 64.2885 35.4837 64.3569 35.7869 64.3569C36.0902 64.3569 36.3892 64.2885 36.6599 64.1573L70.1063 45.605C70.5868 45.3372 70.5868 44.9036 70.1063 44.6375L45.6517 31.0772C45.3813 30.946 45.0825 30.8776 44.7795 30.8776C44.4766 30.8776 44.1778 30.946 43.9074 31.0772L10.4593 49.6295C9.97709 49.8973 9.97709 50.3342 10.4593 50.5987Z" fill="#455A64"/>
<path d="M10.9295 21.2241L43.1822 3.34203C43.4712 3.17776 43.7055 3.31082 43.7055 3.63278V27.8933C43.6956 28.0677 43.643 28.2374 43.5521 28.3887C43.4612 28.5399 43.3345 28.6685 43.1822 28.764L10.9295 46.646C10.6405 46.8103 10.4062 46.6756 10.4062 46.3553V22.0947C10.4162 21.9203 10.4687 21.7506 10.5596 21.5994C10.6505 21.4481 10.7773 21.3196 10.9295 21.2241V21.2241Z" fill="#FFE393"/>
<path opacity="0.9" d="M10.9295 21.2241L43.1822 3.34203C43.4712 3.17776 43.7055 3.31082 43.7055 3.63278V27.8933C43.6956 28.0677 43.643 28.2374 43.5521 28.3887C43.4612 28.5399 43.3345 28.6685 43.1822 28.764L10.9295 46.646C10.6405 46.8103 10.4062 46.6756 10.4062 46.3553V22.0947C10.4162 21.9203 10.4687 21.7506 10.5596 21.5994C10.6505 21.4481 10.7773 21.3196 10.9295 21.2241V21.2241Z" fill="white"/>
<path d="M13.2993 49.8726L44.3498 32.6525C44.4847 32.586 44.6342 32.5514 44.7859 32.5514C44.9375 32.5514 45.087 32.586 45.2219 32.6525L46.8106 33.533C47.0518 33.666 47.0518 33.8829 46.8106 34.0159L15.755 51.2344C15.6195 51.2999 15.4699 51.3341 15.3181 51.3341C15.1663 51.3341 15.0167 51.2999 14.8812 51.2344L13.2993 50.3555C13.0565 50.2225 13.0565 50.0056 13.2993 49.8726Z" fill="#37474F"/>
<path d="M17.3916 52.1408L48.2112 35.057C48.3464 34.9915 48.4958 34.9573 48.6473 34.9573C48.7987 34.9573 48.9481 34.9915 49.0833 35.057L58.8515 40.4778C59.0926 40.6125 59.0926 40.8294 58.8515 40.9706L28.0695 58.0347C27.934 58.1003 27.7843 58.1344 27.6326 58.1344C27.4808 58.1344 27.3312 58.1003 27.1956 58.0347L17.3933 52.6385C17.1504 52.4907 17.1504 52.2755 17.3916 52.1408Z" fill="#263238"/>
<path d="M45.225 42.6696L46.198 42.1308C46.2391 42.1078 46.2357 42.0684 46.198 42.0437L45.0745 41.4212C45.0504 41.4093 45.0238 41.4032 44.9967 41.4032C44.9696 41.4032 44.943 41.4093 44.9189 41.4212L43.9407 41.9567C43.8997 41.9797 43.9014 42.0175 43.9407 42.0421L45.0642 42.6663C45.0887 42.6795 45.1162 42.6867 45.1442 42.6872C45.1722 42.6878 45.2 42.6818 45.225 42.6696V42.6696ZM43.3063 40.5341L42.3349 41.0729C42.2939 41.0959 42.2956 41.1337 42.3349 41.1583L43.4585 41.7826C43.4825 41.7944 43.5092 41.8005 43.5363 41.8005C43.5633 41.8005 43.59 41.7944 43.6141 41.7826L44.5871 41.2421C44.6282 41.2191 44.6247 41.1813 44.5871 41.1567L43.4636 40.5325C43.4397 40.5196 43.4129 40.5125 43.3855 40.5116C43.3582 40.5107 43.331 40.5162 43.3063 40.5276V40.5341ZM40.1665 42.2754L38.5197 43.187C38.4786 43.21 38.482 43.2495 38.5197 43.2741L39.6432 43.8967C39.6673 43.9085 39.694 43.9147 39.721 43.9147C39.7481 43.9147 39.7747 43.9085 39.7988 43.8967L41.4439 42.985C41.485 42.962 41.4833 42.9226 41.4439 42.8979L40.3187 42.2721C40.2953 42.2603 40.2694 42.2538 40.243 42.2533C40.2166 42.2527 40.1904 42.258 40.1665 42.2688V42.2754ZM41.8852 41.321L40.9138 41.8614C40.8728 41.8828 40.8745 41.9222 40.9138 41.9468L42.0373 42.5694C42.0614 42.5812 42.0881 42.5874 42.1152 42.5874C42.1422 42.5874 42.1689 42.5812 42.193 42.5694L43.166 42.0306C43.2071 42.0076 43.2036 41.9698 43.166 41.9452L42.0425 41.321C42.0187 41.3078 41.992 41.3004 41.9647 41.2993C41.9373 41.2981 41.91 41.3033 41.8852 41.3144V41.321ZM38.0716 43.4351L37.1003 43.9739C37.0575 43.9969 37.0609 44.0363 37.1003 44.0609L38.2238 44.6835C38.2479 44.6953 38.2746 44.7015 38.3016 44.7015C38.3287 44.7015 38.3553 44.6953 38.3794 44.6835L39.3508 44.1447C39.3918 44.1217 39.3901 44.0823 39.3508 44.0577L38.2272 43.4351C38.2031 43.4233 38.1765 43.4171 38.1494 43.4171C38.1224 43.4171 38.0957 43.4233 38.0716 43.4351V43.4351ZM36.6505 44.2236L35.6792 44.7624C35.6381 44.7854 35.6398 44.8231 35.6792 44.8478L36.8027 45.472C36.8268 45.4838 36.8535 45.49 36.8805 45.49C36.9076 45.49 36.9342 45.4838 36.9583 45.472L37.9297 44.9316C37.9724 44.9086 37.969 44.8708 37.9297 44.8461L36.8061 44.2236C36.7824 44.211 36.756 44.204 36.7289 44.2031C36.7019 44.2022 36.675 44.2076 36.6505 44.2186V44.2236ZM41.0728 46.7582L42.0442 46.2194C42.0869 46.1964 42.0835 46.157 42.0442 46.1323L40.9206 45.5098C40.8966 45.498 40.8699 45.4918 40.8428 45.4918C40.8158 45.4918 40.7891 45.498 40.765 45.5098L39.7937 46.0486C39.7526 46.0716 39.7544 46.111 39.7937 46.1356L40.9172 46.7582C40.9417 46.7693 40.9686 46.7746 40.9957 46.7737C41.0227 46.7729 41.0492 46.7659 41.0728 46.7533V46.7582ZM39.6517 47.5418L40.6248 47.003C40.6658 46.98 40.6624 46.9405 40.6248 46.9159L39.5013 46.2933C39.4772 46.2815 39.4505 46.2753 39.4235 46.2753C39.3964 46.2753 39.3697 46.2815 39.3456 46.2933L38.3743 46.8321C38.3333 46.8551 38.335 46.8929 38.3743 46.9175L39.4978 47.5418C39.5217 47.5533 39.5481 47.5593 39.5748 47.5593C39.6015 47.5593 39.6279 47.5533 39.6517 47.5418V47.5418ZM38.2306 48.3302L39.2037 47.7898C39.2447 47.7668 39.2413 47.729 39.2037 47.7044L38.0802 47.0802C38.0561 47.0683 38.0294 47.0622 38.0023 47.0622C37.9753 47.0622 37.9486 47.0683 37.9245 47.0802L36.9532 47.619C36.9122 47.642 36.9139 47.6797 36.9532 47.7044L38.0767 48.3286C38.1005 48.3404 38.1268 48.3467 38.1535 48.347C38.1802 48.3473 38.2066 48.3415 38.2306 48.3302V48.3302ZM36.8095 49.1171L37.7826 48.5783C37.8236 48.5553 37.8202 48.5175 37.7826 48.4929L36.6573 47.8686C36.6333 47.8568 36.6066 47.8507 36.5795 47.8507C36.5525 47.8507 36.5258 47.8568 36.5017 47.8686L35.5304 48.4042C35.4893 48.4272 35.4911 48.4666 35.5304 48.4912L36.6556 49.1138C36.6792 49.1259 36.7055 49.1324 36.7322 49.133C36.7589 49.1336 36.7854 49.1281 36.8095 49.1171V49.1171ZM43.8039 43.4564L44.7769 42.9176C44.818 42.8946 44.8146 42.8569 44.7769 42.8322L43.6517 42.208C43.6278 42.1965 43.6015 42.1904 43.5747 42.1904C43.548 42.1904 43.5217 42.1965 43.4978 42.208L42.5247 42.7485C42.4837 42.7714 42.4854 42.8092 42.5247 42.8339L43.65 43.4581C43.674 43.4694 43.7004 43.4751 43.7271 43.4748C43.7539 43.4745 43.7802 43.4682 43.8039 43.4564V43.4564ZM42.494 45.9648L44.6624 44.7624C44.7034 44.7394 44.7017 44.7016 44.6624 44.6769L41.9262 43.1624C41.9023 43.1508 41.876 43.1448 41.8492 43.1448C41.8225 43.1448 41.7962 43.1508 41.7723 43.1624L40.6505 43.785C40.6094 43.808 40.6111 43.8458 40.6505 43.8704L42.0955 44.672C42.14 44.6967 42.1417 44.7361 42.0955 44.7591L41.1994 45.2519C41.1566 45.2749 41.1601 45.3127 41.1994 45.3373L42.3229 45.9599C42.3485 45.975 42.3777 45.9835 42.4078 45.9843C42.4378 45.9852 42.4675 45.9785 42.494 45.9648V45.9648ZM35.2294 45.0055L34.2581 45.5459C34.217 45.5689 34.2187 45.6067 34.2581 45.6313L35.3816 46.2555C35.4057 46.2674 35.4324 46.2735 35.4594 46.2735C35.4865 46.2735 35.5131 46.2674 35.5372 46.2555L36.5103 45.7168C36.5513 45.6938 36.5479 45.656 36.5103 45.6313L35.3867 45.0071C35.3626 44.9948 35.3357 44.9882 35.3083 44.9879C35.2809 44.9876 35.2539 44.9936 35.2294 45.0055V45.0055ZM33.8083 45.794L32.837 46.3328C32.7959 46.3558 32.7976 46.3952 32.837 46.4198L33.9605 47.0424C33.9846 47.0542 34.0113 47.0604 34.0383 47.0604C34.0654 47.0604 34.092 47.0542 34.1161 47.0424L35.0892 46.5036C35.1302 46.4806 35.1268 46.4412 35.0892 46.4182L33.9656 45.794C33.9413 45.7819 33.9143 45.7755 33.887 45.7755C33.8596 45.7755 33.8326 45.7819 33.8083 45.794V45.794ZM26.7079 54.6299C26.732 54.6417 26.7587 54.6479 26.7857 54.6479C26.8128 54.6479 26.8395 54.6417 26.8635 54.6299L27.8366 54.0911C27.8776 54.0681 27.8742 54.0303 27.8366 54.0057L26.7131 53.3814C26.689 53.3696 26.6623 53.3635 26.6352 53.3635C26.6082 53.3635 26.5815 53.3696 26.5574 53.3814L25.5861 53.9202C25.5451 53.9432 25.5468 53.9827 25.5861 54.0073L26.7079 54.6299ZM22.4412 52.0985L21.4699 52.634C21.4288 52.657 21.4305 52.6948 21.4699 52.7194L22.5934 53.3437C22.6175 53.3555 22.6442 53.3616 22.6712 53.3616C22.6983 53.3616 22.7249 53.3555 22.749 53.3437L23.7204 52.8049C23.7631 52.7819 23.7597 52.7424 23.7204 52.7178L22.5968 52.0952C22.5725 52.0839 22.5457 52.0783 22.5186 52.0789C22.4915 52.0794 22.465 52.0862 22.4412 52.0985V52.0985ZM24.7293 53.9482C24.7532 53.9597 24.7796 53.9657 24.8063 53.9657C24.833 53.9657 24.8594 53.9597 24.8832 53.9482L25.8563 53.4094C25.8973 53.3864 25.8939 53.3486 25.8563 53.3239L24.7327 52.6997C24.7087 52.6879 24.682 52.6817 24.6549 52.6817C24.6279 52.6817 24.6012 52.6879 24.5771 52.6997L23.6058 53.2402C23.5647 53.2632 23.5665 53.3009 23.6058 53.3256L24.7293 53.9482ZM29.2167 55.1112L30.1897 54.5724C30.2308 54.5494 30.229 54.51 30.1897 54.4853L29.0645 53.8627C29.0406 53.8512 29.0142 53.8452 28.9875 53.8452C28.9608 53.8452 28.9344 53.8512 28.9105 53.8627L27.9375 54.4015C27.8965 54.4245 27.8982 54.464 27.9375 54.4886L29.0627 55.1112C29.0867 55.1225 29.1132 55.1282 29.1399 55.1279C29.1666 55.1276 29.1929 55.1213 29.2167 55.1095V55.1112ZM27.6416 55.8964C27.6655 55.9079 27.6919 55.9139 27.7186 55.9139C27.7453 55.9139 27.7717 55.9079 27.7956 55.8964L28.7686 55.3559C28.8097 55.3329 28.8079 55.2951 28.7686 55.2705L27.6434 54.6479C27.6195 54.6364 27.5931 54.6304 27.5664 54.6304C27.5397 54.6304 27.5133 54.6364 27.4894 54.6479L26.5164 55.1867C26.4753 55.2097 26.4771 55.2475 26.5164 55.2722L27.6416 55.8964ZM23.8623 51.3117L22.891 51.8505C22.8482 51.8735 22.8516 51.9129 22.891 51.9375L24.0145 52.5601C24.0386 52.5719 24.0653 52.5781 24.0923 52.5781C24.1194 52.5781 24.146 52.5719 24.1701 52.5601L25.1415 52.0213C25.1842 51.9983 25.1808 51.9605 25.1415 51.9359L24.0179 51.3117C23.994 51.2996 23.9674 51.2932 23.9403 51.2929C23.9133 51.2926 23.8865 51.2985 23.8623 51.31V51.3117ZM30.9678 47.3693L29.9948 47.9081C29.9537 47.9311 29.9554 47.9688 29.9948 47.9935L31.12 48.6177C31.1439 48.6293 31.1702 48.6353 31.197 48.6353C31.2237 48.6353 31.25 48.6293 31.2739 48.6177L32.247 48.0773C32.288 48.0543 32.2863 48.0165 32.247 47.9918L31.1217 47.3676C31.0971 47.3576 31.0703 47.3532 31.0435 47.3549C31.0168 47.3567 30.9909 47.3644 30.9678 47.3775V47.3693ZM25.2834 50.5199L24.3104 51.0604C24.2693 51.0833 24.2727 51.1211 24.3104 51.1458L25.4339 51.77C25.458 51.7818 25.4846 51.788 25.5117 51.788C25.5388 51.788 25.5654 51.7818 25.5895 51.77L26.5609 51.2312C26.6019 51.2082 26.6002 51.1704 26.5609 51.1458L25.4373 50.5216C25.4134 50.51 25.3871 50.504 25.3604 50.504C25.3336 50.504 25.3073 50.51 25.2834 50.5216V50.5199ZM32.3872 46.5775L31.4159 47.1163C31.3748 47.1393 31.3765 47.1771 31.4159 47.2017L32.5411 47.8259C32.565 47.8375 32.5913 47.8435 32.6181 47.8435C32.6448 47.8435 32.6712 47.8375 32.695 47.8259L33.6681 47.2871C33.7091 47.2641 33.7057 47.2247 33.6681 47.2001L32.5428 46.5775C32.5183 46.5664 32.4914 46.5611 32.4644 46.562C32.4373 46.5628 32.4109 46.5698 32.3872 46.5824V46.5775ZM29.545 48.1578L28.5737 48.6916C28.5326 48.7146 28.5343 48.754 28.5737 48.7787L29.6989 49.4013C29.723 49.4131 29.7497 49.4192 29.7767 49.4192C29.8038 49.4192 29.8304 49.4131 29.8545 49.4013L30.8259 48.8625C30.8669 48.8395 30.8652 48.8017 30.8259 48.777L29.7006 48.1528C29.6761 48.1418 29.6492 48.1364 29.6222 48.1373C29.5951 48.1381 29.5687 48.1452 29.545 48.1578V48.1578ZM28.1239 48.9462L27.1508 49.485C27.1098 49.508 27.1132 49.5474 27.1508 49.5721L28.2744 50.1947C28.2985 50.2065 28.3251 50.2127 28.3522 50.2127C28.3792 50.2127 28.4059 50.2065 28.43 50.1947L29.4013 49.6559C29.4424 49.6329 29.4407 49.5934 29.4013 49.5688L28.2778 48.9462C28.2542 48.9349 28.2281 48.9291 28.2017 48.9291C28.1753 48.9291 28.1493 48.9349 28.1256 48.9462H28.1239ZM26.7028 49.7347L25.7297 50.2735C25.6887 50.2965 25.6921 50.3343 25.7297 50.3589L26.8533 50.9831C26.8774 50.995 26.904 51.0011 26.9311 51.0011C26.9581 51.0011 26.9848 50.995 27.0089 50.9831L27.9802 50.4427C28.0213 50.4214 28.0196 50.3819 27.9802 50.3573L26.8567 49.7347C26.8331 49.7234 26.807 49.7176 26.7806 49.7176C26.7542 49.7176 26.7282 49.7234 26.7045 49.7347H26.7028ZM33.9656 50.694L34.9387 50.1536C34.9797 50.1322 34.978 50.0928 34.9387 50.0682L33.8134 49.4456C33.7896 49.4341 33.7632 49.428 33.7365 49.428C33.7097 49.428 33.6834 49.4341 33.6595 49.4456L32.6865 49.9844C32.6454 50.0074 32.6471 50.0452 32.6865 50.0698L33.8117 50.694C33.8358 50.7059 33.8625 50.712 33.8895 50.712C33.9166 50.712 33.9433 50.7059 33.9673 50.694H33.9656ZM46.4494 38.7847L45.4764 39.3284C45.4336 39.3514 45.4371 39.3908 45.4764 39.4155L46.5999 40.038C46.624 40.0499 46.6507 40.056 46.6777 40.056C46.7048 40.056 46.7315 40.0499 46.7555 40.038L47.7269 39.4993C47.7679 39.4763 47.7662 39.4385 47.7269 39.4138L46.6033 38.7896C46.5797 38.777 46.5532 38.77 46.5262 38.7692C46.4991 38.7683 46.4722 38.7736 46.4477 38.7847H46.4494ZM44.7291 39.7391L43.7577 40.2779C43.715 40.3009 43.7184 40.3387 43.7577 40.3633L44.8813 40.9875C44.9054 40.9993 44.932 41.0055 44.9591 41.0055C44.9861 41.0055 45.0128 40.9993 45.0369 40.9875L46.0082 40.4487C46.051 40.4257 46.0476 40.3863 46.0082 40.3617L44.8847 39.7391C44.8604 39.727 44.8334 39.7207 44.806 39.7207C44.7786 39.7207 44.7517 39.727 44.7274 39.7391H44.7291ZM47.8705 37.9962L46.8975 38.5366C46.8564 38.5596 46.8599 38.5974 46.8975 38.6221L48.021 39.2463C48.0451 39.2581 48.0718 39.2643 48.0988 39.2643C48.1259 39.2643 48.1526 39.2581 48.1766 39.2463L49.148 38.7075C49.189 38.6845 49.1873 38.6467 49.148 38.6221L48.0244 37.9979C48.0005 37.9858 47.9739 37.9793 47.9468 37.979C47.9198 37.9788 47.8931 37.9846 47.8688 37.9962H47.8705ZM40.5171 45.2814L41.4901 44.7426C41.5312 44.7196 41.5277 44.6819 41.4901 44.6572L40.3666 44.033C40.3425 44.0212 40.3158 44.015 40.2888 44.015C40.2617 44.015 40.235 44.0212 40.211 44.033L39.2396 44.5735C39.1986 44.5964 39.2003 44.6342 39.2396 44.6589L40.3632 45.2831C40.3867 45.2939 40.4125 45.2993 40.4386 45.299C40.4647 45.2987 40.4904 45.2927 40.5136 45.2814H40.5171ZM49.4473 37.2127C49.4234 37.2011 49.397 37.1951 49.3703 37.1951C49.3436 37.1951 49.3172 37.2011 49.2933 37.2127L48.3203 37.7515C48.2793 37.7744 48.2827 37.8122 48.3203 37.8369L49.4438 38.4611C49.4679 38.4729 49.4946 38.4791 49.5216 38.4791C49.5487 38.4791 49.5754 38.4729 49.5995 38.4611L50.5708 37.9206C50.6118 37.8976 50.6101 37.8599 50.5708 37.8352L49.4473 37.2127ZM35.3919 49.9056L36.3649 49.3668C36.406 49.3438 36.4042 49.3043 36.3649 49.2797L35.2397 48.6571C35.2158 48.6456 35.1894 48.6396 35.1627 48.6396C35.136 48.6396 35.1096 48.6456 35.0858 48.6571L34.1127 49.1959C34.0717 49.2189 34.0734 49.2583 34.1127 49.2813L35.238 49.9056C35.2614 49.9166 35.2871 49.9223 35.3132 49.9223C35.3393 49.9223 35.365 49.9166 35.3884 49.9056H35.3919ZM52.8179 40.2417L53.7892 39.7029C53.8303 39.6799 53.8286 39.6405 53.7892 39.6159L52.6571 38.9999C52.633 38.9881 52.6064 38.9819 52.5793 38.9819C52.5523 38.9819 52.5256 38.9881 52.5015 38.9999L51.5285 39.5387C51.4874 39.5617 51.4908 39.6011 51.5285 39.6257L52.652 40.2483C52.6775 40.2603 52.7057 40.2659 52.7341 40.2648C52.7625 40.2636 52.7901 40.2557 52.8145 40.2417H52.8179ZM49.791 40.1399L50.7623 39.5995C50.8034 39.5765 50.8017 39.5387 50.7623 39.514L49.6388 38.8898C49.6147 38.878 49.588 38.8718 49.561 38.8718C49.5339 38.8718 49.5073 38.878 49.4832 38.8898L48.5118 39.4286C48.4691 39.4516 48.4725 39.4894 48.5118 39.514L49.6354 40.1382C49.6589 40.1498 49.6849 40.156 49.7113 40.1562C49.7377 40.1565 49.7638 40.1509 49.7876 40.1399H49.791ZM51.0548 38.103C51.0307 38.0912 51.004 38.085 50.977 38.085C50.9499 38.085 50.9232 38.0912 50.8991 38.103L49.9261 38.6418C49.885 38.6648 49.8885 38.7042 49.9261 38.7272L51.0496 39.3514C51.0737 39.3632 51.1004 39.3694 51.1274 39.3694C51.1545 39.3694 51.1812 39.3632 51.2053 39.3514L52.1766 38.8126C52.2176 38.7896 52.2159 38.7502 52.1766 38.7256L51.0548 38.103ZM51.354 37.9387L54.0902 39.4516C54.1143 39.4634 54.141 39.4696 54.168 39.4696C54.1951 39.4696 54.2217 39.4634 54.2458 39.4516L55.2172 38.9128C55.2582 38.8898 55.2565 38.852 55.2172 38.8274L52.481 37.3129C52.4571 37.3013 52.4308 37.2953 52.404 37.2953C52.3773 37.2953 52.351 37.3013 52.3271 37.3129L51.3438 37.85C51.3027 37.873 51.3061 37.9124 51.3506 37.9371L51.354 37.9387ZM48.0569 39.6767L47.0856 40.2171C47.0428 40.2385 47.0463 40.2779 47.0856 40.3025L48.2091 40.9251C48.2332 40.9369 48.2599 40.9431 48.2869 40.9431C48.314 40.9431 48.3407 40.9369 48.3648 40.9251L49.3361 40.3863C49.3789 40.3633 49.3754 40.3255 49.3361 40.3009L48.2126 39.6767C48.1882 39.664 48.161 39.6573 48.1332 39.657C48.1055 39.6567 48.0782 39.6629 48.0535 39.675L48.0569 39.6767ZM37.3602 45.6067L36.3854 46.1455C36.3444 46.1685 36.3461 46.2063 36.3854 46.2309L37.5107 46.8551C37.5346 46.8667 37.5609 46.8727 37.5876 46.8727C37.6144 46.8727 37.6407 46.8667 37.6646 46.8551L38.6377 46.3163C38.6787 46.2933 38.6753 46.2539 38.6377 46.2293L37.5124 45.6067C37.4888 45.5954 37.4627 45.5895 37.4363 45.5895C37.4099 45.5895 37.3838 45.5954 37.3602 45.6067V45.6067ZM51.2377 41.0269C51.2618 41.0388 51.2885 41.0449 51.3156 41.0449C51.3426 41.0449 51.3693 41.0388 51.3934 41.0269L52.3647 40.4881C52.4075 40.4651 52.404 40.4257 52.3647 40.4011L51.2412 39.7785C51.2171 39.7667 51.1904 39.7605 51.1634 39.7605C51.1363 39.7605 51.1096 39.7667 51.0855 39.7785L50.1091 40.314C50.0663 40.337 50.0697 40.3748 50.1091 40.3994L51.2377 41.0269ZM38.7796 44.8182L37.8083 45.357C37.7672 45.38 37.7689 45.4194 37.8083 45.4441L38.9335 46.0666C38.9574 46.0782 38.9837 46.0842 39.0105 46.0842C39.0372 46.0842 39.0635 46.0782 39.0874 46.0666L40.0605 45.5278C40.1015 45.5048 40.0981 45.4654 40.0605 45.4424L38.9369 44.8182C38.9126 44.8061 38.8856 44.7998 38.8583 44.7998C38.8309 44.7998 38.8039 44.8061 38.7796 44.8182V44.8182ZM28.129 53.843C28.1531 53.8549 28.1798 53.861 28.2068 53.861C28.2339 53.861 28.2606 53.8549 28.2846 53.843L29.256 53.3026C29.2987 53.2796 29.2953 53.2418 29.256 53.2172L28.1324 52.593C28.1084 52.5811 28.0817 52.575 28.0546 52.575C28.0276 52.575 28.0009 52.5811 27.9768 52.593L27.0004 53.1268C26.9576 53.1498 26.961 53.1876 27.0004 53.2122L28.129 53.843ZM25.9914 51.9113L25.02 52.45C24.979 52.473 24.9807 52.5108 25.02 52.5355L26.1436 53.1597C26.1677 53.1715 26.1943 53.1777 26.2214 53.1777C26.2485 53.1777 26.2751 53.1715 26.2992 53.1597L27.2723 52.6192C27.3133 52.5962 27.3099 52.5585 27.2723 52.5338L26.1487 51.9096C26.1243 51.8978 26.0972 51.8917 26.0698 51.892C26.0425 51.8923 26.0156 51.8989 25.9914 51.9113ZM29.7057 53.0611L30.6771 52.5223C30.7181 52.4993 30.7164 52.4599 30.6771 52.4353L29.545 51.8127C29.5209 51.8009 29.4942 51.7947 29.4672 51.7947C29.4401 51.7947 29.4135 51.8009 29.3894 51.8127L28.4163 52.3515C28.3753 52.3745 28.3787 52.4123 28.4163 52.4369L29.5399 53.0611C29.5655 53.0741 29.5942 53.0807 29.6232 53.0801C29.6523 53.0795 29.6807 53.0719 29.7057 53.0578V53.0611ZM31.1268 52.2726L32.0982 51.7338C32.1392 51.7108 32.1375 51.6714 32.0982 51.6484L30.9746 51.0242C30.9506 51.0124 30.9239 51.0062 30.8968 51.0062C30.8698 51.0062 30.8431 51.0124 30.819 51.0242L29.846 51.563C29.8049 51.586 29.8084 51.6254 29.846 51.6501L30.9695 52.2726C30.9941 52.2842 31.0212 52.29 31.0486 52.2894C31.076 52.2888 31.1028 52.282 31.1268 52.2694V52.2726ZM32.548 51.4842L33.5193 50.9454C33.5603 50.9224 33.5586 50.8846 33.5193 50.8599L32.394 50.2357C32.3702 50.2242 32.3438 50.2182 32.3171 50.2182C32.2904 50.2182 32.264 50.2242 32.2401 50.2357L31.2551 50.7696C31.2141 50.7926 31.2175 50.8304 31.2551 50.855L32.3787 51.4776C32.4038 51.4927 32.4327 51.5013 32.4624 51.5024C32.4921 51.5036 32.5216 51.4973 32.548 51.4842V51.4842ZM27.4176 51.1261L26.4463 51.6649C26.4052 51.6878 26.4069 51.7256 26.4463 51.7503L27.5698 52.3745C27.5939 52.3863 27.6206 52.3925 27.6476 52.3925C27.6747 52.3925 27.7014 52.3863 27.7254 52.3745L28.6985 51.8357C28.7395 51.8127 28.7361 51.7733 28.6985 51.7486L27.575 51.1261C27.5503 51.1126 27.5225 51.1053 27.4942 51.1047C27.4658 51.1041 27.4377 51.1103 27.4125 51.1228L27.4176 51.1261ZM28.8387 50.3376L27.8674 50.8764C27.8246 50.8994 27.828 50.9388 27.8674 50.9634L28.9909 51.586C29.015 51.5978 29.0417 51.604 29.0687 51.604C29.0958 51.604 29.1225 51.5978 29.1465 51.586L30.1179 51.0472C30.1606 51.0242 30.1572 50.9864 30.1179 50.9618L28.9943 50.3376C28.9699 50.3244 28.9424 50.3172 28.9144 50.3167C28.8864 50.3161 28.8586 50.3221 28.8336 50.3343L28.8387 50.3376ZM34.5231 47.1853L33.5501 47.7241C33.509 47.7471 33.5107 47.7865 33.5501 47.8112L34.6753 48.4337C34.6992 48.4453 34.7256 48.4513 34.7523 48.4513C34.779 48.4513 34.8054 48.4453 34.8292 48.4337L35.8023 47.8949C35.8433 47.8719 35.8416 47.8342 35.8023 47.8095L34.677 47.1853C34.6528 47.1724 34.6256 47.1654 34.5979 47.1648C34.5702 47.1642 34.5428 47.1701 34.518 47.182L34.5231 47.1853ZM33.102 47.9738L32.129 48.5126C32.0879 48.5356 32.0914 48.575 32.129 48.5996L33.2525 49.2222C33.2766 49.234 33.3033 49.2402 33.3303 49.2402C33.3574 49.2402 33.384 49.234 33.4081 49.2222L34.3795 48.6834C34.4205 48.6604 34.4188 48.621 34.3795 48.5963L33.2542 47.9738C33.2302 47.9612 33.2034 47.9543 33.176 47.9537C33.1486 47.9531 33.1215 47.9589 33.0969 47.9705L33.102 47.9738ZM35.9391 46.3919L34.966 46.9307C34.925 46.9537 34.9267 46.9915 34.966 47.0161L36.0913 47.6403C36.1152 47.6519 36.1415 47.6579 36.1683 47.6579C36.195 47.6579 36.2213 47.6519 36.2452 47.6403L37.2183 47.0999C37.2593 47.0769 37.2576 47.0391 37.2183 47.0145L36.093 46.3902C36.069 46.3789 36.0426 46.3732 36.0158 46.3735C35.9891 46.3738 35.9628 46.3801 35.9391 46.3919V46.3919ZM30.2547 49.5458L29.2834 50.0862C29.2406 50.1092 29.244 50.147 29.2834 50.1717L30.4069 50.7959C30.431 50.8077 30.4576 50.8139 30.4847 50.8139C30.5118 50.8139 30.5384 50.8077 30.5625 50.7959L31.5339 50.2571C31.5749 50.2341 31.5732 50.1963 31.5339 50.1717L30.4103 49.5475C30.3864 49.5354 30.3598 49.5289 30.3327 49.5286C30.3057 49.5284 30.2789 49.5342 30.2547 49.5458V49.5458ZM31.6758 48.759L30.7027 49.2978C30.6617 49.3208 30.6651 49.3585 30.7027 49.3832L31.8263 50.0074C31.8504 50.0192 31.877 50.0254 31.9041 50.0254C31.9311 50.0254 31.9578 50.0192 31.9819 50.0074L32.9532 49.467C32.9943 49.4456 32.9926 49.4062 32.9532 49.3815L31.8297 48.759C31.8058 48.7474 31.7795 48.7414 31.7528 48.7414C31.726 48.7414 31.6997 48.7474 31.6758 48.759V48.759ZM30.6378 54.321L31.6108 53.7822C31.6519 53.7593 31.6484 53.7215 31.6108 53.6968L30.4856 53.0726C30.4617 53.0611 30.4353 53.055 30.4086 53.055C30.3819 53.055 30.3555 53.0611 30.3316 53.0726L29.3586 53.6114C29.3176 53.6344 29.3193 53.6738 29.3586 53.6985L30.4838 54.321C30.5077 54.3326 30.5341 54.3386 30.5608 54.3386C30.5875 54.3386 30.6139 54.3326 30.6378 54.321V54.321ZM22.2993 53.5129L21.1757 52.8886C21.1516 52.8768 21.125 52.8707 21.0979 52.8707C21.0709 52.8707 21.0442 52.8768 21.0201 52.8886L20.0488 53.4274C20.0077 53.4504 20.0094 53.4882 20.0488 53.5129L21.1723 54.1371C21.1964 54.1489 21.2231 54.1551 21.2501 54.1551C21.2772 54.1551 21.3038 54.1489 21.3279 54.1371L22.301 53.5966C22.3471 53.5753 22.3437 53.5375 22.2993 53.5129V53.5129ZM24.4301 54.1124L23.3048 53.4899C23.2809 53.4783 23.2546 53.4723 23.2279 53.4723C23.2011 53.4723 23.1748 53.4783 23.1509 53.4899L21.6546 54.3194C21.6135 54.3424 21.6152 54.3802 21.6546 54.4048L22.7798 55.029C22.8037 55.0406 22.83 55.0466 22.8568 55.0466C22.8835 55.0466 22.9098 55.0406 22.9337 55.029L24.4301 54.1995C24.4762 54.1765 24.4745 54.1371 24.4301 54.1124ZM20.5755 52.3055L19.4553 51.6846C19.4315 51.673 19.4051 51.667 19.3784 51.667C19.3517 51.667 19.3253 51.673 19.3014 51.6846L18.1044 52.3416C18.0633 52.3646 18.065 52.4024 18.1044 52.427L19.2296 53.0513C19.2535 53.0628 19.2798 53.0688 19.3066 53.0688C19.3333 53.0688 19.3597 53.0628 19.3835 53.0513L20.5806 52.3942C20.6216 52.3712 20.6199 52.3318 20.5755 52.3055ZM21.4921 51.7963C21.5162 51.8081 21.5428 51.8143 21.5699 51.8143C21.597 51.8143 21.6236 51.8081 21.6477 51.7963L22.6191 51.2575C22.6618 51.2345 22.6584 51.1967 22.6191 51.1721L21.4955 50.5478C21.4714 50.536 21.4448 50.5298 21.4177 50.5298C21.3906 50.5298 21.364 50.536 21.3399 50.5478L20.3685 51.0883C20.3258 51.1113 20.3292 51.1491 20.3685 51.1737L21.4921 51.7963ZM26.4087 54.7941L25.2851 54.1716C25.261 54.1597 25.2344 54.1536 25.2073 54.1536C25.1802 54.1536 25.1536 54.1597 25.1295 54.1716L23.2603 55.2081C23.2193 55.2311 23.221 55.2705 23.2603 55.2952L24.3856 55.9177C24.4095 55.9293 24.4358 55.9353 24.4626 55.9353C24.4893 55.9353 24.5156 55.9293 24.5395 55.9177L26.4104 54.8812C26.4565 54.8598 26.4531 54.8204 26.4087 54.7958V54.7941ZM27.3424 56.059L26.2171 55.4348C26.1933 55.4232 26.1669 55.4172 26.1402 55.4172C26.1134 55.4172 26.0871 55.4232 26.0632 55.4348L24.8661 56.0918C24.8251 56.1148 24.8268 56.1543 24.8661 56.1789L25.9914 56.8015C26.0153 56.813 26.0416 56.819 26.0683 56.819C26.0951 56.819 26.1214 56.813 26.1453 56.8015L27.3424 56.1444C27.3885 56.1231 27.3868 56.0836 27.3424 56.0606V56.059ZM32.0571 45.9385C32.0812 45.9503 32.1079 45.9565 32.135 45.9565C32.162 45.9565 32.1887 45.9503 32.2128 45.9385L33.1841 45.3981C33.2252 45.3751 33.2234 45.3373 33.1841 45.3127L32.0606 44.6884C32.0365 44.6766 32.0098 44.6704 31.9828 44.6704C31.9557 44.6704 31.929 44.6766 31.905 44.6884L30.9319 45.2272C30.8909 45.2502 30.8943 45.288 30.9319 45.3127L32.0571 45.9385ZM29.2149 47.5138C29.239 47.5257 29.2657 47.5318 29.2928 47.5318C29.3198 47.5318 29.3465 47.5257 29.3706 47.5138L30.3419 46.975C30.3847 46.952 30.3812 46.9126 30.3419 46.888L29.2184 46.2654C29.1943 46.2536 29.1676 46.2474 29.1406 46.2474C29.1135 46.2474 29.0868 46.2536 29.0627 46.2654L28.0914 46.8042C28.0487 46.8272 28.0521 46.8666 28.0914 46.8913L29.2149 47.5138ZM22.9132 51.0094C22.9373 51.0212 22.9639 51.0274 22.991 51.0274C23.0181 51.0274 23.0447 51.0212 23.0688 51.0094L24.0402 50.469C24.0812 50.446 24.0795 50.4082 24.0402 50.3836L22.9166 49.7594C22.8925 49.7475 22.8659 49.7414 22.8388 49.7414C22.8117 49.7414 22.7851 49.7475 22.761 49.7594L21.7879 50.2982C21.7469 50.3211 21.7503 50.3589 21.7879 50.3836L22.9132 51.0094ZM30.636 46.7204C30.6601 46.7322 30.6868 46.7384 30.7139 46.7384C30.7409 46.7384 30.7676 46.7322 30.7917 46.7204L31.763 46.1816C31.8041 46.1586 31.8023 46.1208 31.763 46.0962L30.6395 45.472C30.6154 45.4602 30.5887 45.454 30.5617 45.454C30.5346 45.454 30.5079 45.4602 30.4838 45.472L29.5125 46.0124C29.4698 46.0338 29.4732 46.0732 29.5125 46.0978L30.636 46.7204ZM27.7938 48.2974C27.8179 48.3092 27.8446 48.3154 27.8717 48.3154C27.8987 48.3154 27.9254 48.3092 27.9495 48.2974L28.9225 47.7586C28.9636 47.7356 28.9601 47.6962 28.9225 47.6715L27.799 47.049C27.7749 47.0371 27.7482 47.031 27.7212 47.031C27.6941 47.031 27.6674 47.0371 27.6434 47.049L26.672 47.5877C26.631 47.6107 26.6327 47.6485 26.672 47.6732L27.7938 48.2974ZM28.1239 56.1559C28.0998 56.1441 28.0731 56.1379 28.0461 56.1379C28.019 56.1379 27.9924 56.1441 27.9683 56.1559L26.4668 56.9887C26.4258 57.0117 26.4292 57.0495 26.4668 57.0742L27.5921 57.6967C27.6161 57.7086 27.6428 57.7147 27.6699 57.7147C27.6969 57.7147 27.7236 57.7086 27.7477 57.6967L29.2423 56.8754C29.2834 56.8524 29.2816 56.8146 29.2423 56.79L28.1239 56.1559ZM25.7554 49.421C25.7795 49.4328 25.8062 49.439 25.8332 49.439C25.8603 49.439 25.8869 49.4328 25.911 49.421L26.8824 48.8822C26.9234 48.8592 26.9217 48.8214 26.8824 48.7968L25.7588 48.1725C25.7347 48.1607 25.7081 48.1546 25.681 48.1546C25.654 48.1546 25.6273 48.1607 25.6032 48.1725L24.6301 48.7113C24.5891 48.7343 24.5925 48.7738 24.6301 48.7984L25.7554 49.421ZM24.3343 50.2094C24.3584 50.2213 24.385 50.2274 24.4121 50.2274C24.4392 50.2274 24.4658 50.2213 24.4899 50.2094L25.4613 49.6707C25.5023 49.6477 25.5006 49.6082 25.4613 49.5836L24.3377 48.961C24.3136 48.9492 24.287 48.943 24.2599 48.943C24.2329 48.943 24.2062 48.9492 24.1821 48.961L23.2039 49.513C23.1629 49.536 23.1663 49.5754 23.2039 49.5984L24.3343 50.2094ZM54.4476 41.5624C54.4235 41.5506 54.3969 41.5445 54.3698 41.5445C54.3428 41.5445 54.3161 41.5506 54.292 41.5624L51.8978 42.8897C51.8568 42.9127 51.8585 42.9521 51.8978 42.9768L53.0231 43.5994C53.047 43.6109 53.0733 43.6169 53.1001 43.6169C53.1268 43.6169 53.1531 43.6109 53.177 43.5994L55.5712 42.2721C55.6122 42.2491 55.6088 42.2113 55.5712 42.1867L54.4476 41.5624ZM51.3061 43.3037C51.2823 43.2921 51.2559 43.2861 51.2292 43.2861C51.2025 43.2861 51.1761 43.2921 51.1522 43.3037L50.1792 43.8425C50.1381 43.8655 50.1399 43.9032 50.1792 43.9279L51.3044 44.5521C51.3283 44.5637 51.3547 44.5697 51.3814 44.5697C51.4081 44.5697 51.4345 44.5637 51.4583 44.5521L52.4314 44.0117C52.4724 43.9887 52.4707 43.9509 52.4314 43.9262L51.3061 43.3037ZM32.0589 53.5342L33.0319 52.9938C33.073 52.9708 33.0695 52.933 33.0319 52.9084L31.9084 52.2841C31.8843 52.2723 31.8576 52.2661 31.8306 52.2661C31.8035 52.2661 31.7768 52.2723 31.7528 52.2841L30.7814 52.8229C30.7404 52.8459 30.7421 52.8837 30.7814 52.9084L31.9067 53.5326C31.9302 53.5441 31.9562 53.5503 31.9826 53.5505C32.009 53.5508 32.0351 53.5452 32.0589 53.5342ZM48.4657 44.8806C48.4416 44.8688 48.4149 44.8626 48.3878 44.8626C48.3608 44.8626 48.3341 44.8688 48.31 44.8806L47.3301 45.4161C47.2891 45.4391 47.2925 45.4786 47.3301 45.5032L48.4537 46.1258C48.4778 46.1376 48.5044 46.1438 48.5315 46.1438C48.5585 46.1438 48.5852 46.1376 48.6093 46.1258L49.5806 45.587C49.6217 45.564 49.62 45.5246 49.5806 45.4999L48.4657 44.8806ZM55.8687 40.774C55.8446 40.7621 55.818 40.756 55.7909 40.756C55.7639 40.756 55.7372 40.7621 55.7131 40.774L54.7418 41.3144C54.7007 41.3374 54.7024 41.3752 54.7418 41.3998L55.8653 42.024C55.8894 42.0359 55.9161 42.042 55.9431 42.042C55.9702 42.042 55.9968 42.0359 56.0209 42.024L56.994 41.4852C57.035 41.4622 57.0316 41.4245 56.994 41.3998L55.8687 40.774ZM58.4134 40.6097L55.6772 39.0952C55.6531 39.0833 55.6264 39.0772 55.5994 39.0772C55.5723 39.0772 55.5457 39.0833 55.5216 39.0952L54.5502 39.6339C54.5075 39.6569 54.5109 39.6947 54.5502 39.7194L57.2864 41.2339C57.3105 41.2457 57.3372 41.2519 57.3642 41.2519C57.3913 41.2519 57.4179 41.2457 57.442 41.2339L58.4134 40.6935C58.4612 40.6738 58.4578 40.6425 58.4134 40.6097ZM43.1558 47.8259C43.1317 47.8141 43.105 47.8079 43.078 47.8079C43.0509 47.8079 43.0242 47.8141 43.0001 47.8259L41.8031 48.483C41.762 48.506 41.7637 48.5438 41.8031 48.5684L42.9283 49.1926C42.9522 49.2042 42.9785 49.2102 43.0053 49.2102C43.032 49.2102 43.0584 49.2042 43.0822 49.1926L44.2793 48.5356C44.3203 48.5142 44.3186 48.4748 44.2793 48.4501L43.1558 47.8259ZM46.747 45.835C46.7229 45.8232 46.6962 45.817 46.6692 45.817C46.6421 45.817 46.6155 45.8232 46.5914 45.835L45.095 46.6646C45.054 46.6876 45.0574 46.7253 45.095 46.75L46.2186 47.3742C46.2427 47.386 46.2693 47.3922 46.2964 47.3922C46.3234 47.3922 46.3501 47.386 46.3742 47.3742L47.8688 46.5529C47.9099 46.5299 47.9082 46.4904 47.8688 46.4658L46.747 45.835ZM39.8655 49.6493C39.8416 49.6377 39.8153 49.6317 39.7886 49.6317C39.7618 49.6317 39.7355 49.6377 39.7116 49.6493L31.7083 54.0845C31.6672 54.1075 31.6707 54.1469 31.7083 54.1716L32.8318 54.7941C32.8559 54.806 32.8826 54.8121 32.9096 54.8121C32.9367 54.8121 32.9634 54.806 32.9874 54.7941L40.9891 50.3589C41.0301 50.3359 41.0284 50.2982 40.9891 50.2735L39.8655 49.6493ZM31.4159 54.3375C31.3918 54.3256 31.3651 54.3195 31.338 54.3195C31.311 54.3195 31.2843 54.3256 31.2602 54.3375L30.0632 54.9945C30.0221 55.0175 30.0255 55.0553 30.0632 55.08L31.1867 55.7042C31.2108 55.716 31.2375 55.7222 31.2645 55.7222C31.2916 55.7222 31.3182 55.716 31.3423 55.7042L32.5394 55.0471C32.5804 55.0241 32.5787 54.9863 32.5394 54.9617L31.4159 54.3375ZM41.5055 48.7376C41.4816 48.7261 41.4553 48.72 41.4286 48.72C41.4018 48.72 41.3755 48.7261 41.3516 48.7376L40.1545 49.3947C40.1135 49.4177 40.1152 49.4571 40.1545 49.4801L41.2798 50.1043C41.3036 50.1159 41.33 50.1219 41.3567 50.1219C41.3835 50.1219 41.4098 50.1159 41.4337 50.1043L42.6308 49.4473C42.6718 49.4243 42.6701 49.3865 42.6308 49.3618L41.5055 48.7376ZM29.7656 55.2492C29.7415 55.2373 29.7148 55.2312 29.6878 55.2312C29.6607 55.2312 29.6341 55.2373 29.61 55.2492L28.4129 55.9062C28.3719 55.9292 28.3753 55.9686 28.4129 55.9916L29.5382 56.6159C29.5622 56.6277 29.5889 56.6338 29.616 56.6338C29.643 56.6338 29.6697 56.6277 29.6938 56.6159L30.8909 55.9588C30.9319 55.9358 30.9302 55.898 30.8909 55.8734L29.7656 55.2492ZM44.7975 46.9126C44.7734 46.9008 44.7467 46.8946 44.7197 46.8946C44.6926 46.8946 44.6659 46.9008 44.6418 46.9126L43.4448 47.5697C43.4037 47.5927 43.4071 47.6321 43.4448 47.6567L44.57 48.2793C44.5941 48.2911 44.6208 48.2973 44.6478 48.2973C44.6749 48.2973 44.7016 48.2911 44.7256 48.2793L45.9227 47.6222C45.9638 47.5992 45.9621 47.5615 45.9227 47.5368L44.7975 46.9126ZM49.885 44.0922C49.8612 44.0806 49.8348 44.0746 49.8081 44.0746C49.7814 44.0746 49.755 44.0806 49.7311 44.0922L48.7581 44.6326C48.717 44.6539 48.7205 44.6934 48.7581 44.718L49.8833 45.3406C49.9072 45.3521 49.9336 45.3582 49.9603 45.3582C49.987 45.3582 50.0134 45.3521 50.0372 45.3406L51.0103 44.8018C51.0513 44.7788 51.0496 44.741 51.0103 44.7164L49.885 44.0922ZM52.9992 41.9205L53.9705 41.3817C54.0132 41.3588 54.0098 41.3193 53.9705 41.2947L52.847 40.6721C52.8229 40.6603 52.7962 40.6541 52.7691 40.6541C52.7421 40.6541 52.7154 40.6603 52.6913 40.6721L51.72 41.2109C51.679 41.2339 51.6807 41.2733 51.72 41.298L52.8435 41.9205C52.8676 41.9324 52.8943 41.9385 52.9213 41.9385C52.9484 41.9385 52.9751 41.9324 52.9992 41.9205V41.9205ZM46.6461 41.8811L47.6192 41.3423C47.6602 41.3193 47.6568 41.2799 47.6192 41.2553L46.4956 40.6327C46.4715 40.6209 46.4449 40.6147 46.4178 40.6147C46.3907 40.6147 46.3641 40.6209 46.34 40.6327L45.3686 41.1715C45.3276 41.1945 45.3293 41.2339 45.3686 41.2585L46.4922 41.8811C46.5161 41.8927 46.5424 41.8987 46.5691 41.8987C46.5959 41.8987 46.6222 41.8927 46.6461 41.8811V41.8811ZM43.426 47.2296L46.2682 45.6527C46.3092 45.6297 46.3075 45.5919 46.2682 45.5673L45.1446 44.9431C45.1205 44.9312 45.0939 44.9251 45.0668 44.9251C45.0398 44.9251 45.0131 44.9312 44.989 44.9431L42.1468 46.5184C42.1058 46.5414 42.1075 46.5792 42.1468 46.6038L43.272 47.228C43.2958 47.2398 43.3221 47.2461 43.3488 47.2464C43.3755 47.2467 43.402 47.2409 43.426 47.2296V47.2296ZM51.4224 42.7057C51.4465 42.7176 51.4732 42.7237 51.5002 42.7237C51.5273 42.7237 51.554 42.7176 51.5781 42.7057L52.5511 42.1653C52.5922 42.1439 52.5887 42.1045 52.5511 42.0799L51.4207 41.4639C51.3966 41.4521 51.37 41.4459 51.3429 41.4459C51.3159 41.4459 51.2892 41.4521 51.2651 41.4639L50.2938 42.0027C50.2527 42.0257 50.2544 42.0635 50.2938 42.0881L51.4224 42.7057ZM49.9723 41.8187L50.9453 41.2783C50.9864 41.2553 50.9829 41.2175 50.9453 41.1928L49.8218 40.5686C49.7977 40.5568 49.771 40.5506 49.744 40.5506C49.7169 40.5506 49.6902 40.5568 49.6662 40.5686L48.6948 41.1091C48.6538 41.1321 48.6555 41.1698 48.6948 41.1945L49.8183 41.8187C49.8422 41.8303 49.8686 41.8363 49.8953 41.8363C49.922 41.8363 49.9484 41.8303 49.9723 41.8187V41.8187ZM42.0049 48.0181L42.9779 47.4777C43.019 47.4547 43.0172 47.4169 42.9779 47.3923L41.8527 46.7681C41.8288 46.7565 41.8024 46.7505 41.7757 46.7505C41.749 46.7505 41.7226 46.7565 41.6988 46.7681L40.7257 47.3085C40.6847 47.3315 40.6864 47.3693 40.7257 47.3939L41.8509 48.0181C41.8748 48.0297 41.9012 48.0357 41.9279 48.0357C41.9546 48.0357 41.981 48.0297 42.0049 48.0181V48.0181ZM48.2827 44.447C48.3065 44.4585 48.3329 44.4645 48.3596 44.4645C48.3864 44.4645 48.4127 44.4585 48.4366 44.447L49.4096 43.9082C49.4507 43.8852 49.449 43.8457 49.4096 43.8228L48.2844 43.1985C48.2605 43.187 48.2342 43.181 48.2074 43.181C48.1807 43.181 48.1543 43.187 48.1305 43.1985L47.1591 43.7373C47.1181 43.7603 47.1198 43.7998 47.1591 43.8244L48.2827 44.447ZM34.9011 51.9572L35.8724 51.4185C35.9134 51.3955 35.91 51.356 35.8724 51.3314L34.7489 50.7088C34.7248 50.697 34.6981 50.6908 34.6711 50.6908C34.644 50.6908 34.6173 50.697 34.5932 50.7088L33.6219 51.2476C33.5809 51.2706 33.5826 51.31 33.6219 51.3347L34.7454 51.9572C34.7695 51.9691 34.7962 51.9752 34.8233 51.9752C34.8503 51.9752 34.877 51.9691 34.9011 51.9572V51.9572ZM36.3222 51.1688L37.2935 50.63C37.3363 50.607 37.3328 50.5692 37.2935 50.5446L36.17 49.9203C36.1459 49.9085 36.1192 49.9023 36.0922 49.9023C36.0651 49.9023 36.0384 49.9085 36.0143 49.9203L35.043 50.4608C35.0002 50.4838 35.0037 50.5216 35.043 50.5462L36.1665 51.1688C36.1906 51.1806 36.2173 51.1868 36.2444 51.1868C36.2714 51.1868 36.2981 51.1806 36.3222 51.1688ZM33.4783 52.7457L34.4513 52.2069C34.4923 52.1839 34.4889 52.1445 34.4513 52.1199L33.3278 51.4973C33.3037 51.4855 33.277 51.4793 33.2499 51.4793C33.2229 51.4793 33.1962 51.4855 33.1721 51.4973L32.2008 52.0361C32.1598 52.0591 32.1615 52.0969 32.2008 52.1215L33.3243 52.7457C33.3482 52.7573 33.3746 52.7633 33.4013 52.7633C33.428 52.7633 33.4544 52.7573 33.4783 52.7457V52.7457ZM39.1627 49.5934L40.134 49.0547C40.175 49.0317 40.1733 48.9922 40.134 48.9676L39.0105 48.345C38.9864 48.3332 38.9597 48.327 38.9326 48.327C38.9056 48.327 38.8789 48.3332 38.8548 48.345L37.8818 48.8838C37.8407 48.9068 37.8442 48.9462 37.8818 48.9692L39.0053 49.5934C39.0299 49.6058 39.0571 49.6123 39.0848 49.6123C39.1126 49.6123 39.1398 49.6058 39.1644 49.5934H39.1627ZM37.7416 50.3819L38.7129 49.8415C38.7539 49.8185 38.7522 49.7807 38.7129 49.7561L37.5825 49.1335C37.5584 49.1217 37.5318 49.1155 37.5047 49.1155C37.4777 49.1155 37.451 49.1217 37.4269 49.1335L36.4573 49.6772C36.4162 49.7002 36.4196 49.738 36.4573 49.7626L37.5808 50.3869C37.6062 50.399 37.6343 50.405 37.6627 50.4041C37.691 50.4033 37.7187 50.3956 37.7433 50.3819H37.7416ZM40.5838 48.805L41.5551 48.2662C41.5961 48.2432 41.5944 48.2054 41.5551 48.1808L40.4298 47.5565C40.406 47.545 40.3796 47.539 40.3529 47.539C40.3262 47.539 40.2998 47.545 40.2759 47.5565L39.2926 48.092C39.2516 48.115 39.255 48.1545 39.2926 48.1791L40.4162 48.8017C40.4417 48.8163 40.4707 48.8243 40.5004 48.8249C40.53 48.8254 40.5594 48.8186 40.5855 48.805H40.5838ZM47.0822 37.142C47.1063 37.1538 47.1329 37.16 47.16 37.16C47.187 37.16 47.2137 37.1538 47.2378 37.142L48.2091 36.6032C48.2502 36.5802 48.2485 36.5425 48.2091 36.5178L47.9099 36.3535C47.8858 36.3417 47.8591 36.3356 47.8321 36.3356C47.805 36.3356 47.7783 36.3417 47.7543 36.3535L46.7829 36.8923C46.7419 36.9153 46.7436 36.9531 46.7829 36.9778L47.0822 37.142ZM40.0912 41.4754C40.1151 41.4869 40.1415 41.493 40.1682 41.493C40.1949 41.493 40.2213 41.4869 40.2452 41.4754L41.2182 40.9366C41.2593 40.9136 41.2575 40.8758 41.2182 40.8512L40.093 40.227C40.0691 40.2154 40.0427 40.2094 40.016 40.2094C39.9893 40.2094 39.9629 40.2154 39.939 40.227L38.966 40.7657C38.925 40.7887 38.9267 40.8282 38.966 40.8528L40.0912 41.4754ZM42.9335 39.9001C42.9573 39.9116 42.9837 39.9176 43.0104 39.9176C43.0371 39.9176 43.0635 39.9116 43.0874 39.9001L44.0604 39.3613C44.1015 39.3383 44.098 39.2988 44.0604 39.2742L42.9369 38.6516C42.9128 38.6398 42.8861 38.6336 42.8591 38.6336C42.832 38.6336 42.8053 38.6398 42.7812 38.6516L41.8099 39.1904C41.7689 39.2134 41.7706 39.2512 41.8099 39.2758L42.9335 39.9001ZM38.3589 42.4495C38.383 42.4613 38.4097 42.4675 38.4367 42.4675C38.4638 42.4675 38.4904 42.4613 38.5145 42.4495L39.4859 41.9107C39.5269 41.8877 39.5252 41.8483 39.4859 41.8236L38.3623 41.2011C38.3382 41.1892 38.3116 41.1831 38.2845 41.1831C38.2575 41.1831 38.2308 41.1892 38.2067 41.2011L37.2354 41.7398C37.1926 41.7628 37.196 41.8023 37.2354 41.8269L38.3589 42.4495ZM41.5158 40.6951C41.5396 40.7067 41.566 40.7127 41.5927 40.7127C41.6195 40.7127 41.6458 40.7067 41.6697 40.6951L42.6427 40.1547C42.6838 40.1317 42.6821 40.0939 42.6427 40.0693L41.5175 39.445C41.4936 39.4335 41.4673 39.4275 41.4405 39.4275C41.4138 39.4275 41.3874 39.4335 41.3636 39.445L40.3854 39.9855C40.3443 40.0085 40.3461 40.0463 40.3854 40.0709L41.5158 40.6951ZM35.5167 44.0215C35.5408 44.0333 35.5675 44.0395 35.5945 44.0395C35.6216 44.0395 35.6482 44.0333 35.6723 44.0215L36.6454 43.4827C36.6864 43.4597 36.683 43.4219 36.6454 43.3973L35.5218 42.7731C35.4977 42.7613 35.4711 42.7551 35.444 42.7551C35.417 42.7551 35.3903 42.7613 35.3662 42.7731L34.3949 43.3135C34.3538 43.3365 34.3555 43.3743 34.3949 43.3989L35.5167 44.0215ZM36.9378 43.233C36.9619 43.2449 36.9886 43.251 37.0156 43.251C37.0427 43.251 37.0693 43.2449 37.0934 43.233L38.0648 42.6926C38.1075 42.6712 38.1041 42.6318 38.0648 42.6072L36.9412 41.9846C36.9171 41.9728 36.8905 41.9666 36.8634 41.9666C36.8364 41.9666 36.8097 41.9728 36.7856 41.9846L35.8143 42.5234C35.7715 42.5464 35.7749 42.5842 35.8143 42.6088L36.9378 43.233ZM44.2519 38.7239C44.276 38.7357 44.3027 38.7419 44.3298 38.7419C44.3568 38.7419 44.3835 38.7357 44.4076 38.7239L45.3789 38.1851C45.4199 38.1621 45.4182 38.1227 45.3789 38.0981L45.0796 37.9338C45.0555 37.922 45.0289 37.9158 45.0018 37.9158C44.9748 37.9158 44.9481 37.922 44.924 37.9338L43.9527 38.4742C43.9116 38.4972 43.9133 38.535 43.9527 38.5596L44.2519 38.7239ZM48.5152 36.3601C48.5393 36.3719 48.566 36.3781 48.5931 36.3781C48.6201 36.3781 48.6468 36.3719 48.6709 36.3601L49.6422 35.8197C49.6833 35.7967 49.6815 35.7589 49.6422 35.7343L49.3429 35.57C49.3188 35.5582 49.2922 35.552 49.2651 35.552C49.2381 35.552 49.2114 35.5582 49.1873 35.57L48.216 36.1088C48.1732 36.1318 48.1766 36.1712 48.216 36.1958L48.5152 36.3601ZM50.8769 37.6742C50.9008 37.6858 50.9271 37.6918 50.9539 37.6918C50.9806 37.6918 51.007 37.6858 51.0308 37.6742L52.0039 37.1355C52.0449 37.1125 52.0432 37.073 52.0039 37.0484L50.8786 36.4258C50.8548 36.4143 50.8284 36.4082 50.8017 36.4082C50.7749 36.4082 50.7486 36.4143 50.7247 36.4258L49.7517 36.9646C49.7106 36.9876 49.7123 37.027 49.7517 37.0517L50.8769 37.6742ZM54.4203 41.1353L55.3916 40.5966C55.4344 40.5736 55.4309 40.5358 55.3916 40.5111L54.2681 39.8869C54.244 39.8751 54.2173 39.8689 54.1902 39.8689C54.1632 39.8689 54.1365 39.8751 54.1124 39.8869L53.1445 40.4191C53.1018 40.4421 53.1052 40.4816 53.1445 40.5062L54.2681 41.1288C54.2912 41.1411 54.3169 41.1481 54.3434 41.1492C54.3698 41.1504 54.3961 41.1456 54.4203 41.1353V41.1353ZM45.6645 37.9387C45.6886 37.9505 45.7153 37.9567 45.7423 37.9567C45.7694 37.9567 45.796 37.9505 45.8201 37.9387L46.7915 37.3999C46.8325 37.3769 46.8308 37.3375 46.7915 37.3129L46.4922 37.1486C46.4681 37.1368 46.4414 37.1306 46.4144 37.1306C46.3873 37.1306 46.3607 37.1368 46.3366 37.1486L45.3601 37.6857C45.3191 37.7087 45.3208 37.7465 45.3601 37.7712L45.6645 37.9387ZM34.0956 44.8116C34.1197 44.8235 34.1464 44.8296 34.1734 44.8296C34.2005 44.8296 34.2271 44.8235 34.2512 44.8116L35.2243 44.2728C35.2653 44.2498 35.2619 44.2121 35.2243 44.1874L34.1007 43.5632C34.0766 43.5514 34.05 43.5452 34.0229 43.5452C33.9959 43.5452 33.9692 43.5514 33.9451 43.5632L32.9652 44.0922C32.9242 44.1151 32.9259 44.1546 32.9652 44.1792L34.0956 44.8116Z" fill="#455A64"/>
<path d="M40.3964 53.0015L49.9902 47.6809C50.1525 47.6016 50.3321 47.5602 50.5143 47.5602C50.6965 47.5602 50.8761 47.6016 51.0385 47.6809L56.5399 50.7314C56.8289 50.8956 56.8289 51.1519 56.5399 51.3112L46.9445 56.6335C46.7821 56.712 46.6029 56.753 46.4212 56.753C46.2394 56.753 46.0602 56.712 45.8979 56.6335L40.3964 53.5814C40.1074 53.4221 40.1074 53.1609 40.3964 53.0015Z" fill="#263238"/>
<path d="M40.6218 22.6607L43.2431 21.3469L40.1852 15.6787C39.6685 14.736 38.5309 14.1028 36.8928 14.0038C33.5952 13.7883 29.5371 15.8074 27.8204 18.502C26.9607 19.8514 26.8503 21.1133 27.3753 22.0652L30.459 27.779L33.1462 26.4253C35.8853 26.2284 38.912 24.7112 40.6218 22.6607Z" fill="#455A64"/>
<path d="M39.9594 19.6933C36.6727 19.4926 32.6175 21.5135 30.9008 24.2081C29.1841 26.9027 30.4583 29.2472 33.745 29.448C37.0317 29.6487 41.0878 27.6264 42.8036 24.9331C44.5193 22.2399 43.247 19.8926 39.9594 19.6933Z" fill="#263238"/>
<path d="M42.4072 25.7095L44.8858 24.4605L43.3543 21.6384C42.8662 20.7431 41.7866 20.143 40.2339 20.0498C37.1134 19.8556 33.2773 21.7745 31.6541 24.3223C30.8395 25.601 30.7363 26.7974 31.2264 27.6959L32.7822 30.5627L35.3293 29.2794C37.9125 29.0981 40.7842 27.6555 42.4072 25.7095Z" fill="#F5F5F5"/>
<path d="M32.5624 23.1709C32.2172 23.5229 31.9091 23.9085 31.6424 24.3222C30.8278 25.6009 30.7246 26.7973 31.2147 27.6957L32.7705 30.5625L35.3176 29.2793C35.4929 29.2682 35.6697 29.2485 35.8475 29.2273L32.5624 23.1709Z" fill="#EBEBEB"/>
<path d="M41.7792 22.9014C38.6578 22.7086 34.8216 24.6276 33.195 27.1809C31.5683 29.7342 32.7762 31.9567 35.8896 32.1463C39.0029 32.3359 42.8486 30.4211 44.4708 27.8747C46.093 25.3283 44.894 23.0919 41.7792 22.9014Z" fill="#E0E0E0"/>
<path d="M52.1032 51.8676C51.3684 51.9039 50.4238 50.9009 50.3637 50.8392C50.4044 50.8963 51.0307 51.8484 50.7161 52.8322C50.5948 53.201 50.0974 53.4119 49.7644 53.4159C48.6613 53.4319 47.8495 52.1727 47.4344 51.4525C47.5356 51.8451 47.5473 52.2518 47.4688 52.643C47.3536 53.0721 47.0366 53.4233 46.6249 53.4201C45.7394 53.4129 44.8494 52.8907 43.0661 49.4739C43.0814 49.6861 43.0415 49.8967 42.9501 50.0856C42.9424 50.1008 42.9333 50.1152 42.9228 50.1286C42.8693 50.2141 42.7955 50.2852 42.7074 50.3361C42.6575 50.3644 42.6036 50.3858 42.5473 50.3997C42.3714 50.4381 42.1868 50.4324 42.0105 50.3829C40.843 50.1086 39.2957 46.9005 38.2264 44.7566C37.157 42.6126 35.7771 39.371 35.2528 37.5236C34.4824 34.8182 35.2312 34.2474 34.3536 31.8439C34.0859 31.129 33.7698 30.4311 33.4073 29.7549C33.371 29.7006 32.9845 28.9324 32.6596 28.2774C32.7921 27.8919 32.9709 27.5246 33.1923 27.1834C33.3169 26.9867 33.4534 26.798 33.6012 26.618C35.3958 24.3548 38.8972 22.729 41.7757 22.9053C42.2512 22.9297 42.7234 23.017 43.1797 23.1648C43.5217 23.8598 44.0001 24.8307 44.0308 24.8971C44.302 25.5251 44.6383 26.1258 45.0343 26.6894C45.2277 26.9587 45.4254 27.2054 45.6361 27.4506C46.2606 28.1796 48.4651 30.3845 49.5966 31.8358C50.7281 33.287 51.7001 34.734 52.0429 35.4373C52.3856 36.1406 52.76 38.9267 53.3194 40.3466C53.8788 41.7664 53.6083 42.4393 52.5995 42.0304C51.5907 41.6214 50.3056 40.7423 49.7059 39.2521C49.1062 37.7618 48.9305 37.2642 48.5367 37.0484C48.1429 36.8326 48.528 38.0615 48.7428 38.8255C48.8723 39.3456 48.9633 39.8729 49.0151 40.4032C49.0691 40.8661 49.1595 41.3255 49.2854 41.7772C49.5365 42.6753 49.9925 44.1461 50.5749 45.2943C51.4786 47.0776 52.5881 49.0504 52.8545 49.9914C53.1208 50.9323 52.8625 51.8312 52.1032 51.8676Z" fill="#FFA8A7"/>
<path d="M52.1994 51.3299C51.7231 51.301 51.2829 50.9193 50.6606 50.1392C50.0384 49.3591 48.7289 47.1751 48.2759 46.3392C48.0167 45.8644 47.018 44.0011 46.2041 42.4873C46.1938 42.4663 46.1756 42.4499 46.1535 42.4417C46.1314 42.4334 46.1072 42.434 46.0861 42.4434C46.0651 42.4527 46.0491 42.47 46.0415 42.4915C46.0339 42.5129 46.0354 42.5368 46.0457 42.5578C46.6897 43.9945 47.4849 45.7476 47.8615 46.4901C48.7042 48.1527 49.4877 49.3959 50.3626 50.8394C50.3626 50.8394 51.3449 51.9074 52.1041 51.871C52.5943 51.8463 52.8724 51.4606 52.938 50.9376C52.8586 51.058 52.7498 51.1566 52.6212 51.225C52.4926 51.2933 52.3478 51.3293 52.1994 51.3299V51.3299Z" fill="#F28F8F"/>
<path d="M49.7754 53.0222C49.0163 52.7879 48.2724 51.5621 47.9756 51.0731C47.6789 50.5841 45.6633 47.1245 45.3459 46.5152L43.5204 43.015C43.5103 42.9941 43.4962 42.9752 43.4788 42.9595C43.4615 42.9437 43.4413 42.9313 43.4193 42.923C43.3974 42.9147 43.3742 42.9107 43.351 42.9112C43.3278 42.9117 43.3051 42.9167 43.2842 42.9259C43.2633 42.9351 43.2446 42.9483 43.2292 42.9648C43.2137 42.9813 43.2019 43.0007 43.1942 43.022C43.1866 43.0433 43.1834 43.066 43.1847 43.0888C43.1861 43.1116 43.192 43.1341 43.2021 43.155C44.0655 45.0685 45.2447 47.1578 45.8136 48.1649C46.4263 49.224 46.9645 50.3211 47.4243 51.4484C47.8394 52.1686 48.6503 53.4292 49.7543 53.4119C50.0888 53.4088 50.5847 53.1969 50.7061 52.8282C50.7113 52.8295 50.442 53.2267 49.7754 53.0222Z" fill="#F28F8F"/>
<path d="M46.6233 53.4145C46.9946 53.4173 47.2893 53.1298 47.4269 52.7579C47.3377 52.8883 47.2025 52.981 47.0461 53.0191C46.8896 53.0571 46.7224 53.0379 46.5751 52.9651C46.0165 52.7183 45.6288 52.3116 45.1448 51.7091C44.6607 51.1067 43.485 48.7255 43.0771 48.0098C42.8223 47.5632 41.4458 44.7969 40.4461 42.7792C40.3854 42.6548 40.2819 42.7758 40.3376 42.9048C41.0553 44.4391 41.4191 45.3194 41.7309 46.0362C42.3123 47.3707 42.912 48.6 43.0583 49.4684C44.8477 52.8852 45.7334 53.4046 46.6233 53.4145Z" fill="#F28F8F"/>
<path d="M42.9247 50.1262C42.8712 50.2117 42.7974 50.2828 42.7093 50.3337C42.6594 50.362 42.6055 50.3834 42.5492 50.3973C42.3733 50.4357 42.1888 50.43 42.0124 50.3805C40.8449 50.1062 39.2977 46.8981 38.2283 44.7542C37.1589 42.6102 35.7791 39.3686 35.2548 37.5212C34.4843 34.8158 35.2332 34.245 34.3555 31.8415C34.0879 31.1266 33.7717 30.4287 33.4093 29.7525C33.3729 29.6982 32.9864 28.93 32.6615 28.275C32.794 27.8895 32.9728 27.5222 33.1943 27.181C33.3188 26.9843 33.4553 26.7956 33.6031 26.6156C34.6293 28.6522 35.9455 31.0294 36.2076 32.0534C36.2166 32.0903 36.2259 32.1234 36.2328 32.1571C36.5609 33.4977 36.347 34.5242 36.0978 36.1884C35.8505 37.9007 37.3491 40.8381 38.7126 43.9876C40.0762 47.137 41.1238 49.086 41.758 49.79C41.8551 49.9017 41.9675 49.9996 42.0919 50.0806C42.2163 50.1773 42.3692 50.2299 42.5249 50.2297C42.6805 50.2295 42.8294 50.1765 42.9463 50.0796C42.945 50.0943 42.9344 50.1109 42.9247 50.1262Z" fill="#F28F8F"/>
<path d="M43.3964 23.6121L43.1778 23.169C42.7215 23.0212 42.2492 22.9339 41.7737 22.9094C38.8997 22.7262 35.3948 24.3575 33.6036 26.6152C33.4559 26.7952 33.3194 26.984 33.1948 27.1806C32.9733 27.5219 32.7945 27.8891 32.662 28.2747C32.9869 28.9296 33.3746 29.7024 33.4098 29.7522C33.5381 29.9995 33.6542 30.2311 33.7613 30.4513C34.101 29.988 34.4524 29.497 34.81 28.977C38.8428 23.1146 43.3964 23.6121 43.3964 23.6121Z" fill="#F28F8F"/>
<path opacity="0.5" d="M48.7444 38.8242C48.529 38.0579 48.1451 36.8336 48.5397 37.048C47.6675 36.5488 46.109 36.9232 43.6525 35.6134C41.1961 34.3036 39.663 31.9168 39.663 31.9168C39.663 31.9168 41.0201 34.4175 40.1536 36.4364C39.6396 37.6379 38.5989 38.5077 39.7424 39.2907C40.9269 40.1018 42.4073 40.2288 45.0657 39.1528C47.2213 38.2804 48.7494 39.2364 49.058 40.7126C49.0509 40.6283 49.0296 40.5153 49.0167 40.4019C48.9649 39.8716 48.8739 39.3443 48.7444 38.8242Z" fill="#F28F8F"/>
<path d="M47.7346 41.7338C46.4319 42.4387 42.0109 43.4709 39.0341 42.3223C40.4117 43.1918 42.0395 43.5668 43.6313 43.3813C46.3512 43.0904 47.7346 41.7338 47.7346 41.7338Z" fill="#F28F8F"/>
</svg>
