<svg width="46" height="48" viewBox="0 0 46 48" fill="none" xmlns="http://www.w3.org/2000/svg">
<path d="M30.0881 38.5571H15.9243V36.4499C15.9243 34.2638 15.0642 32.0717 13.5032 30.276C11.4943 27.9697 10.3982 25.0149 10.4162 21.9571C10.4556 15.3678 15.8363 9.75968 22.4107 9.45596C25.8951 9.29931 29.1889 10.5269 31.6998 12.9253C34.2123 15.3253 35.5964 18.5593 35.5964 22.0326C35.5964 25.1179 34.4648 28.086 32.4095 30.3908C30.9129 32.0692 30.0881 34.2191 30.0881 36.4442V38.5571V38.5571Z" fill="#FBBC05"/>
<path d="M45.0378 26.754V17.3114H41.2899C40.8492 15.5999 40.1725 13.968 39.2716 12.4429L41.9226 9.79109L35.2468 3.1152L32.5949 5.76622C31.0699 4.8653 29.4379 4.1878 27.7265 3.74792V0H18.2839V3.74792C16.5724 4.18863 14.9405 4.8653 13.4154 5.76622L10.7637 3.1152L4.08785 9.79109L6.73888 12.4429C5.83796 13.968 5.16046 15.5999 4.72058 17.3114H0.972656V26.754H4.72058C5.16128 28.4654 5.83796 30.0974 6.73888 31.6224L4.08785 34.2743L10.7637 40.9502L13.4171 38.2976C13.7271 38.4771 14.0615 38.6533 14.4102 38.8287C14.3732 38.9948 14.3496 39.1663 14.3496 39.3441C14.3496 40.1821 14.7918 40.9156 15.4519 41.3342C15.2568 41.6781 15.1363 42.0692 15.1363 42.4917C15.1363 43.3297 15.5785 44.0632 16.2386 44.4818C16.0435 44.8256 15.923 45.2168 15.923 45.6393C15.923 46.9408 16.9822 48 18.2837 48H27.7263C29.0278 48 30.087 46.9408 30.087 45.6393C30.087 45.2168 29.9665 44.8256 29.7714 44.4818C30.4315 44.0632 30.8737 43.3299 30.8737 42.4917C30.8737 42.0692 30.7532 41.6781 30.5581 41.3342C31.2182 40.9156 31.6604 40.1823 31.6604 39.3441C31.6604 39.1663 31.6368 38.9948 31.5998 38.8279C31.9476 38.6533 32.2828 38.4769 32.5929 38.2968L35.2463 40.9493L41.9222 34.2734L39.2711 31.6216C40.1729 30.0965 40.8495 28.4646 41.2894 26.7531H45.0373V26.754H45.0378ZM16.7102 40.1309C16.2758 40.1309 15.9234 39.7784 15.9234 39.344C15.9234 38.9096 16.2758 38.5571 16.7102 38.5571H29.3003C29.7347 38.5571 30.0871 38.9096 30.0871 39.344C30.0871 39.7784 29.7347 40.1309 29.3003 40.1309H28.5134H17.497H16.7102ZM20.6446 30.3917C21.0993 30.582 21.5975 30.6883 22.12 30.6883H22.2184V33.049H23.7921V30.6883H23.8905C24.413 30.6883 24.911 30.582 25.3659 30.3917V36.9833H20.6447V30.3917H20.6446V30.3917ZM29.3003 42.4916C29.3003 42.926 28.9478 43.2785 28.5134 43.2785H27.7265H18.2839H17.497C17.0625 43.2785 16.7101 42.926 16.7101 42.4916C16.7101 42.0571 17.0625 41.7047 17.497 41.7047H28.5134C28.9478 41.7047 29.3003 42.0571 29.3003 42.4916ZM27.7266 46.4259H18.284C17.8496 46.4259 17.4971 46.0734 17.4971 45.639C17.4971 45.2046 17.8496 44.8521 18.284 44.8521H27.7266C28.1611 44.8521 28.5135 45.2046 28.5135 45.639C28.5134 46.0734 28.1609 46.4259 27.7266 46.4259ZM39.9012 25.7964C39.4661 27.7588 38.6966 29.6158 37.6129 31.3172L37.2738 31.85L39.6975 34.2743L35.2469 38.7248L32.8226 36.3012L32.2899 36.6402C31.8326 36.9322 31.311 37.2115 30.7452 37.4909C30.3438 37.1778 29.8474 36.9835 29.3004 36.9835H26.9397V29.1548C27.4269 28.512 27.7266 27.7203 27.7266 26.8525V26.6558C27.7266 24.5407 26.0058 22.8198 23.8906 22.8198H22.1202C20.8729 22.8198 19.858 21.8047 19.858 20.5576V20.361C19.858 19.1137 20.8731 18.0988 22.1202 18.0988H23.8906C25.1379 18.0988 26.1528 19.1139 26.1528 20.361V20.4593H27.7266V20.361C27.7266 18.2458 26.0058 16.525 23.8906 16.525H23.7921V14.1638H22.2184V16.5245H22.12C20.0049 16.5245 18.284 18.2453 18.284 20.3605V20.5571C18.284 22.6723 20.0049 24.3931 22.12 24.3931H23.8905C25.1377 24.3931 26.1527 25.4082 26.1527 26.6553V26.852C26.1527 28.0992 25.1376 29.1142 23.8905 29.1142H22.12C20.8728 29.1142 19.8578 28.3273 19.8578 26.7535H18.284C18.284 27.5404 18.5838 28.5105 19.0709 29.1543V36.983H16.7102C16.1633 36.983 15.6669 37.1773 15.2655 37.4904C14.6997 37.2112 14.178 36.9317 13.7208 36.6397L13.1881 36.3007L10.7637 38.7243L6.3132 34.2738L8.73685 31.8495L8.39777 31.3167C7.31426 29.6163 6.54471 27.7592 6.10946 25.7959L5.97247 25.1797H2.54645V18.8847H5.97247L6.10946 18.2685C6.54455 16.306 7.31409 14.449 8.39777 12.7477L8.73685 12.2149L6.3132 9.79109L10.7637 5.34055L13.1881 7.7642L13.7208 7.42511C15.4212 6.3416 17.2784 5.57206 19.2416 5.1368L19.8578 4.99981V1.57379H26.1528V4.99981L26.769 5.1368C28.7315 5.57189 30.5885 6.34144 32.2899 7.42511L32.8226 7.7642L35.2469 5.34055L39.6975 9.79109L37.2738 12.2154L37.6129 12.7481C38.6964 14.4485 39.466 16.3057 39.9012 18.269L40.0382 18.8852H43.4642V25.1802H40.0382L39.9012 25.7964Z" fill="#ADADAD"/>
</svg>
