<svg width="57" height="49" viewBox="0 0 57 49" fill="none" xmlns="http://www.w3.org/2000/svg">
<path d="M33.8438 7.3666V7.36438C33.8438 6.49867 33.142 5.79688 32.2762 5.79688L15.007 5.79688C14.1413 5.79688 13.4395 6.49867 13.4395 7.36438V7.3666C13.4395 8.23231 14.1413 8.9341 15.007 8.9341L32.2762 8.9341C33.142 8.9341 33.8438 8.23231 33.8438 7.3666Z" fill="#FBBC05"/>
<path d="M26.9121 11.891V11.8888C26.9121 11.0231 26.2103 10.3213 25.3446 10.3213H15.0067C14.141 10.3213 13.4392 11.0231 13.4392 11.8888V11.891C13.4392 12.7567 14.141 13.4585 15.0067 13.4585H25.3446C26.2103 13.4585 26.9121 12.7567 26.9121 11.891Z" fill="#FBBC05"/>
<path d="M24.3242 16.4154V16.4132C24.3242 15.5475 23.6224 14.8457 22.7567 14.8457H15.0061C14.1403 14.8457 13.4386 15.5475 13.4386 16.4132V16.4154C13.4386 17.2811 14.1403 17.9829 15.0061 17.9829H22.7567C23.6224 17.9829 24.3242 17.2811 24.3242 16.4154Z" fill="#FBBC05"/>
<path d="M31.8457 20.9398V20.9376C31.8457 20.0719 31.1439 19.3701 30.2782 19.3701H15.0062C14.1405 19.3701 13.4387 20.0719 13.4387 20.9376V20.9398C13.4387 21.8055 14.1405 22.5073 15.0062 22.5073H30.2782C31.1439 22.5073 31.8457 21.8055 31.8457 20.9398Z" fill="#FBBC05"/>
<path d="M9.79688 48.1016C9.67877 48.1016 9.5655 48.0546 9.48199 47.9711C9.39848 47.8876 9.35156 47.7744 9.35156 47.6562V1.34375C9.35156 1.22565 9.39848 1.11238 9.48199 1.02887C9.5655 0.945354 9.67877 0.898438 9.79688 0.898438C9.91498 0.898438 10.0282 0.945354 10.1118 1.02887C10.1953 1.11238 10.2422 1.22565 10.2422 1.34375V47.6562C10.2422 47.7744 10.1953 47.8876 10.1118 47.9711C10.0282 48.0546 9.91498 48.1016 9.79688 48.1016Z" fill="#ADADAD"/>
<path d="M11.1328 43.2031L16.9219 34.593L22.7109 31.6985L28.5 34.2123L34.2891 26.2011L40.0781 26.8757L45.8672 11.5859V43.2031H11.1328Z" fill="#C9E0EA"/>
<path d="M27.831 36.7773L33.62 39.2911L39.4091 31.2799L45.1982 31.9545L45.8661 30.1889V11.5859L40.0771 26.8757L34.288 26.2011L28.4989 34.2123L22.7099 31.6985L16.9208 34.593L13.0488 40.3509L21.5921 40.3398L22.0419 39.6718L27.831 36.7773Z" fill="#E6F6FA"/>
<path d="M45.8679 43.6485H11.1335C11.0526 43.6487 10.9732 43.6267 10.9038 43.5851C10.8344 43.5435 10.7777 43.4838 10.7397 43.4124C10.7017 43.341 10.6839 43.2606 10.6881 43.1798C10.6924 43.099 10.7186 43.0209 10.7639 42.9539L16.5529 34.3437C16.5962 34.28 16.6553 34.2286 16.7244 34.1946L22.5134 31.3C22.5724 31.2726 22.6366 31.2583 22.7016 31.2583C22.7666 31.2583 22.8308 31.2726 22.8897 31.3L28.3493 33.6713L33.929 25.9496C33.9755 25.8857 34.0382 25.8353 34.1105 25.8036C34.1829 25.7719 34.2625 25.7601 34.3409 25.7692L39.7849 26.4038L45.4515 11.4391C45.488 11.3425 45.5571 11.2616 45.6467 11.2102C45.7363 11.1589 45.841 11.1403 45.9429 11.1577C46.0447 11.1751 46.1373 11.2273 46.2049 11.3054C46.2724 11.3836 46.3107 11.4828 46.3132 11.586V43.2032C46.3132 43.3213 46.2663 43.4346 46.1827 43.5181C46.0992 43.6016 45.986 43.6485 45.8679 43.6485ZM11.9684 42.7579H45.4225V14.0197L40.4952 27.0317C40.4601 27.1245 40.3951 27.2029 40.3104 27.2546C40.2257 27.3062 40.1261 27.3281 40.0276 27.3167L34.499 26.6732L28.8636 34.4662C28.804 34.5485 28.7181 34.6079 28.6201 34.6346C28.5221 34.6614 28.4179 34.6538 28.3248 34.6131L22.7272 32.1817L17.2276 34.9405L11.9684 42.7579Z" fill="#ADADAD"/>
<path d="M51.6562 43.6484H5.34375C5.22565 43.6484 5.11238 43.6015 5.02887 43.518C4.94535 43.4345 4.89844 43.3212 4.89844 43.2031C4.89844 43.085 4.94535 42.9718 5.02887 42.8882C5.11238 42.8047 5.22565 42.7578 5.34375 42.7578H51.6562C51.7744 42.7578 51.8876 42.8047 51.9711 42.8882C52.0546 42.9718 52.1016 43.085 52.1016 43.2031C52.1016 43.3212 52.0546 43.4345 51.9711 43.518C51.8876 43.6015 51.7744 43.6484 51.6562 43.6484Z" fill="#ADADAD"/>
<path d="M46.0898 48.7695C46.7047 48.7695 47.2031 48.2711 47.2031 47.6562C47.2031 47.0414 46.7047 46.543 46.0898 46.543C45.475 46.543 44.9766 47.0414 44.9766 47.6562C44.9766 48.2711 45.475 48.7695 46.0898 48.7695Z" fill="#D4FFD4"/>
<path d="M6.45703 34.0742C6.94891 34.0742 7.34766 33.6755 7.34766 33.1836C7.34766 32.6917 6.94891 32.293 6.45703 32.293C5.96515 32.293 5.56641 32.6917 5.56641 33.1836C5.56641 33.6755 5.96515 34.0742 6.45703 34.0742Z" fill="#D4FFD4"/>
<path d="M38.5195 16.4844C38.8884 16.4844 39.1875 16.1853 39.1875 15.8164C39.1875 15.4475 38.8884 15.1484 38.5195 15.1484C38.1506 15.1484 37.8516 15.4475 37.8516 15.8164C37.8516 16.1853 38.1506 16.4844 38.5195 16.4844Z" fill="#D4FFD4"/>
<path d="M23.1562 26.7266C23.4022 26.7266 23.6016 26.5272 23.6016 26.2812C23.6016 26.0353 23.4022 25.8359 23.1562 25.8359C22.9103 25.8359 22.7109 26.0353 22.7109 26.2812C22.7109 26.5272 22.9103 26.7266 23.1562 26.7266Z" fill="#D4FFD4"/>
<path d="M6.45703 47.4336C6.58 47.4336 6.67969 47.3339 6.67969 47.2109C6.67969 47.088 6.58 46.9883 6.45703 46.9883C6.33406 46.9883 6.23438 47.088 6.23438 47.2109C6.23438 47.3339 6.33406 47.4336 6.45703 47.4336Z" fill="#D4FFD4"/>
<path d="M1.55859 39.418C2.17344 39.418 2.67188 38.9195 2.67188 38.3047C2.67188 37.6898 2.17344 37.1914 1.55859 37.1914C0.943745 37.1914 0.445312 37.6898 0.445312 38.3047C0.445312 38.9195 0.943745 39.418 1.55859 39.418Z" fill="#FFBDBD"/>
<path d="M44.5312 3.79297C45.0231 3.79297 45.4219 3.39422 45.4219 2.90234C45.4219 2.41047 45.0231 2.01172 44.5312 2.01172C44.0394 2.01172 43.6406 2.41047 43.6406 2.90234C43.6406 3.39422 44.0394 3.79297 44.5312 3.79297Z" fill="#FFBDBD"/>
<path d="M6.67969 16.0391C7.0486 16.0391 7.34766 15.74 7.34766 15.3711C7.34766 15.0022 7.0486 14.7031 6.67969 14.7031C6.31078 14.7031 6.01172 15.0022 6.01172 15.3711C6.01172 15.74 6.31078 16.0391 6.67969 16.0391Z" fill="#FFBDBD"/>
<path d="M50.0977 12.9219C50.3436 12.9219 50.543 12.7225 50.543 12.4766C50.543 12.2306 50.3436 12.0312 50.0977 12.0312C49.8517 12.0312 49.6523 12.2306 49.6523 12.4766C49.6523 12.7225 49.8517 12.9219 50.0977 12.9219Z" fill="#FFBDBD"/>
<path d="M52.7695 20.9375C52.8925 20.9375 52.9922 20.8378 52.9922 20.7148C52.9922 20.5919 52.8925 20.4922 52.7695 20.4922C52.6466 20.4922 52.5469 20.5919 52.5469 20.7148C52.5469 20.8378 52.6466 20.9375 52.7695 20.9375Z" fill="#FFBDBD"/>
<path d="M33.6211 2.45703C34.2359 2.45703 34.7344 1.9586 34.7344 1.34375C34.7344 0.728902 34.2359 0.230469 33.6211 0.230469C33.0062 0.230469 32.5078 0.728902 32.5078 1.34375C32.5078 1.9586 33.0062 2.45703 33.6211 2.45703Z" fill="#ADADAD"/>
<path d="M4.89844 26.0586C5.39032 26.0586 5.78906 25.6598 5.78906 25.168C5.78906 24.6761 5.39032 24.2773 4.89844 24.2773C4.40656 24.2773 4.00781 24.6761 4.00781 25.168C4.00781 25.6598 4.40656 26.0586 4.89844 26.0586Z" fill="#ADADAD"/>
<path d="M31.8398 46.3203C32.2088 46.3203 32.5078 46.0213 32.5078 45.6523C32.5078 45.2834 32.2088 44.9844 31.8398 44.9844C31.4709 44.9844 31.1719 45.2834 31.1719 45.6523C31.1719 46.0213 31.4709 46.3203 31.8398 46.3203Z" fill="#ADADAD"/>
<path d="M36.7383 19.1562C36.9842 19.1562 37.1836 18.9569 37.1836 18.7109C37.1836 18.465 36.9842 18.2656 36.7383 18.2656C36.4923 18.2656 36.293 18.465 36.293 18.7109C36.293 18.9569 36.4923 19.1562 36.7383 19.1562Z" fill="#ADADAD"/>
<path d="M6.23438 7.80078C6.35734 7.80078 6.45703 7.70109 6.45703 7.57812C6.45703 7.45516 6.35734 7.35547 6.23438 7.35547C6.11141 7.35547 6.01172 7.45516 6.01172 7.57812C6.01172 7.70109 6.11141 7.80078 6.23438 7.80078Z" fill="#ADADAD"/>
<path d="M55.4414 36.3008C56.0563 36.3008 56.5547 35.8023 56.5547 35.1875C56.5547 34.5727 56.0563 34.0742 55.4414 34.0742C54.8266 34.0742 54.3281 34.5727 54.3281 35.1875C54.3281 35.8023 54.8266 36.3008 55.4414 36.3008Z" fill="#FFF4C5"/>
<path d="M48.7617 19.6016C49.2536 19.6016 49.6523 19.2028 49.6523 18.7109C49.6523 18.2191 49.2536 17.8203 48.7617 17.8203C48.2698 17.8203 47.8711 18.2191 47.8711 18.7109C47.8711 19.2028 48.2698 19.6016 48.7617 19.6016Z" fill="#FFF4C5"/>
<path d="M21.5977 4.46094C21.9666 4.46094 22.2656 4.16188 22.2656 3.79297C22.2656 3.42406 21.9666 3.125 21.5977 3.125C21.2287 3.125 20.9297 3.42406 20.9297 3.79297C20.9297 4.16188 21.2287 4.46094 21.5977 4.46094Z" fill="#FFF4C5"/>
<path d="M16.4766 30.5117C16.7225 30.5117 16.9219 30.3123 16.9219 30.0664C16.9219 29.8205 16.7225 29.6211 16.4766 29.6211C16.2306 29.6211 16.0312 29.8205 16.0312 30.0664C16.0312 30.3123 16.2306 30.5117 16.4766 30.5117Z" fill="#FFF4C5"/>
<path d="M21.8203 48.1016C21.9433 48.1016 22.043 48.0019 22.043 47.8789C22.043 47.7559 21.9433 47.6562 21.8203 47.6562C21.6973 47.6562 21.5977 47.7559 21.5977 47.8789C21.5977 48.0019 21.6973 48.1016 21.8203 48.1016Z" fill="#FFF4C5"/>
</svg>
