<svg width="500" height="500" viewBox="0 0 500 500" fill="none" xmlns="http://www.w3.org/2000/svg">
<path d="M92.6378 317.14L77.8078 317.42L70.2978 317.53C67.7878 317.58 65.2678 317.57 62.7478 317.59H62.3078V317.14L62.2578 304.51V304.01H62.7578L77.7078 304.07C82.6878 304.08 87.6778 304.18 92.6578 304.23H92.9378V304.5C92.9178 306.64 92.8478 308.77 92.8078 310.88L92.6378 317.14ZM92.6378 317.14L92.4978 310.76C92.4478 308.66 92.3878 306.57 92.3678 304.5L92.6378 304.77C87.6578 304.82 82.6678 304.93 77.6878 304.93L62.7378 304.99L63.2378 304.49L63.1878 317.12L62.7378 316.67C65.2078 316.69 67.6678 316.68 70.1378 316.73L77.5678 316.84L92.6378 317.14Z" fill="#A4A9B9"/>
<path d="M75.9581 333.07L61.1281 333.35L53.6181 333.46C51.1081 333.51 48.5881 333.5 46.0681 333.51H45.6281V333.06L45.5781 320.43V319.93H46.0781L61.0081 320C65.9881 320 70.9781 320.11 75.9581 320.16H76.2381V320.43C76.2181 322.57 76.1481 324.7 76.1081 326.81L75.9581 333.07ZM75.9581 333.07L75.8181 326.69C75.7681 324.59 75.7081 322.5 75.6881 320.43L75.9581 320.7C70.9781 320.75 65.9881 320.86 61.0081 320.86L46.0581 320.92L46.5581 320.42L46.5081 333.05L46.0581 332.6C48.5281 332.62 50.9881 332.61 53.4581 332.65L60.8881 332.76L75.9581 333.07Z" fill="#A4A9B9"/>
<path d="M75.9581 59.7101L61.1281 59.9901L53.6181 60.1001C51.1081 60.1501 48.5881 60.1401 46.0681 60.1601H45.6281V59.7101L45.5781 47.0801V46.5801H46.0781L61.0281 46.6401C66.0081 46.6501 70.9981 46.7501 75.9781 46.8001H76.2581V47.0701C76.2381 49.2101 76.1681 51.3401 76.1281 53.4501L75.9581 59.7101ZM75.9581 59.7101L75.8181 53.3301C75.7681 51.2301 75.7081 49.1401 75.6881 47.0701L75.9581 47.3401C70.9781 47.3901 65.9881 47.5001 61.0081 47.5001L46.0581 47.5601L46.5581 47.0601L46.5081 59.6901L46.0581 59.2401C48.5281 59.2601 50.9881 59.2501 53.4581 59.3001L60.8881 59.4101L75.9581 59.7101Z" fill="#A4A9B9"/>
<path d="M453.937 59.7101L439.107 59.9901L431.587 60.1001C429.077 60.1501 426.557 60.1401 424.037 60.1601H423.597V59.7101L423.547 47.0801V46.5801H424.047L438.997 46.6401C443.977 46.6501 448.967 46.7501 453.947 46.8001H454.227V47.0701C454.207 49.2101 454.137 51.3401 454.097 53.4501L453.937 59.7101ZM453.937 59.7101L453.797 53.3301C453.747 51.2301 453.687 49.1401 453.667 47.0701L453.937 47.3401C448.957 47.3901 443.967 47.5001 438.987 47.5001L424.037 47.5601L424.537 47.0601L424.487 59.6901L424.037 59.2401C426.507 59.2601 428.967 59.2501 431.437 59.3001L438.867 59.4101L453.937 59.7101Z" fill="#A4A9B9"/>
<path d="M437.257 75.64L422.427 75.92L414.907 76.03C412.397 76.08 409.877 76.07 407.357 76.08H406.917V75.63L406.867 63V62.5H407.367L422.317 62.56C427.297 62.56 432.287 62.67 437.267 62.72H437.547V62.99C437.527 65.13 437.457 67.26 437.417 69.37L437.257 75.64ZM437.257 75.64L437.117 69.26C437.067 67.16 437.007 65.07 436.987 63L437.257 63.27C432.277 63.32 427.287 63.43 422.307 63.43L407.357 63.49L407.857 62.99L407.807 75.62L407.357 75.17C409.827 75.19 412.287 75.18 414.757 75.23L422.187 75.34L437.257 75.64Z" fill="#A4A9B9"/>
<path d="M360.689 223.44L345.859 223.72L338.349 223.83C335.839 223.88 333.319 223.87 330.799 223.89H330.359V223.44L330.309 210.81V210.31H330.809L345.759 210.37C350.739 210.38 355.729 210.48 360.709 210.53H360.989V210.8C360.969 212.94 360.899 215.07 360.859 217.18L360.689 223.44ZM360.689 223.44L360.549 217.06C360.499 214.96 360.439 212.87 360.419 210.8L360.689 211.07C355.709 211.12 350.719 211.23 345.739 211.23L330.789 211.29L331.289 210.79L331.239 223.42L330.789 222.97C333.259 222.99 335.719 222.98 338.189 223.02L345.619 223.13L360.689 223.44Z" fill="#A4A9B9"/>
<path d="M344.009 239.37L329.179 239.65L321.669 239.76C319.159 239.81 316.639 239.8 314.119 239.82H313.679V239.37L313.629 226.74V226.24H314.129L329.079 226.3C334.059 226.31 339.049 226.41 344.029 226.46H344.309V226.73C344.289 228.87 344.219 231 344.179 233.11L344.009 239.37ZM344.009 239.37L343.869 232.99C343.819 230.89 343.759 228.8 343.739 226.73L344.009 227C339.029 227.05 334.039 227.16 329.059 227.16L314.109 227.22L314.609 226.72L314.559 239.35L314.109 238.9C316.579 238.92 319.039 238.91 321.509 238.95L328.939 239.06L344.009 239.37Z" fill="#A4A9B9"/>
<path d="M327.398 223.44L312.568 223.72L305.048 223.83C302.538 223.88 300.018 223.87 297.498 223.89H297.058V223.44L297.008 210.81V210.31H297.508L312.458 210.37C317.438 210.38 322.428 210.48 327.408 210.53H327.688V210.8C327.668 212.94 327.598 215.07 327.558 217.18L327.398 223.44ZM327.398 223.44L327.258 217.06C327.218 214.96 327.148 212.87 327.128 210.8L327.398 211.07C322.418 211.12 317.428 211.23 312.448 211.23L297.498 211.29L297.998 210.79L297.948 223.42L297.498 222.97C299.968 222.99 302.428 222.98 304.898 223.02L312.328 223.13L327.398 223.44Z" fill="#A4A9B9"/>
<path d="M453.937 333.07L439.107 333.35L431.587 333.46C429.077 333.51 426.557 333.5 424.037 333.51H423.597V333.06L423.547 320.43V319.93H424.047L438.997 319.99C443.977 319.99 448.967 320.1 453.947 320.15H454.227V320.42C454.207 322.56 454.137 324.69 454.097 326.8L453.937 333.07ZM453.937 333.07L453.797 326.69C453.747 324.59 453.687 322.5 453.667 320.43L453.937 320.7C448.957 320.75 443.967 320.86 438.987 320.86L424.037 320.92L424.537 320.42L424.487 333.05L424.037 332.6C426.507 332.62 428.967 332.61 431.437 332.65L438.867 332.76L453.937 333.07Z" fill="#A4A9B9"/>
<path d="M199.927 97.2799L185.097 97.5599L177.587 97.6699C175.077 97.7199 172.557 97.7099 170.037 97.7299H169.597V97.2799L169.547 84.6499V84.1499H170.047L184.997 84.2099C189.977 84.2099 194.967 84.3199 199.947 84.3699H200.227V84.6399C200.207 86.7799 200.137 88.9099 200.097 91.0199L199.927 97.2799ZM199.927 97.2799L199.787 90.8999C199.737 88.7999 199.677 86.7099 199.657 84.6399L199.927 84.9099C194.947 84.9599 189.957 85.0699 184.977 85.0699L170.027 85.1299L170.527 84.6299L170.477 97.2599L170.027 96.8099C172.497 96.8299 174.957 96.8199 177.427 96.8699L184.857 96.9799L199.927 97.2799Z" fill="#A4A9B9"/>
<path d="M423.226 180.97L429.116 171.48L426.206 169.68C425.356 169.15 424.886 168.18 424.976 167.18C425.026 166.63 425.046 166.07 425.026 165.51C425.006 164.51 425.526 163.57 426.416 163.1L429.426 161.48L424.146 151.63L421.136 153.25C420.256 153.72 419.186 153.64 418.366 153.07C417.906 152.75 417.436 152.46 416.946 152.19C416.066 151.71 415.516 150.79 415.546 149.78L415.656 146.36L404.496 146.01L404.396 149.44C404.366 150.45 403.746 151.32 402.836 151.75C402.586 151.87 402.346 151.99 402.106 152.12C401.866 152.25 401.626 152.39 401.396 152.53C400.536 153.05 399.476 153.08 398.626 152.55L395.696 150.74L389.806 160.23L392.716 162.04C393.566 162.57 394.036 163.54 393.946 164.54C393.896 165.09 393.876 165.65 393.896 166.2C393.916 167.2 393.396 168.13 392.506 168.61L389.496 170.23L394.776 180.08L397.786 178.46C398.666 177.99 399.736 178.07 400.556 178.64C401.016 178.96 401.486 179.25 401.976 179.51C402.856 179.99 403.406 180.91 403.376 181.92L403.266 185.35L414.426 185.7L414.536 182.27C414.566 181.27 415.186 180.4 416.086 179.97C416.336 179.85 416.576 179.73 416.826 179.6C417.066 179.47 417.306 179.33 417.536 179.19C418.396 178.67 419.466 178.64 420.326 179.17L423.226 180.97ZM413.766 173.92C409.316 176.31 403.776 174.64 401.386 170.18C398.996 165.73 400.666 160.18 405.116 157.79C409.566 155.4 415.116 157.08 417.506 161.53C419.906 165.99 418.226 171.54 413.766 173.92Z" fill="#ABC7C2"/>
<path d="M101.527 288.51L107.417 279.02L104.507 277.22C103.657 276.69 103.187 275.72 103.277 274.72C103.327 274.17 103.347 273.61 103.327 273.05C103.307 272.05 103.827 271.11 104.717 270.64L107.727 269.02L102.447 259.17L99.4369 260.79C98.5569 261.26 97.4869 261.18 96.6669 260.61C96.2069 260.29 95.7369 260 95.2469 259.73C94.3669 259.25 93.8169 258.33 93.8469 257.32L93.9569 253.9L82.7969 253.55L82.6969 256.98C82.6669 257.99 82.0469 258.86 81.1369 259.29C80.8869 259.41 80.6469 259.53 80.4069 259.66C80.1669 259.79 79.9269 259.93 79.6969 260.07C78.8369 260.59 77.7769 260.62 76.9269 260.09L73.9969 258.28L68.1069 267.77L71.0169 269.58C71.8669 270.11 72.3369 271.08 72.2469 272.08C72.1969 272.63 72.1769 273.19 72.1969 273.74C72.2169 274.74 71.6969 275.67 70.8069 276.15L67.7969 277.77L73.0769 287.62L76.0869 286C76.9669 285.53 78.0369 285.61 78.8569 286.18C79.3169 286.5 79.7869 286.79 80.2769 287.05C81.1569 287.53 81.7069 288.45 81.6769 289.46L81.5669 292.89L92.7269 293.24L92.8369 289.81C92.8669 288.81 93.4869 287.94 94.3869 287.51C94.6369 287.39 94.8769 287.27 95.1269 287.14C95.3669 287.01 95.6069 286.87 95.8369 286.73C96.6969 286.21 97.7669 286.18 98.6269 286.71L101.527 288.51ZM92.0769 281.46C87.6269 283.85 82.0869 282.18 79.6969 277.72C77.3069 273.27 78.9769 267.72 83.4269 265.33C87.8769 262.94 93.4269 264.62 95.8169 269.07C98.2069 273.53 96.5269 279.07 92.0769 281.46Z" fill="#546580"/>
<path d="M215.866 106.74L211.956 99.9602L209.886 101.16C209.276 101.51 208.526 101.48 207.936 101.09C207.606 100.88 207.276 100.68 206.926 100.5C206.296 100.18 205.896 99.5502 205.896 98.8502V96.4502H198.066V98.8502C198.066 99.5502 197.666 100.18 197.036 100.5C196.686 100.68 196.346 100.87 196.026 101.09C195.436 101.47 194.686 101.51 194.076 101.16L192.006 99.9602L188.096 106.74L190.176 107.94C190.786 108.29 191.126 108.96 191.086 109.67C191.076 109.86 191.076 110.05 191.076 110.25C191.076 110.44 191.076 110.63 191.086 110.83C191.126 111.53 190.786 112.2 190.176 112.55L188.086 113.76L191.996 120.54L194.076 119.34C194.686 118.99 195.436 119.02 196.026 119.41C196.346 119.62 196.686 119.82 197.036 119.99C197.666 120.31 198.066 120.94 198.066 121.64V124.04H205.896V121.64C205.896 120.94 206.296 120.31 206.926 119.99C207.276 119.81 207.606 119.62 207.936 119.41C208.526 119.02 209.276 118.99 209.886 119.34L211.966 120.54L215.876 113.76L213.796 112.56C213.186 112.21 212.856 111.54 212.886 110.84C212.896 110.65 212.896 110.45 212.896 110.26C212.896 110.07 212.896 109.88 212.886 109.68C212.846 108.98 213.186 108.31 213.796 107.95L215.866 106.74ZM208.386 110.24C208.386 113.78 205.516 116.65 201.976 116.65C198.436 116.65 195.566 113.78 195.566 110.24C195.566 106.7 198.436 103.83 201.976 103.83C205.516 103.83 208.386 106.7 208.386 110.24Z" fill="#7288A6"/>
<path d="M88.8396 303.84C75.7696 316.63 73.5796 336.43 76.3296 353.76C76.3996 354.15 77.0096 354.05 77.0096 353.68C77.0096 349.73 76.8896 345.82 76.8996 341.92C76.9696 341.74 77.0296 341.57 77.0996 341.4C80.5096 338.92 83.6496 336.12 85.5896 332.28C87.7696 327.99 88.6296 323.15 90.2996 318.66C90.4496 318.23 89.9996 318.36 89.6996 318.58C81.7496 324.44 79.2196 330.75 76.9396 339.18C77.0496 334.8 77.3796 330.43 78.3196 326.05C80.0396 318.05 83.4396 310.12 89.1796 304.18C89.3996 303.96 89.0596 303.61 88.8396 303.84Z" fill="#4F4F4F"/>
<path d="M91.2889 305.33C93.5389 305.41 94.9489 309 96.6989 310.05C97.6289 310.61 98.5289 310.57 99.1789 309.66C100.919 307.24 98.5289 304.25 96.2889 302.57C97.8889 303.23 99.2189 304.39 100.949 304.71C101.999 304.9 102.809 304.51 103.049 303.45C103.809 300.15 99.6689 298.68 96.8189 298.61C98.1989 297.65 102.149 295.05 100.049 293.77C97.9189 292.48 93.2889 296.21 91.7789 297.44C89.5589 299.24 86.9089 301.94 86.8089 304.76C86.6789 308.05 89.5589 306.02 91.2889 305.33Z" fill="#9AE2A1"/>
<path opacity="0.1" d="M91.2889 305.33C93.5389 305.41 94.9489 309 96.6989 310.05C97.6289 310.61 98.5289 310.57 99.1789 309.66C100.919 307.24 98.5289 304.25 96.2889 302.57C97.8889 303.23 99.2189 304.39 100.949 304.71C101.999 304.9 102.809 304.51 103.049 303.45C103.809 300.15 99.6689 298.68 96.8189 298.61C98.1989 297.65 102.149 295.05 100.049 293.77C97.9189 292.48 93.2889 296.21 91.7789 297.44C89.5589 299.24 86.9089 301.94 86.8089 304.76C86.6789 308.05 89.5589 306.02 91.2889 305.33Z" fill="#4F4F4F"/>
<path d="M90.6384 305.89C93.5084 304.58 99.0384 306.46 99.5084 305.38C100.458 303.17 96.0484 301.65 93.6684 301.35C95.8584 300.76 100.068 299.81 99.9384 297.69C99.7784 295.11 93.4884 297.33 90.3084 299.77C86.2984 302.84 86.3284 305.81 86.9884 306.41C87.8884 307.22 90.1684 306.1 90.6384 305.89Z" fill="#9AE2A1"/>
<path d="M59.0711 302.57C72.6211 314.86 75.5611 334.55 73.4711 351.98C73.4111 352.38 72.8011 352.29 72.7911 351.92C72.6411 347.98 72.6111 344.06 72.4511 340.17C72.3711 339.99 72.3111 339.83 72.2311 339.65C68.7311 337.3 65.4911 334.62 63.4011 330.86C61.0611 326.65 60.0111 321.85 58.1811 317.43C58.0111 317.01 58.4711 317.12 58.7811 317.32C66.9511 322.88 69.7211 329.08 72.3211 337.42C72.0511 333.05 71.5511 328.69 70.4411 324.35C68.4211 316.42 64.7211 308.63 58.7511 302.91C58.5211 302.71 58.8411 302.36 59.0711 302.57Z" fill="#4F4F4F"/>
<path d="M56.6807 304.16C54.4407 304.32 53.1607 307.97 51.4507 309.08C50.5507 309.67 49.6407 309.67 48.9607 308.78C47.1307 306.42 49.4007 303.35 51.5707 301.59C49.9907 302.31 48.7107 303.52 47.0007 303.91C45.9607 304.14 45.1307 303.78 44.8507 302.73C43.9607 299.46 48.0507 297.83 50.8907 297.65C49.4807 296.75 45.4307 294.29 47.4807 292.93C49.5607 291.56 54.3307 295.11 55.8907 296.28C58.1807 298 60.9307 300.59 61.1407 303.4C61.3807 306.7 58.4307 304.78 56.6807 304.16Z" fill="#9AE2A1"/>
<path opacity="0.1" d="M56.6807 304.16C54.4407 304.32 53.1607 307.97 51.4507 309.08C50.5507 309.67 49.6407 309.67 48.9607 308.78C47.1307 306.42 49.4007 303.35 51.5707 301.59C49.9907 302.31 48.7107 303.52 47.0007 303.91C45.9607 304.14 45.1307 303.78 44.8507 302.73C43.9607 299.46 48.0507 297.83 50.8907 297.65C49.4807 296.75 45.4307 294.29 47.4807 292.93C49.5607 291.56 54.3307 295.11 55.8907 296.28C58.1807 298 60.9307 300.59 61.1407 303.4C61.3807 306.7 58.4307 304.78 56.6807 304.16Z" fill="black"/>
<path d="M57.3522 304.69C54.4322 303.49 48.9822 305.58 48.4722 304.51C47.4322 302.33 51.7922 300.65 54.1622 300.26C51.9522 299.75 47.7122 298.96 47.7622 296.84C47.8222 294.25 54.1922 296.23 57.4622 298.55C61.5822 301.47 61.6722 304.44 61.0322 305.06C60.1522 305.91 57.8322 304.88 57.3522 304.69Z" fill="#9AE2A1"/>
<path d="M72.9291 335.03C73.9291 341.51 75.1691 348.2 77.1391 354.46C77.3291 355.03 78.1691 354.88 78.0891 354.27C77.1991 348.28 75.5791 342.41 74.6891 336.42C73.7891 330.36 73.2991 324.22 73.6491 318.09C74.2191 308 76.9591 297.27 83.5391 289.37C83.6791 289.18 83.3791 288.92 83.2291 289.09C70.0491 304.46 72.1491 323.3 72.1591 324.99C70.2891 318.63 68.3691 311.33 61.3091 304.86C61.0091 304.58 60.7691 304.71 60.8191 305.19C62.0791 316.99 65.3591 323.15 72.1991 329.46C72.3891 331.33 72.6291 333.19 72.9291 335.03Z" fill="#4F4F4F"/>
<path d="M83.648 291.14C86.018 290.09 89.288 293.11 91.638 293.31C92.878 293.42 93.798 292.93 94.018 291.66C94.598 288.27 90.628 286.37 87.458 285.76C89.448 285.64 91.418 286.17 93.368 285.64C94.548 285.31 95.198 284.5 94.918 283.27C94.048 279.46 89.008 280.02 86.018 281.38C86.968 279.69 89.758 275 86.928 274.73C84.078 274.47 81.138 280.66 80.188 282.7C78.788 285.69 77.398 289.82 78.708 292.8C80.228 296.27 82.198 292.72 83.648 291.14Z" fill="#9AE2A1"/>
<path opacity="0.1" d="M83.648 291.14C86.018 290.09 89.288 293.11 91.638 293.31C92.878 293.42 93.798 292.93 94.018 291.66C94.598 288.27 90.628 286.37 87.458 285.76C89.448 285.64 91.418 286.17 93.368 285.64C94.548 285.31 95.198 284.5 94.918 283.27C94.048 279.46 89.008 280.02 86.018 281.38C86.968 279.69 89.758 275 86.928 274.73C84.078 274.47 81.138 280.66 80.188 282.7C78.788 285.69 77.398 289.82 78.708 292.8C80.228 296.27 82.198 292.72 83.648 291.14Z" fill="black"/>
<path d="M83.2488 292.04C85.5688 289.24 92.2488 288.41 92.1888 287.04C92.0588 284.26 86.7188 284.91 84.0988 285.8C86.0788 284.08 89.9588 280.98 88.7588 278.85C87.2988 276.25 81.8888 281.72 79.8088 285.85C77.1988 291.06 78.7188 294.12 79.6988 294.41C81.0688 294.81 82.8688 292.5 83.2488 292.04Z" fill="#9AE2A1"/>
<path d="M64.2514 338.58L58.4414 383H93.8114C93.0814 379.06 86.5014 338.53 86.5014 338.53L64.2514 338.58Z" fill="#697687"/>
<path d="M43.3711 383.14L95.0311 382.9L146.691 382.81L250.001 382.64L353.311 382.81L404.971 382.9L456.631 383.14L404.971 383.39L353.311 383.48L250.001 383.64L146.691 383.47L95.0311 383.39L43.3711 383.14Z" fill="#263238"/>
<path d="M250.001 470.12C332.325 470.12 399.061 460.682 399.061 449.04C399.061 437.398 332.325 427.96 250.001 427.96C167.678 427.96 100.941 437.398 100.941 449.04C100.941 460.682 167.678 470.12 250.001 470.12Z" fill="#FEFFF8"/>
<path d="M157.57 227.67L151.36 203.24L102.32 215.7L95.8398 190.2L135.03 100.89L154.47 95.9502L173.37 170.31L189.06 166.32L195.59 192L179.9 195.99L186.11 220.42L157.57 227.67ZM123.97 182.87L148.22 176.71L140.2 145.15L123.97 182.87Z" fill="#1F2732"/>
<path d="M298.02 146.12C298.02 154.22 296.79 161.67 294.34 168.47C291.88 175.28 288.51 181.17 284.22 186.13C279.93 191.1 274.87 194.96 269.04 197.72C263.21 200.48 256.86 201.86 250 201.86C243.13 201.86 236.75 200.48 230.87 197.72C224.98 194.96 219.89 191.1 215.6 186.13C211.31 181.16 207.96 175.27 205.57 168.47C203.18 161.66 201.98 154.21 201.98 146.12C201.98 138.02 203.18 130.57 205.57 123.77C207.96 116.96 211.3 111.07 215.6 106.11C219.89 101.14 224.98 97.2502 230.87 94.4302C236.76 91.6102 243.13 90.2002 250 90.2002C256.87 90.2002 263.22 91.6102 269.04 94.4302C274.86 97.2502 279.92 101.15 284.22 106.11C288.51 111.08 291.89 116.97 294.34 123.77C296.79 130.57 298.02 138.02 298.02 146.12ZM268.4 146.12C268.4 137.54 266.68 130.57 263.25 125.24C259.81 119.9 255.4 117.24 250 117.24C244.36 117.24 239.85 119.91 236.48 125.24C233.1 130.58 231.42 137.54 231.42 146.12C231.42 154.71 233.1 161.64 236.48 166.91C239.85 172.19 244.36 174.82 250 174.82C255.4 174.82 259.81 172.18 263.25 166.91C266.68 161.64 268.4 154.71 268.4 146.12Z" fill="#1F2732"/>
<path d="M350.838 222.96L354.868 198.08L304.918 189.99L309.128 164.02L380.638 97.6904L400.438 100.9L388.168 176.64L404.148 179.23L399.908 205.38L383.928 202.79L379.898 227.67L350.838 222.96ZM337.858 168.49L362.558 172.49L367.768 140.34L337.858 168.49Z" fill="#1F2732"/>
<path d="M208.679 72.4599C206.579 72.4599 204.669 72.0499 202.959 71.2299C201.249 70.4099 199.779 69.3199 198.559 67.9599C197.329 66.5999 196.379 65.0399 195.709 63.2899C195.039 61.5399 194.699 59.7499 194.699 57.9199C194.699 56.0099 195.059 54.1799 195.769 52.4299C196.479 50.6799 197.469 49.1299 198.719 47.7799C199.969 46.4299 201.459 45.3599 203.179 44.5699C204.899 43.7799 206.779 43.3799 208.799 43.3799C210.869 43.3799 212.769 43.7999 214.479 44.6499C216.189 45.4999 217.649 46.6099 218.859 47.9799C220.069 49.3499 221.009 50.9199 221.689 52.6699C222.359 54.4199 222.699 56.1999 222.699 57.9999C222.699 59.9099 222.349 61.7399 221.649 63.4699C220.949 65.2099 219.979 66.7399 218.739 68.0699C217.499 69.3999 216.019 70.4699 214.299 71.2599C212.569 72.0599 210.689 72.4599 208.679 72.4599ZM200.349 57.9199C200.349 59.1599 200.539 60.3599 200.919 61.5199C201.299 62.6799 201.839 63.6999 202.559 64.5899C203.269 65.4799 204.149 66.1899 205.189 66.7299C206.229 67.2699 207.399 67.5399 208.719 67.5399C210.069 67.5399 211.259 67.2599 212.289 66.7099C213.329 66.1599 214.199 65.4199 214.919 64.5099C215.629 63.5899 216.169 62.5599 216.539 61.4199C216.899 60.2799 217.089 59.1099 217.089 57.9299C217.089 56.6899 216.889 55.4899 216.499 54.3299C216.109 53.1699 215.559 52.1499 214.839 51.2599C214.129 50.3699 213.249 49.6599 212.209 49.1399C211.169 48.6199 210.009 48.3499 208.719 48.3499C207.369 48.3499 206.179 48.6299 205.119 49.1799C204.069 49.7299 203.189 50.4599 202.489 51.3599C201.789 52.2599 201.259 53.2899 200.889 54.4299C200.539 55.5699 200.349 56.7299 200.349 57.9199Z" fill="#FBBC05"/>
<path d="M236.231 72.6602C234.511 72.6602 232.961 72.3602 231.581 71.7702C230.211 71.1802 229.041 70.3802 228.091 69.3702C227.131 68.3602 226.401 67.2002 225.891 65.8802C225.381 64.5602 225.121 63.1702 225.121 61.7202C225.121 60.2402 225.381 58.8402 225.891 57.5202C226.401 56.2002 227.141 55.0402 228.091 54.0302C229.051 53.0202 230.211 52.2202 231.581 51.6302C232.951 51.0402 234.501 50.7402 236.231 50.7402C237.951 50.7402 239.501 51.0402 240.861 51.6302C242.221 52.2202 243.381 53.0202 244.331 54.0302C245.291 55.0402 246.021 56.2002 246.531 57.5202C247.041 58.8402 247.301 60.2402 247.301 61.7202C247.301 63.1702 247.041 64.5602 246.531 65.8802C246.021 67.2002 245.291 68.3602 244.351 69.3702C243.411 70.3802 242.251 71.1802 240.881 71.7702C239.501 72.3702 237.951 72.6602 236.231 72.6602ZM230.691 61.7202C230.691 62.6602 230.831 63.5202 231.111 64.2802C231.391 65.0502 231.781 65.7102 232.281 66.2802C232.781 66.8502 233.361 67.2802 234.041 67.5902C234.711 67.9002 235.441 68.0502 236.221 68.0502C237.001 68.0502 237.731 67.9002 238.401 67.5902C239.071 67.2802 239.661 66.8402 240.161 66.2802C240.661 65.7102 241.051 65.0402 241.331 64.2602C241.611 63.4802 241.751 62.6202 241.751 61.6702C241.751 60.7502 241.611 59.9102 241.331 59.1302C241.051 58.3502 240.661 57.6802 240.161 57.1102C239.661 56.5402 239.081 56.1102 238.401 55.8002C237.731 55.4902 237.001 55.3402 236.221 55.3402C235.441 55.3402 234.711 55.5002 234.041 55.8202C233.371 56.1402 232.781 56.5902 232.281 57.1502C231.781 57.7202 231.391 58.3902 231.111 59.1702C230.831 59.9502 230.691 60.8002 230.691 61.7202Z" fill="#FBBC05"/>
<path d="M263.61 72.66C261.94 72.66 260.49 72.29 259.25 71.55C258.01 70.81 257.04 69.81 256.34 68.54V80.86H250.93V51.09H255.66V54.73C256.44 53.49 257.45 52.52 258.69 51.8C259.93 51.09 261.36 50.73 262.97 50.73C264.4 50.73 265.72 51.02 266.93 51.6C268.14 52.18 269.19 52.96 270.06 53.94C270.94 54.92 271.62 56.08 272.12 57.41C272.62 58.74 272.87 60.15 272.87 61.63C272.87 63.16 272.64 64.61 272.18 65.95C271.72 67.3 271.08 68.47 270.26 69.46C269.44 70.46 268.46 71.24 267.33 71.8C266.2 72.38 264.96 72.66 263.61 72.66ZM261.8 68.06C262.61 68.06 263.35 67.89 264.04 67.53C264.73 67.18 265.31 66.71 265.8 66.12C266.28 65.53 266.66 64.84 266.93 64.06C267.2 63.28 267.33 62.47 267.33 61.64C267.33 60.75 267.18 59.92 266.89 59.16C266.59 58.39 266.18 57.73 265.66 57.16C265.13 56.59 264.52 56.15 263.8 55.83C263.09 55.51 262.31 55.35 261.48 55.35C260.97 55.35 260.44 55.44 259.9 55.61C259.36 55.79 258.86 56.03 258.4 56.36C257.94 56.68 257.53 57.06 257.17 57.49C256.81 57.92 256.53 58.39 256.34 58.9V63.87C256.83 65.08 257.57 66.09 258.56 66.88C259.56 67.66 260.64 68.06 261.8 68.06Z" fill="#FBBC05"/>
<path d="M284.539 72.6602C282.759 72.6602 281.029 72.3802 279.329 71.8102C277.629 71.2402 276.179 70.4402 274.969 69.3902L276.989 66.0002C278.279 66.9202 279.539 67.6102 280.769 68.0802C281.999 68.5502 283.209 68.7902 284.429 68.7902C285.509 68.7902 286.349 68.5902 286.969 68.1802C287.589 67.7802 287.899 67.2002 287.899 66.4402C287.899 65.6802 287.539 65.1302 286.809 64.7802C286.079 64.4302 284.899 64.0302 283.259 63.5702C281.889 63.1902 280.719 62.8302 279.749 62.4802C278.779 62.1302 277.999 61.7302 277.409 61.2902C276.819 60.8502 276.389 60.3302 276.119 59.7602C275.849 59.1802 275.719 58.4902 275.719 57.6802C275.719 56.6002 275.929 55.6302 276.349 54.7702C276.769 53.9102 277.349 53.1702 278.109 52.5702C278.859 51.9602 279.749 51.5002 280.759 51.1802C281.769 50.8602 282.869 50.7002 284.049 50.7002C285.639 50.7002 287.129 50.9302 288.509 51.3902C289.899 51.8502 291.169 52.5902 292.329 53.6102L290.149 56.8802C289.069 56.0702 288.029 55.4802 287.019 55.1002C286.009 54.7202 285.009 54.5302 284.009 54.5302C283.089 54.5302 282.329 54.7202 281.709 55.1002C281.089 55.4802 280.779 56.0802 280.779 56.9202C280.779 57.3002 280.849 57.6102 280.999 57.8502C281.149 58.0902 281.379 58.3102 281.709 58.5002C282.029 58.6902 282.459 58.8702 282.979 59.0502C283.509 59.2302 284.159 59.4102 284.939 59.6002C286.389 59.9802 287.639 60.3502 288.679 60.7302C289.719 61.1102 290.559 61.5402 291.219 62.0202C291.879 62.5002 292.359 63.0602 292.679 63.7002C292.989 64.3302 293.139 65.0902 293.139 65.9802C293.139 68.0502 292.369 69.6902 290.839 70.8902C289.269 72.0602 287.179 72.6602 284.539 72.6602Z" fill="#FBBC05"/>
<path d="M297.668 61.47V43.29H303.078V61.47H297.668ZM297.668 72.26V66.16H303.078V72.26H297.668Z" fill="#FBBC05"/>
<path d="M270.6 313.85H235.09V316.76H270.6V313.85Z" fill="#37474F"/>
<path d="M270.6 317.63H235.09V320.54H270.6V317.63Z" fill="#37474F"/>
<path d="M270.6 321.42H235.09V324.33H270.6V321.42Z" fill="#37474F"/>
<path d="M270.6 325.21H235.09V328.12H270.6V325.21Z" fill="#37474F"/>
<path d="M270.6 329H235.09V331.91H270.6V329Z" fill="#37474F"/>
<path d="M285.981 404.59H218.461V407.5H285.981V404.59Z" fill="#37474F"/>
<path d="M285.981 408.38H218.461V411.29H285.981V408.38Z" fill="#37474F"/>
<path d="M285.981 412.17H218.461V415.08H285.981V412.17Z" fill="#37474F"/>
<path d="M285.981 415.96H218.461V418.87H285.981V415.96Z" fill="#37474F"/>
<path d="M285.981 419.75H218.461V422.66H285.981V419.75Z" fill="#37474F"/>
<path d="M188.831 289.8C188.861 289.41 174.051 284.45 174.051 284.45L174.921 233.56L194.561 229.35L188.831 289.8Z" fill="#FFD66C"/>
<path opacity="0.2" d="M188.831 289.8C188.861 289.41 174.051 284.45 174.051 284.45L174.921 233.56L194.561 229.35L188.831 289.8Z" fill="black"/>
<path d="M324.492 309.77C324.592 309.39 340.212 309.83 340.212 309.83L356.902 261.75L339.912 251.04L324.492 309.77Z" fill="#FFD66C"/>
<path opacity="0.2" d="M324.492 309.77C324.592 309.39 340.212 309.83 340.212 309.83L356.902 261.75L339.912 251.04L324.492 309.77Z" fill="black"/>
<path d="M185.98 308.54C185.98 308.54 191.47 226.24 196.29 199.17C196.29 199.17 295.71 206.69 349.38 227.2C349.38 227.2 321.71 323.33 320.28 328.1C320.28 328.1 250.27 314.3 185.98 308.54Z" fill="#FFD66C"/>
<path opacity="0.1" d="M274.721 210.15C273.101 220.06 271.471 229.97 269.781 239.86L264.661 269.54L264.381 269.12L297.691 277.03L314.331 281.06L330.951 285.17L314.241 281.43L297.551 277.61L264.211 269.82L263.871 269.74L263.931 269.4L269.241 239.75C271.021 229.89 272.861 220.02 274.721 210.15Z" fill="black"/>
<path opacity="0.1" d="M271.069 215.8C271.089 216.71 270.359 217.64 269.319 217.73C268.819 217.78 268.269 217.62 267.859 217.26C267.449 216.9 267.199 216.35 267.199 215.8C267.199 215.24 267.449 214.69 267.859 214.34C268.269 213.98 268.819 213.82 269.319 213.87C270.359 213.96 271.089 214.9 271.069 215.8ZM271.069 215.8C271.069 215.34 270.859 214.89 270.519 214.6C270.179 214.31 269.729 214.19 269.319 214.24C268.479 214.34 267.939 215.09 267.949 215.8C267.939 216.51 268.479 217.26 269.319 217.36C269.729 217.41 270.179 217.29 270.519 217C270.859 216.71 271.059 216.26 271.069 215.8Z" fill="black"/>
<path opacity="0.1" d="M269.319 228.05C269.339 228.96 268.609 229.89 267.569 229.98C267.069 230.03 266.519 229.87 266.109 229.51C265.699 229.15 265.449 228.6 265.449 228.05C265.449 227.49 265.699 226.94 266.109 226.59C266.519 226.23 267.069 226.07 267.569 226.12C268.619 226.21 269.339 227.14 269.319 228.05ZM269.319 228.05C269.319 227.59 269.109 227.14 268.769 226.85C268.429 226.56 267.979 226.44 267.569 226.49C266.729 226.59 266.189 227.34 266.199 228.05C266.189 228.76 266.729 229.51 267.569 229.61C267.979 229.66 268.429 229.54 268.769 229.25C269.109 228.96 269.319 228.51 269.319 228.05Z" fill="black"/>
<path opacity="0.1" d="M267.171 240.99C267.191 241.9 266.461 242.83 265.421 242.92C264.921 242.97 264.371 242.81 263.961 242.45C263.551 242.09 263.301 241.54 263.301 240.99C263.301 240.44 263.551 239.88 263.961 239.53C264.371 239.17 264.921 239.01 265.421 239.06C266.471 239.14 267.191 240.08 267.171 240.99ZM267.171 240.99C267.171 240.53 266.961 240.08 266.621 239.79C266.281 239.5 265.831 239.38 265.421 239.43C264.581 239.53 264.041 240.28 264.051 240.99C264.041 241.7 264.581 242.45 265.421 242.55C265.831 242.6 266.281 242.48 266.621 242.19C266.961 241.9 267.171 241.45 267.171 240.99Z" fill="black"/>
<path opacity="0.1" d="M265.018 253.93C265.038 254.84 264.308 255.77 263.268 255.86C262.768 255.91 262.218 255.75 261.808 255.39C261.398 255.03 261.148 254.48 261.148 253.93C261.148 253.37 261.398 252.82 261.808 252.47C262.218 252.11 262.768 251.95 263.268 252C264.318 252.08 265.038 253.02 265.018 253.93ZM265.018 253.93C265.018 253.47 264.808 253.02 264.468 252.73C264.128 252.44 263.678 252.32 263.268 252.37C262.428 252.47 261.888 253.22 261.898 253.93C261.888 254.64 262.428 255.39 263.268 255.49C263.678 255.54 264.128 255.42 264.468 255.13C264.808 254.83 265.018 254.38 265.018 253.93Z" fill="black"/>
<path opacity="0.1" d="M272.35 274.56C272.37 275.47 271.64 276.4 270.6 276.49C270.1 276.54 269.55 276.38 269.14 276.02C268.73 275.66 268.48 275.11 268.48 274.56C268.48 274 268.73 273.45 269.14 273.1C269.55 272.74 270.1 272.58 270.6 272.63C271.64 272.72 272.37 273.65 272.35 274.56ZM272.35 274.56C272.35 274.1 272.14 273.65 271.8 273.36C271.46 273.07 271.01 272.95 270.6 273C269.76 273.1 269.22 273.85 269.23 274.56C269.22 275.27 269.76 276.02 270.6 276.12C271.01 276.17 271.46 276.05 271.8 275.76C272.14 275.47 272.34 275.02 272.35 274.56Z" fill="black"/>
<path opacity="0.1" d="M284.561 277.54C284.581 278.45 283.851 279.38 282.811 279.47C282.311 279.52 281.761 279.36 281.351 279C280.941 278.64 280.691 278.09 280.691 277.54C280.691 276.98 280.941 276.43 281.351 276.08C281.761 275.72 282.311 275.56 282.811 275.61C283.861 275.7 284.581 276.63 284.561 277.54ZM284.561 277.54C284.561 277.08 284.351 276.63 284.011 276.34C283.671 276.05 283.221 275.93 282.811 275.98C281.971 276.08 281.431 276.83 281.441 277.54C281.431 278.25 281.971 279 282.811 279.1C283.221 279.15 283.671 279.03 284.011 278.74C284.351 278.45 284.561 278 284.561 277.54Z" fill="black"/>
<path opacity="0.1" d="M296.768 280.52C296.788 281.43 296.058 282.36 295.018 282.45C294.518 282.5 293.968 282.34 293.558 281.98C293.148 281.62 292.898 281.07 292.898 280.52C292.898 279.96 293.148 279.41 293.558 279.06C293.968 278.7 294.518 278.54 295.018 278.59C296.068 278.68 296.788 279.61 296.768 280.52ZM296.768 280.52C296.768 280.06 296.558 279.61 296.218 279.32C295.878 279.03 295.428 278.91 295.018 278.96C294.178 279.06 293.638 279.81 293.648 280.52C293.638 281.23 294.178 281.98 295.018 282.08C295.428 282.13 295.878 282.01 296.218 281.72C296.568 281.43 296.768 280.98 296.768 280.52Z" fill="black"/>
<path opacity="0.1" d="M308.991 283.5C309.011 284.41 308.281 285.34 307.241 285.43C306.741 285.48 306.191 285.32 305.781 284.96C305.371 284.6 305.121 284.05 305.121 283.5C305.121 282.94 305.371 282.39 305.781 282.04C306.191 281.68 306.741 281.52 307.241 281.57C308.281 281.66 309.011 282.59 308.991 283.5ZM308.991 283.5C308.991 283.04 308.781 282.59 308.441 282.3C308.101 282.01 307.651 281.89 307.241 281.94C306.401 282.04 305.861 282.79 305.871 283.5C305.861 284.21 306.401 284.96 307.241 285.06C307.651 285.11 308.101 284.99 308.441 284.7C308.781 284.41 308.981 283.96 308.991 283.5Z" fill="black"/>
<path opacity="0.1" d="M321.199 286.61C321.149 287.52 320.349 288.39 319.309 288.4C318.799 288.41 318.269 288.21 317.889 287.82C317.509 287.43 317.309 286.87 317.349 286.31C317.399 285.76 317.679 285.23 318.119 284.9C318.559 284.57 319.119 284.46 319.619 284.54C320.629 284.72 321.279 285.71 321.199 286.61ZM321.199 286.61C321.229 286.15 321.059 285.69 320.749 285.37C320.429 285.06 319.989 284.9 319.579 284.92C318.739 284.95 318.139 285.66 318.089 286.37C318.019 287.07 318.509 287.87 319.339 288.03C319.739 288.11 320.199 288.02 320.559 287.76C320.919 287.5 321.159 287.07 321.199 286.61Z" fill="black"/>
<path opacity="0.1" d="M262.87 266.86C262.89 267.77 262.16 268.7 261.12 268.79C260.62 268.84 260.07 268.68 259.66 268.32C259.25 267.96 259 267.41 259 266.86C259 266.31 259.25 265.75 259.66 265.4C260.07 265.04 260.62 264.88 261.12 264.93C262.17 265.02 262.89 265.96 262.87 266.86ZM262.87 266.86C262.87 266.4 262.66 265.95 262.32 265.66C261.98 265.37 261.53 265.25 261.12 265.3C260.28 265.4 259.74 266.15 259.75 266.86C259.74 267.57 260.28 268.32 261.12 268.42C261.53 268.47 261.98 268.35 262.32 268.06C262.66 267.77 262.87 267.32 262.87 266.86Z" fill="black"/>
<path opacity="0.2" d="M242.3 288.306C253.893 277.882 254.841 260.033 244.417 248.44C233.993 236.846 216.144 235.899 204.55 246.323C192.957 256.747 192.009 274.596 202.433 286.189C212.857 297.783 230.706 298.73 242.3 288.306Z" fill="black"/>
<path d="M244.591 275.331C249.017 263.637 243.126 250.57 231.433 246.143C219.739 241.717 206.671 247.608 202.245 259.302C197.819 270.995 203.71 284.063 215.403 288.489C227.097 292.915 240.165 287.024 244.591 275.331Z" fill="#37474F"/>
<path d="M222.064 258.991L216.773 258.134L215.916 263.425L221.207 264.282L222.064 258.991Z" fill="#FFD66C"/>
<path d="M217.623 252.84L212.332 251.983L211.475 257.274L216.766 258.131L217.623 252.84Z" fill="#FFD66C"/>
<path d="M238.791 256.27L233.5 255.413L232.643 260.703L237.934 261.561L238.791 256.27Z" fill="#FFD66C"/>
<path d="M214.213 273.89L208.922 273.033L208.065 278.324L213.356 279.181L214.213 273.89Z" fill="#FFD66C"/>
<path d="M235.385 277.319L230.094 276.462L229.237 281.753L234.528 282.61L235.385 277.319Z" fill="#FFD66C"/>
<path d="M220.365 269.45L215.074 268.593L214.217 273.884L219.508 274.741L220.365 269.45Z" fill="#FFD66C"/>
<path d="M226.502 265.08L221.211 264.223L220.354 269.513L225.645 270.371L226.502 265.08Z" fill="#FFD66C"/>
<path d="M232.642 260.7L227.352 259.843L226.495 265.134L231.785 265.991L232.642 260.7Z" fill="#FFD66C"/>
<path d="M230.959 271.167L225.668 270.31L224.811 275.601L230.102 276.458L230.959 271.167Z" fill="#FFD66C"/>
<path d="M321.025 297.022C330.907 284.962 329.141 267.175 317.081 257.294C305.022 247.412 287.235 249.178 277.353 261.237C267.472 273.297 269.237 291.084 281.297 300.965C293.356 310.847 311.143 309.081 321.025 297.022Z" fill="#FFD66C"/>
<path opacity="0.2" d="M321.025 297.022C330.907 284.962 329.141 267.175 317.081 257.294C305.022 247.412 287.235 249.178 277.353 261.237C267.472 273.297 269.237 291.084 281.297 300.965C293.356 310.847 311.143 309.081 321.025 297.022Z" fill="black"/>
<path opacity="0.2" d="M326.658 285.67C326.528 286.23 326.377 286.76 326.217 287.3L271.188 275.56C271.317 274.58 271.498 273.6 271.728 272.6C275.328 257.43 290.548 248.06 305.728 251.66C320.888 255.28 330.258 270.5 326.658 285.67Z" fill="black"/>
<path d="M307.912 300.035C319.449 295.215 324.894 281.955 320.074 270.417C315.254 258.88 301.994 253.435 290.456 258.255C278.919 263.075 273.474 276.336 278.294 287.873C283.114 299.41 296.375 304.855 307.912 300.035Z" fill="#37474F"/>
<path d="M304.887 266.774L299.672 265.535L293.501 291.502L298.716 292.741L304.887 266.774Z" fill="#FFD66C"/>
<path d="M328.3 285.14L270.5 271.4C274.29 255.44 290.31 245.58 306.27 249.37C322.22 253.17 332.09 269.18 328.3 285.14Z" fill="#FFD66C"/>
<path opacity="0.2" d="M328.3 285.14L270.5 271.4C274.29 255.44 290.31 245.58 306.27 249.37C322.22 253.17 332.09 269.18 328.3 285.14Z" fill="black"/>
<path opacity="0.1" d="M250.07 295.92C250.22 293.66 251.05 291.37 252.68 289.56C253.49 288.65 254.56 287.93 255.75 287.5C256.94 287.06 258.23 286.98 259.45 287.09C260.69 287.24 261.96 287.67 263 288.46C264.02 289.26 264.79 290.3 265.25 291.43C266.19 293.67 266.3 296.06 265.84 298.28C265.46 296.06 264.89 293.91 263.85 292.14C262.82 290.36 261.18 289.25 259.24 289.08C257.25 288.83 255.32 289.37 253.76 290.68C252.19 291.99 251 293.88 250.07 295.92Z" fill="black"/>
<path d="M193.723 238.34C193.953 235.32 194.293 232.32 194.583 229.31C194.903 226.31 195.233 223.3 195.603 220.31C195.953 217.31 196.343 214.32 196.723 211.32C197.103 208.32 197.533 205.34 197.933 202.34L198.043 201.54L198.853 201.59C205.363 202 211.863 202.53 218.353 203.19C221.603 203.52 224.843 203.9 228.073 204.32C231.303 204.78 234.543 205.21 237.753 205.8L218.233 204.59L198.733 203.33L199.653 202.58C199.213 205.57 198.803 208.56 198.333 211.54C197.873 214.52 197.413 217.51 196.923 220.49C196.443 223.47 195.923 226.45 195.403 229.42C194.833 232.4 194.333 235.38 193.723 238.34Z" fill="#FFE0C3"/>
<path d="M198.414 261.16C199.074 257.53 200.714 254.08 202.934 251.07C203.484 250.31 204.114 249.61 204.714 248.89C205.364 248.22 206.044 247.56 206.714 246.9C207.444 246.31 208.184 245.72 208.934 245.15C209.734 244.64 210.514 244.12 211.324 243.63C212.174 243.22 213.024 242.8 213.884 242.41L216.564 241.48L219.344 240.91C220.274 240.77 221.224 240.75 222.154 240.67C225.914 240.57 229.624 241.38 233.024 242.75C229.404 242.07 225.794 241.7 222.244 242.04C218.694 242.37 215.254 243.43 212.174 245.17C209.064 246.86 206.324 249.2 203.994 251.92C201.684 254.65 199.774 257.74 198.414 261.16Z" fill="#FFE0C3"/>
<path d="M276.293 268.78C277.443 265.28 279.553 262.08 282.163 259.41C282.813 258.74 283.533 258.13 284.223 257.5C284.963 256.92 285.723 256.37 286.483 255.81C287.293 255.32 288.103 254.84 288.923 254.38C289.783 253.99 290.633 253.58 291.503 253.21C292.403 252.92 293.303 252.62 294.213 252.35L296.993 251.8L299.823 251.62C300.763 251.61 301.703 251.72 302.643 251.78C306.383 252.2 309.943 253.51 313.123 255.34C309.633 254.17 306.113 253.3 302.543 253.14C298.983 252.98 295.423 253.55 292.133 254.85C288.823 256.1 285.773 258.04 283.103 260.4C280.433 262.79 278.103 265.59 276.293 268.78Z" fill="#FFE0C3"/>
<path d="M189.138 359.25C181.908 359.25 166.078 357.62 155.888 344.52C142.858 327.76 147.568 295.61 147.768 294.24L153.428 295.1C153.378 295.41 148.888 326.19 160.408 341C171.668 355.48 192.098 353.4 192.308 353.38L192.948 359.07C192.718 359.1 191.318 359.25 189.138 359.25Z" fill="#FFD66C"/>
<path opacity="0.4" d="M189.138 359.25C181.908 359.25 166.078 357.62 155.888 344.52C142.858 327.76 147.568 295.61 147.768 294.24L153.428 295.1C153.378 295.41 148.888 326.19 160.408 341C171.668 355.48 192.098 353.4 192.308 353.38L192.948 359.07C192.718 359.1 191.318 359.25 189.138 359.25Z" fill="#FFFBED"/>
<path d="M155.099 299C154.069 299 153.009 298.91 151.939 298.74C142.389 297.19 138.169 291.48 136.299 286.96C134.429 282.43 133.999 276.95 135.019 270.67L147.129 272.63C146.499 276.52 146.679 279.94 147.649 282.28C148.339 283.94 149.669 285.94 153.909 286.63C155.849 286.94 157.939 286.78 160.139 283.47C161.829 280.92 162.849 277.44 163.209 275.24L175.319 277.2C175.039 278.93 173.849 284.99 170.369 290.25C166.559 295.97 161.219 299 155.099 299Z" fill="#FFD66C"/>
<path d="M201.097 375.63C201.077 375.37 190.837 373.73 190.837 373.73L185.867 340.32L198.267 335.42L201.097 375.63Z" fill="#FFD66C"/>
<path opacity="0.2" d="M201.097 375.63C201.077 375.37 190.837 373.73 190.837 373.73L185.867 340.32L198.267 335.42L201.097 375.63Z" fill="black"/>
<path d="M302.301 375.69C302.331 375.43 312.601 374.02 312.601 374.02L318.311 340.73L306.021 335.56L302.301 375.69Z" fill="#FFD66C"/>
<path opacity="0.2" d="M302.301 375.69C302.331 375.43 312.601 374.02 312.601 374.02L318.311 340.73L306.021 335.56L302.301 375.69Z" fill="black"/>
<path d="M196.841 327.95C196.841 327.95 279.631 324.41 307.591 329.07C307.591 329.07 299.381 409.18 298.931 410.73C298.931 410.73 216.581 410.51 203.711 410.73C203.711 410.74 196.741 357.47 196.841 327.95Z" fill="#FFD66C"/>
<path opacity="0.2" d="M221.992 349.91C221.992 349.91 267.182 348.13 282.452 350.48C282.452 350.48 277.972 390.87 277.722 391.66C277.722 391.66 232.762 391.55 225.742 391.66C225.742 391.65 222.652 364 221.992 349.91Z" fill="black"/>
<path opacity="0.2" d="M228.16 391.63C227.13 391.63 226.3 391.64 225.73 391.65C225.73 391.65 222.65 364 221.98 349.9C221.98 349.9 223.01 349.86 224.8 349.8L228.16 391.63Z" fill="black"/>
<path d="M241.489 359.87C238.959 359.07 236.259 360.48 235.459 363.01C234.659 365.55 236.069 368.24 238.599 369.04C241.129 369.84 243.829 368.43 244.629 365.9C245.429 363.37 244.029 360.67 241.489 359.87ZM244.069 365.73C243.369 367.96 240.999 369.19 238.779 368.49C236.559 367.79 235.319 365.42 236.019 363.19C236.719 360.97 239.089 359.73 241.319 360.43C243.539 361.13 244.769 363.5 244.069 365.73ZM241.489 359.87C238.959 359.07 236.259 360.48 235.459 363.01C234.659 365.55 236.069 368.24 238.599 369.04C241.129 369.84 243.829 368.43 244.629 365.9C245.429 363.37 244.029 360.67 241.489 359.87ZM244.069 365.73C243.369 367.96 240.999 369.19 238.779 368.49C236.559 367.79 235.319 365.42 236.019 363.19C236.719 360.97 239.089 359.73 241.319 360.43C243.539 361.13 244.769 363.5 244.069 365.73ZM241.489 359.87C238.959 359.07 236.259 360.48 235.459 363.01C234.659 365.55 236.069 368.24 238.599 369.04C241.129 369.84 243.829 368.43 244.629 365.9C245.429 363.37 244.029 360.67 241.489 359.87ZM244.069 365.73C243.369 367.96 240.999 369.19 238.779 368.49C236.559 367.79 235.319 365.42 236.019 363.19C236.719 360.97 239.089 359.73 241.319 360.43C243.539 361.13 244.769 363.5 244.069 365.73ZM243.099 354.79C237.759 353.11 232.069 356.08 230.389 361.41C228.709 366.75 231.669 372.44 237.009 374.12C242.339 375.8 248.029 372.84 249.719 367.5C251.389 362.17 248.429 356.48 243.099 354.79ZM245.349 366.13C244.429 369.05 241.309 370.68 238.379 369.76C235.459 368.84 233.829 365.72 234.749 362.79C235.669 359.87 238.799 358.24 241.719 359.16C244.639 360.08 246.269 363.21 245.349 366.13ZM244.629 365.9C245.429 363.37 244.019 360.67 241.489 359.87C238.959 359.07 236.259 360.48 235.459 363.01C234.659 365.55 236.069 368.24 238.599 369.04C241.139 369.84 243.829 368.44 244.629 365.9ZM244.069 365.73C243.369 367.96 240.999 369.19 238.779 368.49C236.559 367.79 235.319 365.42 236.019 363.19C236.719 360.97 239.089 359.73 241.319 360.43C243.539 361.13 244.769 363.5 244.069 365.73ZM241.489 359.87C238.959 359.07 236.259 360.48 235.459 363.01C234.659 365.55 236.069 368.24 238.599 369.04C241.129 369.84 243.829 368.43 244.629 365.9C245.429 363.37 244.029 360.67 241.489 359.87ZM244.069 365.73C243.369 367.96 240.999 369.19 238.779 368.49C236.559 367.79 235.319 365.42 236.019 363.19C236.719 360.97 239.089 359.73 241.319 360.43C243.539 361.13 244.769 363.5 244.069 365.73ZM241.489 359.87C238.959 359.07 236.259 360.48 235.459 363.01C234.659 365.55 236.069 368.24 238.599 369.04C241.129 369.84 243.829 368.43 244.629 365.9C245.429 363.37 244.029 360.67 241.489 359.87ZM244.069 365.73C243.369 367.96 240.999 369.19 238.779 368.49C236.559 367.79 235.319 365.42 236.019 363.19C236.719 360.97 239.089 359.73 241.319 360.43C243.539 361.13 244.769 363.5 244.069 365.73Z" fill="white"/>
<path d="M238.992 374.31L235.272 373.13L234.652 375.83L237.952 376.87L238.992 374.31Z" fill="white"/>
<path d="M232.31 370.83L230.51 367.37L228.16 368.83L229.77 371.91L232.31 370.83Z" fill="white"/>
<path d="M230.05 363.64L231.22 359.93L228.53 359.3L227.48 362.61L230.05 363.64Z" fill="white"/>
<path d="M233.529 356.96L236.989 355.17L235.519 352.82L232.449 354.42L233.529 356.96Z" fill="white"/>
<path d="M240.711 354.7L244.431 355.87L245.051 353.18L241.751 352.14L240.711 354.7Z" fill="white"/>
<path d="M247.391 358.18L249.191 361.64L251.541 360.17L249.941 357.1L247.391 358.18Z" fill="white"/>
<path d="M249.65 365.37L248.48 369.08L251.17 369.71L252.22 366.4L249.65 365.37Z" fill="white"/>
<path d="M246.169 372.04L242.719 373.84L244.179 376.19L247.249 374.59L246.169 372.04Z" fill="white"/>
<path d="M257.839 374.01C256.339 373.03 254.339 373.46 253.359 374.96C252.379 376.46 252.809 378.46 254.309 379.44C255.809 380.42 257.809 379.99 258.789 378.49C259.749 376.99 259.329 374.99 257.839 374.01ZM258.449 378.27C257.589 379.59 255.829 379.96 254.519 379.1C253.199 378.24 252.829 376.48 253.689 375.17C254.549 373.85 256.309 373.48 257.619 374.34C258.929 375.2 259.309 376.96 258.449 378.27ZM257.839 374.01C256.339 373.03 254.339 373.46 253.359 374.96C252.379 376.46 252.809 378.46 254.309 379.44C255.809 380.42 257.809 379.99 258.789 378.49C259.749 376.99 259.329 374.99 257.839 374.01ZM258.449 378.27C257.589 379.59 255.829 379.96 254.519 379.1C253.199 378.24 252.829 376.48 253.689 375.17C254.549 373.85 256.309 373.48 257.619 374.34C258.929 375.2 259.309 376.96 258.449 378.27ZM257.839 374.01C256.339 373.03 254.339 373.46 253.359 374.96C252.379 376.46 252.809 378.46 254.309 379.44C255.809 380.42 257.809 379.99 258.789 378.49C259.749 376.99 259.329 374.99 257.839 374.01ZM258.449 378.27C257.589 379.59 255.829 379.96 254.519 379.1C253.199 378.24 252.829 376.48 253.689 375.17C254.549 373.85 256.309 373.48 257.619 374.34C258.929 375.2 259.309 376.96 258.449 378.27ZM259.789 371.01C256.629 368.95 252.409 369.85 250.349 373C248.299 376.16 249.189 380.38 252.339 382.44C255.489 384.49 259.719 383.6 261.779 380.44C263.839 377.29 262.949 373.06 259.789 371.01ZM259.199 378.76C258.069 380.49 255.749 380.98 254.029 379.86C252.299 378.73 251.809 376.41 252.939 374.69C254.069 372.96 256.389 372.47 258.109 373.6C259.839 374.72 260.329 377.04 259.199 378.76ZM258.779 378.49C259.749 376.99 259.329 374.99 257.839 374.01C256.339 373.03 254.339 373.46 253.359 374.96C252.379 376.46 252.809 378.46 254.309 379.44C255.799 380.41 257.799 379.99 258.779 378.49ZM258.449 378.27C257.589 379.59 255.829 379.96 254.519 379.1C253.199 378.24 252.829 376.48 253.689 375.17C254.549 373.85 256.309 373.48 257.619 374.34C258.929 375.2 259.309 376.96 258.449 378.27ZM257.839 374.01C256.339 373.03 254.339 373.46 253.359 374.96C252.379 376.46 252.809 378.46 254.309 379.44C255.809 380.42 257.809 379.99 258.789 378.49C259.749 376.99 259.329 374.99 257.839 374.01ZM258.449 378.27C257.589 379.59 255.829 379.96 254.519 379.1C253.199 378.24 252.829 376.48 253.689 375.17C254.549 373.85 256.309 373.48 257.619 374.34C258.929 375.2 259.309 376.96 258.449 378.27ZM257.839 374.01C256.339 373.03 254.339 373.46 253.359 374.96C252.379 376.46 252.809 378.46 254.309 379.44C255.809 380.42 257.809 379.99 258.789 378.49C259.749 376.99 259.329 374.99 257.839 374.01ZM258.449 378.27C257.589 379.59 255.829 379.96 254.519 379.1C253.199 378.24 252.829 376.48 253.689 375.17C254.549 373.85 256.309 373.48 257.619 374.34C258.929 375.2 259.309 376.96 258.449 378.27Z" fill="white"/>
<path d="M253.602 382.92L251.402 381.49L250.512 383.12L252.472 384.39L253.602 382.92Z" fill="white"/>
<path d="M249.9 379.45L249.36 376.89L247.57 377.41L248.05 379.7L249.9 379.45Z" fill="white"/>
<path d="M249.732 374.39L251.162 372.19L249.532 371.3L248.262 373.25L249.732 374.39Z" fill="white"/>
<path d="M253.199 370.69L255.759 370.14L255.239 368.36L252.949 368.84L253.199 370.69Z" fill="white"/>
<path d="M258.262 370.52L260.462 371.95L261.352 370.32L259.402 369.04L258.262 370.52Z" fill="white"/>
<path d="M261.961 373.98L262.511 376.55L264.291 376.02L263.811 373.74L261.961 373.98Z" fill="white"/>
<path d="M262.129 379.05L260.699 381.25L262.329 382.14L263.609 380.18L262.129 379.05Z" fill="white"/>
<path d="M258.672 382.75L256.102 383.29L256.632 385.08L258.912 384.6L258.672 382.75Z" fill="white"/>
<path d="M305.59 401.41L308.78 402.01L317.88 340.38L314.25 339.71L305.59 401.41Z" fill="#FFD66C"/>
<path d="M277.719 391.65L282.449 350.47L314.249 339.71C314.249 339.71 305.589 402.08 305.589 401.41L277.719 391.65Z" fill="#FFD66C"/>
<path opacity="0.4" d="M277.719 391.65L282.449 350.47L314.249 339.71C314.249 339.71 305.589 402.08 305.589 401.41L277.719 391.65Z" fill="#FFFBED"/>
<path d="M200.641 352.14C200.121 348.73 199.841 345.29 199.631 341.85C199.531 340.13 199.491 338.4 199.451 336.68C199.421 334.96 199.391 333.23 199.441 331.51L199.451 331.06L199.891 331.04C206.211 330.7 212.521 330.29 218.841 330.01C225.161 329.7 231.481 329.41 237.801 329.22C231.501 329.79 225.191 330.28 218.881 330.73C212.571 331.22 206.261 331.58 199.951 332.01L200.401 331.53L200.371 336.68L200.431 341.83C200.441 343.55 200.471 345.27 200.521 346.99L200.641 352.14Z" fill="#FFFBED"/>
<path d="M286.879 351.08C288.849 350.14 290.849 349.27 292.879 348.47C294.899 347.65 296.939 346.87 298.999 346.16C301.059 345.46 303.129 344.77 305.239 344.18C307.339 343.59 309.459 343.04 311.629 342.69L312.159 342.6L312.059 343.11C311.559 345.78 311.039 348.44 310.419 351.09C310.649 348.38 310.979 345.69 311.329 343L311.769 343.42C309.669 343.92 307.589 344.51 305.509 345.12C303.429 345.74 301.359 346.39 299.299 347.07L286.879 351.08Z" fill="#FFFBED"/>
<path opacity="0.1" d="M214.398 328.12L214.938 338.42L215.398 348.72L216.188 369.33L216.808 389.95L217.058 400.25L217.228 410.57L216.688 400.27L216.238 389.97L215.438 369.36L214.818 348.74L214.568 338.43L214.398 328.12Z" fill="black"/>
<path opacity="0.1" d="M211.449 334.33C211.649 335.22 211.119 336.27 210.119 336.57C209.639 336.72 209.069 336.67 208.589 336.4C208.119 336.13 207.769 335.64 207.659 335.1C207.549 334.56 207.679 333.97 208.009 333.54C208.339 333.11 208.849 332.84 209.349 332.79C210.399 332.66 211.289 333.44 211.449 334.33ZM211.449 334.33C211.359 333.88 211.069 333.48 210.679 333.26C210.289 333.04 209.819 333.02 209.439 333.14C208.639 333.4 208.249 334.25 208.399 334.94C208.529 335.64 209.209 336.27 210.049 336.2C210.459 336.17 210.879 335.96 211.149 335.61C211.429 335.26 211.539 334.78 211.449 334.33Z" fill="black"/>
<path opacity="0.1" d="M212.16 346.68C212.36 347.57 211.83 348.62 210.83 348.92C210.35 349.07 209.78 349.02 209.3 348.75C208.83 348.48 208.48 347.99 208.37 347.45C208.26 346.91 208.39 346.32 208.72 345.89C209.05 345.46 209.56 345.19 210.06 345.14C211.11 345.01 212 345.79 212.16 346.68ZM212.16 346.68C212.07 346.23 211.78 345.83 211.39 345.61C211 345.39 210.53 345.37 210.15 345.49C209.35 345.75 208.96 346.6 209.11 347.29C209.24 347.99 209.92 348.62 210.76 348.55C211.17 348.52 211.59 348.31 211.86 347.96C212.14 347.61 212.25 347.13 212.16 346.68Z" fill="black"/>
<path opacity="0.1" d="M212.609 359.79C212.809 360.68 212.279 361.73 211.279 362.03C210.799 362.18 210.229 362.13 209.749 361.86C209.279 361.59 208.929 361.1 208.819 360.56C208.709 360.02 208.839 359.43 209.179 359C209.509 358.57 210.019 358.3 210.519 358.25C211.559 358.12 212.449 358.89 212.609 359.79ZM212.609 359.79C212.519 359.34 212.229 358.94 211.839 358.72C211.449 358.5 210.979 358.48 210.599 358.6C209.799 358.86 209.409 359.71 209.559 360.4C209.689 361.1 210.369 361.73 211.209 361.66C211.619 361.63 212.039 361.42 212.309 361.07C212.589 360.72 212.699 360.24 212.609 359.79Z" fill="black"/>
<path opacity="0.1" d="M213.059 372.9C213.259 373.79 212.729 374.84 211.729 375.14C211.249 375.29 210.679 375.24 210.199 374.97C209.729 374.7 209.379 374.21 209.269 373.67C209.159 373.13 209.289 372.54 209.629 372.11C209.959 371.68 210.469 371.41 210.969 371.36C212.009 371.23 212.899 372 213.059 372.9ZM213.059 372.9C212.969 372.45 212.679 372.05 212.289 371.83C211.899 371.61 211.429 371.59 211.049 371.71C210.249 371.97 209.859 372.82 210.009 373.51C210.139 374.21 210.819 374.84 211.659 374.77C212.069 374.74 212.489 374.53 212.759 374.18C213.039 373.83 213.149 373.35 213.059 372.9Z" fill="black"/>
<path opacity="0.1" d="M213.508 386C213.708 386.89 213.178 387.94 212.178 388.24C211.698 388.39 211.128 388.34 210.648 388.07C210.178 387.8 209.828 387.31 209.718 386.77C209.608 386.23 209.738 385.64 210.068 385.21C210.398 384.78 210.908 384.51 211.408 384.46C212.458 384.34 213.348 385.11 213.508 386ZM213.508 386C213.418 385.55 213.128 385.15 212.738 384.93C212.348 384.71 211.878 384.69 211.498 384.81C210.698 385.07 210.308 385.92 210.458 386.61C210.588 387.31 211.268 387.94 212.108 387.87C212.518 387.84 212.938 387.63 213.208 387.28C213.488 386.94 213.598 386.45 213.508 386Z" fill="black"/>
<path opacity="0.1" d="M213.961 399.11C214.161 400 213.631 401.05 212.631 401.35C212.151 401.5 211.581 401.45 211.101 401.18C210.631 400.91 210.281 400.42 210.171 399.88C210.061 399.34 210.191 398.75 210.521 398.32C210.851 397.89 211.361 397.62 211.861 397.57C212.911 397.45 213.801 398.22 213.961 399.11ZM213.961 399.11C213.871 398.66 213.581 398.26 213.191 398.04C212.801 397.82 212.331 397.8 211.951 397.92C211.151 398.18 210.761 399.03 210.911 399.72C211.041 400.42 211.721 401.05 212.561 400.98C212.971 400.94 213.391 400.74 213.661 400.39C213.941 400.04 214.051 399.56 213.961 399.11Z" fill="black"/>
<path d="M218.007 419.154L171.133 433.358L172.792 438.832L219.665 424.628L218.007 419.154Z" fill="#FFD66C"/>
<path opacity="0.4" d="M218.007 419.154L171.133 433.358L172.792 438.832L219.665 424.628L218.007 419.154Z" fill="#FFFBED"/>
<path d="M195.58 424.1L190.129 425.833L192.705 433.934L198.156 432.2L195.58 424.1Z" fill="#FFD66C"/>
<path d="M172.43 446.86L160.33 394.48L123.82 403.14L141.8 454.19L172.43 446.86Z" fill="#FFD66C"/>
<path d="M180.532 444.2L172.432 446.86L160.332 394.48L171.982 397.26L180.532 444.2Z" fill="#FFD66C"/>
<path opacity="0.2" d="M180.532 444.2L172.432 446.86L160.332 394.48L171.982 397.26L180.532 444.2Z" fill="black"/>
<path d="M218.858 428.1C222.288 428.1 225.068 425.32 225.068 421.89C225.068 418.46 222.288 415.68 218.858 415.68C215.429 415.68 212.648 418.46 212.648 421.89C212.648 425.32 215.429 428.1 218.858 428.1Z" fill="#FFD66C"/>
<path d="M282.799 419.008L281.129 424.479L327.973 438.781L329.644 433.311L282.799 419.008Z" fill="#FFD66C"/>
<path opacity="0.4" d="M282.799 419.008L281.129 424.479L327.973 438.781L329.644 433.311L282.799 419.008Z" fill="#FFFBED"/>
<path d="M305.262 423.966L302.668 432.061L308.115 433.806L310.709 425.712L305.262 423.966Z" fill="#FFD66C"/>
<path d="M328.363 446.82L340.563 394.46L377.063 403.2L358.973 454.21L328.363 446.82Z" fill="#FFD66C"/>
<path d="M320.262 444.14L328.362 446.82L340.562 394.46L328.912 397.21L320.262 444.14Z" fill="#FFD66C"/>
<path opacity="0.2" d="M320.262 444.14L328.362 446.82L340.562 394.46L328.912 397.21L320.262 444.14Z" fill="black"/>
<path d="M275.762 421.74C275.752 425.17 278.532 427.96 281.962 427.97C285.392 427.98 288.182 425.2 288.192 421.77C288.202 418.34 285.422 415.55 281.992 415.54C278.562 415.53 275.772 418.3 275.762 421.74Z" fill="#FFD66C"/>
<path d="M322.659 357.13C322.809 356.99 337.859 343.03 355.569 347.8C373.679 352.69 388.639 379.97 388.779 380.24L393.809 377.52C393.159 376.31 377.559 347.8 357.049 342.27C336.189 336.65 319.409 352.3 318.699 352.97L322.659 357.13Z" fill="#FFD66C"/>
<path opacity="0.4" d="M322.659 357.13C322.809 356.99 337.859 343.03 355.569 347.8C373.679 352.69 388.639 379.97 388.779 380.24L393.809 377.52C393.159 376.31 377.559 347.8 357.049 342.27C336.189 336.65 319.409 352.3 318.699 352.97L322.659 357.13Z" fill="#FFFBED"/>
<path d="M382.12 407.71L392.97 401.98C391.93 400.01 390.65 396.62 390.46 393.56C390.22 389.6 391.79 388.2 393.53 387.29C397.33 385.28 399.6 386.08 401.15 386.99C403.32 388.27 405.53 390.9 407.37 394.38L418.22 388.65C415.25 383.03 411.61 378.91 407.39 376.42C403.18 373.94 396.37 371.92 387.81 376.44C381.14 379.96 377.74 386.3 378.23 394.3C378.6 400.61 381.3 406.16 382.12 407.71Z" fill="#FFD66C"/>
<path d="M324.949 338.02C327.299 336.4 329.709 334.87 332.119 333.35C334.529 331.82 336.979 330.37 339.429 328.91C341.889 327.47 344.349 326.04 346.849 324.67L350.599 322.62C351.869 321.97 353.119 321.29 354.409 320.66C353.239 321.48 352.039 322.25 350.849 323.04L347.239 325.33C344.829 326.85 342.379 328.31 339.929 329.77C337.469 331.21 335.009 332.64 332.499 334.01C330.009 335.39 327.509 336.75 324.949 338.02Z" fill="#FFEE52"/>
<path d="M318.719 361.42C322.089 363.34 325.279 365.5 328.419 367.73C331.549 369.98 334.639 372.29 337.539 374.85C334.169 372.93 330.979 370.77 327.839 368.54C324.719 366.29 321.629 363.98 318.719 361.42Z" fill="#FFEE52"/>
<path d="M324.25 358.54C326.85 359.33 329.41 360.22 331.96 361.13C334.52 362.03 337.04 363 339.57 363.97C342.09 364.96 344.61 365.96 347.1 367.02L350.83 368.62C352.06 369.19 353.31 369.72 354.53 370.32C353.23 369.93 351.95 369.49 350.66 369.08L346.83 367.74C344.27 366.84 341.75 365.87 339.22 364.9C336.7 363.91 334.18 362.91 331.69 361.85C329.19 360.79 326.7 359.72 324.25 358.54Z" fill="#FFEE52"/>
<path d="M331.629 340.22C334.119 339.57 336.629 339.03 339.139 338.51C341.649 337.98 344.169 337.52 346.699 337.06C349.229 336.63 351.759 336.2 354.299 335.84L358.109 335.31C359.389 335.17 360.659 335 361.939 334.89C360.699 335.22 359.439 335.49 358.189 335.8L354.429 336.6C351.919 337.13 349.399 337.59 346.869 338.05C344.339 338.48 341.809 338.91 339.269 339.27C336.729 339.63 334.189 339.98 331.629 340.22Z" fill="#FFEE52"/>
<path d="M271.621 355.79C272.041 353.77 272.721 351.79 273.601 349.92C274.481 348.04 275.551 346.24 276.901 344.64C278.251 343.06 279.921 341.66 281.931 340.89C283.931 340.14 286.231 340.15 288.241 340.95C290.271 341.74 291.881 343.45 292.741 345.42C293.191 346.4 293.471 347.45 293.591 348.53C293.691 349.61 293.651 350.72 293.221 351.8C293.001 352.33 292.661 352.86 292.121 353.22C291.861 353.4 291.531 353.51 291.221 353.56C290.911 353.6 290.591 353.59 290.221 353.47C289.551 353.19 289.221 352.65 288.931 352.16C288.671 351.66 288.471 351.14 288.341 350.62C287.781 348.53 287.721 346.41 287.821 344.31C288.121 340.13 289.221 335.95 291.471 332.35C292.611 330.57 294.031 328.94 295.811 327.74C297.561 326.54 299.611 325.71 301.701 325.47C302.731 325.22 303.791 325.24 304.841 325.19C305.371 325.13 305.891 325.26 306.411 325.29C306.931 325.36 307.461 325.35 307.971 325.5C310.051 325.87 312.001 326.71 313.821 327.72C315.631 328.77 317.251 330.11 318.721 331.56C320.181 333.03 321.511 334.64 322.581 336.41C320.221 333.04 317.171 330.11 313.581 328.14C311.771 327.2 309.861 326.43 307.851 326.12C307.361 325.98 306.841 326.01 306.341 325.95C305.831 325.94 305.331 325.82 304.831 325.89C303.821 325.96 302.801 325.96 301.821 326.22C299.801 326.5 297.931 327.31 296.291 328.44C294.641 329.57 293.301 331.13 292.231 332.83C290.111 336.27 289.071 340.33 288.811 344.37C288.701 346.39 288.751 348.45 289.251 350.36C289.491 351.28 289.921 352.31 290.551 352.6C290.631 352.61 290.681 352.65 290.781 352.65C290.881 352.64 290.981 352.66 291.081 352.64C291.271 352.61 291.451 352.56 291.611 352.44C291.941 352.23 292.201 351.87 292.371 351.45C292.721 350.6 292.791 349.59 292.701 348.62C292.601 347.64 292.351 346.67 291.951 345.77C291.161 343.97 289.761 342.42 287.941 341.66C286.131 340.89 284.011 340.83 282.141 341.48C280.251 342.16 278.621 343.46 277.271 344.96C274.551 348 272.711 351.82 271.621 355.79Z" fill="#263238"/>
<path d="M179.219 381.7C180.189 379.88 181.599 378.31 183.259 377.06C184.909 375.82 186.819 374.85 188.859 374.38C190.889 373.89 193.079 373.88 195.109 374.5C197.149 375.11 198.979 376.3 200.449 377.82C201.929 379.34 203.029 381.19 203.789 383.15C204.529 385.12 204.979 387.22 204.819 389.38C204.709 390.44 204.499 391.58 203.659 392.5C203.239 392.95 202.599 393.25 201.979 393.26C201.379 393.25 200.809 393.16 200.259 392.87C199.709 392.59 199.269 392.09 199.019 391.55C198.769 391 198.669 390.43 198.639 389.87C198.599 388.75 198.839 387.69 199.169 386.67C199.839 384.64 200.939 382.82 202.229 381.16C203.519 379.51 205.049 378.03 206.759 376.81C210.149 374.35 214.459 372.98 218.669 373.53C220.749 373.81 222.809 374.41 224.629 375.47C226.469 376.49 228.059 377.92 229.349 379.54C230.649 381.17 231.659 383.01 232.429 384.92C233.209 386.83 233.779 388.83 234.059 390.87C233.219 386.86 231.569 382.97 228.949 379.87C227.649 378.32 226.079 376.99 224.299 376.05C222.539 375.08 220.559 374.55 218.569 374.33C214.569 373.89 210.509 375.17 207.279 377.56C204.059 379.93 201.419 383.24 200.089 386.98C199.779 387.91 199.559 388.89 199.589 389.83C199.609 390.76 199.939 391.66 200.689 392.04C201.039 392.24 201.519 392.32 201.939 392.33C202.349 392.32 202.709 392.16 202.989 391.86C203.569 391.25 203.819 390.25 203.909 389.3C204.069 387.35 203.659 385.33 202.959 383.46C202.249 381.59 201.199 379.84 199.839 378.38C198.479 376.92 196.769 375.78 194.879 375.16C192.989 374.53 190.919 374.48 188.949 374.9C185.039 375.75 181.389 378.21 179.219 381.7Z" fill="#263238"/>
<path d="M132.952 140.21C132.842 136.1 131.962 131.95 130.052 128.34C129.092 126.55 127.822 124.9 126.152 123.79C124.482 122.71 122.412 122.26 120.472 122.58C118.522 122.89 116.792 124.06 115.592 125.62C114.982 126.4 114.512 127.28 114.182 128.2C113.862 129.12 113.682 130.12 113.822 131.03C113.892 131.48 114.052 131.9 114.322 132.18C114.452 132.33 114.612 132.42 114.792 132.5C114.872 132.55 114.982 132.55 115.072 132.58C115.172 132.6 115.232 132.57 115.312 132.58C115.992 132.45 116.662 131.55 117.112 130.72C118.062 128.98 118.602 126.99 118.972 125C119.682 121.02 119.642 116.83 118.402 112.98C117.772 111.07 116.842 109.25 115.502 107.75C114.172 106.26 112.552 105.03 110.662 104.27C109.772 103.78 108.782 103.54 107.822 103.23C107.342 103.04 106.832 103.04 106.332 102.93C105.832 102.86 105.332 102.72 104.832 102.73C102.802 102.55 100.762 102.85 98.792 103.33C94.842 104.38 91.182 106.5 88.082 109.21C89.542 107.74 91.212 106.5 92.982 105.42C94.762 104.36 96.652 103.44 98.662 102.86C100.672 102.32 102.772 101.97 104.872 102.11C105.402 102.08 105.912 102.22 106.442 102.28C106.962 102.38 107.492 102.38 107.992 102.56C109.002 102.86 110.042 103.09 110.982 103.58C112.952 104.31 114.752 105.61 116.162 107.19C117.602 108.77 118.592 110.7 119.272 112.7C120.602 116.73 120.672 121.06 119.962 125.19C119.562 127.25 118.992 129.3 117.952 131.19C117.692 131.66 117.382 132.12 117.012 132.55C116.622 132.95 116.162 133.39 115.442 133.51C115.062 133.55 114.742 133.48 114.452 133.36C114.152 133.24 113.872 133.06 113.652 132.82C113.202 132.35 113.002 131.75 112.912 131.18C112.752 130.04 112.982 128.94 113.332 127.92C113.702 126.9 114.222 125.95 114.892 125.1C116.202 123.4 118.172 122.12 120.332 121.84C122.472 121.54 124.712 122.08 126.472 123.29C128.232 124.52 129.522 126.27 130.452 128.13C131.382 130.01 131.992 132.01 132.402 134.05C132.842 136.07 133.032 138.14 132.952 140.21Z" fill="#263238"/>
<path d="M353.77 192.37C349.74 191.52 345.51 191.4 341.55 192.42C339.59 192.94 337.68 193.79 336.22 195.15C334.78 196.52 333.86 198.43 333.72 200.39C333.56 202.35 334.3 204.31 335.54 205.84C336.15 206.61 336.9 207.28 337.72 207.81C338.54 208.33 339.47 208.74 340.38 208.82C340.83 208.86 341.28 208.79 341.61 208.6C341.78 208.51 341.91 208.37 342.03 208.22C342.09 208.15 342.12 208.05 342.17 207.96C342.21 207.87 342.2 207.8 342.23 207.73C342.26 207.04 341.54 206.18 340.84 205.54C339.37 204.21 337.56 203.22 335.72 202.4C332.01 200.78 327.93 199.84 323.9 200.15C321.9 200.32 319.91 200.8 318.14 201.75C316.38 202.69 314.8 203.98 313.63 205.65C312.94 206.4 312.48 207.31 311.95 208.17C311.66 208.59 311.53 209.09 311.31 209.54C311.13 210.01 310.87 210.46 310.77 210.96C310.13 212.89 309.93 214.94 309.94 216.98C310.04 221.07 311.24 225.12 313.16 228.77C312.08 227.01 311.26 225.09 310.62 223.12C310 221.14 309.55 219.09 309.45 217C309.39 214.92 309.54 212.8 310.17 210.78C310.27 210.26 310.52 209.79 310.7 209.3C310.92 208.82 311.04 208.3 311.33 207.86C311.86 206.95 312.32 205.99 313.02 205.19C314.19 203.44 315.87 202 317.74 201C319.62 199.97 321.72 199.46 323.83 199.26C328.06 198.91 332.28 199.85 336.13 201.5C338.04 202.37 339.9 203.4 341.5 204.86C341.9 205.22 342.27 205.63 342.6 206.09C342.9 206.57 343.22 207.11 343.17 207.84C343.11 208.22 342.98 208.51 342.8 208.77C342.61 209.03 342.37 209.27 342.08 209.42C341.51 209.74 340.88 209.8 340.32 209.75C339.17 209.64 338.16 209.16 337.25 208.58C336.35 207.98 335.54 207.25 334.87 206.4C333.52 204.73 332.74 202.52 332.97 200.35C333.18 198.19 334.23 196.15 335.81 194.71C337.42 193.28 339.42 192.44 341.45 191.97C343.49 191.5 345.59 191.38 347.66 191.46C349.71 191.52 351.78 191.82 353.77 192.37Z" fill="#263238"/>
<path d="M291.86 127.67C291.18 125.3 291.08 122.77 291.47 120.32C291.85 117.87 292.68 115.47 294.04 113.36C295.37 111.25 297.24 109.43 299.49 108.26C301.73 107.09 304.29 106.58 306.81 106.66C309.34 106.73 311.82 107.38 314.1 108.42C316.38 109.48 318.51 110.91 320.17 112.87C320.96 113.86 321.72 115.01 321.77 116.46C321.79 117.17 321.5 117.94 320.99 118.46C320.48 118.95 319.93 119.34 319.23 119.54C318.54 119.75 317.78 119.7 317.12 119.45C316.46 119.2 315.91 118.79 315.42 118.34C314.46 117.43 313.78 116.32 313.22 115.18C312.11 112.89 311.52 110.42 311.24 107.93C310.96 105.44 311.04 102.91 311.47 100.44C312.31 95.5098 314.85 90.7498 318.89 87.7098C320.9 86.2098 323.15 84.9998 325.59 84.3798C328.01 83.7198 330.56 83.5998 333.02 83.8998C335.49 84.2098 337.89 84.9198 340.16 85.8998C342.43 86.8798 344.6 88.0998 346.55 89.5998C342.49 86.8498 337.82 84.8798 332.96 84.3998C330.54 84.1498 328.08 84.3198 325.76 84.9998C323.42 85.6398 321.28 86.8498 319.38 88.3298C317.5 89.8298 315.9 91.6898 314.73 93.7898C313.55 95.8898 312.78 98.2098 312.37 100.59C311.59 105.34 312.09 110.39 314.1 114.74C314.62 115.81 315.25 116.84 316.08 117.63C316.89 118.42 317.96 118.94 318.96 118.62C319.45 118.49 319.94 118.15 320.31 117.8C320.66 117.44 320.85 116.97 320.84 116.45C320.83 115.4 320.19 114.33 319.46 113.43C317.95 111.61 315.9 110.21 313.73 109.2C311.55 108.19 309.17 107.57 306.77 107.46C304.37 107.35 301.94 107.81 299.8 108.88C297.65 109.93 295.82 111.63 294.49 113.65C291.82 117.69 290.77 122.86 291.86 127.67Z" fill="#263238"/>
<path d="M175.871 381.92C173.631 381.21 171.241 382.46 170.541 384.7C169.831 386.94 171.081 389.33 173.321 390.03C175.561 390.74 177.941 389.49 178.651 387.25C179.361 385.02 178.111 382.63 175.871 381.92ZM178.161 387.1C177.541 389.07 175.441 390.16 173.481 389.54C171.511 388.92 170.421 386.82 171.041 384.86C171.661 382.89 173.761 381.8 175.721 382.42C177.681 383.04 178.781 385.13 178.161 387.1ZM175.871 381.92C173.631 381.21 171.241 382.46 170.541 384.7C169.831 386.94 171.081 389.33 173.321 390.03C175.561 390.74 177.941 389.49 178.651 387.25C179.361 385.02 178.111 382.63 175.871 381.92ZM178.161 387.1C177.541 389.07 175.441 390.16 173.481 389.54C171.511 388.92 170.421 386.82 171.041 384.86C171.661 382.89 173.761 381.8 175.721 382.42C177.681 383.04 178.781 385.13 178.161 387.1ZM175.871 381.92C173.631 381.21 171.241 382.46 170.541 384.7C169.831 386.94 171.081 389.33 173.321 390.03C175.561 390.74 177.941 389.49 178.651 387.25C179.361 385.02 178.111 382.63 175.871 381.92ZM178.161 387.1C177.541 389.07 175.441 390.16 173.481 389.54C171.511 388.92 170.421 386.82 171.041 384.86C171.661 382.89 173.761 381.8 175.721 382.42C177.681 383.04 178.781 385.13 178.161 387.1ZM177.291 377.43C172.571 375.94 167.531 378.57 166.051 383.28C164.561 388 167.181 393.03 171.911 394.52C176.631 396.01 181.661 393.38 183.151 388.66C184.631 383.95 182.011 378.92 177.291 377.43ZM179.281 387.45C178.471 390.04 175.701 391.48 173.121 390.66C170.541 389.85 169.101 387.08 169.911 384.5C170.721 381.91 173.491 380.48 176.071 381.29C178.651 382.11 180.101 384.87 179.281 387.45ZM178.651 387.26C179.361 385.02 178.111 382.63 175.881 381.93C173.641 381.22 171.251 382.47 170.551 384.71C169.841 386.95 171.091 389.34 173.331 390.04C175.561 390.74 177.941 389.5 178.651 387.26ZM178.161 387.1C177.541 389.07 175.441 390.16 173.481 389.54C171.511 388.92 170.421 386.82 171.041 384.86C171.661 382.89 173.761 381.8 175.721 382.42C177.681 383.04 178.781 385.13 178.161 387.1ZM175.871 381.92C173.631 381.21 171.241 382.46 170.541 384.7C169.831 386.94 171.081 389.33 173.321 390.03C175.561 390.74 177.941 389.49 178.651 387.25C179.361 385.02 178.111 382.63 175.871 381.92ZM178.161 387.1C177.541 389.07 175.441 390.16 173.481 389.54C171.511 388.92 170.421 386.82 171.041 384.86C171.661 382.89 173.761 381.8 175.721 382.42C177.681 383.04 178.781 385.13 178.161 387.1ZM175.871 381.92C173.631 381.21 171.241 382.46 170.541 384.7C169.831 386.94 171.081 389.33 173.321 390.03C175.561 390.74 177.941 389.49 178.651 387.25C179.361 385.02 178.111 382.63 175.871 381.92ZM178.161 387.1C177.541 389.07 175.441 390.16 173.481 389.54C171.511 388.92 170.421 386.82 171.041 384.86C171.661 382.89 173.761 381.8 175.721 382.42C177.681 383.04 178.781 385.13 178.161 387.1Z" fill="#455A64"/>
<path d="M173.66 394.69L170.37 393.65L169.82 396.04L172.74 396.96L173.66 394.69Z" fill="#455A64"/>
<path d="M167.752 391.61L166.162 388.55L164.082 389.85L165.502 392.57L167.752 391.61Z" fill="#455A64"/>
<path d="M165.75 385.26L166.79 381.97L164.4 381.42L163.48 384.34L165.75 385.26Z" fill="#455A64"/>
<path d="M168.831 379.35L171.891 377.76L170.591 375.68L167.871 377.1L168.831 379.35Z" fill="#455A64"/>
<path d="M175.18 377.35L178.47 378.38L179.02 376L176.1 375.08L175.18 377.35Z" fill="#455A64"/>
<path d="M181.09 380.43L182.68 383.48L184.76 382.19L183.34 379.47L181.09 380.43Z" fill="#455A64"/>
<path d="M183.091 386.78L182.051 390.07L184.441 390.62L185.361 387.7L183.091 386.78Z" fill="#455A64"/>
<path d="M180.009 392.69L176.949 394.28L178.249 396.36L180.969 394.94L180.009 392.69Z" fill="#455A64"/>
<path d="M341.673 353.35C346.183 347.28 344.913 338.7 338.833 334.19C332.753 329.68 324.173 330.95 319.673 337.02C315.163 343.1 316.433 351.68 322.513 356.19C328.583 360.7 337.163 359.43 341.673 353.35ZM335.813 349C333.703 351.84 329.703 352.43 326.863 350.33C324.023 348.22 323.433 344.22 325.543 341.38C327.653 338.54 331.653 337.95 334.493 340.06C337.323 342.16 337.923 346.16 335.813 349Z" fill="#6F768B"/>
<path d="M324.962 357.3L320.732 354.16L318.742 357.33L322.512 360.12L324.962 357.3Z" fill="#6F768B"/>
<path d="M317.971 349.9L317.201 344.69L313.551 345.52L314.241 350.16L317.971 349.9Z" fill="#6F768B"/>
<path d="M318.261 339.72L321.401 335.49L318.231 333.5L315.441 337.27L318.261 339.72Z" fill="#6F768B"/>
<path d="M325.662 332.73L330.872 331.96L330.032 328.31L325.402 329L325.662 332.73Z" fill="#6F768B"/>
<path d="M335.84 333.02L340.07 336.15L342.05 332.99L338.29 330.19L335.84 333.02Z" fill="#6F768B"/>
<path d="M342.832 340.42L343.602 345.63L347.252 344.79L346.562 340.16L342.832 340.42Z" fill="#6F768B"/>
<path d="M342.542 350.59L339.402 354.82L342.572 356.81L345.362 353.05L342.542 350.59Z" fill="#6F768B"/>
<path d="M335.14 357.59L329.93 358.36L330.76 362L335.4 361.32L335.14 357.59Z" fill="#6F768B"/>
<path d="M325.77 345.84L328.68 349.51L333.31 348.82L335.03 344.47L332.12 340.8L327.49 341.48L325.77 345.84ZM331.28 343.97C331.94 344.46 332.08 345.39 331.59 346.05C331.1 346.71 330.17 346.85 329.51 346.36C328.85 345.87 328.71 344.94 329.2 344.28C329.7 343.61 330.63 343.48 331.28 343.97Z" fill="#6F768B"/>
<path d="M351.941 86.5999C349.981 85.9799 347.891 87.0699 347.271 89.0299C346.651 90.9899 347.741 93.0799 349.701 93.6999C351.661 94.3199 353.751 93.2299 354.361 91.2699C354.991 89.3099 353.901 87.2199 351.941 86.5999ZM353.941 91.1299C353.401 92.8499 351.561 93.8099 349.841 93.2699C348.121 92.7299 347.161 90.8899 347.711 89.1699C348.251 87.4499 350.091 86.4899 351.811 87.0399C353.531 87.5799 354.481 89.4099 353.941 91.1299ZM351.941 86.5999C349.981 85.9799 347.891 87.0699 347.271 89.0299C346.651 90.9899 347.741 93.0799 349.701 93.6999C351.661 94.3199 353.751 93.2299 354.361 91.2699C354.991 89.3099 353.901 87.2199 351.941 86.5999ZM353.941 91.1299C353.401 92.8499 351.561 93.8099 349.841 93.2699C348.121 92.7299 347.161 90.8899 347.711 89.1699C348.251 87.4499 350.091 86.4899 351.811 87.0399C353.531 87.5799 354.481 89.4099 353.941 91.1299ZM351.941 86.5999C349.981 85.9799 347.891 87.0699 347.271 89.0299C346.651 90.9899 347.741 93.0799 349.701 93.6999C351.661 94.3199 353.751 93.2299 354.361 91.2699C354.991 89.3099 353.901 87.2199 351.941 86.5999ZM353.941 91.1299C353.401 92.8499 351.561 93.8099 349.841 93.2699C348.121 92.7299 347.161 90.8899 347.711 89.1699C348.251 87.4499 350.091 86.4899 351.811 87.0399C353.531 87.5799 354.481 89.4099 353.941 91.1299ZM353.181 82.6699C349.051 81.3699 344.641 83.6599 343.341 87.7899C342.041 91.9199 344.331 96.3299 348.461 97.6299C352.591 98.9299 356.991 96.6399 358.301 92.5099C359.611 88.3799 357.311 83.9699 353.181 82.6699ZM354.921 91.4399C354.211 93.6999 351.791 94.9599 349.531 94.2499C347.271 93.5399 346.011 91.1199 346.721 88.8599C347.431 86.5999 349.851 85.3399 352.111 86.0499C354.381 86.7599 355.641 89.1799 354.921 91.4399ZM354.371 91.2699C354.991 89.3099 353.901 87.2199 351.941 86.5999C349.981 85.9799 347.891 87.0699 347.271 89.0299C346.651 90.9899 347.741 93.0799 349.701 93.6999C351.671 94.3199 353.751 93.2299 354.371 91.2699ZM353.941 91.1299C353.401 92.8499 351.561 93.8099 349.841 93.2699C348.121 92.7299 347.161 90.8899 347.711 89.1699C348.251 87.4499 350.091 86.4899 351.811 87.0399C353.531 87.5799 354.481 89.4099 353.941 91.1299ZM351.941 86.5999C349.981 85.9799 347.891 87.0699 347.271 89.0299C346.651 90.9899 347.741 93.0799 349.701 93.6999C351.661 94.3199 353.751 93.2299 354.361 91.2699C354.991 89.3099 353.901 87.2199 351.941 86.5999ZM353.941 91.1299C353.401 92.8499 351.561 93.8099 349.841 93.2699C348.121 92.7299 347.161 90.8899 347.711 89.1699C348.251 87.4499 350.091 86.4899 351.811 87.0399C353.531 87.5799 354.481 89.4099 353.941 91.1299ZM351.941 86.5999C349.981 85.9799 347.891 87.0699 347.271 89.0299C346.651 90.9899 347.741 93.0799 349.701 93.6999C351.661 94.3199 353.751 93.2299 354.361 91.2699C354.991 89.3099 353.901 87.2199 351.941 86.5999ZM353.941 91.1299C353.401 92.8499 351.561 93.8099 349.841 93.2699C348.121 92.7299 347.161 90.8899 347.711 89.1699C348.251 87.4499 350.091 86.4899 351.811 87.0399C353.531 87.5799 354.481 89.4099 353.941 91.1299Z" fill="#7288A6"/>
<path d="M350.001 97.7696L347.131 96.8696L346.641 98.9496L349.201 99.7596L350.001 97.7696Z" fill="#7288A6"/>
<path d="M344.833 95.0799L343.443 92.3999L341.633 93.5399L342.863 95.9199L344.833 95.0799Z" fill="#7288A6"/>
<path d="M343.082 89.5197L343.992 86.6397L341.902 86.1597L341.102 88.7197L343.082 89.5197Z" fill="#7288A6"/>
<path d="M345.781 84.3496L348.451 82.9596L347.321 81.1396L344.941 82.3796L345.781 84.3496Z" fill="#7288A6"/>
<path d="M351.34 82.5999L354.21 83.5099L354.7 81.4199L352.14 80.6099L351.34 82.5999Z" fill="#7288A6"/>
<path d="M356.512 85.29L357.902 87.97L359.722 86.83L358.482 84.46L356.512 85.29Z" fill="#7288A6"/>
<path d="M358.262 90.8501L357.352 93.7301L359.442 94.2101L360.242 91.6501L358.262 90.8501Z" fill="#7288A6"/>
<path d="M355.561 96.02L352.891 97.41L354.021 99.23L356.401 97.99L355.561 96.02Z" fill="#7288A6"/>
<path d="M313.73 229.47C311.77 228.85 309.68 229.94 309.06 231.9C308.44 233.86 309.53 235.95 311.49 236.57C313.45 237.19 315.54 236.1 316.15 234.14C316.77 232.17 315.69 230.08 313.73 229.47ZM315.72 234C315.18 235.72 313.34 236.68 311.62 236.14C309.9 235.6 308.94 233.76 309.49 232.04C310.03 230.32 311.87 229.36 313.59 229.91C315.31 230.44 316.27 232.27 315.72 234ZM313.73 229.47C311.77 228.85 309.68 229.94 309.06 231.9C308.44 233.86 309.53 235.95 311.49 236.57C313.45 237.19 315.54 236.1 316.15 234.14C316.77 232.17 315.69 230.08 313.73 229.47ZM315.72 234C315.18 235.72 313.34 236.68 311.62 236.14C309.9 235.6 308.94 233.76 309.49 232.04C310.03 230.32 311.87 229.36 313.59 229.91C315.31 230.44 316.27 232.27 315.72 234ZM313.73 229.47C311.77 228.85 309.68 229.94 309.06 231.9C308.44 233.86 309.53 235.95 311.49 236.57C313.45 237.19 315.54 236.1 316.15 234.14C316.77 232.17 315.69 230.08 313.73 229.47ZM315.72 234C315.18 235.72 313.34 236.68 311.62 236.14C309.9 235.6 308.94 233.76 309.49 232.04C310.03 230.32 311.87 229.36 313.59 229.91C315.31 230.44 316.27 232.27 315.72 234ZM314.97 225.53C310.84 224.23 306.43 226.52 305.13 230.65C303.83 234.78 306.12 239.19 310.25 240.49C314.38 241.79 318.78 239.5 320.09 235.37C321.39 231.24 319.1 226.84 314.97 225.53ZM316.71 234.31C316 236.57 313.58 237.83 311.32 237.12C309.06 236.41 307.8 233.99 308.51 231.73C309.22 229.47 311.64 228.21 313.9 228.92C316.16 229.63 317.42 232.05 316.71 234.31ZM316.16 234.13C316.78 232.17 315.69 230.08 313.73 229.46C311.77 228.84 309.68 229.93 309.06 231.89C308.44 233.85 309.53 235.94 311.49 236.56C313.45 237.18 315.54 236.09 316.16 234.13ZM315.72 234C315.18 235.72 313.34 236.68 311.62 236.14C309.9 235.6 308.94 233.76 309.49 232.04C310.03 230.32 311.87 229.36 313.59 229.91C315.31 230.44 316.27 232.27 315.72 234ZM313.73 229.47C311.77 228.85 309.68 229.94 309.06 231.9C308.44 233.86 309.53 235.95 311.49 236.57C313.45 237.19 315.54 236.1 316.15 234.14C316.77 232.17 315.69 230.08 313.73 229.47ZM315.72 234C315.18 235.72 313.34 236.68 311.62 236.14C309.9 235.6 308.94 233.76 309.49 232.04C310.03 230.32 311.87 229.36 313.59 229.91C315.31 230.44 316.27 232.27 315.72 234ZM313.73 229.47C311.77 228.85 309.68 229.94 309.06 231.9C308.44 233.86 309.53 235.95 311.49 236.57C313.45 237.19 315.54 236.1 316.15 234.14C316.77 232.17 315.69 230.08 313.73 229.47ZM315.72 234C315.18 235.72 313.34 236.68 311.62 236.14C309.9 235.6 308.94 233.76 309.49 232.04C310.03 230.32 311.87 229.36 313.59 229.91C315.31 230.44 316.27 232.27 315.72 234Z" fill="#A9A371"/>
<path d="M311.79 240.64L308.91 239.73L308.43 241.82L310.99 242.62L311.79 240.64Z" fill="#A9A371"/>
<path d="M306.62 237.94L305.23 235.27L303.41 236.4L304.65 238.78L306.62 237.94Z" fill="#A9A371"/>
<path d="M304.869 232.38L305.769 229.51L303.689 229.02L302.879 231.58L304.869 232.38Z" fill="#A9A371"/>
<path d="M307.559 227.21L310.239 225.82L309.099 224.01L306.719 225.24L307.559 227.21Z" fill="#A9A371"/>
<path d="M313.117 225.46L315.997 226.37L316.477 224.28L313.917 223.48L313.117 225.46Z" fill="#A9A371"/>
<path d="M318.289 228.16L319.679 230.83L321.499 229.7L320.259 227.32L318.289 228.16Z" fill="#A9A371"/>
<path d="M320.039 233.72L319.129 236.59L321.219 237.08L322.029 234.52L320.039 233.72Z" fill="#A9A371"/>
<path d="M317.348 238.89L314.668 240.28L315.808 242.1L318.188 240.86L317.348 238.89Z" fill="#A9A371"/>
<path d="M95.0189 116.99C96.5589 110.66 92.6789 104.28 86.3489 102.74C80.0189 101.2 73.6389 105.08 72.0989 111.41C70.5589 117.74 74.4389 124.12 80.7689 125.66C87.0989 127.2 93.4789 123.32 95.0189 116.99ZM88.909 115.5C88.189 118.46 85.209 120.27 82.259 119.55C79.299 118.83 77.4889 115.85 78.2089 112.89C78.9289 109.93 81.909 108.12 84.869 108.84C87.819 109.57 89.629 112.55 88.909 115.5Z" fill="#1F2732"/>
<path d="M83.0901 125.72L78.6802 124.65L78.1602 127.83L82.0802 128.78L83.0901 125.72Z" fill="#1F2732"/>
<path d="M75.0598 122.19L72.7098 118.32L70.0898 120.2L72.1898 123.65L75.0598 122.19Z" fill="#1F2732"/>
<path d="M71.8803 114.02L72.9603 109.62L69.7803 109.1L68.8203 113.02L71.8803 114.02Z" fill="#1F2732"/>
<path d="M75.4109 106L79.2909 103.64L77.4009 101.03L73.9609 103.12L75.4109 106Z" fill="#1F2732"/>
<path d="M83.582 102.82L87.992 103.89L88.502 100.71L84.582 99.7598L83.582 102.82Z" fill="#1F2732"/>
<path d="M91.6094 106.35L93.9594 110.22L96.5794 108.34L94.4794 104.89L91.6094 106.35Z" fill="#1F2732"/>
<path d="M94.7909 114.52L93.7109 118.92L96.8909 119.44L97.8509 115.52L94.7909 114.52Z" fill="#1F2732"/>
<path d="M91.2589 122.54L87.3789 124.9L89.2689 127.51L92.7089 125.42L91.2589 122.54Z" fill="#1F2732"/>
<path d="M79.8886 116.37L83.4286 118.31L86.8786 116.21L86.7886 112.18L83.2586 110.24L79.8086 112.33L79.8886 116.37ZM83.6386 113.03C84.3286 113.2 84.7486 113.89 84.5786 114.57C84.4086 115.25 83.7186 115.68 83.0386 115.51C82.3586 115.34 81.9286 114.65 82.0986 113.97C82.2586 113.28 82.9486 112.86 83.6386 113.03Z" fill="#1F2732"/>
<path d="M361.589 238.94C358.899 234.84 357.389 230.24 357.389 225.37C357.389 208.17 376.269 194.23 399.549 194.23C422.829 194.23 441.689 208.17 441.689 225.37C441.689 242.57 422.819 256.51 399.549 256.51C388.259 256.51 378.029 253.24 370.469 247.89L355.949 251.58L361.589 238.94Z" fill="white"/>
<path d="M361.59 238.94C359.05 235.16 357.46 230.69 357.29 226.11C357.16 221.53 358.29 216.9 360.64 212.94C362.94 208.95 366.21 205.59 369.91 202.88C373.61 200.16 377.78 198.1 382.14 196.66C386.49 195.21 391.03 194.33 395.61 193.97C400.19 193.63 404.81 193.92 409.34 194.67C410.46 194.9 411.61 195.05 412.72 195.35L416.05 196.25L419.3 197.4C420.38 197.79 421.41 198.32 422.47 198.77C426.62 200.74 430.52 203.33 433.79 206.6C437.06 209.85 439.69 213.83 441.08 218.28C442.47 222.71 442.57 227.58 441.22 232.04C439.91 236.51 437.33 240.53 434.11 243.83C430.88 247.14 427.02 249.77 422.89 251.79C418.76 253.83 414.31 255.17 409.8 255.98C405.28 256.76 400.67 257.09 396.09 256.77C391.51 256.48 386.97 255.64 382.61 254.21C378.26 252.78 374.07 250.78 370.35 248.1L370.54 248.13L355.99 251.71L355.77 251.76L355.86 251.56L361.59 238.94ZM361.59 238.94L356.05 251.63L355.92 251.48L370.41 247.67L370.51 247.64L370.6 247.7C378.08 252.86 387.1 255.55 396.12 256.03C400.64 256.31 405.19 255.94 409.64 255.14C414.08 254.31 418.45 253 422.5 250.98C426.55 248.99 430.31 246.4 433.45 243.17C436.58 239.95 439.05 236.06 440.29 231.76C441.58 227.47 441.45 222.82 440.13 218.56C438.81 214.29 436.28 210.44 433.12 207.26C429.95 204.07 426.15 201.53 422.09 199.58C421.05 199.13 420.05 198.61 418.99 198.23L415.8 197.09L412.53 196.2C411.44 195.91 410.31 195.75 409.21 195.52C404.76 194.76 400.21 194.49 395.69 194.78C391.18 195.1 386.7 195.92 382.39 197.32C378.08 198.71 373.95 200.7 370.28 203.35C366.61 205.98 363.37 209.27 361.04 213.16C358.66 217.02 357.48 221.57 357.53 226.11C357.6 230.65 359.11 235.12 361.59 238.94Z" fill="#455A64"/>
<path d="M377.86 230.46V232.78H368.43V219.19H377.69V221.51H371.07V224.78H376.79V226.92H371.07V230.46H377.86V230.46Z" fill="#455A64"/>
<path d="M379.93 232.78V219.19H385.94C386.57 219.19 387.14 219.32 387.67 219.58C388.2 219.84 388.66 220.19 389.04 220.61C389.42 221.04 389.72 221.52 389.94 222.06C390.16 222.6 390.27 223.15 390.27 223.7C390.27 224.58 390.05 225.38 389.61 226.1C389.17 226.82 388.57 227.34 387.82 227.66L390.92 232.77H387.95L385.18 228.22H382.58V232.77H379.93V232.78ZM382.57 225.91H385.88C386.12 225.91 386.35 225.85 386.56 225.74C386.77 225.63 386.95 225.47 387.11 225.27C387.26 225.07 387.38 224.84 387.47 224.57C387.56 224.3 387.6 224.01 387.6 223.71C387.6 223.39 387.55 223.1 387.45 222.83C387.35 222.56 387.21 222.33 387.04 222.13C386.87 221.93 386.67 221.78 386.45 221.67C386.23 221.56 386 221.51 385.77 221.51H382.57V225.91V225.91Z" fill="#455A64"/>
<path d="M392.648 232.78V219.19H398.658C399.288 219.19 399.858 219.32 400.388 219.58C400.918 219.84 401.378 220.19 401.758 220.61C402.138 221.04 402.438 221.52 402.658 222.06C402.878 222.6 402.988 223.15 402.988 223.7C402.988 224.58 402.768 225.38 402.328 226.1C401.888 226.82 401.288 227.34 400.538 227.66L403.638 232.77H400.668L397.898 228.22H395.298V232.77H392.648V232.78ZM395.298 225.91H398.608C398.848 225.91 399.078 225.85 399.288 225.74C399.498 225.63 399.678 225.47 399.838 225.27C399.988 225.07 400.108 224.84 400.198 224.57C400.288 224.3 400.328 224.01 400.328 223.71C400.328 223.39 400.278 223.1 400.178 222.83C400.078 222.56 399.938 222.33 399.768 222.13C399.598 221.93 399.398 221.78 399.178 221.67C398.958 221.56 398.728 221.51 398.498 221.51H395.298V225.91V225.91Z" fill="#455A64"/>
<path d="M411.181 232.87C410.181 232.87 409.281 232.68 408.471 232.29C407.661 231.9 406.961 231.38 406.381 230.74C405.801 230.1 405.351 229.36 405.031 228.53C404.711 227.7 404.551 226.85 404.551 225.98C404.551 225.07 404.721 224.21 405.061 223.38C405.401 222.55 405.861 221.82 406.461 221.18C407.051 220.54 407.761 220.04 408.581 219.66C409.401 219.28 410.281 219.09 411.241 219.09C412.221 219.09 413.121 219.29 413.931 219.69C414.741 220.09 415.431 220.62 416.011 221.27C416.581 221.92 417.031 222.66 417.351 223.49C417.671 224.32 417.831 225.16 417.831 226.02C417.831 226.93 417.661 227.79 417.331 228.61C417.001 229.43 416.541 230.16 415.951 230.79C415.361 231.42 414.661 231.93 413.841 232.3C413.021 232.69 412.141 232.87 411.181 232.87ZM407.241 225.98C407.241 226.57 407.331 227.13 407.511 227.68C407.691 228.23 407.951 228.71 408.291 229.13C408.631 229.55 409.041 229.89 409.531 230.14C410.021 230.4 410.581 230.52 411.201 230.52C411.841 230.52 412.401 230.39 412.891 230.13C413.381 229.87 413.801 229.52 414.131 229.09C414.471 228.66 414.721 228.17 414.901 227.63C415.071 227.09 415.161 226.54 415.161 225.97C415.161 225.38 415.071 224.82 414.881 224.27C414.691 223.72 414.431 223.24 414.101 222.82C413.761 222.4 413.351 222.06 412.861 221.82C412.371 221.57 411.821 221.45 411.201 221.45C410.561 221.45 409.991 221.58 409.501 221.84C409.001 222.1 408.591 222.45 408.261 222.87C407.931 223.3 407.681 223.78 407.501 224.32C407.321 224.87 407.241 225.42 407.241 225.98Z" fill="#455A64"/>
<path d="M419.852 232.78V219.19H425.862C426.492 219.19 427.062 219.32 427.592 219.58C428.122 219.84 428.582 220.19 428.962 220.61C429.342 221.04 429.642 221.52 429.862 222.06C430.082 222.6 430.192 223.15 430.192 223.7C430.192 224.58 429.972 225.38 429.532 226.1C429.092 226.82 428.492 227.34 427.742 227.66L430.842 232.77H427.872L425.102 228.22H422.502V232.77H419.852V232.78ZM422.492 225.91H425.802C426.042 225.91 426.272 225.85 426.482 225.74C426.692 225.63 426.872 225.47 427.032 225.27C427.182 225.07 427.302 224.84 427.392 224.57C427.482 224.3 427.522 224.01 427.522 223.71C427.522 223.39 427.472 223.1 427.372 222.83C427.272 222.56 427.132 222.33 426.962 222.13C426.792 221.93 426.592 221.78 426.372 221.67C426.152 221.56 425.922 221.51 425.692 221.51H422.492V225.91V225.91Z" fill="#455A64"/>
</svg>
