<svg width="500" height="500" viewBox="0 0 500 500" fill="none" xmlns="http://www.w3.org/2000/svg">
<path d="M417.403 72.0329L443.883 72.033L443.883 60.843L417.403 60.8429L417.403 72.0329Z" stroke="#A4A9B9" stroke-width="0.75" stroke-miterlimit="10"/>
<path d="M432.176 57.9233H458.656V46.7333H432.176V57.9233Z" stroke="#A4A9B9" stroke-width="0.75" stroke-miterlimit="10"/>
<path d="M250 182.156H276.48V170.966H250V182.156Z" stroke="#A4A9B9" stroke-width="0.75" stroke-miterlimit="10"/>
<path d="M264.774 168.047H291.254V156.857H264.774V168.047Z" stroke="#A4A9B9" stroke-width="0.75" stroke-miterlimit="10"/>
<path d="M279.481 182.156H305.961V170.966H279.481V182.156Z" stroke="#A4A9B9" stroke-width="0.75" stroke-miterlimit="10"/>
<path d="M41.3442 57.9233H67.8242V46.7333H41.3442V57.9233Z" stroke="#A4A9B9" stroke-width="0.75" stroke-miterlimit="10"/>
<path d="M56.1177 321.035H82.5977V309.845H56.1177V321.035Z" stroke="#A4A9B9" stroke-width="0.75" stroke-miterlimit="10"/>
<path d="M41.3442 306.926H67.8242V295.736H41.3442V306.926Z" stroke="#A4A9B9" stroke-width="0.75" stroke-miterlimit="10"/>
<path d="M417.403 321.035L443.883 321.035L443.883 309.845L417.403 309.845L417.403 321.035Z" stroke="#A4A9B9" stroke-width="0.75" stroke-miterlimit="10"/>
<path d="M208.82 421.54V295.88L235.55 259.39V191.06" stroke="#A4A9B9" stroke-miterlimit="10"/>
<path d="M233.18 188.73C233.18 190.04 234.24 191.11 235.56 191.11C236.87 191.11 237.94 190.05 237.94 188.73C237.94 187.42 236.88 186.35 235.56 186.35C234.24 186.35 233.18 187.41 233.18 188.73Z" stroke="#A4A9B9" stroke-miterlimit="10"/>
<path d="M215.711 421.54V300.28L242.441 263.8V216.06" stroke="#A4A9B9" stroke-miterlimit="10"/>
<path d="M240.062 213.72C240.062 215.03 241.123 216.1 242.443 216.1C243.753 216.1 244.823 215.04 244.823 213.72C244.823 212.41 243.763 211.34 242.443 211.34C241.123 211.35 240.062 212.41 240.062 213.72Z" stroke="#A4A9B9" stroke-miterlimit="10"/>
<path d="M202.188 421.54V255.13" stroke="#A4A9B9" stroke-miterlimit="10"/>
<path d="M199.809 252.75C199.809 254.06 200.869 255.13 202.189 255.13C203.499 255.13 204.569 254.07 204.569 252.75C204.569 251.44 203.509 250.37 202.189 250.37C200.879 250.38 199.809 251.44 199.809 252.75Z" stroke="#A4A9B9" stroke-miterlimit="10"/>
<path d="M195.8 421.54V336.97L177.66 302.74V241.37" stroke="#A4A9B9" stroke-miterlimit="10"/>
<path d="M175.281 239C175.281 240.31 176.341 241.38 177.661 241.38C178.971 241.38 180.041 240.32 180.041 239C180.041 237.69 178.981 236.62 177.661 236.62C176.341 236.62 175.281 237.68 175.281 239Z" stroke="#A4A9B9" stroke-miterlimit="10"/>
<path d="M189.449 421.54V340.62L168.059 302.78V262.37" stroke="#A4A9B9" stroke-miterlimit="10"/>
<path d="M165.68 259.99C165.68 261.3 166.74 262.37 168.06 262.37C169.37 262.37 170.44 261.31 170.44 259.99C170.44 258.68 169.38 257.61 168.06 257.61C166.75 257.62 165.68 258.68 165.68 259.99Z" stroke="#A4A9B9" stroke-miterlimit="10"/>
<path d="M110.723 37.56V0" stroke="#A4A9B9" stroke-miterlimit="10"/>
<path d="M133.933 59.9301L132.063 64.0301H89.3834L87.5234 59.9301L105.693 47.3501H115.763L133.933 59.9301Z" fill="#A4A9B9"/>
<path d="M117.024 35.23L115.764 47.35H105.694L104.434 35.23H117.024Z" fill="#1F2732"/>
<path d="M133.932 59.9299L132.062 64.0299H89.3817L87.5117 59.9299H133.932Z" fill="#1F2732"/>
<path d="M203.582 37.56V0" stroke="#A4A9B9" stroke-miterlimit="10"/>
<path d="M226.781 59.9301L224.911 64.0301H182.231L180.371 59.9301L198.541 47.3501H208.611L226.781 59.9301Z" fill="#A4A9B9"/>
<path d="M209.871 35.23L208.611 47.35H198.541L197.281 35.23H209.871Z" fill="#ABC7C2"/>
<path d="M226.781 59.9299L224.911 64.0299H182.231L180.371 59.9299H226.781Z" fill="#ABC7C2"/>
<path d="M296.434 37.56V0" stroke="#A4A9B9" stroke-miterlimit="10"/>
<path d="M319.633 59.9301L317.773 64.0301H275.083L273.223 59.9301L291.393 47.3501H301.463L319.633 59.9301Z" fill="#A4A9B9"/>
<path d="M302.723 35.23L301.463 47.35H291.393L290.133 35.23H302.723Z" fill="#FFDEF8"/>
<path d="M319.633 59.9299L317.763 64.0299H275.083L273.223 59.9299H319.633Z" fill="#FFDEF8"/>
<path d="M389.281 37.56V0" stroke="#A4A9B9" stroke-miterlimit="10"/>
<path d="M412.49 59.9301L410.62 64.0301H367.93L366.07 59.9301L384.25 47.3501H394.31L412.49 59.9301Z" fill="#A4A9B9"/>
<path d="M395.57 35.23L394.31 47.35H384.25L382.98 35.23H395.57Z" fill="#B0C3F3"/>
<path d="M412.48 59.9299L410.62 64.0299H367.93L366.07 59.9299H412.48Z" fill="#B0C3F3"/>
<path d="M183.789 460.4C242.558 460.4 290.199 452.793 290.199 443.41C290.199 434.027 242.558 426.42 183.789 426.42C125.02 426.42 77.3789 434.027 77.3789 443.41C77.3789 452.793 125.02 460.4 183.789 460.4Z" fill="#FEFFF8"/>
<path d="M332.391 176.42H267.371V421.59H332.391V176.42Z" fill="#37474F"/>
<path d="M452.051 176.42H332.391V421.59H452.051V176.42Z" fill="#455A64"/>
<path d="M444.581 389.79H341.371V413.63H444.581V389.79Z" fill="#37474F"/>
<path d="M404.461 393.73H345.711V395.74H404.461V393.73Z" fill="#A4A9B9"/>
<path d="M404.461 397.22H345.711V399.23H404.461V397.22Z" fill="#A4A9B9"/>
<path d="M404.461 400.71H345.711V402.72H404.461V400.71Z" fill="#A4A9B9"/>
<path d="M404.461 404.19H345.711V406.2H404.461V404.19Z" fill="#A4A9B9"/>
<path d="M404.461 407.68H345.711V409.69H404.461V407.68Z" fill="#A4A9B9"/>
<path d="M415.172 395.73C415.172 396.83 414.282 397.73 413.172 397.73C412.062 397.73 411.172 396.84 411.172 395.73C411.172 394.63 412.062 393.73 413.172 393.73C414.282 393.73 415.172 394.62 415.172 395.73Z" fill="#D4FFD4"/>
<path d="M421.75 395.73C421.75 396.83 420.86 397.73 419.75 397.73C418.65 397.73 417.75 396.84 417.75 395.73C417.75 394.63 418.64 393.73 419.75 393.73C420.86 393.73 421.75 394.62 421.75 395.73Z" fill="#D4FFD4"/>
<path d="M428.332 395.73C428.332 396.83 427.442 397.73 426.332 397.73C425.222 397.73 424.332 396.84 424.332 395.73C424.332 394.63 425.222 393.73 426.332 393.73C427.442 393.73 428.332 394.62 428.332 395.73Z" fill="#D4FFD4"/>
<path d="M434.902 395.73C434.902 396.83 434.012 397.73 432.902 397.73C431.792 397.73 430.902 396.84 430.902 395.73C430.902 394.63 431.792 393.73 432.902 393.73C434.012 393.73 434.902 394.62 434.902 395.73Z" fill="#D4FFD4"/>
<path d="M441.48 395.73C441.48 396.83 440.59 397.73 439.48 397.73C438.38 397.73 437.48 396.84 437.48 395.73C437.48 394.63 438.37 393.73 439.48 393.73C440.59 393.73 441.48 394.62 441.48 395.73Z" fill="#D4FFD4"/>
<path d="M415.172 401.71C415.172 402.81 414.282 403.71 413.172 403.71C412.062 403.71 411.172 402.82 411.172 401.71C411.172 400.61 412.062 399.71 413.172 399.71C414.282 399.71 415.172 400.61 415.172 401.71Z" fill="#D4FFD4"/>
<path d="M421.75 401.71C421.75 402.81 420.86 403.71 419.75 403.71C418.65 403.71 417.75 402.82 417.75 401.71C417.75 400.61 418.64 399.71 419.75 399.71C420.86 399.72 421.75 400.61 421.75 401.71Z" fill="#D4FFD4"/>
<path d="M428.332 401.71C428.332 402.81 427.442 403.71 426.332 403.71C425.222 403.71 424.332 402.82 424.332 401.71C424.332 400.61 425.222 399.71 426.332 399.71C427.442 399.71 428.332 400.61 428.332 401.71Z" fill="#D4FFD4"/>
<path d="M434.902 401.71C434.902 402.81 434.012 403.71 432.902 403.71C431.792 403.71 430.902 402.82 430.902 401.71C430.902 400.61 431.792 399.71 432.902 399.71C434.012 399.71 434.902 400.61 434.902 401.71Z" fill="#D4FFD4"/>
<path d="M441.48 401.71C441.48 402.81 440.59 403.71 439.48 403.71C438.38 403.71 437.48 402.82 437.48 401.71C437.48 400.61 438.37 399.71 439.48 399.71C440.59 399.72 441.48 400.61 441.48 401.71Z" fill="#D4FFD4"/>
<path d="M413.184 409.7C414.288 409.7 415.184 408.805 415.184 407.7C415.184 406.595 414.288 405.7 413.184 405.7C412.079 405.7 411.184 406.595 411.184 407.7C411.184 408.805 412.079 409.7 413.184 409.7Z" fill="#D4FFD4"/>
<path d="M421.75 407.7C421.75 408.8 420.86 409.7 419.75 409.7C418.65 409.7 417.75 408.81 417.75 407.7C417.75 406.6 418.64 405.7 419.75 405.7C420.86 405.7 421.75 406.6 421.75 407.7Z" fill="#D4FFD4"/>
<path d="M426.332 409.7C427.437 409.7 428.332 408.805 428.332 407.7C428.332 406.595 427.437 405.7 426.332 405.7C425.227 405.7 424.332 406.595 424.332 407.7C424.332 408.805 425.227 409.7 426.332 409.7Z" fill="#D4FFD4"/>
<path d="M434.902 407.7C434.902 408.8 434.012 409.7 432.902 409.7C431.792 409.7 430.902 408.81 430.902 407.7C430.902 406.6 431.792 405.7 432.902 405.7C434.012 405.7 434.902 406.6 434.902 407.7Z" fill="#D4FFD4"/>
<path d="M441.48 407.7C441.48 408.8 440.59 409.7 439.48 409.7C438.38 409.7 437.48 408.81 437.48 407.7C437.48 406.6 438.37 405.7 439.48 405.7C440.59 405.7 441.48 406.6 441.48 407.7Z" fill="#D4FFD4"/>
<path d="M408.552 393.73H407.402V409.69H408.552V393.73Z" fill="#A4A9B9"/>
<path d="M444.581 361.07H341.371V384.91H444.581V361.07Z" fill="#37474F"/>
<path d="M404.461 365H345.711V367.01H404.461V365Z" fill="#A4A9B9"/>
<path d="M404.461 368.49H345.711V370.5H404.461V368.49Z" fill="#A4A9B9"/>
<path d="M404.461 371.98H345.711V373.99H404.461V371.98Z" fill="#A4A9B9"/>
<path d="M404.461 375.47H345.711V377.48H404.461V375.47Z" fill="#A4A9B9"/>
<path d="M404.461 378.95H345.711V380.96H404.461V378.95Z" fill="#A4A9B9"/>
<path d="M415.172 367C415.172 368.1 414.282 369 413.172 369C412.062 369 411.172 368.11 411.172 367C411.172 365.9 412.062 365 413.172 365C414.282 365 415.172 365.9 415.172 367Z" fill="#FF9A6C"/>
<path d="M421.75 367C421.75 368.1 420.86 369 419.75 369C418.65 369 417.75 368.11 417.75 367C417.75 365.9 418.64 365 419.75 365C420.86 365 421.75 365.9 421.75 367Z" fill="#FF9A6C"/>
<path d="M428.332 367C428.332 368.1 427.442 369 426.332 369C425.222 369 424.332 368.11 424.332 367C424.332 365.9 425.222 365 426.332 365C427.442 365 428.332 365.9 428.332 367Z" fill="#FF9A6C"/>
<path d="M434.902 367C434.902 368.1 434.012 369 432.902 369C431.792 369 430.902 368.11 430.902 367C430.902 365.9 431.792 365 432.902 365C434.012 365 434.902 365.9 434.902 367Z" fill="#FF9A6C"/>
<path d="M441.48 367C441.48 368.1 440.59 369 439.48 369C438.38 369 437.48 368.11 437.48 367C437.48 365.9 438.37 365 439.48 365C440.59 365 441.48 365.9 441.48 367Z" fill="#FF9A6C"/>
<path d="M415.172 372.98C415.172 374.08 414.282 374.98 413.172 374.98C412.062 374.98 411.172 374.09 411.172 372.98C411.172 371.88 412.062 370.98 413.172 370.98C414.282 370.98 415.172 371.88 415.172 372.98Z" fill="#FF9A6C"/>
<path d="M421.75 372.98C421.75 374.08 420.86 374.98 419.75 374.98C418.65 374.98 417.75 374.09 417.75 372.98C417.75 371.88 418.64 370.98 419.75 370.98C420.86 370.99 421.75 371.88 421.75 372.98Z" fill="#FF9A6C"/>
<path d="M428.332 372.98C428.332 374.08 427.442 374.98 426.332 374.98C425.222 374.98 424.332 374.09 424.332 372.98C424.332 371.88 425.222 370.98 426.332 370.98C427.442 370.98 428.332 371.88 428.332 372.98Z" fill="#FF9A6C"/>
<path d="M434.902 372.98C434.902 374.08 434.012 374.98 432.902 374.98C431.792 374.98 430.902 374.09 430.902 372.98C430.902 371.88 431.792 370.98 432.902 370.98C434.012 370.98 434.902 371.88 434.902 372.98Z" fill="#FF9A6C"/>
<path d="M441.48 372.98C441.48 374.08 440.59 374.98 439.48 374.98C438.38 374.98 437.48 374.09 437.48 372.98C437.48 371.88 438.37 370.98 439.48 370.98C440.59 370.99 441.48 371.88 441.48 372.98Z" fill="#FF9A6C"/>
<path d="M415.172 378.97C415.172 380.07 414.282 380.97 413.172 380.97C412.062 380.97 411.172 380.08 411.172 378.97C411.172 377.87 412.062 376.97 413.172 376.97C414.282 376.97 415.172 377.87 415.172 378.97Z" fill="#FF9A6C"/>
<path d="M421.75 378.97C421.75 380.07 420.86 380.97 419.75 380.97C418.65 380.97 417.75 380.08 417.75 378.97C417.75 377.87 418.64 376.97 419.75 376.97C420.86 376.97 421.75 377.87 421.75 378.97Z" fill="#FF9A6C"/>
<path d="M428.332 378.97C428.332 380.07 427.442 380.97 426.332 380.97C425.222 380.97 424.332 380.08 424.332 378.97C424.332 377.87 425.222 376.97 426.332 376.97C427.442 376.97 428.332 377.87 428.332 378.97Z" fill="#FF9A6C"/>
<path d="M434.902 378.97C434.902 380.07 434.012 380.97 432.902 380.97C431.792 380.97 430.902 380.08 430.902 378.97C430.902 377.87 431.792 376.97 432.902 376.97C434.012 376.97 434.902 377.87 434.902 378.97Z" fill="#FF9A6C"/>
<path d="M441.48 378.97C441.48 380.07 440.59 380.97 439.48 380.97C438.38 380.97 437.48 380.08 437.48 378.97C437.48 377.87 438.37 376.97 439.48 376.97C440.59 376.97 441.48 377.87 441.48 378.97Z" fill="#FF9A6C"/>
<path d="M408.552 365H407.402V380.96H408.552V365Z" fill="#A4A9B9"/>
<path d="M444.581 332.34H341.371V356.18H444.581V332.34Z" fill="#37474F"/>
<path d="M404.461 336.28H345.711V338.29H404.461V336.28Z" fill="#A4A9B9"/>
<path d="M404.461 339.76H345.711V341.77H404.461V339.76Z" fill="#A4A9B9"/>
<path d="M404.461 343.25H345.711V345.26H404.461V343.25Z" fill="#A4A9B9"/>
<path d="M404.461 346.74H345.711V348.75H404.461V346.74Z" fill="#A4A9B9"/>
<path d="M404.461 350.23H345.711V352.24H404.461V350.23Z" fill="#A4A9B9"/>
<path d="M413.184 340.27C414.288 340.27 415.184 339.375 415.184 338.27C415.184 337.165 414.288 336.27 413.184 336.27C412.079 336.27 411.184 337.165 411.184 338.27C411.184 339.375 412.079 340.27 413.184 340.27Z" fill="#97B3DE"/>
<path d="M421.75 338.27C421.75 339.37 420.86 340.27 419.75 340.27C418.65 340.27 417.75 339.38 417.75 338.27C417.75 337.17 418.64 336.27 419.75 336.27C420.86 336.28 421.75 337.17 421.75 338.27Z" fill="#97B3DE"/>
<path d="M426.332 340.27C427.437 340.27 428.332 339.375 428.332 338.27C428.332 337.165 427.437 336.27 426.332 336.27C425.227 336.27 424.332 337.165 424.332 338.27C424.332 339.375 425.227 340.27 426.332 340.27Z" fill="#97B3DE"/>
<path d="M434.902 338.27C434.902 339.37 434.012 340.27 432.902 340.27C431.792 340.27 430.902 339.38 430.902 338.27C430.902 337.17 431.792 336.27 432.902 336.27C434.012 336.27 434.902 337.17 434.902 338.27Z" fill="#97B3DE"/>
<path d="M441.48 338.27C441.48 339.37 440.59 340.27 439.48 340.27C438.38 340.27 437.48 339.38 437.48 338.27C437.48 337.17 438.37 336.27 439.48 336.27C440.59 336.28 441.48 337.17 441.48 338.27Z" fill="#97B3DE"/>
<path d="M415.172 344.26C415.172 345.36 414.282 346.26 413.172 346.26C412.062 346.26 411.172 345.37 411.172 344.26C411.172 343.16 412.062 342.26 413.172 342.26C414.282 342.26 415.172 343.15 415.172 344.26Z" fill="#97B3DE"/>
<path d="M421.75 344.26C421.75 345.36 420.86 346.26 419.75 346.26C418.65 346.26 417.75 345.37 417.75 344.26C417.75 343.16 418.64 342.26 419.75 342.26C420.86 342.26 421.75 343.15 421.75 344.26Z" fill="#97B3DE"/>
<path d="M428.332 344.26C428.332 345.36 427.442 346.26 426.332 346.26C425.222 346.26 424.332 345.37 424.332 344.26C424.332 343.16 425.222 342.26 426.332 342.26C427.442 342.26 428.332 343.15 428.332 344.26Z" fill="#97B3DE"/>
<path d="M434.902 344.26C434.902 345.36 434.012 346.26 432.902 346.26C431.792 346.26 430.902 345.37 430.902 344.26C430.902 343.16 431.792 342.26 432.902 342.26C434.012 342.26 434.902 343.15 434.902 344.26Z" fill="#97B3DE"/>
<path d="M441.48 344.26C441.48 345.36 440.59 346.26 439.48 346.26C438.38 346.26 437.48 345.37 437.48 344.26C437.48 343.16 438.37 342.26 439.48 342.26C440.59 342.26 441.48 343.15 441.48 344.26Z" fill="#97B3DE"/>
<path d="M415.172 350.24C415.172 351.34 414.282 352.24 413.172 352.24C412.062 352.24 411.172 351.35 411.172 350.24C411.172 349.14 412.062 348.24 413.172 348.24C414.282 348.24 415.172 349.14 415.172 350.24Z" fill="#97B3DE"/>
<path d="M421.75 350.24C421.75 351.34 420.86 352.24 419.75 352.24C418.65 352.24 417.75 351.35 417.75 350.24C417.75 349.14 418.64 348.24 419.75 348.24C420.86 348.25 421.75 349.14 421.75 350.24Z" fill="#97B3DE"/>
<path d="M428.332 350.24C428.332 351.34 427.442 352.24 426.332 352.24C425.222 352.24 424.332 351.35 424.332 350.24C424.332 349.14 425.222 348.24 426.332 348.24C427.442 348.24 428.332 349.14 428.332 350.24Z" fill="#97B3DE"/>
<path d="M434.902 350.24C434.902 351.34 434.012 352.24 432.902 352.24C431.792 352.24 430.902 351.35 430.902 350.24C430.902 349.14 431.792 348.24 432.902 348.24C434.012 348.24 434.902 349.14 434.902 350.24Z" fill="#97B3DE"/>
<path d="M441.48 350.24C441.48 351.34 440.59 352.24 439.48 352.24C438.38 352.24 437.48 351.35 437.48 350.24C437.48 349.14 438.37 348.24 439.48 348.24C440.59 348.25 441.48 349.14 441.48 350.24Z" fill="#97B3DE"/>
<path d="M408.552 336.28H407.402V352.24H408.552V336.28Z" fill="#A4A9B9"/>
<path d="M444.581 303.61H341.371V327.45H444.581V303.61Z" fill="#37474F"/>
<path d="M404.461 307.55H345.711V309.56H404.461V307.55Z" fill="#A4A9B9"/>
<path d="M404.461 311.04H345.711V313.05H404.461V311.04Z" fill="#A4A9B9"/>
<path d="M404.461 314.52H345.711V316.53H404.461V314.52Z" fill="#A4A9B9"/>
<path d="M404.461 318.01H345.711V320.02H404.461V318.01Z" fill="#A4A9B9"/>
<path d="M404.461 321.5H345.711V323.51H404.461V321.5Z" fill="#A4A9B9"/>
<path d="M415.172 309.54C415.172 310.64 414.282 311.54 413.172 311.54C412.062 311.54 411.172 310.65 411.172 309.54C411.172 308.44 412.062 307.54 413.172 307.54C414.282 307.54 415.172 308.44 415.172 309.54Z" fill="#FBBC05"/>
<path d="M421.75 309.54C421.75 310.64 420.86 311.54 419.75 311.54C418.65 311.54 417.75 310.65 417.75 309.54C417.75 308.44 418.64 307.54 419.75 307.54C420.86 307.55 421.75 308.44 421.75 309.54Z" fill="#FBBC05"/>
<path d="M428.332 309.54C428.332 310.64 427.442 311.54 426.332 311.54C425.222 311.54 424.332 310.65 424.332 309.54C424.332 308.44 425.222 307.54 426.332 307.54C427.442 307.54 428.332 308.44 428.332 309.54Z" fill="#FBBC05"/>
<path d="M434.902 309.54C434.902 310.64 434.012 311.54 432.902 311.54C431.792 311.54 430.902 310.65 430.902 309.54C430.902 308.44 431.792 307.54 432.902 307.54C434.012 307.54 434.902 308.44 434.902 309.54Z" fill="#FBBC05"/>
<path d="M441.48 309.54C441.48 310.64 440.59 311.54 439.48 311.54C438.38 311.54 437.48 310.65 437.48 309.54C437.48 308.44 438.37 307.54 439.48 307.54C440.59 307.55 441.48 308.44 441.48 309.54Z" fill="#FBBC05"/>
<path d="M413.184 317.53C414.288 317.53 415.184 316.635 415.184 315.53C415.184 314.425 414.288 313.53 413.184 313.53C412.079 313.53 411.184 314.425 411.184 315.53C411.184 316.635 412.079 317.53 413.184 317.53Z" fill="#FBBC05"/>
<path d="M421.75 315.53C421.75 316.63 420.86 317.53 419.75 317.53C418.65 317.53 417.75 316.64 417.75 315.53C417.75 314.42 418.64 313.53 419.75 313.53C420.86 313.53 421.75 314.43 421.75 315.53Z" fill="#FBBC05"/>
<path d="M426.332 317.53C427.437 317.53 428.332 316.635 428.332 315.53C428.332 314.425 427.437 313.53 426.332 313.53C425.227 313.53 424.332 314.425 424.332 315.53C424.332 316.635 425.227 317.53 426.332 317.53Z" fill="#FBBC05"/>
<path d="M434.902 315.53C434.902 316.63 434.012 317.53 432.902 317.53C431.792 317.53 430.902 316.64 430.902 315.53C430.902 314.42 431.792 313.53 432.902 313.53C434.012 313.53 434.902 314.43 434.902 315.53Z" fill="#FBBC05"/>
<path d="M441.48 315.53C441.48 316.63 440.59 317.53 439.48 317.53C438.38 317.53 437.48 316.64 437.48 315.53C437.48 314.42 438.37 313.53 439.48 313.53C440.59 313.53 441.48 314.43 441.48 315.53Z" fill="#FBBC05"/>
<path d="M413.184 323.51C414.288 323.51 415.184 322.615 415.184 321.51C415.184 320.405 414.288 319.51 413.184 319.51C412.079 319.51 411.184 320.405 411.184 321.51C411.184 322.615 412.079 323.51 413.184 323.51Z" fill="#FBBC05"/>
<path d="M421.75 321.51C421.75 322.61 420.86 323.51 419.75 323.51C418.65 323.51 417.75 322.62 417.75 321.51C417.75 320.4 418.64 319.51 419.75 319.51C420.86 319.52 421.75 320.41 421.75 321.51Z" fill="#FBBC05"/>
<path d="M426.332 323.51C427.437 323.51 428.332 322.615 428.332 321.51C428.332 320.405 427.437 319.51 426.332 319.51C425.227 319.51 424.332 320.405 424.332 321.51C424.332 322.615 425.227 323.51 426.332 323.51Z" fill="#FBBC05"/>
<path d="M434.902 321.51C434.902 322.61 434.012 323.51 432.902 323.51C431.792 323.51 430.902 322.62 430.902 321.51C430.902 320.4 431.792 319.51 432.902 319.51C434.012 319.51 434.902 320.41 434.902 321.51Z" fill="#FBBC05"/>
<path d="M441.48 321.51C441.48 322.61 440.59 323.51 439.48 323.51C438.38 323.51 437.48 322.62 437.48 321.51C437.48 320.4 438.37 319.51 439.48 319.51C440.59 319.52 441.48 320.41 441.48 321.51Z" fill="#FBBC05"/>
<path d="M408.552 307.55H407.402V323.51H408.552V307.55Z" fill="#A4A9B9"/>
<path d="M444.581 274.88H341.371V298.72H444.581V274.88Z" fill="#37474F"/>
<path d="M404.461 278.82H345.711V280.83H404.461V278.82Z" fill="#A4A9B9"/>
<path d="M404.461 282.31H345.711V284.32H404.461V282.31Z" fill="#A4A9B9"/>
<path d="M404.461 285.79H345.711V287.8H404.461V285.79Z" fill="#A4A9B9"/>
<path d="M404.461 289.28H345.711V291.29H404.461V289.28Z" fill="#A4A9B9"/>
<path d="M404.461 292.77H345.711V294.78H404.461V292.77Z" fill="#A4A9B9"/>
<path d="M413.184 282.82C414.288 282.82 415.184 281.925 415.184 280.82C415.184 279.715 414.288 278.82 413.184 278.82C412.079 278.82 411.184 279.715 411.184 280.82C411.184 281.925 412.079 282.82 413.184 282.82Z" fill="#D4FFD4"/>
<path d="M421.75 280.82C421.75 281.92 420.86 282.82 419.75 282.82C418.65 282.82 417.75 281.93 417.75 280.82C417.75 279.71 418.64 278.82 419.75 278.82C420.86 278.82 421.75 279.71 421.75 280.82Z" fill="#D4FFD4"/>
<path d="M426.332 282.82C427.437 282.82 428.332 281.925 428.332 280.82C428.332 279.715 427.437 278.82 426.332 278.82C425.227 278.82 424.332 279.715 424.332 280.82C424.332 281.925 425.227 282.82 426.332 282.82Z" fill="#D4FFD4"/>
<path d="M434.902 280.82C434.902 281.92 434.012 282.82 432.902 282.82C431.792 282.82 430.902 281.93 430.902 280.82C430.902 279.71 431.792 278.82 432.902 278.82C434.012 278.82 434.902 279.71 434.902 280.82Z" fill="#D4FFD4"/>
<path d="M441.48 280.82C441.48 281.92 440.59 282.82 439.48 282.82C438.38 282.82 437.48 281.93 437.48 280.82C437.48 279.71 438.37 278.82 439.48 278.82C440.59 278.82 441.48 279.71 441.48 280.82Z" fill="#D4FFD4"/>
<path d="M413.184 288.8C414.288 288.8 415.184 287.905 415.184 286.8C415.184 285.695 414.288 284.8 413.184 284.8C412.079 284.8 411.184 285.695 411.184 286.8C411.184 287.905 412.079 288.8 413.184 288.8Z" fill="#D4FFD4"/>
<path d="M421.75 286.8C421.75 287.9 420.86 288.8 419.75 288.8C418.65 288.8 417.75 287.91 417.75 286.8C417.75 285.69 418.64 284.8 419.75 284.8C420.86 284.81 421.75 285.7 421.75 286.8Z" fill="#D4FFD4"/>
<path d="M426.332 288.8C427.437 288.8 428.332 287.905 428.332 286.8C428.332 285.695 427.437 284.8 426.332 284.8C425.227 284.8 424.332 285.695 424.332 286.8C424.332 287.905 425.227 288.8 426.332 288.8Z" fill="#D4FFD4"/>
<path d="M434.902 286.8C434.902 287.9 434.012 288.8 432.902 288.8C431.792 288.8 430.902 287.91 430.902 286.8C430.902 285.69 431.792 284.8 432.902 284.8C434.012 284.8 434.902 285.7 434.902 286.8Z" fill="#D4FFD4"/>
<path d="M441.48 286.8C441.48 287.9 440.59 288.8 439.48 288.8C438.38 288.8 437.48 287.91 437.48 286.8C437.48 285.69 438.37 284.8 439.48 284.8C440.59 284.81 441.48 285.7 441.48 286.8Z" fill="#D4FFD4"/>
<path d="M415.172 292.79C415.172 293.89 414.282 294.79 413.172 294.79C412.062 294.79 411.172 293.9 411.172 292.79C411.172 291.69 412.062 290.79 413.172 290.79C414.282 290.79 415.172 291.68 415.172 292.79Z" fill="#D4FFD4"/>
<path d="M421.75 292.79C421.75 293.89 420.86 294.79 419.75 294.79C418.65 294.79 417.75 293.9 417.75 292.79C417.75 291.69 418.64 290.79 419.75 290.79C420.86 290.79 421.75 291.68 421.75 292.79Z" fill="#D4FFD4"/>
<path d="M428.332 292.79C428.332 293.89 427.442 294.79 426.332 294.79C425.222 294.79 424.332 293.9 424.332 292.79C424.332 291.69 425.222 290.79 426.332 290.79C427.442 290.79 428.332 291.68 428.332 292.79Z" fill="#D4FFD4"/>
<path d="M434.902 292.79C434.902 293.89 434.012 294.79 432.902 294.79C431.792 294.79 430.902 293.9 430.902 292.79C430.902 291.69 431.792 290.79 432.902 290.79C434.012 290.79 434.902 291.68 434.902 292.79Z" fill="#D4FFD4"/>
<path d="M441.48 292.79C441.48 293.89 440.59 294.79 439.48 294.79C438.38 294.79 437.48 293.9 437.48 292.79C437.48 291.69 438.37 290.79 439.48 290.79C440.59 290.79 441.48 291.68 441.48 292.79Z" fill="#D4FFD4"/>
<path d="M408.552 278.82H407.402V294.78H408.552V278.82Z" fill="#A4A9B9"/>
<path d="M444.581 246.15H341.371V269.99H444.581V246.15Z" fill="#37474F"/>
<path d="M404.461 250.09H345.711V252.1H404.461V250.09Z" fill="#A4A9B9"/>
<path d="M404.461 253.58H345.711V255.59H404.461V253.58Z" fill="#A4A9B9"/>
<path d="M404.461 257.07H345.711V259.08H404.461V257.07Z" fill="#A4A9B9"/>
<path d="M404.461 260.55H345.711V262.56H404.461V260.55Z" fill="#A4A9B9"/>
<path d="M404.461 264.04H345.711V266.05H404.461V264.04Z" fill="#A4A9B9"/>
<path d="M415.172 252.09C415.172 253.19 414.282 254.09 413.172 254.09C412.062 254.09 411.172 253.2 411.172 252.09C411.172 250.99 412.062 250.09 413.172 250.09C414.282 250.09 415.172 250.99 415.172 252.09Z" fill="#FF9A6C"/>
<path d="M421.75 252.09C421.75 253.19 420.86 254.09 419.75 254.09C418.65 254.09 417.75 253.2 417.75 252.09C417.75 250.99 418.64 250.09 419.75 250.09C420.86 250.09 421.75 250.99 421.75 252.09Z" fill="#FF9A6C"/>
<path d="M428.332 252.09C428.332 253.19 427.442 254.09 426.332 254.09C425.222 254.09 424.332 253.2 424.332 252.09C424.332 250.99 425.222 250.09 426.332 250.09C427.442 250.09 428.332 250.99 428.332 252.09Z" fill="#FF9A6C"/>
<path d="M434.902 252.09C434.902 253.19 434.012 254.09 432.902 254.09C431.792 254.09 430.902 253.2 430.902 252.09C430.902 250.99 431.792 250.09 432.902 250.09C434.012 250.09 434.902 250.99 434.902 252.09Z" fill="#FF9A6C"/>
<path d="M441.48 252.09C441.48 253.19 440.59 254.09 439.48 254.09C438.38 254.09 437.48 253.2 437.48 252.09C437.48 250.99 438.37 250.09 439.48 250.09C440.59 250.09 441.48 250.99 441.48 252.09Z" fill="#FF9A6C"/>
<path d="M415.172 258.07C415.172 259.17 414.282 260.07 413.172 260.07C412.062 260.07 411.172 259.18 411.172 258.07C411.172 256.97 412.062 256.07 413.172 256.07C414.282 256.07 415.172 256.97 415.172 258.07Z" fill="#FF9A6C"/>
<path d="M421.75 258.07C421.75 259.17 420.86 260.07 419.75 260.07C418.65 260.07 417.75 259.18 417.75 258.07C417.75 256.97 418.64 256.07 419.75 256.07C420.86 256.08 421.75 256.97 421.75 258.07Z" fill="#FF9A6C"/>
<path d="M428.332 258.07C428.332 259.17 427.442 260.07 426.332 260.07C425.222 260.07 424.332 259.18 424.332 258.07C424.332 256.97 425.222 256.07 426.332 256.07C427.442 256.07 428.332 256.97 428.332 258.07Z" fill="#FF9A6C"/>
<path d="M434.902 258.07C434.902 259.17 434.012 260.07 432.902 260.07C431.792 260.07 430.902 259.18 430.902 258.07C430.902 256.97 431.792 256.07 432.902 256.07C434.012 256.07 434.902 256.97 434.902 258.07Z" fill="#FF9A6C"/>
<path d="M441.48 258.07C441.48 259.17 440.59 260.07 439.48 260.07C438.38 260.07 437.48 259.18 437.48 258.07C437.48 256.97 438.37 256.07 439.48 256.07C440.59 256.08 441.48 256.97 441.48 258.07Z" fill="#FF9A6C"/>
<path d="M415.172 264.06C415.172 265.16 414.282 266.06 413.172 266.06C412.062 266.06 411.172 265.17 411.172 264.06C411.172 262.96 412.062 262.06 413.172 262.06C414.282 262.06 415.172 262.96 415.172 264.06Z" fill="#FF9A6C"/>
<path d="M421.75 264.06C421.75 265.16 420.86 266.06 419.75 266.06C418.65 266.06 417.75 265.17 417.75 264.06C417.75 262.96 418.64 262.06 419.75 262.06C420.86 262.06 421.75 262.96 421.75 264.06Z" fill="#FF9A6C"/>
<path d="M428.332 264.06C428.332 265.16 427.442 266.06 426.332 266.06C425.222 266.06 424.332 265.17 424.332 264.06C424.332 262.96 425.222 262.06 426.332 262.06C427.442 262.06 428.332 262.96 428.332 264.06Z" fill="#FF9A6C"/>
<path d="M434.902 264.06C434.902 265.16 434.012 266.06 432.902 266.06C431.792 266.06 430.902 265.17 430.902 264.06C430.902 262.96 431.792 262.06 432.902 262.06C434.012 262.06 434.902 262.96 434.902 264.06Z" fill="#FF9A6C"/>
<path d="M441.48 264.06C441.48 265.16 440.59 266.06 439.48 266.06C438.38 266.06 437.48 265.17 437.48 264.06C437.48 262.96 438.37 262.06 439.48 262.06C440.59 262.06 441.48 262.96 441.48 264.06Z" fill="#FF9A6C"/>
<path d="M408.552 250.09H407.402V266.05H408.552V250.09Z" fill="#A4A9B9"/>
<path d="M444.581 217.43H341.371V241.27H444.581V217.43Z" fill="#37474F"/>
<path d="M404.461 221.36H345.711V223.37H404.461V221.36Z" fill="#A4A9B9"/>
<path d="M404.461 224.85H345.711V226.86H404.461V224.85Z" fill="#A4A9B9"/>
<path d="M404.461 228.34H345.711V230.35H404.461V228.34Z" fill="#A4A9B9"/>
<path d="M404.461 231.83H345.711V233.84H404.461V231.83Z" fill="#A4A9B9"/>
<path d="M404.461 235.31H345.711V237.32H404.461V235.31Z" fill="#A4A9B9"/>
<path d="M415.172 223.36C415.172 224.46 414.282 225.36 413.172 225.36C412.062 225.36 411.172 224.47 411.172 223.36C411.172 222.26 412.062 221.36 413.172 221.36C414.282 221.36 415.172 222.26 415.172 223.36Z" fill="#97B3DE"/>
<path d="M421.75 223.36C421.75 224.46 420.86 225.36 419.75 225.36C418.65 225.36 417.75 224.47 417.75 223.36C417.75 222.26 418.64 221.36 419.75 221.36C420.86 221.36 421.75 222.26 421.75 223.36Z" fill="#97B3DE"/>
<path d="M428.332 223.36C428.332 224.46 427.442 225.36 426.332 225.36C425.222 225.36 424.332 224.47 424.332 223.36C424.332 222.26 425.222 221.36 426.332 221.36C427.442 221.36 428.332 222.26 428.332 223.36Z" fill="#97B3DE"/>
<path d="M434.902 223.36C434.902 224.46 434.012 225.36 432.902 225.36C431.792 225.36 430.902 224.47 430.902 223.36C430.902 222.26 431.792 221.36 432.902 221.36C434.012 221.36 434.902 222.26 434.902 223.36Z" fill="#97B3DE"/>
<path d="M441.48 223.36C441.48 224.46 440.59 225.36 439.48 225.36C438.38 225.36 437.48 224.47 437.48 223.36C437.48 222.26 438.37 221.36 439.48 221.36C440.59 221.36 441.48 222.26 441.48 223.36Z" fill="#97B3DE"/>
<path d="M415.172 229.35C415.172 230.45 414.282 231.35 413.172 231.35C412.062 231.35 411.172 230.46 411.172 229.35C411.172 228.25 412.062 227.35 413.172 227.35C414.282 227.35 415.172 228.24 415.172 229.35Z" fill="#97B3DE"/>
<path d="M421.75 229.35C421.75 230.45 420.86 231.35 419.75 231.35C418.65 231.35 417.75 230.46 417.75 229.35C417.75 228.25 418.64 227.35 419.75 227.35C420.86 227.35 421.75 228.24 421.75 229.35Z" fill="#97B3DE"/>
<path d="M428.332 229.35C428.332 230.45 427.442 231.35 426.332 231.35C425.222 231.35 424.332 230.46 424.332 229.35C424.332 228.25 425.222 227.35 426.332 227.35C427.442 227.35 428.332 228.24 428.332 229.35Z" fill="#97B3DE"/>
<path d="M434.902 229.35C434.902 230.45 434.012 231.35 432.902 231.35C431.792 231.35 430.902 230.46 430.902 229.35C430.902 228.25 431.792 227.35 432.902 227.35C434.012 227.35 434.902 228.24 434.902 229.35Z" fill="#97B3DE"/>
<path d="M441.48 229.35C441.48 230.45 440.59 231.35 439.48 231.35C438.38 231.35 437.48 230.46 437.48 229.35C437.48 228.25 438.37 227.35 439.48 227.35C440.59 227.35 441.48 228.24 441.48 229.35Z" fill="#97B3DE"/>
<path d="M415.172 235.33C415.172 236.43 414.282 237.33 413.172 237.33C412.062 237.33 411.172 236.44 411.172 235.33C411.172 234.23 412.062 233.33 413.172 233.33C414.282 233.33 415.172 234.23 415.172 235.33Z" fill="#97B3DE"/>
<path d="M421.75 235.33C421.75 236.43 420.86 237.33 419.75 237.33C418.65 237.33 417.75 236.44 417.75 235.33C417.75 234.23 418.64 233.33 419.75 233.33C420.86 233.34 421.75 234.23 421.75 235.33Z" fill="#97B3DE"/>
<path d="M428.332 235.33C428.332 236.43 427.442 237.33 426.332 237.33C425.222 237.33 424.332 236.44 424.332 235.33C424.332 234.23 425.222 233.33 426.332 233.33C427.442 233.33 428.332 234.23 428.332 235.33Z" fill="#97B3DE"/>
<path d="M434.902 235.33C434.902 236.43 434.012 237.33 432.902 237.33C431.792 237.33 430.902 236.44 430.902 235.33C430.902 234.23 431.792 233.33 432.902 233.33C434.012 233.33 434.902 234.23 434.902 235.33Z" fill="#97B3DE"/>
<path d="M441.48 235.33C441.48 236.43 440.59 237.33 439.48 237.33C438.38 237.33 437.48 236.44 437.48 235.33C437.48 234.23 438.37 233.33 439.48 233.33C440.59 233.34 441.48 234.23 441.48 235.33Z" fill="#97B3DE"/>
<path d="M408.552 221.36H407.402V237.32H408.552V221.36Z" fill="#A4A9B9"/>
<path d="M444.581 188.7H341.371V212.54H444.581V188.7Z" fill="#37474F"/>
<path d="M404.461 192.64H345.711V194.65H404.461V192.64Z" fill="#A4A9B9"/>
<path d="M404.461 196.12H345.711V198.13H404.461V196.12Z" fill="#A4A9B9"/>
<path d="M404.461 199.61H345.711V201.62H404.461V199.61Z" fill="#A4A9B9"/>
<path d="M404.461 203.1H345.711V205.11H404.461V203.1Z" fill="#A4A9B9"/>
<path d="M404.461 206.59H345.711V208.6H404.461V206.59Z" fill="#A4A9B9"/>
<path d="M415.172 194.63C415.172 195.73 414.282 196.63 413.172 196.63C412.062 196.63 411.172 195.74 411.172 194.63C411.172 193.53 412.062 192.63 413.172 192.63C414.282 192.63 415.172 193.53 415.172 194.63Z" fill="#FBBC05"/>
<path d="M421.75 194.63C421.75 195.73 420.86 196.63 419.75 196.63C418.65 196.63 417.75 195.74 417.75 194.63C417.75 193.53 418.64 192.63 419.75 192.63C420.86 192.64 421.75 193.53 421.75 194.63Z" fill="#FBBC05"/>
<path d="M428.332 194.63C428.332 195.73 427.442 196.63 426.332 196.63C425.222 196.63 424.332 195.74 424.332 194.63C424.332 193.53 425.222 192.63 426.332 192.63C427.442 192.63 428.332 193.53 428.332 194.63Z" fill="#FBBC05"/>
<path d="M434.902 194.63C434.902 195.73 434.012 196.63 432.902 196.63C431.792 196.63 430.902 195.74 430.902 194.63C430.902 193.53 431.792 192.63 432.902 192.63C434.012 192.63 434.902 193.53 434.902 194.63Z" fill="#FBBC05"/>
<path d="M441.48 194.63C441.48 195.73 440.59 196.63 439.48 196.63C438.38 196.63 437.48 195.74 437.48 194.63C437.48 193.53 438.37 192.63 439.48 192.63C440.59 192.64 441.48 193.53 441.48 194.63Z" fill="#FBBC05"/>
<path d="M413.184 202.62C414.288 202.62 415.184 201.725 415.184 200.62C415.184 199.516 414.288 198.62 413.184 198.62C412.079 198.62 411.184 199.516 411.184 200.62C411.184 201.725 412.079 202.62 413.184 202.62Z" fill="#FBBC05"/>
<path d="M421.75 200.62C421.75 201.72 420.86 202.62 419.75 202.62C418.65 202.62 417.75 201.73 417.75 200.62C417.75 199.52 418.64 198.62 419.75 198.62C420.86 198.62 421.75 199.52 421.75 200.62Z" fill="#FBBC05"/>
<path d="M426.332 202.62C427.437 202.62 428.332 201.725 428.332 200.62C428.332 199.516 427.437 198.62 426.332 198.62C425.227 198.62 424.332 199.516 424.332 200.62C424.332 201.725 425.227 202.62 426.332 202.62Z" fill="#FBBC05"/>
<path d="M434.902 200.62C434.902 201.72 434.012 202.62 432.902 202.62C431.792 202.62 430.902 201.73 430.902 200.62C430.902 199.52 431.792 198.62 432.902 198.62C434.012 198.62 434.902 199.52 434.902 200.62Z" fill="#FBBC05"/>
<path d="M441.48 200.62C441.48 201.72 440.59 202.62 439.48 202.62C438.38 202.62 437.48 201.73 437.48 200.62C437.48 199.52 438.37 198.62 439.48 198.62C440.59 198.62 441.48 199.52 441.48 200.62Z" fill="#FBBC05"/>
<path d="M415.172 206.6C415.172 207.7 414.282 208.6 413.172 208.6C412.062 208.6 411.172 207.71 411.172 206.6C411.172 205.5 412.062 204.6 413.172 204.6C414.282 204.6 415.172 205.5 415.172 206.6Z" fill="#FBBC05"/>
<path d="M421.75 206.6C421.75 207.7 420.86 208.6 419.75 208.6C418.65 208.6 417.75 207.71 417.75 206.6C417.75 205.5 418.64 204.6 419.75 204.6C420.86 204.61 421.75 205.5 421.75 206.6Z" fill="#FBBC05"/>
<path d="M428.332 206.6C428.332 207.7 427.442 208.6 426.332 208.6C425.222 208.6 424.332 207.71 424.332 206.6C424.332 205.5 425.222 204.6 426.332 204.6C427.442 204.6 428.332 205.5 428.332 206.6Z" fill="#FBBC05"/>
<path d="M434.902 206.6C434.902 207.7 434.012 208.6 432.902 208.6C431.792 208.6 430.902 207.71 430.902 206.6C430.902 205.5 431.792 204.6 432.902 204.6C434.012 204.6 434.902 205.5 434.902 206.6Z" fill="#FBBC05"/>
<path d="M441.48 206.6C441.48 207.7 440.59 208.6 439.48 208.6C438.38 208.6 437.48 207.71 437.48 206.6C437.48 205.5 438.37 204.6 439.48 204.6C440.59 204.61 441.48 205.5 441.48 206.6Z" fill="#FBBC05"/>
<path d="M408.552 192.64H407.402V208.6H408.552V192.64Z" fill="#A4A9B9"/>
<path d="M427.741 168.86H291.691V176.42H427.741V168.86Z" fill="#6E7C84"/>
<path d="M293.049 384.07H277.859V399.26H293.049V384.07Z" fill="#A4A9B9"/>
<path d="M63 226.7V212.31H65.27V226.7H63Z" fill="#1F2732"/>
<path d="M70.7895 216.57V226.7H68.5195V212.31H70.2995L78.5295 222.69V212.33H80.8195V226.7H78.9395L70.7895 216.57Z" fill="#1F2732"/>
<path d="M94.62 214.32H89.84V226.7H87.55V214.32H82.75V212.31H94.63V214.32H94.62Z" fill="#1F2732"/>
<path d="M106.421 224.7V226.71H96.5508V212.32H106.241V214.33H98.8208V218.42H105.251V220.31H98.8208V224.71H106.421V224.7Z" fill="#1F2732"/>
<path d="M108.77 226.7V212.31H115.03C115.68 212.31 116.28 212.45 116.82 212.72C117.37 212.99 117.84 213.35 118.23 213.78C118.62 214.22 118.93 214.72 119.15 215.28C119.37 215.84 119.48 216.41 119.48 216.99C119.48 217.48 119.41 217.94 119.28 218.39C119.14 218.84 118.96 219.25 118.71 219.63C118.47 220.01 118.17 220.34 117.82 220.61C117.47 220.89 117.08 221.09 116.66 221.23L120.05 226.7H117.48L114.36 221.69H111.04V226.7H108.77V226.7ZM111.04 219.69H115.01C115.33 219.69 115.63 219.62 115.89 219.48C116.15 219.34 116.38 219.14 116.57 218.89C116.76 218.64 116.91 218.35 117.02 218.03C117.13 217.71 117.18 217.36 117.18 217C117.18 216.63 117.12 216.29 116.99 215.97C116.86 215.65 116.69 215.36 116.48 215.12C116.27 214.88 116.03 214.68 115.75 214.54C115.47 214.4 115.19 214.33 114.89 214.33H111.04V219.69Z" fill="#1F2732"/>
<path d="M124.442 216.57V226.7H122.172V212.31H123.952L132.182 222.69V212.33H134.472V226.7H132.592L124.442 216.57Z" fill="#1F2732"/>
<path d="M141.95 212.31H143.94L149.62 226.7H147.23L145.71 222.79H140.16L138.66 226.7H136.25L141.95 212.31ZM145.26 221.11L142.95 214.93L140.56 221.11H145.26Z" fill="#1F2732"/>
<path d="M151.398 226.7V212.31H153.668V224.69H161.388V226.7H151.398Z" fill="#1F2732"/>
<path d="M176.208 215.7C176.068 215.55 175.878 215.39 175.618 215.22C175.358 215.05 175.058 214.89 174.718 214.74C174.378 214.59 173.998 214.47 173.578 214.38C173.168 214.29 172.748 214.24 172.308 214.24C171.348 214.24 170.638 214.42 170.188 214.77C169.738 215.12 169.508 215.61 169.508 216.23C169.508 216.58 169.578 216.87 169.718 217.09C169.858 217.31 170.078 217.51 170.378 217.68C170.678 217.85 171.048 218 171.498 218.13C171.948 218.26 172.468 218.4 173.058 218.55C173.788 218.73 174.448 218.92 175.038 219.14C175.628 219.36 176.118 219.62 176.528 219.93C176.938 220.24 177.248 220.62 177.468 221.08C177.688 221.53 177.798 222.08 177.798 222.73C177.798 223.46 177.658 224.09 177.378 224.61C177.098 225.14 176.718 225.57 176.238 225.9C175.758 226.23 175.198 226.47 174.568 226.63C173.928 226.79 173.248 226.86 172.518 226.86C171.428 226.86 170.368 226.69 169.348 226.36C168.328 226.03 167.408 225.55 166.578 224.91L167.608 222.96C167.788 223.14 168.038 223.33 168.368 223.55C168.698 223.77 169.088 223.97 169.528 224.15C169.968 224.33 170.448 224.49 170.958 224.62C171.468 224.75 172.008 224.81 172.558 224.81C173.448 224.81 174.138 224.65 174.628 224.34C175.118 224.03 175.358 223.57 175.358 222.96C175.358 222.59 175.268 222.29 175.088 222.05C174.908 221.81 174.648 221.59 174.308 221.41C173.968 221.23 173.558 221.06 173.068 220.91C172.578 220.76 172.028 220.61 171.408 220.44C170.688 220.25 170.068 220.05 169.528 219.84C168.998 219.63 168.548 219.38 168.198 219.08C167.848 218.78 167.578 218.43 167.398 218.04C167.218 217.64 167.128 217.16 167.128 216.59C167.128 215.89 167.258 215.26 167.538 214.71C167.808 214.16 168.178 213.7 168.638 213.33C169.108 212.96 169.658 212.68 170.288 212.49C170.928 212.3 171.608 212.21 172.358 212.21C173.328 212.21 174.228 212.37 175.058 212.68C175.878 212.99 176.608 213.38 177.228 213.84L176.208 215.7Z" fill="#1F2732"/>
<path d="M189.948 224.7V226.71H180.078V212.32H189.768V214.33H182.348V218.42H188.778V220.31H182.348V224.71H189.948V224.7Z" fill="#1F2732"/>
<path d="M192.301 226.7V212.31H198.561C199.211 212.31 199.811 212.45 200.351 212.72C200.901 212.99 201.371 213.35 201.761 213.78C202.151 214.22 202.461 214.72 202.681 215.28C202.901 215.84 203.011 216.41 203.011 216.99C203.011 217.48 202.941 217.94 202.811 218.39C202.671 218.84 202.491 219.25 202.241 219.63C202.001 220.01 201.701 220.34 201.351 220.61C201.001 220.89 200.611 221.09 200.191 221.23L203.581 226.7H201.011L197.891 221.69H194.571V226.7H192.301V226.7ZM194.571 219.69H198.541C198.861 219.69 199.161 219.62 199.421 219.48C199.681 219.34 199.911 219.14 200.101 218.89C200.291 218.64 200.441 218.35 200.551 218.03C200.661 217.71 200.711 217.36 200.711 217C200.711 216.63 200.651 216.29 200.521 215.97C200.391 215.65 200.221 215.36 200.011 215.12C199.801 214.88 199.561 214.68 199.281 214.54C199.001 214.4 198.721 214.33 198.421 214.33H194.571V219.69Z" fill="#1F2732"/>
<path d="M206.272 212.31L210.612 223.84L214.932 212.31H217.342L211.582 226.7H209.632L203.852 212.31H206.272Z" fill="#1F2732"/>
<path d="M228.972 224.7V226.71H219.102V212.32H228.792V214.33H221.372V218.42H227.802V220.31H221.372V224.71H228.972V224.7Z" fill="#1F2732"/>
<path d="M231.32 226.7V212.31H237.58C238.23 212.31 238.83 212.45 239.37 212.72C239.92 212.99 240.39 213.35 240.78 213.78C241.17 214.22 241.48 214.72 241.7 215.28C241.92 215.84 242.03 216.41 242.03 216.99C242.03 217.48 241.96 217.94 241.83 218.39C241.69 218.84 241.51 219.25 241.26 219.63C241.02 220.01 240.72 220.34 240.37 220.61C240.02 220.89 239.63 221.09 239.22 221.23L242.6 226.7H240.03L236.91 221.69H233.59V226.7H231.32V226.7ZM233.59 219.69H237.56C237.88 219.69 238.18 219.62 238.44 219.48C238.7 219.34 238.93 219.14 239.12 218.89C239.31 218.64 239.46 218.35 239.57 218.03C239.68 217.71 239.73 217.36 239.73 217C239.73 216.63 239.67 216.29 239.54 215.97C239.41 215.65 239.24 215.36 239.03 215.12C238.82 214.88 238.58 214.68 238.3 214.54C238.02 214.4 237.74 214.33 237.44 214.33H233.59V219.69Z" fill="#1F2732"/>
<path d="M132.079 245.89V248.81H121.969V234.42H131.899V237.34H125.289V240.14H130.969V242.84H125.289V245.9H132.079V245.89Z" fill="#1F2732"/>
<path d="M134.109 248.81V234.42H140.599C141.279 234.42 141.899 234.56 142.479 234.85C143.049 235.13 143.549 235.51 143.969 235.97C144.389 236.43 144.719 236.95 144.949 237.53C145.189 238.11 145.299 238.7 145.299 239.29C145.299 239.74 145.249 240.17 145.139 240.58C145.029 240.99 144.879 241.38 144.669 241.75C144.469 242.11 144.219 242.44 143.929 242.73C143.639 243.02 143.309 243.27 142.949 243.47L146.109 248.82H142.359L139.599 244.18H137.429V248.82H134.109V248.81ZM137.429 241.27H140.469C140.859 241.27 141.199 241.08 141.479 240.71C141.759 240.34 141.909 239.86 141.909 239.28C141.909 238.69 141.749 238.21 141.419 237.86C141.099 237.51 140.739 237.33 140.369 237.33H137.429V241.27V241.27Z" fill="#1F2732"/>
<path d="M147.688 248.81V234.42H154.177C154.857 234.42 155.477 234.56 156.057 234.85C156.627 235.13 157.128 235.51 157.548 235.97C157.968 236.43 158.297 236.95 158.527 237.53C158.767 238.11 158.878 238.7 158.878 239.29C158.878 239.74 158.827 240.17 158.717 240.58C158.607 240.99 158.457 241.38 158.247 241.75C158.047 242.11 157.797 242.44 157.507 242.73C157.217 243.02 156.887 243.27 156.527 243.47L159.688 248.82H155.938L153.177 244.18H151.007V248.82H147.688V248.81ZM151.007 241.27H154.048C154.438 241.27 154.777 241.08 155.057 240.71C155.337 240.34 155.488 239.86 155.488 239.28C155.488 238.69 155.327 238.21 154.997 237.86C154.677 237.51 154.317 237.33 153.947 237.33H151.007V241.27V241.27Z" fill="#1F2732"/>
<path d="M167.57 248.93C166.5 248.93 165.53 248.72 164.65 248.3C163.77 247.88 163.02 247.33 162.4 246.65C161.78 245.97 161.3 245.19 160.95 244.31C160.61 243.43 160.43 242.53 160.43 241.59C160.43 240.64 160.61 239.73 160.97 238.85C161.33 237.97 161.83 237.2 162.47 236.53C163.11 235.86 163.87 235.33 164.75 234.93C165.63 234.53 166.59 234.33 167.63 234.33C168.7 234.33 169.67 234.54 170.55 234.96C171.43 235.38 172.18 235.93 172.8 236.62C173.42 237.31 173.9 238.09 174.24 238.97C174.58 239.85 174.75 240.74 174.75 241.65C174.75 242.6 174.57 243.51 174.21 244.39C173.85 245.27 173.36 246.04 172.72 246.71C172.08 247.38 171.33 247.92 170.45 248.32C169.57 248.73 168.61 248.93 167.57 248.93ZM163.82 241.63C163.82 242.18 163.9 242.72 164.06 243.24C164.22 243.76 164.46 244.22 164.78 244.63C165.1 245.04 165.49 245.36 165.97 245.6C166.44 245.84 166.98 245.96 167.59 245.96C168.23 245.96 168.78 245.83 169.25 245.57C169.72 245.31 170.11 244.98 170.43 244.57C170.74 244.16 170.97 243.69 171.13 243.17C171.29 242.65 171.36 242.12 171.36 241.58C171.36 241.03 171.28 240.49 171.12 239.97C170.96 239.45 170.71 238.99 170.39 238.59C170.07 238.19 169.67 237.87 169.2 237.64C168.73 237.4 168.2 237.29 167.59 237.29C166.95 237.29 166.4 237.41 165.94 237.67C165.47 237.92 165.08 238.25 164.76 238.65C164.44 239.06 164.21 239.52 164.05 240.04C163.9 240.56 163.82 241.09 163.82 241.63Z" fill="#1F2732"/>
<path d="M176.668 248.81V234.42H183.158C183.838 234.42 184.458 234.56 185.038 234.85C185.608 235.13 186.108 235.51 186.528 235.97C186.948 236.43 187.278 236.95 187.508 237.53C187.748 238.11 187.858 238.7 187.858 239.29C187.858 239.74 187.808 240.17 187.698 240.58C187.588 240.99 187.438 241.38 187.228 241.75C187.028 242.11 186.778 242.44 186.488 242.73C186.198 243.02 185.868 243.27 185.508 243.47L188.668 248.82H184.918L182.158 244.18H179.998V248.82H176.668V248.81ZM179.998 241.27H183.038C183.428 241.27 183.768 241.08 184.048 240.71C184.328 240.34 184.478 239.86 184.478 239.28C184.478 238.69 184.318 238.21 183.988 237.86C183.668 237.51 183.308 237.33 182.938 237.33H179.998V241.27Z" fill="#1F2732"/>
<path d="M82.7208 113.28V135.49C84.2708 133.29 86.4408 131.58 89.2608 130.37C90.7508 129.76 92.4908 129.46 94.4808 129.46C101.321 129.46 106.371 131.85 109.631 136.64C112.451 140.77 113.851 146.6 113.851 154.14V176.43C113.851 184.08 111.431 190.36 106.581 195.25C101.961 199.98 96.1208 202.35 89.0808 202.35C82.2508 202.35 76.5808 199.87 72.0708 194.92C67.7208 190.19 65.5508 184.41 65.5508 177.58V175.1L80.4908 173.94L80.8208 177.49C81.2008 181.62 82.8808 184.37 85.8608 185.75C86.7408 186.19 87.6808 186.41 88.6708 186.41C95.0508 186.41 98.2508 183.08 98.2508 176.42V151.07C98.2508 148.04 97.1408 145.54 94.9308 143.56C93.8808 142.63 92.4108 142.16 90.5308 142.16C87.7608 142.16 85.7208 143.23 84.3908 145.38C83.2808 147.25 82.7308 149.23 82.7308 151.33V154.14H67.1208V97.5901H112.781V113.28H82.7208Z" fill="#FBBC05"/>
<path d="M176.433 177.6C176.433 184.48 174.013 190.32 169.163 195.1C164.323 199.89 158.513 202.28 151.743 202.28C144.863 202.28 139.013 199.87 134.193 195.06C129.373 190.24 126.973 184.42 126.973 177.6V121.12C126.973 114.24 129.393 108.39 134.243 103.58C139.083 98.7601 144.923 96.3601 151.743 96.3601C158.623 96.3601 164.453 98.7801 169.243 103.63C174.033 108.47 176.423 114.31 176.423 121.13V177.6H176.433ZM160.253 120.79C160.253 118.31 159.373 116.19 157.613 114.43C155.853 112.67 153.733 111.79 151.253 111.79C148.773 111.79 146.673 112.67 144.933 114.43C143.203 116.19 142.333 118.31 142.333 120.79V177.35C142.333 179.83 143.203 181.95 144.933 183.71C146.663 185.47 148.773 186.35 151.253 186.35C153.733 186.35 155.853 185.47 157.613 183.71C159.373 181.95 160.253 179.83 160.253 177.35V120.79Z" fill="#FBBC05"/>
<path d="M239.351 177.6C239.351 184.48 236.931 190.32 232.081 195.1C227.241 199.89 221.431 202.28 214.661 202.28C207.781 202.28 201.931 199.87 197.111 195.06C192.291 190.24 189.891 184.42 189.891 177.6V121.12C189.891 114.24 192.311 108.39 197.161 103.58C202.001 98.7601 207.841 96.3601 214.661 96.3601C221.541 96.3601 227.371 98.7801 232.161 103.63C236.951 108.47 239.341 114.31 239.341 121.13V177.6H239.351ZM223.161 120.79C223.161 118.31 222.281 116.19 220.521 114.43C218.761 112.67 216.641 111.79 214.161 111.79C211.681 111.79 209.581 112.67 207.841 114.43C206.111 116.19 205.241 118.31 205.241 120.79V177.35C205.241 179.83 206.111 181.95 207.841 183.71C209.571 185.47 211.681 186.35 214.161 186.35C216.641 186.35 218.761 185.47 220.521 183.71C222.281 181.95 223.161 179.83 223.161 177.35V120.79Z" fill="#FBBC05"/>
<path d="M70.0209 353.74H43.4609V380.3H70.0209V353.74Z" fill="#455A64"/>
<path d="M56.7411 375.88C61.6399 375.88 65.6111 371.909 65.6111 367.01C65.6111 362.111 61.6399 358.14 56.7411 358.14C51.8423 358.14 47.8711 362.111 47.8711 367.01C47.8711 371.909 51.8423 375.88 56.7411 375.88Z" fill="#627782"/>
<path d="M55.1211 363.43H53.1211V370.75H55.1211V363.43Z" fill="#A4A9B9"/>
<path d="M60.6797 363.43H58.6797V370.75H60.6797V363.43Z" fill="#A4A9B9"/>
<path d="M36.8516 421.59L90.1416 421.35L143.432 421.26L250.002 421.09L356.572 421.26L409.862 421.35L463.152 421.59L409.862 421.84L356.572 421.92L250.002 422.09L143.432 421.92L90.1416 421.84L36.8516 421.59Z" fill="#1F2732"/>
<path d="M128.082 396.52C129.052 398.63 125.232 413.83 124.042 416.94C122.842 420.06 118.652 437.47 116.612 438.22C114.572 438.97 104.682 438.76 103.282 438.22C101.882 437.68 103.282 434.71 104.892 433.67C106.502 432.63 108.422 431.03 108.422 431.03C108.422 431.03 105.532 404.14 106.072 401.13C106.612 398.14 125.482 390.83 128.082 396.52Z" fill="#FFD66C"/>
<path opacity="0.1" d="M128.082 396.52C129.052 398.63 125.232 413.83 124.042 416.94C122.842 420.06 118.652 437.47 116.612 438.22C114.572 438.97 104.682 438.76 103.282 438.22C101.882 437.68 103.282 434.71 104.892 433.67C106.502 432.63 108.422 431.03 108.422 431.03C108.422 431.03 105.532 404.14 106.072 401.13C106.612 398.14 125.482 390.83 128.082 396.52Z" fill="black"/>
<path opacity="0.1" d="M107.403 437.06C107.513 436.53 107.733 436.01 108.053 435.57C108.373 435.13 108.753 434.74 109.193 434.42C109.603 434.12 110.103 433.82 110.613 433.73C110.683 433.72 110.733 433.8 110.673 433.85C110.493 434.02 110.293 434.15 110.123 434.32C109.953 434.49 109.773 434.67 109.603 434.85C109.273 435.2 109.003 435.59 108.753 436.01C108.503 436.43 108.273 436.85 108.063 437.28C107.853 437.72 107.723 438.19 107.553 438.65C107.523 438.74 107.383 438.75 107.363 438.65C107.233 438.12 107.293 437.58 107.403 437.06Z" fill="black"/>
<path opacity="0.1" d="M104.512 435.48C105.032 434.51 105.942 433.82 106.932 433.37C106.992 433.34 107.062 433.42 107.002 433.47C106.272 434.1 105.552 434.78 105.092 435.64C104.632 436.49 104.382 437.55 104.712 438.49C104.732 438.53 104.662 438.55 104.642 438.52C104.002 437.62 104.002 436.43 104.512 435.48Z" fill="black"/>
<path opacity="0.1" d="M106.941 415.97L120.531 428.83C122.031 423.9 123.431 418.54 124.041 416.95C125.241 413.83 129.051 398.64 128.091 396.52C125.481 390.83 106.611 398.14 106.081 401.15C105.831 402.57 106.331 409.27 106.941 415.97Z" fill="black"/>
<path d="M179.41 411.72C179.96 412.24 185.31 407.18 186.13 404.81C186.95 402.44 183.53 395.75 184.16 394.61C184.79 393.47 187.71 392.56 189.22 394.31C190.73 396.06 194.61 405.65 193.8 409.75C192.99 413.85 184.74 423.01 183.88 422.96C183.01 422.92 179.41 411.72 179.41 411.72Z" fill="#FFD66C"/>
<path opacity="0.1" d="M179.41 411.72C179.41 411.72 183.02 422.92 183.88 422.96C184.51 422.99 189.09 418.11 191.82 413.88L184.33 407.56C182.44 409.8 179.79 412.08 179.41 411.72Z" fill="black"/>
<path d="M149.192 365.46H104.792C104.792 365.46 101.492 394.7 101.852 398.57C102.212 402.44 121.722 431.11 127.782 434.81C133.922 438.56 168.612 438.69 177.072 436.83C183.652 435.38 189.142 426.99 186.412 414.05C185.222 408.4 169.802 394.92 167.652 392.34C165.492 389.75 149.192 365.46 149.192 365.46Z" fill="#C7C7C7"/>
<path d="M101.852 398.57C102.212 402.44 121.722 431.11 127.782 434.81C133.922 438.56 168.602 438.69 177.072 436.83C183.642 435.38 189.142 426.98 186.402 414.04C185.212 408.39 169.802 394.91 167.652 392.33C166.332 390.75 159.712 381.03 154.772 373.73C151.642 369.11 149.192 365.46 149.192 365.46H104.792C104.792 365.46 103.962 372.8 103.182 380.61C102.402 388.39 101.672 396.64 101.852 398.57Z" fill="#FFD66C"/>
<path opacity="0.1" d="M103.184 380.61C127.044 387.97 148.264 377.5 154.774 373.73C151.644 369.11 149.194 365.46 149.194 365.46H104.794C104.794 365.46 103.964 372.8 103.184 380.61Z" fill="black"/>
<path d="M177.909 412.64C177.909 412.64 165.689 404.97 157.119 406.36C148.549 407.75 145.529 425.34 149.629 435.25C149.629 435.25 141.809 437.57 141.809 441.35C141.809 443.5 146.279 444.19 152.719 444.03C159.169 443.88 171.979 443.75 172.259 442.13C172.539 440.51 171.419 438.28 171.419 438.28C171.419 438.28 182.989 436.98 185.259 429.31C187.529 421.64 179.839 413.93 177.909 412.64Z" fill="#FFD66C"/>
<path opacity="0.1" d="M161.219 436.11C164.459 437.5 167.999 438.17 171.509 438.4C171.579 438.4 171.599 438.52 171.519 438.52C167.889 438.93 164.329 438.02 161.179 436.19C161.139 436.17 161.169 436.08 161.219 436.11Z" fill="black"/>
<path opacity="0.1" d="M146.84 444.07C147.16 442.61 148.3 441.45 149.5 440.63C150.2 440.15 150.96 439.77 151.76 439.49C152.68 439.18 153.62 439.01 154.54 438.72C154.62 438.7 154.67 438.81 154.59 438.83C153.8 439.1 153.03 439.5 152.29 439.89C151.55 440.28 150.82 440.71 150.13 441.18C148.93 441.99 148.02 443.05 147.14 444.18C147.05 444.31 146.8 444.24 146.84 444.07Z" fill="black"/>
<path opacity="0.1" d="M148.42 438C148.5 437.99 148.53 438.09 148.45 438.12C146.09 438.99 144.2 441.07 143.19 443.34C143.15 443.44 142.97 443.44 142.99 443.31C143.3 440.5 145.69 438.4 148.42 438Z" fill="black"/>
<path opacity="0.1" d="M144.611 437.45C144.581 437.47 144.631 437.51 144.661 437.5C144.861 437.46 147.051 435.99 149.471 435.29C149.671 435.64 149.881 435.99 150.111 436.33C150.151 436.4 150.261 436.34 150.221 436.27C148.701 433.22 148.091 429.78 148.081 426.39C148.071 424.59 148.211 422.77 148.401 420.98C148.391 420.97 148.391 420.96 148.401 420.95C148.861 417.79 149.771 414.7 151.301 411.93C152.231 410.21 153.431 408.55 155.071 407.59C156.711 406.64 158.761 406.49 160.721 406.57C162.711 406.67 164.691 407.1 166.621 407.66C168.561 408.19 170.471 408.89 172.341 409.68C168.771 407.76 164.901 406.25 160.781 405.81C158.731 405.61 156.541 405.75 154.621 406.8C152.721 407.89 151.431 409.65 150.421 411.44C148.481 415.12 147.521 419.22 147.351 423.32C147.331 423.79 147.311 424.27 147.311 424.74C147.311 424.75 147.311 424.75 147.311 424.76C147.281 425.39 147.271 426.01 147.291 426.64C147.371 429.6 147.971 432.57 149.401 435.17C147.231 435.61 145.971 436.23 144.611 437.45Z" fill="black"/>
<path d="M142.429 400.29C143.399 402.4 139.579 417.6 138.389 420.71C137.189 423.83 132.999 441.24 130.959 441.99C128.919 442.74 119.029 442.53 117.629 441.99C116.229 441.45 117.629 438.48 119.239 437.44C120.849 436.4 122.769 434.8 122.769 434.8C122.769 434.8 119.879 407.91 120.419 404.9C120.959 401.9 139.829 394.59 142.429 400.29Z" fill="#FFD66C"/>
<path opacity="0.1" d="M135.768 429.15C136.678 426.41 137.868 423.76 138.778 421.02C138.818 420.91 138.988 420.96 138.948 421.07C138.248 423.27 137.708 425.53 137.058 427.75C137.148 427.6 137.238 427.45 137.338 427.3C137.908 426.42 138.618 425.55 138.908 424.53C138.938 424.42 139.118 424.47 139.078 424.58C138.948 425.06 138.718 425.48 138.488 425.92C138.228 426.41 137.958 426.9 137.698 427.39C137.358 428.03 136.978 428.65 136.598 429.26C136.588 429.3 136.568 429.35 136.558 429.39C135.648 432.14 134.738 434.88 133.528 437.51C133.468 437.65 133.258 437.6 133.288 437.44C133.928 434.62 134.848 431.89 135.768 429.15Z" fill="black"/>
<path opacity="0.1" d="M120.048 409.2C120.048 409.14 120.158 409.13 120.168 409.19C120.458 411.23 120.578 413.29 120.788 415.34C120.998 417.47 121.258 419.59 121.498 421.72C121.968 425.95 122.668 430.17 123.008 434.41C123.018 434.59 122.698 434.61 122.658 434.44C121.538 430.35 121.048 426.14 120.608 421.96C120.388 419.88 120.258 417.8 120.158 415.72C120.038 413.56 119.918 411.37 120.048 409.2Z" fill="black"/>
<path opacity="0.1" d="M121.267 440.61C121.377 440.08 121.597 439.56 121.917 439.12C122.237 438.68 122.617 438.29 123.057 437.97C123.467 437.67 123.967 437.37 124.477 437.28C124.547 437.27 124.597 437.35 124.537 437.4C124.357 437.57 124.157 437.7 123.987 437.87C123.817 438.04 123.637 438.22 123.467 438.4C123.137 438.75 122.867 439.14 122.617 439.56C122.367 439.98 122.137 440.4 121.927 440.83C121.717 441.27 121.587 441.74 121.417 442.2C121.387 442.29 121.247 442.3 121.227 442.2C121.087 441.67 121.157 441.13 121.267 440.61Z" fill="black"/>
<path opacity="0.1" d="M118.368 439.03C118.888 438.06 119.798 437.37 120.788 436.92C120.848 436.89 120.918 436.97 120.858 437.02C120.128 437.65 119.408 438.33 118.948 439.19C118.488 440.04 118.238 441.1 118.568 442.04C118.588 442.08 118.518 442.1 118.498 442.07C117.868 441.17 117.858 439.98 118.368 439.03Z" fill="black"/>
<path d="M121.78 324.81C122.26 323.06 117.88 316.85 116.22 314.77C114.55 312.68 105.36 309.55 102.42 311.16C101.27 311.79 99.1299 316.21 96.2399 320.04C91.7699 325.98 86.5399 332.2 88.4399 333.88C93.0499 337.95 103.55 331.53 106.96 329.38C110.37 327.22 113.49 324.6 114.32 324.69C115.42 324.81 117.72 326.55 118.64 326.65C120.82 326.89 121.78 324.81 121.78 324.81Z" fill="#FFD66C"/>
<path opacity="0.1" d="M121.78 324.81C122.26 323.06 117.88 316.85 116.22 314.77C114.55 312.68 105.36 309.55 102.42 311.16C101.27 311.79 99.1299 316.21 96.2399 320.04C91.7699 325.98 86.5399 332.2 88.4399 333.88C93.0499 337.95 103.55 331.53 106.96 329.38C110.37 327.22 113.49 324.6 114.32 324.69C115.42 324.81 117.72 326.55 118.64 326.65C120.82 326.89 121.78 324.81 121.78 324.81Z" fill="black"/>
<path d="M142.951 318.59C153.681 325 158.441 342.07 158.731 344.8C158.971 347.03 164.081 354.9 163.171 363.37C162.581 368.82 152.801 376.05 144.841 375.98C143.371 375.97 130.981 380.46 120.521 379.74C110.061 379.02 102.121 371.59 101.821 370.96C101.511 370.33 93.0313 369.1 92.5013 360.36C91.6513 346.4 105.901 322.6 109.981 319.35C116.721 313.96 135.661 314.23 142.951 318.59Z" fill="#FFD66C"/>
<path d="M137.9 325.95C137.69 324.05 143.27 318.34 145.34 316.45C147.42 314.56 157.48 312.84 160.26 315C161.35 315.85 162.84 320.78 165.2 325.25C168.85 332.15 173.25 339.48 171 340.91C165.54 344.37 155.71 335.96 152.53 333.16C149.35 330.36 146.55 327.12 145.68 327.08C144.52 327.02 141.84 328.44 140.87 328.39C138.55 328.27 137.9 325.95 137.9 325.95Z" fill="#FFD66C"/>
<path opacity="0.1" d="M137.9 325.95C137.69 324.05 143.27 318.34 145.34 316.45C147.42 314.56 157.48 312.84 160.26 315C161.35 315.85 162.84 320.78 165.2 325.25C168.85 332.15 173.25 339.48 171 340.91C165.54 344.37 155.71 335.96 152.53 333.16C149.35 330.36 146.55 327.12 145.68 327.08C144.52 327.02 141.84 328.44 140.87 328.39C138.55 328.27 137.9 325.95 137.9 325.95Z" fill="black"/>
<path opacity="0.1" d="M118.301 349.93C124.881 349.99 127.881 357.04 128.671 358.87C129.461 360.71 133.521 364.91 133.631 369.3C133.741 373.69 125.401 378.59 116.591 377.05C107.831 375.51 103.181 370.57 103.231 366.11C103.271 362.52 106.651 359.41 107.031 358.46C107.411 357.51 112.311 349.87 118.301 349.93Z" fill="black"/>
<path opacity="0.1" d="M134.48 362.31C135.36 363.31 136.1 364.42 136.69 365.62C137.29 366.82 137.75 368.09 137.98 369.44C138.19 370.78 138.18 372.25 137.55 373.54C137.25 374.18 136.8 374.74 136.27 375.19C135.72 375.61 135.11 375.92 134.48 376.11C135.59 375.37 136.45 374.4 136.83 373.24C137.23 372.09 137.2 370.83 136.99 369.6C136.8 368.36 136.4 367.14 135.97 365.93C135.52 364.72 135.03 363.51 134.48 362.31Z" fill="black"/>
<path opacity="0.1" d="M104.328 359.68C103.758 360.39 103.218 361.08 102.718 361.78C102.238 362.49 101.758 363.2 101.448 363.96C101.108 364.71 100.918 365.5 100.868 366.32C100.838 367.15 101.058 367.96 101.338 368.83C100.718 368.18 100.208 367.33 100.098 366.37C99.9783 365.41 100.168 364.43 100.538 363.56C100.918 362.69 101.478 361.93 102.128 361.28C102.768 360.63 103.498 360.06 104.328 359.68Z" fill="black"/>
<path d="M207.138 453.86C196.358 453.86 184.478 453.68 172.528 453.45C166.368 453.34 161.498 453.25 158.468 453.25C142.948 453.25 138.478 433.29 134.158 414C133.558 411.31 132.948 408.62 132.318 405.97C131.088 400.81 130.068 395.59 129.078 390.55C126.028 374.94 123.398 361.47 116.528 360.73C107.438 359.76 99.348 373.35 96.398 394.56L94.418 394.28C97.528 371.92 106.498 357.62 116.738 358.73C125.078 359.62 127.838 373.77 131.038 390.16C132.018 395.19 133.038 400.38 134.258 405.5C134.888 408.15 135.498 410.86 136.098 413.55C140.438 432.93 144.538 451.24 158.458 451.24C161.518 451.24 166.388 451.33 172.558 451.44C186.078 451.69 204.588 452.04 220.258 451.73C245.678 451.23 248.688 449.23 248.998 448.62C248.988 444.46 222.158 439.45 212.058 437.57C201.848 435.66 201.448 435.59 201.568 434.34C201.668 433.22 202.918 433.22 204.808 433.22H246.748C259.908 433.22 264.138 414.29 266.678 402.99C267.408 399.75 267.978 397.18 268.608 395.86C271.548 389.74 278.988 390.63 279.298 390.67L279.038 392.65C278.778 392.62 272.718 391.91 270.408 396.72C269.868 397.84 269.288 400.42 268.618 403.42C265.958 415.31 261.498 435.22 246.738 435.22H210.318C210.998 435.35 211.698 435.48 212.408 435.61C236.828 440.17 250.968 443.77 250.968 448.7C250.968 449.06 250.858 449.6 250.318 450.13C247.378 453.05 229.708 453.86 207.138 453.86Z" fill="#6B7183"/>
<path d="M101.758 393.1L89.5 392.365L89.0593 399.722L101.317 400.457L101.758 393.1Z" fill="#455A64"/>
<path d="M99.5876 390.628L91.9414 390.169L91.8015 392.505L99.4477 392.963L99.5876 390.628Z" fill="#627782"/>
<path d="M93.1232 399.965L91.6758 399.878L91.3397 405.488L92.7871 405.575L93.1232 399.965Z" fill="#7B7A79"/>
<path d="M98.664 400.295L97.2266 400.208L96.8905 405.818L98.3279 405.904L98.664 400.295Z" fill="#7B7A79"/>
<path d="M283.051 385.531V397.811H288.421V385.531H283.051Z" fill="#455A64"/>
<path d="M278.719 387.84V395.5H283.059V387.84H278.719Z" fill="#627782"/>
<path d="M109.953 360.6C109.953 360.6 112.563 363.62 113.573 362.98C114.583 362.34 117.113 356.39 117.113 356.39C117.113 356.39 117.713 363.96 119.673 364.16C121.623 364.37 124.963 361.38 124.963 361.38L117.073 355.91L109.953 360.6Z" fill="#FFD66C"/>
<path opacity="0.1" d="M109.953 360.6C109.953 360.6 112.563 363.62 113.573 362.98C114.583 362.34 117.113 356.39 117.113 356.39C117.113 356.39 117.713 363.96 119.673 364.16C121.623 364.37 124.963 361.38 124.963 361.38L117.073 355.91L109.953 360.6Z" fill="black"/>
<path opacity="0.1" d="M148.653 351.21C149.423 348.81 149.703 346.24 149.463 343.67C149.353 342.38 149.043 341.09 148.553 339.84C148.303 339.22 147.983 338.62 147.593 338.05C147.213 337.48 146.763 336.94 146.253 336.47C146.003 336.23 145.723 336.02 145.433 335.81C145.143 335.61 144.853 335.45 144.553 335.28L144.103 335.03L143.633 334.84C143.313 334.72 143.013 334.56 142.673 334.48C141.363 334.09 140.003 333.98 138.693 334.1C136.063 334.33 133.613 335.35 131.613 336.89C133.973 336.05 136.393 335.52 138.743 335.58C139.913 335.64 141.063 335.77 142.113 336.18C142.383 336.26 142.623 336.4 142.883 336.51L143.263 336.68L143.623 336.9C143.863 337.05 144.113 337.18 144.333 337.34C144.553 337.51 144.763 337.67 144.963 337.86C145.783 338.58 146.423 339.52 146.903 340.56C147.413 341.59 147.733 342.73 148.003 343.89C148.493 346.24 148.653 348.7 148.653 351.21Z" fill="black"/>
<path opacity="0.1" d="M99.8717 346.1C100.032 343.96 100.332 341.88 100.922 339.95C101.522 338.03 102.482 336.27 103.972 335.19C104.332 334.91 104.742 334.7 105.152 334.5C105.542 334.33 105.962 334.21 106.412 334.15C107.322 334.02 108.312 334.08 109.302 334.21C111.302 334.52 113.312 335.12 115.362 335.78C114.542 335.07 113.622 334.49 112.672 333.97C112.192 333.72 111.702 333.48 111.192 333.27C110.682 333.07 110.162 332.88 109.622 332.73C108.552 332.42 107.402 332.25 106.202 332.35C105.602 332.41 104.992 332.54 104.402 332.79C103.852 333.04 103.322 333.32 102.842 333.7C101.872 334.42 101.112 335.39 100.582 336.41C100.042 337.44 99.7117 338.54 99.5317 339.64C99.1717 341.82 99.2917 344.03 99.8717 346.1Z" fill="black"/>
<path d="M132.363 348.07C132.393 347.96 132.613 348.22 132.603 348.35C132.363 351.36 132.653 354.85 135.603 355.99C135.693 356.03 135.673 356.18 135.563 356.16C131.943 355.52 131.613 350.89 132.363 348.07Z" fill="#263238"/>
<path d="M135.461 345.05C140.801 344.91 140.791 354.67 135.851 354.79C130.981 354.91 130.981 345.16 135.461 345.05Z" fill="#263238"/>
<path d="M111.731 345.7C111.721 345.58 111.461 345.82 111.451 345.94C111.261 348.96 110.501 352.37 107.421 353.08C107.321 353.1 107.321 353.25 107.431 353.25C111.121 353.14 112.091 348.6 111.731 345.7Z" fill="#263238"/>
<path d="M109.092 342.28C103.822 341.4 102.472 351.06 107.352 351.87C112.162 352.67 113.512 343.02 109.092 342.28Z" fill="#263238"/>
<path d="M116.91 356.12C117.86 356.43 124.44 354.34 123.94 352.35C123.4 350.19 114.13 349.68 112.97 351.08C111.81 352.49 115.92 355.8 116.91 356.12Z" fill="#263238"/>
<path d="M125.133 361.29C124.073 362.06 122.983 362.81 121.783 363.38C121.193 363.66 120.533 363.91 119.963 363.9C119.583 363.97 119.263 363.46 119.053 362.97C118.613 361.97 118.403 360.87 118.213 359.78C118.013 358.69 117.903 357.58 117.793 356.48L117.483 353.44L116.573 356.39C116.293 357.3 115.963 358.21 115.633 359.11C115.283 360.01 114.923 360.91 114.453 361.75C114.333 361.96 114.203 362.16 114.063 362.35C113.923 362.54 113.763 362.73 113.603 362.83C113.493 362.92 113.283 362.92 113.043 362.89C112.813 362.83 112.563 362.73 112.333 362.59C111.403 362.04 110.653 361.25 109.953 360.46C110.443 361.34 111.023 362.2 111.963 362.93C112.193 363.11 112.493 363.27 112.833 363.38C113.023 363.42 113.203 363.48 113.423 363.46C113.613 363.47 113.893 363.4 114.063 363.31C114.403 363.13 114.603 362.92 114.803 362.71C114.993 362.5 115.153 362.28 115.303 362.06C115.903 361.19 116.333 360.28 116.733 359.37C117.143 358.46 117.473 357.54 117.783 356.6L116.563 356.51C116.633 357.65 116.813 358.76 117.023 359.89C117.123 360.45 117.273 361.01 117.443 361.57C117.623 362.13 117.803 362.69 118.103 363.24C118.263 363.52 118.423 363.79 118.693 364.06C118.833 364.19 118.993 364.33 119.233 364.44C119.353 364.49 119.483 364.54 119.643 364.55C119.803 364.58 119.883 364.55 120.013 364.55C120.923 364.48 121.563 364.12 122.173 363.78C123.333 363.06 124.293 362.21 125.133 361.29Z" fill="#263238"/>
<path d="M74.9023 395.89C76.9023 395.73 78.8823 395.8 80.8623 395.92C82.8423 396.07 84.8123 396.27 86.7623 396.7C84.7623 396.86 82.7823 396.79 80.8023 396.67C78.8323 396.53 76.8623 396.32 74.9023 395.89Z" fill="#FFEA2F"/>
<path d="M103.691 402.22C105.591 402.85 107.391 403.68 109.161 404.56C110.921 405.46 112.661 406.41 114.291 407.57C112.391 406.94 110.591 406.11 108.821 405.23C107.061 404.33 105.321 403.37 103.691 402.22Z" fill="#FFEA2F"/>
<path d="M81.25 415.97C82.21 414.21 83.34 412.58 84.52 410.99C85.72 409.41 86.96 407.87 88.39 406.46C87.44 408.22 86.3 409.85 85.12 411.44C83.92 413.02 82.68 414.56 81.25 415.97Z" fill="#FFEA2F"/>
<path d="M70.0117 384.07C71.5517 384.56 73.0617 385.13 74.5717 385.71C76.0817 386.28 77.5617 386.91 79.0517 387.53C80.5317 388.17 82.0117 388.82 83.4617 389.51C84.9217 390.2 86.3717 390.9 87.7917 391.68C86.2517 391.19 84.7417 390.62 83.2317 390.04C81.7217 389.47 80.2417 388.84 78.7517 388.22C77.2717 387.58 75.7917 386.93 74.3417 386.24C72.8917 385.54 71.4317 384.84 70.0117 384.07Z" fill="#FFEA2F"/>
<path d="M105.133 392.93C106.533 392.19 107.993 391.67 109.473 391.21C110.963 390.76 112.463 390.37 114.033 390.2C112.633 390.94 111.173 391.46 109.693 391.92C108.203 392.37 106.703 392.76 105.133 392.93Z" fill="#FFEA2F"/>
<path d="M90.7498 387.87C89.9298 386.57 89.1898 385.24 88.4498 383.9C87.7098 382.56 87.0198 381.2 86.3298 379.84C85.6598 378.47 84.9899 377.1 84.3699 375.7C83.7399 374.31 83.1298 372.91 82.5898 371.47C83.4098 372.77 84.1498 374.1 84.8898 375.44C85.6298 376.78 86.3198 378.14 87.0098 379.5C87.6798 380.87 88.3498 382.24 88.9698 383.64C89.5998 385.03 90.2098 386.43 90.7498 387.87Z" fill="#FFEA2F"/>
<path d="M111 419.5C110.11 418.48 109.28 417.41 108.47 416.33C107.65 415.26 106.88 414.16 106.1 413.05C105.34 411.94 104.58 410.82 103.88 409.67C103.16 408.53 102.46 407.38 101.82 406.18C102.71 407.2 103.54 408.27 104.35 409.35C105.17 410.42 105.94 411.53 106.72 412.63C107.48 413.75 108.23 414.86 108.94 416.01C109.66 417.15 110.36 418.3 111 419.5Z" fill="#FFEA2F"/>
<path d="M379.939 168.86H297.279L290.879 112.72H373.539L379.939 168.86Z" fill="#455A64"/>
<path d="M375.441 165.1H300.931L295.391 116.49H369.901L375.441 165.1Z" fill="white"/>
<path d="M329.422 142.06L328.232 143.48L316.512 133.36L317.702 131.95L329.422 142.06Z" fill="#FBBC05"/>
<path d="M326.401 131.95L328.041 133.36L319.531 143.48L317.891 142.06L326.401 131.95Z" fill="#FBBC05"/>
<path d="M354.48 142.06L353.29 143.48L341.57 133.36L342.76 131.95L354.48 142.06Z" fill="#FBBC05"/>
<path d="M351.459 131.95L353.099 133.36L344.589 143.48L342.949 142.06L351.459 131.95Z" fill="#FBBC05"/>
<path d="M315.011 151.79L314.691 149.79H360.121L360.441 151.79H315.011Z" fill="#FBBC05"/>
<path d="M404.199 165.1H297.859V168.87H404.199V165.1Z" fill="#455A64"/>
<path d="M413.177 165.1H320.957V168.87H413.177V165.1Z" fill="#455A64"/>
<path d="M370.171 118.85L369.901 116.49H295.391L295.661 118.85H370.171Z" fill="#FBBC05"/>
<path d="M301.657 117.67C301.697 117.99 301.957 118.26 302.247 118.26C302.537 118.26 302.747 118 302.707 117.67C302.667 117.35 302.407 117.08 302.117 117.08C301.827 117.08 301.617 117.34 301.657 117.67Z" fill="#455A64"/>
<path d="M299.499 117.67C299.539 117.99 299.799 118.26 300.089 118.26C300.379 118.26 300.589 118 300.549 117.67C300.509 117.35 300.249 117.08 299.959 117.08C299.669 117.08 299.469 117.34 299.499 117.67Z" fill="white"/>
<path d="M297.349 117.67C297.389 117.99 297.649 118.26 297.939 118.26C298.229 118.26 298.439 118 298.399 117.67C298.359 117.35 298.099 117.08 297.809 117.08C297.519 117.08 297.309 117.34 297.349 117.67Z" fill="#19FB05"/>
</svg>
