<?xml version="1.0" encoding="utf-8"?>
<!-- Generator: Adobe Illustrator 23.0.5, SVG Export Plug-In . SVG Version: 6.00 Build 0)  -->
<svg version="1.1" xmlns="http://www.w3.org/2000/svg" xmlns:xlink="http://www.w3.org/1999/xlink" x="0px" y="0px"
	 viewBox="0 0 500 500" style="enable-background:new 0 0 500 500;" xml:space="preserve">
<g id="Floor">
	<path id="Floor_7_" style="fill:#F5F5F5;" d="M89.05,437.1c87.26,46.01,228.74,46.01,316,0c87.26-46.01,87.26-120.62,0-166.63
		s-228.74-46.01-316,0C1.78,316.48,1.78,391.09,89.05,437.1z"/>
</g>
<g id="Shadow">
	<polygon style="fill:#E0E0E0;" points="163.52,357.3 166.13,354.18 86.76,308.35 81.38,311.45 109.57,327.73 82.51,343.36 
		54.07,326.94 48.69,330.05 129.94,376.95 130.79,375.93 131.22,376.17 162.38,358.22 162.63,358.36 163.08,357.81 163.75,357.43 	
		"/>
	<ellipse id="Shadow_25_" style="fill:#E0E0E0;" cx="357.41" cy="381.96" rx="44.22" ry="21.07"/>
	<ellipse id="Shadow_26_" style="fill:#E0E0E0;" cx="223.83" cy="425.39" rx="44.22" ry="21.07"/>
	<path id="Shadow_29_" style="fill:#E0E0E0;" d="M392.67,408.28c8.58,4.95,22.49,4.95,31.07,0c8.58-4.95,8.58-12.98,0-17.94
		c-8.58-4.95-22.49-4.95-31.07,0S384.09,403.33,392.67,408.28z"/>
	<ellipse id="Shadow_28_" style="fill:#E0E0E0;" cx="89.84" cy="404.57" rx="21.97" ry="12.68"/>
</g>
<g id="Ladder">
	<g id="XMLID_13_">
		<path id="XMLID_1894_" style="fill:#37474F;" d="M131.04,189.48L86.48,310.75l-0.01,0.02c-0.1,0.31-0.36,0.6-0.78,0.84
			c-1.12,0.65-2.94,0.65-4.06,0c-0.49-0.28-0.76-0.63-0.83-1c-0.02-0.11-0.02-0.22,0-0.33c0.01-0.27,0.06-0.55,0.16-0.83
			l44.68-121.95c0.55-1.49,2.2-2.26,3.69-1.71C130.82,186.34,131.59,187.99,131.04,189.48z"/>
		
			<line id="XMLID_1880_" style="fill:none;stroke:#37474F;stroke-width:6;stroke-miterlimit:10;" x1="71.48" y1="272.92" x2="116.16" y2="298.72"/>
		
			<line id="XMLID_1881_" style="fill:none;stroke:#37474F;stroke-width:6;stroke-miterlimit:10;" x1="103.97" y1="254.16" x2="148.66" y2="279.96"/>
		<path id="XMLID_1887_" style="fill:#455A64;" d="M94.68,181.15l23.83-13.76c1.95-1.12,4.13-1.29,5.98-0.47
			c1.85,0.82,3.18,2.55,3.65,4.75l39.56,185.08c0.03,0.13,0.05,0.25,0.05,0.38c0.02,0.13,0.02,0.27,0.01,0.4
			c-0.07,0.36-0.34,0.71-0.83,0.99c-1.12,0.65-2.94,0.65-4.06,0c-0.42-0.25-0.68-0.55-0.79-0.86c-0.02-0.06-0.03-0.12-0.04-0.17
			l-39.52-184.62c-0.09-0.4-0.25-0.65-0.37-0.7c-0.11-0.05-0.4-0.01-0.76,0.2l-23.84,13.76"/>
		<g id="XMLID_1962_">
			<path id="XMLID_2040_" style="fill:#27DEBF;" d="M133.57,358.02l-14.52-8.38c-0.48-0.28-0.87-0.95-0.87-1.5v-0.35
				c0-0.55,0.39-1.22,0.87-1.5l34.83-20.11c0.48-0.28,1.25-0.28,1.73,0l14.52,8.38c0.48,0.28,0.87,0.95,0.87,1.5v0.35
				c0,0.55-0.39,1.22-0.87,1.5l-34.83,20.11C134.83,358.3,134.05,358.3,133.57,358.02z"/>
			<path id="XMLID_1895_" style="opacity:0.1;" d="M118.45,346.94c-0.16,0.27-0.25,0.58-0.25,0.85v0.35c0,0.55,0.39,1.22,0.87,1.5
				l14.52,8.38c0.24,0.14,0.55,0.21,0.87,0.21v-2.05L118.45,346.94z"/>
			<path id="XMLID_1893_" style="opacity:0.15;" d="M134.44,356.18v2.05c0.31,0,0.63-0.07,0.87-0.21l17.41-10.05l17.41-10.05
				c0.48-0.28,0.87-0.95,0.87-1.5v-0.35c0-0.28-0.1-0.58-0.25-0.85L134.44,356.18z"/>
		</g>
		<g id="XMLID_1955_">
			<path id="XMLID_1960_" style="fill:#27DEBF;" d="M127.28,328.59l-14.52-8.38c-0.48-0.28-0.87-0.95-0.87-1.5v-0.35
				c0-0.55,0.39-1.22,0.87-1.5l34.83-20.11c0.48-0.28,1.25-0.28,1.73,0l14.52,8.38c0.48,0.28,0.87,0.95,0.87,1.5v0.35
				c0,0.55-0.39,1.22-0.87,1.5l-34.83,20.11C128.53,328.87,127.76,328.87,127.28,328.59z"/>
			<path id="XMLID_1892_" style="opacity:0.1;" d="M112.15,317.51c-0.16,0.27-0.25,0.58-0.25,0.85v0.35c0,0.55,0.39,1.22,0.87,1.5
				l14.52,8.38c0.24,0.14,0.55,0.21,0.87,0.21v-2.05L112.15,317.51z"/>
			<path id="XMLID_1890_" style="opacity:0.15;" d="M128.15,326.75v2.05c0.31,0,0.63-0.07,0.87-0.21l17.41-10.05l17.41-10.05
				c0.48-0.28,0.87-0.95,0.87-1.5v-0.35c0-0.28-0.1-0.58-0.25-0.85L128.15,326.75z"/>
		</g>
		<g id="XMLID_1948_">
			<path id="XMLID_1954_" style="fill:#27DEBF;" d="M120.99,299.16l-14.52-8.38c-0.48-0.28-0.87-0.95-0.87-1.5v-0.35
				c0-0.55,0.39-1.22,0.87-1.5l34.83-20.11c0.48-0.28,1.25-0.28,1.73,0l14.52,8.38c0.48,0.28,0.87,0.95,0.87,1.5v0.35
				c0,0.55-0.39,1.22-0.87,1.5l-34.83,20.11C122.24,299.44,121.46,299.44,120.99,299.16z"/>
			<path id="XMLID_1889_" style="opacity:0.1;" d="M105.86,288.08c-0.16,0.27-0.25,0.58-0.25,0.85v0.35c0,0.55,0.39,1.22,0.87,1.5
				l7.26,4.19l7.26,4.19c0.24,0.14,0.55,0.21,0.87,0.21v-2.05L105.86,288.08z"/>
			<path id="XMLID_1888_" style="opacity:0.15;" d="M121.85,297.31v2.05c0.31,0,0.63-0.07,0.87-0.21l17.41-10.05l17.41-10.05
				c0.48-0.28,0.87-0.95,0.87-1.5v-0.35c0-0.28-0.1-0.58-0.25-0.85L121.85,297.31z"/>
		</g>
		<g id="XMLID_1942_">
			<path id="XMLID_1946_" style="fill:#27DEBF;" d="M114.69,269.73l-14.52-8.38c-0.48-0.28-0.87-0.95-0.87-1.5v-0.35
				c0-0.55,0.39-1.22,0.87-1.5L135,237.9c0.48-0.28,1.25-0.28,1.73,0l14.52,8.38c0.48,0.28,0.87,0.95,0.87,1.5v0.35
				c0,0.55-0.39,1.22-0.87,1.5l-34.83,20.11C115.95,270.01,115.17,270,114.69,269.73z"/>
			<path id="XMLID_1885_" style="opacity:0.15;" d="M115.56,267.88v2.05c0.31,0,0.63-0.07,0.87-0.21l17.41-10.05l17.41-10.05
				c0.48-0.28,0.87-0.95,0.87-1.5v-0.35c0-0.28-0.1-0.58-0.25-0.85L115.56,267.88z"/>
			<path id="XMLID_1886_" style="opacity:0.1;" d="M99.56,258.65c-0.16,0.27-0.25,0.58-0.25,0.85v0.35c0,0.55,0.39,1.22,0.87,1.5
				l14.52,8.38c0.24,0.14,0.55,0.21,0.87,0.21v-2.05L99.56,258.65z"/>
		</g>
		<g id="XMLID_1667_">
			<path id="XMLID_1683_" style="fill:#27DEBF;" d="M108.4,240.3l-24.12-13.92c-0.48-0.28-0.87-0.95-0.87-1.5v-0.35
				c0-0.55,0.39-1.22,0.87-1.5l34.83-20.11c0.48-0.28,1.25-0.28,1.73,0l24.12,13.92c0.48,0.28,0.87,0.95,0.87,1.5v0.35
				c0,0.55-0.39,1.22-0.87,1.5l-34.83,20.11C109.65,240.57,108.88,240.57,108.4,240.3z"/>
			<path id="XMLID_1676_" style="opacity:0.15;" d="M109.26,238.45v2.05c0.31,0,0.63-0.07,0.87-0.21l17.41-10.05l17.41-10.05
				c0.48-0.28,0.87-0.95,0.87-1.5v-0.35c0-0.28-0.1-0.58-0.25-0.85L109.26,238.45z"/>
			<path id="XMLID_1675_" style="opacity:0.1;" d="M83.66,223.67c-0.16,0.27-0.25,0.58-0.25,0.85v0.35c0,0.55,0.39,1.22,0.87,1.5
				l24.12,13.92c0.24,0.14,0.55,0.21,0.87,0.21v-2.05L83.66,223.67z"/>
		</g>
		<path id="XMLID_1896_" style="fill:#37474F;" d="M98.55,208.24L54.03,329.37l-0.01,0.04l-0.1,0.27c-0.13,0.25-0.37,0.49-0.72,0.7
			c-1.12,0.64-2.94,0.64-4.07,0c-0.49-0.29-0.76-0.64-0.83-1c-0.01-0.11-0.01-0.22,0-0.33c0.01-0.29,0.07-0.56,0.17-0.84
			l44.68-121.95c0.54-1.49,2.19-2.25,3.69-1.71C98.33,205.1,99.09,206.75,98.55,208.24z"/>
		<path id="XMLID_1891_" style="fill:#455A64;" d="M97.55,186.13c-1.32,0.77-2.23,2.81-1.91,4.3l39.57,185.07
			c0.04,0.15,0.06,0.3,0.06,0.45c0.01,0.1,0.01,0.21,0,0.32c-0.06,0.36-0.34,0.72-0.83,1.01c-1.12,0.65-2.94,0.65-4.06,0
			c-0.41-0.24-0.67-0.53-0.79-0.83c0-0.01,0-0.02-0.01-0.03l-0.05-0.24L90.02,191.64c-0.83-3.89,1.21-8.5,4.66-10.49"/>
	</g>
</g>
<g id="Paint_Pot">
	<g id="Paint_Pot_2_">
		<path id="XMLID_1691_" style="fill:#37474F;" d="M108.59,373.06l-36.7-0.5l-0.32,29.97l0,0c-0.03,2.71,1.73,5.45,5.29,7.55
			c7.12,4.22,18.74,4.34,25.96,0.28c3.64-2.05,5.46-4.77,5.45-7.51L108.59,373.06z"/>
		<path id="XMLID_1690_" style="fill:#455A64;" d="M77.35,365.13c-7.21,4.06-7.28,10.77-0.16,14.99c7.12,4.22,18.74,4.34,25.96,0.28
			c7.21-4.06,7.29-10.77,0.16-14.99C96.18,361.19,84.56,361.07,77.35,365.13z"/>
		<path id="XMLID_1689_" style="fill:#263238;" d="M107.02,372.94c0,0.48-0.1,0.96-0.26,1.44c-0.56,1.72-2.06,3.31-4.39,4.63
			c-3.26,1.82-7.59,2.8-12.22,2.76c-4.61-0.06-8.93-1.12-12.14-3.02c-2.26-1.34-3.73-2.96-4.25-4.63c-0.18-0.5-0.26-1.02-0.26-1.54
			c0.04-2.24,1.68-4.39,4.65-6.05c3.24-1.84,7.59-2.82,12.2-2.76c4.63,0.04,8.95,1.12,12.16,3.02
			C105.44,368.52,107.04,370.7,107.02,372.94z"/>
		<path id="XMLID_1688_" style="fill:#27DEBF;" d="M106.76,374.37c-0.56,1.72-2.06,3.31-4.39,4.63c-3.26,1.82-7.59,2.8-12.22,2.76
			c-4.61-0.06-8.93-1.12-12.14-3.02c-2.26-1.34-3.73-2.96-4.25-4.63c0.56-1.72,2.06-3.32,4.39-4.61c3.24-1.84,7.59-2.82,12.2-2.78
			c4.63,0.06,8.95,1.14,12.16,3.04C104.76,371.1,106.22,372.7,106.76,374.37z"/>
		<path id="XMLID_1687_" style="fill:#263238;" d="M98.07,384.29c0.8-0.45,1.45-0.07,1.44,0.85c-0.01,0.92-0.67,2.04-1.48,2.49
			s-1.45,0.07-1.44-0.85C96.6,385.86,97.26,384.74,98.07,384.29z"/>
		<g id="XMLID_1298_">
			<path id="XMLID_1686_" style="fill:#E0E0E0;" d="M71.83,377.83c-2.02,3.97-6.03,13.44-0.82,17.29c0.22,0.16,0.42,0.3,0.64,0.44
				l-0.02,1.92c-0.52-0.32-1.06-0.68-1.58-1.06c-7.79-5.77,1-20.59,1.38-21.21c0.1-0.18,0.26-0.28,0.44-0.34L71.83,377.83z"/>
			<path id="XMLID_1685_" style="fill:#E0E0E0;" d="M98.75,386.34c-0.22,0.46-5.89,11.3-15.22,13.48c-1.08,0.26-2.14,0.38-3.22,0.38
				c-2.9,0-5.79-0.9-8.69-2.72l0.02-1.92c3.85,2.68,7.73,3.59,11.52,2.72c8.61-2.02,14.12-12.58,14.16-12.68
				c0.2-0.4,0.7-0.54,1.08-0.34C98.81,385.46,98.97,385.94,98.75,386.34z"/>
		</g>
	</g>
</g>
<g id="Gear">
	<g id="XMLID_2229_">
		<g id="XMLID_1692_">
			<path id="XMLID_1719_" style="fill:#27DEBF;" d="M174.93,281.05l-3.79-2.19c-1.2-0.69-2.16-2.37-2.16-3.75l0-173.24
				c0-1.38,0.97-3.06,2.17-3.75l125.65-72.55c1.2-0.69,3.13-0.69,4.33,0l3.79,2.19c1.2,0.69,2.17,2.37,2.17,3.75l0,173.24
				c0,1.38-0.97,3.06-2.17,3.75l-125.66,72.55C178.06,281.74,176.12,281.74,174.93,281.05z"/>
			<path id="XMLID_1818_" style="opacity:0.4;fill:#FFFFFF;" d="M307.05,31.16c-0.15-1.12-1.06-1.53-2.14-0.9l-125.66,72.55
				c-0.59,0.34-1.13,0.94-1.53,1.62l-8.12-4.69c0.39-0.68,0.93-1.27,1.53-1.62l125.65-72.55c1.2-0.69,3.14-0.69,4.33,0l3.8,2.19
				C306,28.39,306.91,29.86,307.05,31.16z"/>
			<path id="XMLID_1820_" style="opacity:0.1;" d="M178.75,281.27c-1.18,0.46-2.79,0.38-3.83-0.22l-3.79-2.19
				c-1.2-0.69-2.17-2.37-2.17-3.75V101.87c0-0.69,0.25-1.45,0.64-2.13l8.12,4.69c-0.39,0.68-0.63,1.44-0.63,2.13V279.8
				C177.09,280.98,177.8,281.56,178.75,281.27z"/>
		</g>
		<g id="XMLID_1693_">
			<path id="XMLID_1902_" style="fill:#263238;" d="M316.89,167.52L316.89,167.52c-0.28-0.16-0.66-0.15-1.05,0.11l-5.06,3.33
				c-0.69,0.46-1.56,0.22-2.03-0.46c-0.31-0.44-0.63-0.84-0.99-1.21c-0.57-0.6-0.88-1.63-0.59-2.41l8.04-5.09l-6-3.46l0,0.01
				c-0.12-0.07-0.25-0.13-0.4-0.16l-3.81-0.85c-0.81-0.18-1.78,0.27-2.16,1l-3.58,6.83c-0.38,0.73-1.36,1.42-2.17,1.63
				c-0.07,0.02-0.15,0.04-0.22,0.06c0.22-0.65,0.31-1.59,0.31-1.59l-6.02-3.47l0,0.01c-0.32-0.19-0.74-0.15-1.13,0.15l-5.71,4.49
				c-0.65,0.51-1.14,1.6-1.09,2.42l0.34,5.44c0.05,0.83-0.36,2-0.89,2.63c-0.94,1.12-1.82,2.29-2.65,3.51
				c-0.47,0.68-1.5,1.22-2.32,1.18l-3.67-0.18c-0.83-0.04-1.77,0.54-2.11,1.3l-3.45,7.74c-0.31,0.69-0.04,1.48,0.59,1.86l0,0.01
				l4.07,2.35c0.13,0.33,0.17,0.7,0.1,1.05c-0.28,1.24-0.5,2.48-0.64,3.69c-0.09,0.82-0.63,1.95-1.24,2.51l-5.06,4.65
				c-0.61,0.56-0.99,1.68-0.85,2.49l0.95,5.52c0.06,0.36,0.23,0.61,0.46,0.75l-0.01,0l6.04,3.48l0.08-6.91
				c0.69-0.46,1.56-0.22,2.03,0.46c0.31,0.44,0.63,0.84,0.99,1.21c0.57,0.6,0.88,1.63,0.59,2.41l-2.58,6.98
				c-0.23,0.62,0,1.23,0.51,1.55l0,0.01l6.03,3.48l1.64-4.49l2.33-5.79c0.38-0.73,1.36-1.42,2.17-1.63c0.77-0.2,1.55-0.45,2.35-0.78
				c0.77-0.31,1.56,0.03,1.8,0.82l1.29,4.28c0.1,0.32,0.27,0.54,0.49,0.67l0,0l6.05,3.49l-1.06-6.69l1.85-1.45
				c0.65-0.51,1.14-1.6,1.09-2.42l-0.34-5.44c-0.05-0.83,0.36-2,0.89-2.63c0.94-1.12,2.35-1.72,3.18-2.93
				c0.47-0.68,0.97-1.8,1.8-1.76l3.67,0.18c0.83,0.04,1.77-0.54,2.11-1.3l3.45-7.74c0.34-0.76-0.01-1.63-0.77-1.96l-2.97-1.27
				c-0.76-0.33-1.2-1.24-1.02-2.04c0.28-1.24,0.5-2.48,0.64-3.69c0.09-0.82,0.63-1.95,1.24-2.51l5.06-4.66
				c0.43-0.4,0.74-1.08,0.84-1.73l4.6-3.59L316.89,167.52z M293.91,203.23c-6.19,4.87-12.12,3.54-13.24-2.96
				c-1.12-6.5,3.95-14.77,10.14-19.64c6.19-4.87,11.17-4.5,12.29,2.01C304.21,189.14,300.1,198.36,293.91,203.23z"/>
			<path id="XMLID_1915_" style="fill:#455A64;" d="M271.3,202l-5.01,4.6c-0.37,0.34-0.64,0.88-0.77,1.44l7.44,4.29l0-0.4
				c0.69-0.46,1.56-0.22,2.03,0.46c0,0,0,0.01,0.01,0.01l7.16-4.14L271.3,202z"/>
			<path id="XMLID_1914_" style="fill:#455A64;" d="M284.06,188.06c0.56-0.87,1.18-1.73,1.84-2.55l-7.13-4.12
				c-0.35,0.14-0.71,0.24-1.05,0.22l-3.67-0.18c-0.52-0.03-1.09,0.2-1.52,0.55l10.98,6.34L284.06,188.06z"/>
			<path id="XMLID_1943_" style="fill:#455A64;" d="M322.89,170.98c-0.28-0.16-0.65-0.13-1.03,0.12l-5.06,3.33
				c-0.69,0.45-1.55,0.22-2.03-0.46c-0.31-0.44-0.63-0.84-0.99-1.21c-0.57-0.6-0.88-1.63-0.59-2.41l0.48-1.29l2.17-1.43
				c0.39-0.25,0.77-0.27,1.05-0.1v-0.01L322.89,170.98z"/>
			<path id="XMLID_1912_" style="fill:#455A64;" d="M307.94,169.5c-0.06-0.06-0.11-0.14-0.17-0.21c-0.57-0.6-0.88-1.63-0.59-2.41
				l8.04-5.09l-6-3.46l0,0.01c-0.12-0.07-0.25-0.13-0.4-0.16l-3.81-0.85c-0.81-0.18-1.78,0.27-2.16,1l-3.58,6.83
				c-0.17,0.33-0.47,0.64-0.82,0.92l8.1,4.68L307.94,169.5z"/>
			<path id="XMLID_1911_" style="fill:#455A64;" d="M283.39,167.94l7.44,4.29l6.11-5.6c0.17-0.62,0.25-1.37,0.25-1.37l-6.02-3.47
				l0,0.01c-0.32-0.19-0.74-0.15-1.13,0.15l-5.71,4.49C283.9,166.77,283.57,167.35,283.39,167.94z"/>
			<path id="XMLID_1843_" style="fill:#37474F;" d="M324.32,177.28l-0.95-5.52c-0.14-0.82-0.82-1.11-1.51-0.65l-5.06,3.33
				c-0.69,0.46-1.56,0.22-2.03-0.46c-0.31-0.44-0.63-0.84-0.99-1.21c-0.57-0.6-0.88-1.63-0.59-2.41l2.58-6.98
				c0.29-0.78-0.14-1.55-0.94-1.73l-3.81-0.85c-0.81-0.18-1.78,0.27-2.16,1l-3.58,6.83c-0.38,0.73-1.36,1.42-2.17,1.63
				c-0.77,0.2-1.55,0.45-2.35,0.78c-0.77,0.31-1.56-0.03-1.8-0.82l-1.29-4.28c-0.24-0.79-0.96-1.02-1.61-0.51l-5.71,4.49
				c-0.65,0.51-1.14,1.6-1.09,2.42l0.34,5.44c0.05,0.83-0.36,2-0.89,2.63c-0.94,1.12-1.82,2.29-2.65,3.51
				c-0.47,0.68-1.5,1.22-2.32,1.18l-3.67-0.18c-0.83-0.04-1.77,0.54-2.11,1.3l-3.45,7.74c-0.34,0.76,0.01,1.63,0.77,1.96l2.97,1.27
				c0.76,0.32,1.2,1.24,1.02,2.04c-0.28,1.24-0.5,2.48-0.64,3.69c-0.09,0.82-0.63,1.95-1.24,2.51l-5.06,4.65
				c-0.61,0.56-0.99,1.68-0.85,2.49l0.95,5.52c0.14,0.82,0.82,1.11,1.51,0.65l5.06-3.33c0.69-0.46,1.56-0.22,2.03,0.46
				c0.31,0.44,0.63,0.84,0.99,1.21c0.57,0.6,0.88,1.63,0.59,2.41l-2.58,6.98c-0.29,0.78,0.14,1.55,0.94,1.73l3.81,0.85
				c0.81,0.18,1.78-0.27,2.16-1l3.59-6.83c0.38-0.73,1.36-1.42,2.17-1.63c0.77-0.2,1.55-0.45,2.35-0.78
				c0.77-0.31,1.56,0.03,1.8,0.82l1.29,4.28c0.24,0.79,0.96,1.02,1.61,0.51l5.71-4.49c0.65-0.51,1.14-1.6,1.09-2.42l-0.34-5.44
				c-0.05-0.83,0.36-2,0.89-2.63c0.94-1.12,1.82-2.29,2.65-3.51c0.47-0.68,1.5-1.22,2.32-1.18l3.67,0.18
				c0.83,0.04,1.77-0.54,2.11-1.3l3.45-7.74c0.34-0.76-0.01-1.63-0.77-1.96l-2.97-1.27c-0.76-0.32-1.2-1.24-1.02-2.05
				c0.28-1.24,0.5-2.48,0.64-3.69c0.09-0.82,0.63-1.95,1.24-2.51l5.06-4.66C324.08,179.21,324.46,178.09,324.32,177.28z
				 M299.92,206.7c-6.19,4.87-12.12,3.54-13.24-2.96c-1.12-6.5,2.99-15.72,9.18-20.59c6.19-4.87,12.12-3.54,13.24,2.96
				C310.22,192.61,306.11,201.83,299.92,206.7z"/>
		</g>
		<g id="XMLID_1694_">
			<path id="XMLID_1813_" style="fill:#263238;" d="M288.3,114.07l-5.92-3.42c0,0,0,0,0,0.01c-0.24-0.14-0.57-0.15-0.93,0.01
				l-10.7,4.82c-0.76,0.34-1.53-0.04-1.78-0.83c-0.62-1.97-1.42-3.74-2.39-5.31c-0.43-0.71-0.53-1.85-0.16-2.59l7.13-14.38
				c0.37-0.74,0.08-1.68-0.63-2.09l-7.74-4.47c-0.72-0.41-1.67-0.19-2.13,0.5l-8.89,13.37c-0.46,0.69-1.5,1.18-2.33,1.16
				c-1.01-0.03-2.04,0.03-3.1,0.15v-9.77l-5.94-3.42v0c-0.26-0.14-0.61-0.12-0.97,0.09l-12.02,6.94c-0.72,0.41-1.36,1.42-1.43,2.24
				l-1.2,13.38c-0.07,0.83-0.64,1.94-1.25,2.5c-2.34,2.15-4.57,4.53-6.68,7.07c-0.53,0.64-1.58,0.94-2.36,0.67l-7.72-2.69
				c-0.78-0.27-1.75,0.09-2.17,0.8l-8.84,15.31c-0.41,0.72-0.24,1.74,0.39,2.28l6.19,5.34c0.63,0.54,0.89,1.6,0.6,2.38
				c-1.15,3.09-2.09,6.21-2.78,9.32c-0.18,0.81-0.86,1.85-1.54,2.33l-10.98,7.73c-0.68,0.48-1.23,1.53-1.23,2.36v13.88
				c0,0.43,0.17,0.74,0.43,0.89c0,0,0,0,0,0l5.92,3.41l8.79-4.16c0.34,0.71,0.7,1.4,1.1,2.04c0.43,0.71,0.53,1.85,0.16,2.59
				l-7.13,14.38c-0.37,0.74-0.08,1.68,0.63,2.09l7.74,4.47c0.72,0.41,1.67,0.19,2.13-0.5l8.89-13.37c0.46-0.69,1.5-1.18,2.33-1.16
				c1.84,0.05,3.77-0.14,5.79-0.59c0.81-0.18,1.52,0.31,1.6,1.13l1.17,11.68c0.04,0.4,0.21,0.68,0.46,0.82l0,0l5.91,3.41l7.1-10.43
				c0.72-0.41,1.36-1.42,1.43-2.24l1.2-13.38c0.07-0.83,0.77-1.7,1.54-2.02c3.43-1.44,6.91-3.92,9.34-6.55
				c0.56-0.61,1.61-0.91,2.39-0.64l4.74,1.67c0.78,0.28,1.75-0.08,2.17-0.8l8.84-15.31c0.41-0.72,0.24-1.74-0.39-2.28l-4.07-3.51
				c-0.63-0.54-0.89-1.6-0.66-2.4c0.98-3.43,1.2-7.9,1.1-11.09c-0.02-0.83,0.48-1.89,1.15-2.36l10.98-7.73
				c0.68-0.48,1.23-1.53,1.23-2.36l5.25-6.29L288.3,114.07z M235.81,169.09c-11.22,6.48-18.19,1.88-18.19-11.07
				c0-12.95,9.27-28.82,20.48-35.29c11.22-6.48,18.01-1.76,18.01,11.19C256.11,146.87,247.02,162.61,235.81,169.09z"/>
			<path id="XMLID_1910_" style="fill:#455A64;" d="M271.19,97.15l2.36-4.76c0.37-0.74,0.08-1.68-0.63-2.09l-7.74-4.47
				c-0.72-0.41-1.67-0.19-2.13,0.5l-8.89,13.37c-0.14,0.22-0.36,0.4-0.59,0.57l9.95,5.74L271.19,97.15z"/>
			<path id="XMLID_1909_" style="fill:#455A64;" d="M201.86,154.84c-0.26,0.36-0.55,0.69-0.85,0.9l-10.98,7.73
				c-0.28,0.19-0.52,0.5-0.72,0.83l6.7,3.87l14.58-8.29L201.86,154.84z"/>
			<path id="XMLID_1907_" style="fill:#455A64;" d="M208.53,117.9c-0.62,0.02-1.24,0.36-1.55,0.89l-8.84,15.31
				c-0.19,0.33-0.25,0.73-0.2,1.12l7.62,4.4l12.1-16.36L208.53,117.9z"/>
			<path id="XMLID_1906_" style="fill:#455A64;" d="M228.6,96.28l9.43,5.44l10.71-6.18v-4.31l-5.94-3.42v0
				c-0.26-0.14-0.61-0.12-0.97,0.09l-12.02,6.94C229.3,95.12,228.86,95.69,228.6,96.28z"/>
			<path id="XMLID_1808_" style="fill:#37474F;" d="M288.72,128.85v-13.88c0-0.83-0.61-1.22-1.37-0.88l-10.7,4.82
				c-0.76,0.34-1.53-0.04-1.78-0.83c-0.62-1.97-1.42-3.74-2.39-5.3c-0.43-0.71-0.53-1.85-0.16-2.59l7.13-14.38
				c0.37-0.74,0.08-1.68-0.63-2.09l-7.74-4.47c-0.72-0.41-1.67-0.19-2.13,0.5l-8.89,13.37c-0.46,0.69-1.5,1.18-2.33,1.16
				c-1.84-0.05-3.77,0.14-5.79,0.59c-0.81,0.18-1.52-0.31-1.6-1.13l-1.17-11.68c-0.08-0.82-0.73-1.16-1.45-0.74l-12.02,6.94
				c-0.72,0.41-1.36,1.42-1.43,2.24l-1.2,13.38c-0.07,0.83-0.64,1.94-1.25,2.5c-2.34,2.15-4.57,4.53-6.68,7.07
				c-0.53,0.64-1.58,0.94-2.36,0.67l-7.72-2.69c-0.78-0.27-1.75,0.09-2.17,0.8l-8.84,15.31c-0.41,0.72-0.24,1.74,0.39,2.28
				l6.19,5.34c0.63,0.54,0.89,1.6,0.6,2.38c-1.15,3.09-2.09,6.21-2.78,9.32c-0.18,0.81-0.86,1.85-1.54,2.33l-10.98,7.73
				c-0.68,0.48-1.23,1.53-1.23,2.36v13.88c0,0.83,0.61,1.22,1.37,0.88l10.7-4.82c0.76-0.34,1.53,0.04,1.78,0.83
				c0.62,1.97,1.42,3.74,2.38,5.31c0.43,0.71,0.53,1.85,0.16,2.59l-7.13,14.38c-0.37,0.74-0.08,1.68,0.63,2.09l7.74,4.47
				c0.72,0.41,1.67,0.19,2.13-0.5l8.89-13.37c0.46-0.69,1.5-1.18,2.33-1.16c1.84,0.05,3.77-0.14,5.79-0.59
				c0.81-0.18,1.52,0.31,1.6,1.13l1.17,11.68c0.08,0.82,0.73,1.16,1.45,0.74l12.02-6.94c0.72-0.41,1.36-1.42,1.43-2.24l1.2-13.38
				c0.07-0.83,0.64-1.94,1.25-2.5c2.34-2.15,4.57-4.53,6.68-7.07c0.53-0.64,1.58-0.94,2.36-0.67l7.72,2.69
				c0.78,0.27,1.75-0.09,2.17-0.8l8.84-15.31c0.41-0.72,0.24-1.74-0.39-2.28l-6.19-5.34c-0.63-0.54-0.89-1.6-0.6-2.38
				c1.15-3.09,2.09-6.21,2.78-9.32c0.18-0.81,0.86-1.85,1.54-2.33l10.98-7.73C288.17,130.74,288.72,129.68,288.72,128.85z
				 M241.72,172.5c-11.22,6.48-20.31,1.23-20.31-11.72c0-12.95,9.09-28.7,20.31-35.17c11.22-6.47,20.31-1.23,20.31,11.72
				C262.03,150.27,252.93,166.02,241.72,172.5z"/>
			<path id="XMLID_1922_" style="fill:#455A64;" d="M288.3,114.07L288.3,114.07c-0.24-0.15-0.58-0.16-0.95,0.01l-10.7,4.82
				c-0.75,0.34-1.53-0.03-1.78-0.82c-0.42-1.35-0.93-2.6-1.53-3.76l8.1-3.65c0.36-0.16,0.69-0.15,0.93-0.01v-0.01L288.3,114.07z"/>
		</g>
	</g>
</g>
<g id="Character_2">
	<g id="XMLID_1827_">
		<g id="XMLID_2148_">
			<g id="XMLID_2203_">
				<path id="XMLID_2209_" style="fill:#263238;" d="M372.54,374.67v-1.14c-0.45,1.34-2.53,7.08-5.69,9.96
					c-2.51,2.29-5.93,4.93-6.8,7.49c-0.91,2.65,4.76,3.55,7.11,3.13c2.72-0.48,6.25-2.03,8.17-4.39c1.35-1.66,2.21-3.62,3.17-4.93
					c0.96-1.3,3.18-2.76,3.7-4.27c0.29-0.83-0.05-2.64-0.46-4.18c-0.37-1.41-0.77-2.95-1.25-2.82c0,0.17,0,0.87,0,0.87
					c-0.58,0.64-2.18,1.28-3.98,1.34C375.35,375.79,372.53,375.56,372.54,374.67z"/>
				<path id="XMLID_2208_" style="fill:#FFA8A7;" d="M364.58,385.51c0.78-0.69,1.56-1.37,2.27-2.02c2.21-2.01,3.89-5.42,4.85-7.75
					c0.55-1.33,0.83-2.75,0.83-4.19v-4.54h7.96v7.38v0v0v0.2l-0.04,0.02c-0.38,1.65-4.03,6.05-6.11,8.92
					c-1.39,1.92-4.03,4.37-7.19,4.79C364.16,388.72,362.63,387.78,364.58,385.51z"/>
				<path id="XMLID_2207_" style="fill:#263238;" d="M341.5,366.83v-1.14c-0.45,1.34-2.53,7.08-5.69,9.96
					c-2.51,2.29-5.93,4.93-6.8,7.49c-0.91,2.65,4.76,3.55,7.11,3.13c2.72-0.48,6.25-2.03,8.17-4.39c1.35-1.66,2.21-3.62,3.17-4.93
					c0.96-1.3,3.18-2.76,3.7-4.27c0.29-0.83-0.05-2.64-0.46-4.18c-0.37-1.41-0.77-2.95-1.25-2.82c0,0.17,0,0.87,0,0.87
					c-0.58,0.64-2.18,1.28-3.98,1.34C344.31,367.94,341.49,367.71,341.5,366.83z"/>
				<path id="XMLID_2206_" style="fill:#FFA8A7;" d="M333.54,377.66c0.78-0.69,1.56-1.37,2.27-2.02c2.21-2.01,3.89-5.42,4.85-7.75
					c0.55-1.33,0.83-2.75,0.83-4.19v-4.54h7.96v7.38v0v0v0.2l-0.04,0.02c-0.38,1.65-4.03,6.05-6.11,8.92
					c-1.39,1.92-4.03,4.37-7.19,4.79C333.12,380.88,331.59,379.93,333.54,377.66z"/>
				<path id="XMLID_2205_" style="fill:#37474F;" d="M378.91,251c6.17,13.47-0.22,60.94-0.22,60.94c0.19,2.19,2.69,6.49,3.62,16.11
					c1.1,11.37-1.73,39.92-1.73,39.92s-3.68,2.41-8.04,0.32c0,0-7.58-43-9.01-54.3c-1.24-9.87-3.63-31.56-3.63-31.56l-6.79,31.51
					c0,0,1.74,5.53,2.15,9.74c0.64,6.65-5.8,37.61-5.8,37.61s-2.75,1.01-7.96,0.24c0,0-2.28-41.09-2.88-49.1
					c-1.01-13.45,2.56-55.43,5.03-63.39L378.91,251z"/>
				<path id="XMLID_2204_" style="fill:#263238;" d="M359.89,282.43l-2-12.51c0,0-8.47-1.76-12.32-5.37c0,0,4.03,5.01,10.02,6.66
					l2.25,9.63l-3.93,29.17L359.89,282.43z"/>
			</g>
			<g id="XMLID_2199_">
				<g id="XMLID_2234_">
					<path id="XMLID_2236_" style="fill:#FFA8A7;" d="M346.85,242.51c4.67-15.54,10.63-38.68,8.38-38.68s-5.7-0.21-8.23,2.33
						c-4.98,5-5.89,14.28-6.94,19.57c-1.05,5.29-1.79,9.47-3.46,17.33c-1.27,5.97-2.81,13.16-5.07,17.77
						c-0.4,0.82-1.11,1.44-1.95,1.78c-2.26,0.92-3.3,2.09-5.11,3.43c-1.42,1.05-2.49,1.18-2.41,1.61c0.11,0.55,0.83,1.53,2.38,1.34
						c0.78-0.1,1.84-0.51,3.16-1.07c0,0-1.29,2.35-3.84,4.57c-3.46,3.01-3.96,5.13,1.8,6.18c3.61,0.66,6.87-1.07,10.97-8.56
						c1.18-2.16,3.03-5.56,4.09-8.5C343.36,253.98,345.44,247.21,346.85,242.51z"/>
				</g>
				<path id="XMLID_2201_" style="fill:#27DEBF;" d="M368.03,204.2L368.03,204.2c7.91,0.54,8.46,4.36,10.44,8.54
					c1.51,3.18,1.52,6.87,0.37,10.19l-5.51,15.94c0,0,2.58,6.24,5.58,12.13c-13.83,7.72-31.1,3.66-35.26-1.97
					c-0.18-1.2,0.89-10.54,1.55-16.64c-2.44-6.11-3.08-9.98-2.05-14.02c1.91-7.5,9.31-14.8,12.59-14.54L368.03,204.2z"/>
				<g id="XMLID_2149_">
					<g id="XMLID_2192_">
						<path id="XMLID_2196_" style="fill:#263238;" d="M360.43,197.64h3.07c8.93,0,16.17-7.24,16.17-16.17v0
							c0-8.98-7.28-16.25-16.25-16.25h-2.89c-8.98,0-16.25,7.28-16.25,16.25l0,0C344.26,190.4,351.5,197.64,360.43,197.64z"/>
					</g>
					<path id="XMLID_2224_" style="fill:#263238;" d="M388.32,206.16L388.32,206.16c-5.27,0-9.55-4.28-9.55-9.55v-20.45l0,0
						c5.27,0,9.55,4.28,9.55,9.55V206.16z"/>
					<path id="XMLID_2268_" style="fill:#263238;" d="M380.52,172.53l-2.39,3.85c1.06,0.71,2.46,0.42,3.12-0.64
						C381.9,174.68,381.58,173.24,380.52,172.53z"/>
					<g id="XMLID_2190_">
						<path id="XMLID_2191_" style="fill:#FFA8A7;" d="M350.08,172.38c-1.87,1.1-4.18,5.81-3.95,15.66
							c0.19,8.35,2.9,10.42,4.26,11.01c1.36,0.59,3.98,0.23,6.53-0.19v5.01c0,0-3.52,4.09-3.3,6.39c0.22,2.3,5.09,2.84,8.39,0.6
							c3.3-2.25,5.41-5.66,5.41-5.66v-12.12c0,0,1.72,2.3,4.54,0.43c2.82-1.87,2.92-6.5,1.29-8.16c-1.64-1.66-5.16-1.14-5.82,1.16
							c0,0-4.07,0.15-9.48-2.83C352.52,180.71,350.44,175.62,350.08,172.38z"/>
					</g>
					<g id="XMLID_2188_">
						<path id="XMLID_2189_" style="fill:#263238;" d="M356.39,185.95c-0.03,0.6,0.42,1.11,0.99,1.14c0.58,0.03,1.07-0.44,1.1-1.04
							c0.03-0.6-0.42-1.11-0.99-1.14C356.91,184.88,356.42,185.34,356.39,185.95z"/>
					</g>
					<g id="XMLID_2186_">
						<path id="XMLID_2187_" style="fill:#F28F8F;" d="M355.17,193.03l-2.44,0.78c0.2,0.7,0.91,1.09,1.59,0.88
							C354.99,194.47,355.37,193.73,355.17,193.03z"/>
					</g>
					<g id="XMLID_2180_">
						<path id="XMLID_2182_" style="fill:#263238;" d="M347.77,182.72l2.13-1.47c-0.39-0.61-1.18-0.77-1.77-0.36
							C347.55,181.29,347.38,182.11,347.77,182.72z"/>
					</g>
					<g id="XMLID_2160_">
						<path id="XMLID_2161_" style="fill:#263238;" d="M348.26,185.19c-0.03,0.6,0.42,1.11,0.99,1.14c0.58,0.03,1.07-0.44,1.1-1.04
							c0.03-0.6-0.42-1.11-0.99-1.14C348.79,184.12,348.29,184.59,348.26,185.19z"/>
					</g>
					<g id="XMLID_2158_">
						<polygon id="XMLID_2159_" style="fill:#F28F8F;" points="353.39,184.59 353.23,190.91 349.9,189.88 						"/>
					</g>
					<g id="XMLID_2156_">
						<path id="XMLID_2157_" style="fill:#F28F8F;" d="M356.92,198.87c2.69-0.35,8.21-1.94,9.08-4.13c0,0-0.29,1.37-1.94,2.79
							c-1.65,1.42-7.14,3.01-7.14,3.01V198.87z"/>
					</g>
				</g>
				<path id="XMLID_2200_" style="opacity:0.1;" d="M364.49,252.5c4.54-1.08,7.43-5.67,6.23-10.18c-0.05-0.17-0.09-0.32-0.14-0.43
					c-0.89-2.14-2.8-1.86-2.8-1.86l0,0c1.79-1.19,3.04-3.04,3.46-5.15l1.68-8.43c0,0-3.12-9.9-2.8-13.3l7.94,0.46
					c0,0,0.4,0.28,1.03,0.71c0.87,2.78,0.74,5.82-0.23,8.61l-5.51,15.94c0,0,2.58,6.24,5.58,12.13
					c-10.19,5.69-22.25,4.98-29.55,1.96C355.13,253.86,360.47,253.45,364.49,252.5z"/>
				<path id="XMLID_1849_" style="fill:#37474F;" d="M375.92,244.78c-2.93,0.78-11.81,1.83-12.47-4.41
					c-0.43-4.08-0.23-10.26,0.04-14.93c0.41-7.37,3.04-14.46,7.61-20.26c0.22-0.28,0.35-0.44,0.35-0.44s-1.28-1.05-4.04-0.56
					c0,0-6,5.69-7.83,13.97c-3.97-0.58-8.99-1.01-12.33-1.26c2.8-9.18,9.66-13,9.66-13c-1.48-0.78-3.52-0.06-3.52-0.06
					c-5.52,3.15-8.42,8.48-9.76,12.81c-3.18,8.82-3.07,41.64-3.01,53.3l5.49-8.74l35.03,0
					C380.69,248.66,375.92,244.78,375.92,244.78z"/>
			</g>
			<g id="XMLID_2197_">
				<path id="XMLID_2198_" style="fill:#FFA8A7;" d="M393.04,236.25c0,0-3.74-7.98-8.92-19.8c-3.75-8.54-4.59-10.47-10.55-11.39
					l-2.11-0.33c-2.83,9.29-0.88,13.49,2.85,19.85l7.35,14.26C384.58,238.27,393.1,237.14,393.04,236.25z"/>
			</g>
			<path id="XMLID_1821_" style="fill:#FFA8A7;" d="M381.66,238.85c2.19,4.39,4.06,7.11,6.71,7.82c2.65,0.71,24.54,0.46,24.54,0.46
				v-8.28l-20.83-3.16L381.66,238.85z"/>
		</g>
		<g id="XMLID_1817_">
			<path id="XMLID_1728_" style="fill:#27DEBF;" d="M425.43,329.76h-34.44v67.09c-0.16,2.66,1.5,5.35,5.02,7.39
				c6.73,3.89,17.64,3.89,24.37,0c3.37-1.95,5.05-4.49,5.05-7.04h0V329.76z"/>
			<path id="XMLID_1723_" style="fill:#27DEBF;" d="M421.81,323.66h0.02c-3.81-2.49-1.44-8.55-1.44-8.55h-24.37
				c0,0,2.3,6.02-1.44,8.55h0.02c-5.25,3.9-4.79,9.54,1.42,13.13c6.73,3.89,17.64,3.89,24.37,0
				C426.59,333.2,427.06,327.57,421.81,323.66z"/>
			<path id="XMLID_1730_" style="opacity:0.05;" d="M421.81,323.66h0.02c-3.81-2.49-1.44-8.55-1.44-8.55h-24.37
				c0,0,2.3,6.02-1.44,8.55h0.02c-5.25,3.9-4.79,9.54,1.42,13.13c6.73,3.89,17.64,3.89,24.37,0
				C426.59,333.2,427.06,327.57,421.81,323.66z"/>
			<path id="XMLID_1814_" style="opacity:0.05;" d="M419.71,318.1c0.16-1.66,0.67-2.98,0.67-2.98h-24.37c0,0,0.5,1.31,0.65,2.97
				C403.2,321.5,413.16,321.5,419.71,318.1z"/>
			<path id="XMLID_1725_" style="fill:#27DEBF;" d="M425.43,303.39h-2.04c-0.78-0.84-1.78-1.63-3.01-2.35
				c-6.73-3.89-17.64-3.89-24.37,0c-1.23,0.71-2.23,1.5-3.01,2.35h-2.04v4.69l0,0c0,2.55,1.68,5.09,5.05,7.04
				c6.73,3.89,17.64,3.89,24.37,0c3.37-1.94,5.05-4.49,5.05-7.04l0,0V303.39z"/>
			<g id="XMLID_1729_">
				<path id="XMLID_1720_" style="fill:#27DEBF;" d="M396.01,310.42c6.73,3.89,17.64,3.89,24.37,0c6.73-3.89,6.73-10.19,0-14.07
					c-6.73-3.89-17.64-3.89-24.37,0C389.28,300.24,389.28,306.54,396.01,310.42z"/>
				<path id="XMLID_1724_" style="opacity:0.4;fill:#FFFFFF;" d="M396.01,310.42c6.73,3.89,17.64,3.89,24.37,0
					c6.73-3.89,6.73-10.19,0-14.07c-6.73-3.89-17.64-3.89-24.37,0C389.28,300.24,389.28,306.54,396.01,310.42z"/>
			</g>
			<path id="XMLID_1722_" style="opacity:0.2;" d="M408.21,399.83L408.21,399.83c-1.86,0-3.36-1.5-3.36-3.36v-47.92
				c0-1.86,1.5-3.36,3.36-3.36l0,0c1.86,0,3.36,1.5,3.36,3.36v47.92C411.56,398.32,410.06,399.83,408.21,399.83z"/>
			<path id="XMLID_1726_" style="opacity:0.2;" d="M419.68,397.8L419.68,397.8c-1.61,0.58-2.91-0.24-2.91-1.85v-48.82
				c0-1.61,1.3-3.38,2.91-3.97l0,0c1.61-0.58,2.91,0.24,2.91,1.85v48.82C422.59,395.44,421.29,397.22,419.68,397.8z"/>
			<path id="XMLID_1727_" style="opacity:0.2;" d="M396.73,397.8L396.73,397.8c1.61,0.58,2.91-0.24,2.91-1.85v-48.82
				c0-1.61-1.3-3.38-2.91-3.97l0,0c-1.61-0.58-2.91,0.24-2.91,1.85v48.82C393.82,395.44,395.12,397.22,396.73,397.8z"/>
			<g id="XMLID_1816_">
				<path id="XMLID_1752_" style="fill:#E0E0E0;" d="M412.91,182.71l-7.04-4.06l-4.44,20.89c0,0,4.44,7.25,4.44,11.94v89.12
					l4.65,5.43l2.38-1.37v-89.12c0-4.69,4.44-6.82,4.44-6.82L412.91,182.71z"/>
				<path id="XMLID_1753_" style="fill:#EBEBEB;" d="M410.52,184.09l-7.04-4.06l-4.44,20.89c0,0,4.44,7.25,4.44,11.94v89.12
					l7.04,4.06v-89.12c0-4.69,4.44-6.82,4.44-6.82L410.52,184.09z"/>
				<polygon id="XMLID_1731_" style="fill:#FAFAFA;" points="403.49,180.02 405.87,178.65 412.91,182.71 410.52,184.09 				"/>
				<polygon id="XMLID_1815_" style="fill:#F5F5F5;" points="412.91,182.71 410.52,184.09 414.96,210.1 417.34,208.73 				"/>
			</g>
		</g>
		<path id="XMLID_1819_" style="fill:#FFA8A7;" d="M412.91,232.28c0.36-1.57,2.85-2.46,2.6,0.17c-0.25,2.62,1.01,4.45,1.37,5.67
			c0.75,2.57,0.58,7.42-0.43,8.37c-1.01,0.95-2.3,2.06-4.23,1.92c-1.92-0.15-3.28-0.6-5.27-2.15c-1.62-1.26-3.36-8.5,0.41-7.47
			c5.59,1.53,5.56-2.5,5.56-2.5V232.28z"/>
	</g>
</g>
<g id="Character_1">
	<g id="XMLID_2067_">
		<g id="XMLID_1884_">
			<g id="XMLID_1918_">
				<g id="XMLID_2047_">
					<path id="XMLID_1916_" style="fill:#FFA8A7;" d="M229.06,256.02c3.93,0.79,6.26,3.68,10.99,11.04
						c4.73,7.36,12.08,19.93,12.08,19.93l18.38,7.04l-0.79,8.27c0,0-20.05-3.56-22.8-5.6c-2.74-2.04-13.37-17.42-13.37-17.42
						L229.06,256.02z"/>
					<path id="XMLID_2059_" style="fill:#E6E6E6;" d="M225.77,254.51c4.08,0.72,8.12,1.71,10.62,5.6
						c2.51,3.88,11.66,18.75,11.66,18.75s-3.34,7.82-9.41,9l-8.74-12.59L225.77,254.51z"/>
					<path id="XMLID_2049_" style="fill:#F5F5F5;" d="M210.81,254.84c-1.4,0.34-2.81,0.42-4.05,0.67c-6.07,1.22-7.2,4.38-7.34,11.71
						c-0.24,12.27-0.03,40.67-0.03,40.67c5.41,3.94,25.39,6.34,36.77-1.97c0,0-0.58-32.67-0.58-38.46c0-5.79-3.22-12.74-12.1-13.26
						L210.81,254.84z"/>
				</g>
				<g id="XMLID_2071_">
					
						<rect id="XMLID_2078_" x="197.99" y="408.01" transform="matrix(-1 -1.224647e-16 1.224647e-16 -1 403.8247 829.4583)" style="fill:#FFA8A7;" width="7.85" height="13.44"/>
					<polygon id="XMLID_2077_" style="fill:#FFA8A7;" points="230.1,411.27 237.94,411.54 238.34,397.32 230.1,397.05 					"/>
					<path id="XMLID_1898_" style="fill:#37474F;" d="M237.3,305.93L237.3,305.93l-1.4-31.89l-24.7,3.98c0,0,0.22,5.85-0.87,15.1
						c-0.47,3.94-4.25,9.31-10.94,11.08c0,0-0.41,4.78-0.06,15.49c0.12,3.72-1.62,44.85-1.62,44.85c-0.18,2.16-2.26,5.99-2.42,13.76
						c-0.23,11.27,2.39,36.43,2.39,36.43s3.81,2.23,8.74,0.17c0,0,5.28-36.16,6.68-47.31c1.23-9.73,6.35-37.11,6.35-37.11l6,32.9
						c0,0-1.45,5.81-0.97,12.48c0.37,5.16,5.14,31,5.14,31s3.7,2.51,9.06,0.69c0,0,0.47-40.56,0.56-45.3
						C239.33,356.87,237.3,305.93,237.3,305.93z"/>
					<path id="XMLID_1904_" style="fill:#37474F;" d="M235.89,274.04c-0.26-6.31-1.14-12.14-6.58-17.6
						c-1.48-1.48-3.5-2.28-5.59-2.28h-1.16c0,0,5.46,4.33,7.59,10.61c1.85,5.45,1.73,12.24,1.73,12.24L235.89,274.04z"/>
					<path id="XMLID_2075_" style="fill:#263238;" d="M205.84,417.57c0,0,0-1.12,0-1.12c0.42-0.01,0.68,0.41,0.84,1.42
						c0.11,0.72,0.22,1.27,0.46,2.22c0.36,1.45,0.69,2.34,1.37,4.02c1.11,2.74,2.04,3.75,4.58,6.95c0.6,0.76,1.96,1.96,2.44,2.81
						c0.47,0.84,0.64,3.2-0.16,3.73c-2.96,1.98-7.47,2.03-10.65,1.1c-2.45-0.72-4.22-2.67-4.62-5.19c-0.12-0.72-0.07-1.46-0.16-2.19
						c-0.19-1.66-1.02-3.18-1.97-4.56c-0.55-0.8-1.14-1.58-1.51-2.48c-0.66-1.61-0.13-3.43,0.29-5.04c0.36-1.39,0.76-2.91,1.23-2.78
						c0,0.17,0,0.86,0,0.86c0.57,0.63,2.15,1.26,3.93,1.33C203.06,418.68,205.85,418.45,205.84,417.57z"/>
					<path id="XMLID_2074_" style="fill:#263238;" d="M238.03,409.12c0.41,0.01,0.74,0.59,1.64,1.56c1.09,1.18,2.86,2.44,4.62,3.32
						c2.94,1.47,8.66,3.74,11.24,4.9c1.62,0.73,1.54,2.68-0.13,3.79c-1.67,1.11-5.7,1.91-10.55,0.83c-2.64-0.59-6.07-3.03-8.25-2.89
						c-2.17,0.13-6.24,0.1-7.85-1.01c-1.6-1.11-0.96-3.47-0.51-5.5c0.49-2.21,1.11-5.67,1.85-5.52v0.76
						c0.94,1.43,5.81,2.01,7.89,0.96L238.03,409.12z"/>
					<path id="XMLID_2073_" style="fill:#263238;" d="M219.43,330.48c0,0,6.27-1.77,10.93-6.27c0,0-2.11,3.95-8.38,7.63l3.04,29.27
						L219.43,330.48z"/>
				</g>
				<g id="XMLID_1932_">
					<g id="XMLID_1958_">
						<circle id="XMLID_2046_" style="fill:#263238;" cx="224.72" cy="228.75" r="10.79"/>
						<path id="XMLID_2044_" style="fill:#263238;" d="M206.07,236.42c0,0,1.75,8.21,2.45,9.56c0.7,1.35,2.15,1.73,2.15,1.73
							l-0.12-5.78L206.07,236.42z"/>
						<path id="XMLID_2042_" style="fill:#263238;" d="M208.26,224.65c0,0-1.88-0.32-3.35,1.18c-1.44,1.47-0.64,6.08,1.16,10.59
							l3.29,0.38L208.26,224.65z"/>
						<path id="XMLID_2038_" style="fill:#FFA8A7;" d="M210.35,236.8c-0.66,0.39-1.6-0.87-2.42-1.73c-0.81-0.85-3.47-2.02-4.8,0.78
							c-1.35,2.85,1.17,6.61,3.26,7.27c3.61,1.13,4.15-1.18,4.15-1.18l0.27,13.41l0,0c4.48,5.75,16.93,5.26,11.74-0.74l-0.01-3.96
							c0,0,3.27,0.5,4.86,0.25c2.65-0.41,4.32-2.5,5.13-5.37c1.29-4.61,1.78-8.34,0.69-17.41c-1.2-9.94-12.77-10.05-19.01-6.11
							C207.97,225.93,210.35,236.8,210.35,236.8z"/>
						<path id="XMLID_1721_" style="fill:#37474F;" d="M211.18,279.96c0.18-8.16-1.68-20.26-4.42-24.44c0,0,1.94-0.96,4.05-0.67
							c0,0,5.14,8,4.92,25.11L211.18,279.96z"/>
						<path id="XMLID_2036_" style="fill:#263238;" d="M210.35,237.91c-0.33,0.01-1.6-2.09-2.42-2.84
							c-1.14-1.04,0.33-10.42,0.33-10.42s-1.41-2.65,0.78-5.07c1.56-1.72,3.74-3.81,10.82-2.98c5.05,0.6,10.54,2.17,14.98-0.01
							c0.66,2.76,0.13,5.84-2.63,8.02c0,0-1.61,1.04-5.83,1.55c-4.23,0.51-10.81-0.1-11.71-0.22c-1.23-0.17-1.49,1.02-2.15,4.26
							C211.95,233.06,211.46,237.89,210.35,237.91z"/>
						<path id="XMLID_1965_" style="fill:#263238;" d="M208.27,225.38l-3.99-2.14c0.57-1.14,1.92-1.59,3.02-1
							C208.4,222.83,208.83,224.24,208.27,225.38z"/>
						<path id="XMLID_1959_" style="fill:#F28F8F;" d="M222.55,250.64c0,0-5.92-1.19-7.99-2.29c-1.39-0.74-2.53-2.01-2.86-2.83
							c0,0,0.39,1.76,1.63,3.34c1.51,1.94,9.23,3.36,9.23,3.36L222.55,250.64z"/>
					</g>
					<g id="XMLID_1935_">
						<path id="XMLID_1957_" style="fill:#263238;" d="M222.32,236.07c0,0.68-0.53,1.23-1.19,1.23c-0.66,0-1.19-0.56-1.19-1.24
							c0-0.68,0.53-1.23,1.19-1.23C221.79,234.83,222.32,235.39,222.32,236.07z"/>
						<path id="XMLID_1953_" style="fill:#263238;" d="M221.07,231.59l-2.54,1.4c-0.37-0.73-0.11-1.63,0.59-2.02
							C219.82,230.58,220.69,230.86,221.07,231.59z"/>
						<path id="XMLID_1952_" style="fill:#F28F8F;" d="M222.01,243.51l2.71,1.02c-0.27,0.78-1.09,1.18-1.84,0.9
							C222.13,245.15,221.74,244.29,222.01,243.51z"/>
						<path id="XMLID_1950_" style="fill:#263238;" d="M232.91,232.58l-2.31-1.78c0.47-0.66,1.37-0.8,2.01-0.31
							C233.24,230.98,233.38,231.91,232.91,232.58z"/>
						<path id="XMLID_1945_" style="fill:#263238;" d="M232.19,235.73c0,0.68-0.53,1.23-1.19,1.23c-0.66,0-1.19-0.56-1.19-1.24
							c0-0.68,0.53-1.23,1.19-1.23C231.66,234.5,232.19,235.05,232.19,235.73z"/>
						<polygon id="XMLID_1944_" style="fill:#F28F8F;" points="225.84,234.83 226.23,241.97 229.95,240.7 						"/>
					</g>
				</g>
			</g>
		</g>
		<g id="XMLID_1903_">
			<path id="XMLID_1900_" style="fill:#455A64;" d="M282.46,248.09c0.01-2.19,1.84-5.26,1.28-6.9l-4.06-2.35l-8.13,20.45l-8.3,4.72
				l-4.1-5.98l12.27-18.31l-4.06-2.35c-0.51,0.24-1.03,0.5-1.56,0.8c-9.27,5.27-16.84,18.25-16.91,29
				c-0.04,5.42,1.85,9.22,4.9,10.99l0,0l4.05,2.34l0.47-1.23c0.1,0,0.2,0.01,0.3,0v95.15c-5.7,6.35-9.67,15.26-9.72,23.03
				c-0.03,4.03,1,7.16,2.78,9.24l4.06,2.35l4.07-22.8l8.3-4.72l4.1,5.98l-8.21,20.65l4.06,2.35c0,0,14.34-21.4,14.41-32.14
				c0.02-3.16-0.62-5.75-1.75-7.73l1.01-0.85l-4.03-2.33l0.01,0.01c-1.42-0.86-3.09-1.28-4.96-1.21v-95.15
				C278.44,264.77,282.41,255.86,282.46,248.09z"/>
			<polygon id="XMLID_1899_" style="fill:#263238;" points="258.6,374.43 262.66,376.78 262.66,281.63 258.6,279.28 			"/>
			<path id="XMLID_1905_" style="fill:#37474F;" d="M276.8,368.62v-95.15c5.7-6.35,9.67-15.26,9.72-23.03
				c0.03-4.03-1-7.16-2.78-9.24l-8.13,20.45l-8.3,4.72l-4.1-5.98l8.21-20.65c-0.51,0.24-1.03,0.5-1.56,0.8
				c-9.27,5.27-16.84,18.25-16.91,29c-0.05,7.88,3.94,12.34,9.72,12.1v95.15c-5.7,6.35-9.67,15.26-9.72,23.03
				c-0.03,4.03,1,7.16,2.78,9.24l8.13-20.45l8.3-4.72l4.1,5.98l-8.21,20.65c0.51-0.24,1.03-0.5,1.56-0.8
				c9.27-5.27,16.84-18.25,16.91-29C286.57,372.85,282.58,368.39,276.8,368.62z"/>
			<polygon id="XMLID_1897_" style="fill:#263238;" points="270.39,384.89 272.16,383.89 276.26,389.87 268.05,410.52 
				263.99,408.18 272.2,387.52 			"/>
		</g>
		<path id="XMLID_1917_" style="fill:#FFA8A7;" d="M276.8,290.4c0,1.53-2.32,3.23-4.03,4.3c-1.71,1.07-3.85,2.56-3.05,5.65
			c0.81,3.09,4.13,3.88,5.82,3.06c1.68-0.82,3.35-2.23,3.77-5.08c0.42-2.85,1.38-9.67-2.52-10.47V290.4z"/>
		<g id="XMLID_1754_">
			<path id="XMLID_1765_" style="fill:#FFA8A7;" d="M183.63,298.58c6.76-30.35,10.99-36.96,20.4-40.47l-1.28,18.25
				c0,0-8.82,19.66-10.15,26.62c-1.17,6.11-2.47,13.79-2.27,19.02c0.04,0.93,0.44,1.8,1.08,2.47c1.72,1.79,2.22,3.31,3.35,5.31
				c0.89,1.56,1.84,2.14,1.58,2.5c-0.33,0.46-1.4,1.08-2.77,0.26c-0.69-0.41-1.5-1.24-2.5-2.3c0,0,0.22,2.73,1.69,5.85
				c1.98,4.23,1.57,6.42-4.23,5.02c-3.63-0.88-5.96-3.84-6.69-12.51c-0.21-2.5-0.53-6.44-0.3-9.61
				C182.14,310.71,182.54,303.46,183.63,298.58z"/>
		</g>
		<path id="XMLID_2076_" style="fill:#E6E6E6;" d="M204.85,256.02c0,0-3.69,0-6.79,2.08c-2.36,1.59-6.29,8-8.78,15.93
			c-2.49,7.93-3.8,12.33-3.8,12.33s4.08,6.21,12.88,3.76c0,0,4.96-12.4,4.67-11.61C203.03,278.52,209.59,266.29,204.85,256.02z"/>
	</g>
</g>
</svg>
