<svg width="507" height="478" viewBox="0 0 507 478" fill="none" xmlns="http://www.w3.org/2000/svg">
<path d="M153.557 477.972C192.035 477.972 223.228 471.179 223.228 462.8C223.228 454.42 192.035 447.627 153.557 447.627C115.079 447.627 83.8867 454.42 83.8867 462.8C83.8867 471.179 115.079 477.972 153.557 477.972Z" fill="#C3DBFF"/>
<path opacity="0.3" d="M153.557 477.972C192.035 477.972 223.228 471.179 223.228 462.8C223.228 454.42 192.035 447.627 153.557 447.627C115.079 447.627 83.8867 454.42 83.8867 462.8C83.8867 471.179 115.079 477.972 153.557 477.972Z" fill="white"/>
<path d="M49.1561 268.871C49.1561 268.871 45.0404 273.58 42.7052 282.985C40.3699 292.391 50.9366 299.461 47.4015 309.473C43.8663 319.485 37.4025 324.181 39.17 334.18C40.9376 344.179 48.5884 344.773 42.7052 355.959C36.8219 367.145 31.5192 371.248 33.2867 381.879C35.0543 392.51 57.4134 406.005 57.4134 406.005C57.4134 406.005 72.7022 388.936 73.2957 377.763C73.8891 366.59 59.7615 359.52 62.1226 349.521C64.4836 339.522 70.354 331.277 69.7605 321.859C69.167 312.44 57.994 305.383 57.994 298.326C57.994 291.268 62.7032 287.153 62.7032 278.973C62.7032 270.793 52.1107 263.671 52.1107 258.975C52.3372 255.342 53.1339 251.767 54.4717 248.382C54.4717 248.382 43.2857 255.336 49.1561 268.871Z" fill="#62B995"/>
<path opacity="0.5" d="M49.1561 268.871C49.1561 268.871 45.0404 273.58 42.7052 282.985C40.3699 292.391 50.9366 299.461 47.4015 309.473C43.8663 319.485 37.4025 324.181 39.17 334.18C40.9376 344.179 48.5884 344.773 42.7052 355.959C36.8219 367.145 31.5192 371.248 33.2867 381.879C35.0543 392.51 57.4134 406.005 57.4134 406.005C57.4134 406.005 72.7022 388.936 73.2957 377.763C73.8891 366.59 59.7615 359.52 62.1226 349.521C64.4836 339.522 70.354 331.277 69.7605 321.859C69.167 312.44 57.994 305.383 57.994 298.326C57.994 291.268 62.7032 287.153 62.7032 278.973C62.7032 270.793 52.1107 263.671 52.1107 258.975C52.3372 255.342 53.1339 251.767 54.4717 248.382C54.4717 248.382 43.2857 255.336 49.1561 268.871Z" fill="white"/>
<path d="M55.053 402.431L53.8789 275.347" stroke="#455A64" stroke-linecap="round" stroke-linejoin="round"/>
<path d="M66.9231 373.351L55.4017 384.872L42.332 373.351" stroke="#455A64" stroke-linecap="round" stroke-linejoin="round"/>
<path d="M63.0775 322.607L54.6267 335.677L47.3242 323.768" stroke="#455A64" stroke-linecap="round" stroke-linejoin="round"/>
<path d="M49.2461 284.185L54.2391 290.326L58.471 283.024" stroke="#455A64" stroke-linecap="round" stroke-linejoin="round"/>
<path d="M40.3438 402.432H69.7989V424.094C69.7989 427.088 68.6095 429.96 66.4924 432.077C64.3752 434.194 61.5038 435.383 58.5097 435.383H51.6717C48.6776 435.383 45.8061 434.194 43.689 432.077C41.5719 429.96 40.3825 427.088 40.3825 424.094V402.432H40.3438Z" fill="#455A64"/>
<path d="M262.762 62.5947V275.477H395.536V62.5947H262.762ZM327.194 67.7555V114.809H267.6V67.7555H327.194ZM267.6 166.417V119.97H327.194V166.417H267.6ZM327.194 171.577V219.095H267.6V171.577H327.194ZM267.6 224.256H327.194V270.29H267.6V224.256ZM390.684 270.29H332.045V224.295H390.31V219.134H332.045V171.577H390.31V166.417H332.045V119.97H390.31V114.809H332.045V67.7555H390.684V270.29Z" fill="#DADAEC"/>
<path d="M23.9453 62.5947V275.477H156.732V62.5947H23.9453ZM88.3776 67.7555V114.809H28.7964V67.7555H88.3776ZM28.7964 166.417V119.97H88.3776V166.417H28.7964ZM88.3776 171.577V219.095H28.7964V171.577H88.3776ZM28.7964 224.295H88.3776V270.329H28.7964V224.295ZM151.881 270.329H93.2287V224.295H151.507V219.134H93.2287V171.577H151.507V166.417H93.2287V119.97H151.507V114.809H93.2287V67.7555H151.881V270.329Z" fill="#DADAEC"/>
<path d="M298.59 435.383H216.095V330.529C216.095 323.545 218.869 316.847 223.808 311.909C228.746 306.97 235.444 304.196 242.428 304.196H298.59V435.383Z" fill="#FFE5CF"/>
<path d="M299.234 436.067H215.449V330.529C215.459 323.375 218.307 316.517 223.367 311.459C228.427 306.402 235.286 303.558 242.44 303.551H299.209L299.234 436.067ZM216.739 434.776H297.944V304.841H242.466C235.654 304.848 229.123 307.556 224.305 312.371C219.487 317.187 216.775 323.717 216.765 330.529L216.739 434.776Z" fill="#FFE5CF"/>
<path opacity="0.5" d="M299.234 436.067H215.449V330.529C215.459 323.375 218.307 316.517 223.367 311.459C228.427 306.402 235.286 303.558 242.44 303.551H299.209L299.234 436.067ZM216.739 434.776H297.944V304.841H242.466C235.654 304.848 229.123 307.556 224.305 312.371C219.487 317.187 216.775 323.717 216.765 330.529L216.739 434.776Z" fill="white"/>
<path d="M265.354 303.551C258.2 303.558 251.341 306.402 246.281 311.459C241.221 316.517 238.374 323.375 238.363 330.529V436.067H322.148V303.551H265.354Z" fill="#FFE5CF"/>
<path opacity="0.5" d="M265.354 303.551C258.2 303.558 251.341 306.402 246.281 311.459C241.221 316.517 238.374 323.375 238.363 330.529V436.067H322.148V303.551H265.354Z" fill="white"/>
<path d="M407.959 236.951H341.372C334.48 236.958 327.871 239.699 322.997 244.573C318.123 249.447 315.382 256.056 315.375 262.949V355.52H433.957V262.949C433.95 256.056 431.209 249.447 426.335 244.573C421.461 239.699 414.852 236.958 407.959 236.951V236.951Z" fill="#FFE5CF"/>
<path opacity="0.5" d="M407.959 236.951H341.372C334.48 236.958 327.871 239.699 322.997 244.573C318.123 249.447 315.382 256.056 315.375 262.949V355.52H433.957V262.949C433.95 256.056 431.209 249.447 426.335 244.573C421.461 239.699 414.852 236.958 407.959 236.951V236.951Z" fill="white"/>
<path d="M415.391 354.888H298.112V262.949C298.112 256.228 300.782 249.783 305.534 245.031C310.286 240.279 316.731 237.609 323.451 237.609H390.077C396.793 237.616 403.232 240.289 407.978 245.04C412.724 249.791 415.391 256.233 415.391 262.949V354.888Z" fill="#FFE5CF"/>
<path d="M416.061 355.52H297.492V262.949C297.499 256.058 300.238 249.451 305.11 244.578C309.981 239.704 316.586 236.961 323.477 236.951H390.076C396.967 236.961 403.572 239.704 408.444 244.578C413.315 249.451 416.054 256.058 416.061 262.949V355.52ZM298.782 354.23H414.771V262.949C414.764 256.4 412.161 250.122 407.531 245.49C402.902 240.858 396.625 238.252 390.076 238.241H323.477C316.928 238.252 310.651 240.858 306.022 245.49C301.393 250.122 298.789 256.4 298.782 262.949V354.23Z" fill="#FFE5CF"/>
<path opacity="0.5" d="M416.061 355.52H297.492V262.949C297.499 256.058 300.238 249.451 305.11 244.578C309.981 239.704 316.586 236.961 323.477 236.951H390.076C396.967 236.961 403.572 239.704 408.444 244.578C413.315 249.451 416.054 256.058 416.061 262.949V355.52ZM298.782 354.23H414.771V262.949C414.764 256.4 412.161 250.122 407.531 245.49C402.902 240.858 396.625 238.252 390.076 238.241H323.477C316.928 238.252 310.651 240.858 306.022 245.49C301.393 250.122 298.789 256.4 298.782 262.949V354.23Z" fill="white"/>
<path d="M402.645 435.396H245.589V361.068C245.589 358.638 246.554 356.308 248.272 354.591C249.99 352.873 252.32 351.908 254.75 351.908H402.645V435.396Z" fill="#FFE5CF"/>
<path opacity="0.5" d="M403.288 436.067H244.969V361.055C244.972 358.458 246.005 355.967 247.84 354.13C249.675 352.292 252.164 351.256 254.761 351.249H403.288V436.067ZM246.259 434.777H401.998V352.54H254.761C252.505 352.543 250.343 353.442 248.748 355.038C247.154 356.635 246.259 358.799 246.259 361.055V434.777Z" fill="white"/>
<path opacity="0.5" d="M402.645 435.396H245.589V361.068C245.589 358.638 246.554 356.308 248.272 354.591C249.99 352.873 252.32 351.908 254.75 351.908H402.645V435.396Z" fill="white"/>
<path opacity="0.5" d="M327.54 380.06H247.922V381.35H327.54V380.06Z" fill="white"/>
<path d="M410.449 435.383H327.877V330.529C327.877 323.545 330.651 316.847 335.589 311.909C340.528 306.97 347.226 304.196 354.21 304.196H410.449V435.383Z" fill="#FFE5CF"/>
<path d="M411.031 436.067H327.246V330.529C327.256 323.375 330.104 316.517 335.164 311.459C340.224 306.402 347.083 303.558 354.237 303.551H411.005L411.031 436.067ZM328.536 434.776H409.741V304.841H354.263C347.451 304.848 340.92 307.556 336.102 312.371C331.284 317.187 328.572 323.717 328.562 330.529L328.536 434.776Z" fill="#FFE5CF"/>
<path opacity="0.5" d="M411.031 436.067H327.246V330.529C327.256 323.375 330.104 316.517 335.164 311.459C340.224 306.402 347.083 303.558 354.237 303.551H411.005L411.031 436.067ZM328.536 434.776H409.741V304.841H354.263C347.451 304.848 340.92 307.556 336.102 312.371C331.284 317.187 328.572 323.717 328.562 330.529L328.536 434.776Z" fill="white"/>
<path d="M377.15 303.551C369.997 303.558 363.139 306.402 358.081 311.46C353.023 316.518 350.179 323.376 350.172 330.529V436.067H433.957V303.551H377.15Z" fill="#FFE5CF"/>
<path opacity="0.5" d="M377.15 303.551C369.997 303.558 363.139 306.402 358.081 311.46C353.023 316.518 350.179 323.376 350.172 330.529V436.067H433.957V303.551H377.15Z" fill="white"/>
<path d="M159.753 437.925C159.753 437.925 169.546 445.524 173.752 446.44C177.958 447.356 186.331 446.259 185.725 449.498C185.118 452.736 180.642 454.659 176.139 455.755C171.636 456.852 153.212 454.143 149.341 454.194C145.471 454.246 142.89 454.607 141.6 451.407C140.31 448.208 142.4 439.796 142.4 439.796L159.753 437.925Z" fill="#455A64" stroke="#455A64" stroke-linecap="round" stroke-linejoin="round"/>
<path d="M159.75 437.925L157.66 438.144L157.105 440.428C157.105 440.428 160.976 444.298 164.485 445.485C165.253 445.718 166.072 445.719 166.84 445.49C167.609 445.261 168.293 444.81 168.808 444.195C165.678 442.269 162.655 440.176 159.75 437.925Z" fill="#AE7461" stroke="#455A64" stroke-linecap="round" stroke-linejoin="round"/>
<path d="M176.139 455.755C180.642 454.723 185.17 452.723 185.725 449.498C185.757 449.319 185.757 449.135 185.725 448.956C183.187 450.354 180.488 451.437 177.687 452.182C171.584 453.885 163.817 452.388 154.128 451.227C149.879 450.697 145.596 450.494 141.316 450.62C141.369 450.889 141.447 451.153 141.549 451.407C142.839 454.607 145.419 454.259 149.29 454.194C153.16 454.13 171.636 456.788 176.139 455.755Z" fill="#AE7461" stroke="#455A64" stroke-linecap="round" stroke-linejoin="round"/>
<path d="M107.538 257.375C107.538 257.375 107.331 288.662 107.176 300.597C107.021 312.531 110.066 356.384 109.447 357.997C108.828 359.61 104.906 388.265 106.931 395.335C108.957 402.406 112.376 439.937 112.376 439.937L128.503 439.383C128.503 439.383 130.309 384.846 132.193 380.95C134.077 377.053 134.774 358.01 135.664 352.566C136.554 347.121 140.579 312.492 140.579 312.492C140.579 312.492 145.74 354.036 144.863 364.693C143.986 375.35 139.354 385.414 140.773 394.742C142.192 404.07 142.373 439.899 142.373 439.899L158.436 435.151C158.436 435.151 161.751 418.662 161.7 415.114C161.648 411.566 161.223 403.825 161.803 399.296C162.384 394.768 170.602 359.816 170.834 349.495C171.067 339.173 171.17 259.491 171.17 259.491C171.17 259.491 137.044 268.561 107.538 257.375Z" fill="#455A64" stroke="#455A64" stroke-linecap="round" stroke-linejoin="round"/>
<path d="M171.119 260.085L168.629 259.969C160.294 261.801 132.31 266.768 107.538 257.388C107.538 257.388 107.538 261.775 107.461 267.89C110.661 270.884 117.602 274.625 132.646 276.38C150.902 278.509 164.41 274.87 171.287 272.251C171.209 266.149 171.145 261.71 171.119 260.085Z" fill="#AE7461" stroke="#455A64" stroke-linecap="round" stroke-linejoin="round"/>
<path d="M171.946 181.305C171.946 181.305 182.642 185.021 184.616 187.253C186.59 189.485 183.132 219.508 183.158 221.469C183.183 223.43 186.396 245.608 184.835 248.86C183.274 252.111 175.249 255.44 171.727 255.169C168.204 254.898 168.501 232.319 169.017 223.598C169.533 214.876 172.243 202.542 172.178 197.381C172.114 192.22 170.978 181.641 171.946 181.305Z" fill="#FFC727" stroke="#455A64" stroke-linecap="round" stroke-linejoin="round"/>
<path d="M191.608 246.408C190.272 244.915 188.62 243.739 186.772 242.964C184.924 242.19 182.927 241.837 180.925 241.931C177.234 241.893 173.676 243.309 171.02 245.873C168.365 248.437 166.825 251.943 166.733 255.633C166.437 264.11 172.397 265.955 177.919 265.877C183.441 265.8 195.621 260.601 191.608 246.408Z" fill="#FFC727" stroke="#455A64" stroke-linecap="round" stroke-linejoin="round"/>
<path d="M196.134 249.995C196.134 249.995 187.103 247.544 180.975 249.557C174.846 251.569 171.672 253.556 171.105 259.375C170.537 265.194 180.846 263.749 186.329 263.362C191.812 262.975 204.546 251.75 204.546 251.75L196.134 249.995Z" fill="#AE7461" stroke="#455A64" stroke-linecap="round" stroke-linejoin="round"/>
<path d="M190.083 255.233C188.793 251.711 192.896 248.782 192.896 248.782L190.315 243.983C190.315 243.983 192.212 241.699 194.186 244.576C196.16 247.453 197.811 249.737 199.089 248.705C200.366 247.673 198.044 243.234 198.044 243.234C198.191 242.98 198.403 242.769 198.657 242.622C198.912 242.475 199.201 242.398 199.495 242.398C199.789 242.398 200.078 242.475 200.333 242.622C200.587 242.769 200.799 242.98 200.946 243.234C202.585 245.157 203.269 248.047 205.204 248.395C207.139 248.743 211.887 241.518 213.19 242.473C214.494 243.428 213.19 245.699 211.642 247.337C210.93 248.168 210.05 248.841 209.062 249.311C209.062 249.311 216.803 245.002 220.274 243.338C223.744 241.673 225.073 240.757 225.744 242.615C226.415 244.473 218.08 247.569 213.59 249.569C209.101 251.569 200.456 255.878 196.921 257.22C195.388 257.906 193.762 258.363 192.096 258.575" fill="#AE7461"/>
<path d="M190.083 255.233C188.793 251.711 192.896 248.782 192.896 248.782L190.315 243.983C190.315 243.983 192.212 241.699 194.186 244.576C196.16 247.453 197.811 249.737 199.089 248.705C200.366 247.673 198.044 243.234 198.044 243.234C198.191 242.98 198.403 242.769 198.657 242.622C198.912 242.475 199.201 242.398 199.495 242.398C199.789 242.398 200.078 242.475 200.333 242.622C200.587 242.769 200.799 242.98 200.946 243.234C202.585 245.157 203.269 248.047 205.204 248.395C207.139 248.743 211.887 241.518 213.19 242.473C214.494 243.428 213.19 245.699 211.642 247.337C210.93 248.168 210.05 248.841 209.062 249.311C209.062 249.311 216.803 245.002 220.274 243.338C223.744 241.673 225.073 240.757 225.744 242.615C226.415 244.473 218.08 247.569 213.59 249.569C209.101 251.569 200.456 255.878 196.921 257.22C195.388 257.906 193.762 258.363 192.096 258.575" stroke="#455A64" stroke-linecap="round" stroke-linejoin="round"/>
<path d="M153.339 280.599C153.339 280.599 144.681 283.94 150.874 288.34C157.067 292.739 152.293 297.371 146.836 299.371" stroke="#AE7461" stroke-linecap="round" stroke-linejoin="round"/>
<path d="M131.044 277.683C131.044 277.683 126.515 299.68 109.395 298.326" stroke="#AE7461" stroke-linecap="round" stroke-linejoin="round"/>
<path d="M140.902 313.679L149.521 306.454" stroke="#AE7461" stroke-linecap="round" stroke-linejoin="round"/>
<path d="M112.284 274.393L112.129 263.117L115.032 264.355L115.522 276.612" fill="#455A64"/>
<path d="M112.284 274.393L112.129 263.117L115.032 264.355L115.522 276.612" stroke="#455A64" stroke-linecap="round" stroke-linejoin="round"/>
<path d="M166.073 276.315L165.918 265.026L168.485 264.342L169.608 275.335" fill="#455A64"/>
<path d="M166.073 276.315L165.918 265.026L168.485 264.342L169.608 275.335" stroke="#455A64" stroke-linecap="round" stroke-linejoin="round"/>
<path d="M133.097 279.205L132.762 269.116L135.329 268.432L136.452 279.437" fill="#455A64"/>
<path d="M133.097 279.205L132.762 269.116L135.329 268.432L136.452 279.437" stroke="#455A64" stroke-linecap="round" stroke-linejoin="round"/>
<path d="M135.211 169.345C135.211 169.345 105.924 177.499 105.924 180.08C105.924 182.66 105.627 250.408 105.704 255.995C105.782 261.581 113.368 265.568 123.522 268.226C133.676 270.884 157.067 270.11 162.008 268.316C166.95 266.523 173.62 264.717 174.394 261.478C175.168 258.24 174.755 226.424 174.897 221.043C175.039 215.663 180.394 199.252 178.587 193.253C176.781 187.253 173.272 182.351 169.556 180.041C165.84 177.732 156.099 170.777 149.403 169.358C144.707 168.555 139.909 168.55 135.211 169.345V169.345Z" fill="#FFC727" stroke="#455A64" stroke-linecap="round" stroke-linejoin="round"/>
<path d="M156.242 187.537C156.242 187.537 159.945 208.09 158.19 217.973C156.9 224.836 158.19 247.183 159.481 251.711C160.771 256.24 161.945 264.949 158.926 266.136" stroke="#455A64" stroke-linecap="round" stroke-linejoin="round"/>
<path d="M141.664 158.017C141.664 158.017 138.362 157.888 137.291 159.733C136.22 161.578 130.117 171.216 130.117 171.216L138.091 190.182L147.328 181.615L156.218 187.537L159.779 179.602L165.391 187.408C165.391 187.408 162.566 169.655 160.669 165.087C158.772 160.52 149.341 155.347 146.774 155.927C144.987 156.4 143.27 157.103 141.664 158.017Z" fill="#FFC727" stroke="#455A64" stroke-linecap="round" stroke-linejoin="round"/>
<path d="M141.662 144.625C141.662 144.625 140.54 156.237 140.604 160.972C140.669 165.707 145.971 177.228 147.468 179.034C148.965 180.841 156.216 187.524 156.216 187.524C156.216 187.524 157.17 177.422 157.506 173.745C157.841 170.068 158.112 165.113 158.112 165.113C158.112 165.113 150.371 158.662 147.868 154.25C145.365 149.837 141.662 144.625 141.662 144.625Z" fill="#AE7461" stroke="#455A64" stroke-linecap="round" stroke-linejoin="round"/>
<path d="M173.016 117.595C171.648 112.048 165.61 106.539 158.591 104.19C150.67 101.61 136.658 106.526 130.685 116.331C124.711 126.137 132.852 139.98 133.071 142.354C133.291 144.728 128.349 145.915 128.375 147.928C128.422 150.027 129.22 152.041 130.623 153.603C132.027 155.165 133.944 156.172 136.026 156.443C142.271 157.282 144.077 155.05 144.619 153.94C145.161 152.831 159.753 134.832 161.933 133.142C162.746 132.523 163.907 131.762 165.042 131.065C165.958 135.155 169.365 139.555 170.461 139.258C171.932 138.871 179.402 135.839 180.034 128.485C180.473 122.705 175.222 118.95 173.016 117.595Z" fill="#455A64" stroke="#455A64" stroke-linecap="round" stroke-linejoin="round"/>
<path d="M169.752 125.259C170.364 123.576 170.566 121.771 170.342 119.994C170.117 118.217 169.473 116.519 168.462 115.041C164.978 110.151 160.23 122.782 160.23 122.782" stroke="#AE7461" stroke-linecap="round" stroke-linejoin="round"/>
<path d="M135.417 135C134.752 134.9 134.099 134.732 133.469 134.497" stroke="#AE7461" stroke-linecap="round" stroke-linejoin="round"/>
<path d="M158.616 115.557C158.616 115.557 154.177 123.208 149.713 129.336C148.505 130.951 146.974 132.295 145.216 133.284C143.459 134.273 141.515 134.884 139.508 135.078" stroke="#AE7461" stroke-linecap="round" stroke-linejoin="round"/>
<path d="M157.738 109.364C159.002 109.047 160.311 108.946 161.609 109.067" stroke="#AE7461" stroke-linecap="round" stroke-linejoin="round"/>
<path d="M130.297 124.679C135.085 124.884 139.783 123.333 143.508 120.318C147.237 117.209 150.217 113.377 153.83 111.08" stroke="#AE7461" stroke-linecap="round" stroke-linejoin="round"/>
<path d="M170.551 127.904C170.551 127.904 177.002 126.614 176.292 131.233C175.583 135.852 173.712 135.826 173.712 135.826" stroke="#AE7461" stroke-linecap="round" stroke-linejoin="round"/>
<path d="M171.828 136.742C171.842 136.493 171.842 136.243 171.828 135.994C171.653 133.19 170.735 130.482 169.17 128.149C166.357 124.15 161.029 123.311 158.849 125.569C156.668 127.827 154.243 136.832 147.856 139.49C141.47 142.148 138.476 138.2 138.528 141.451C138.58 144.702 140.915 154.818 144.644 158.985C148.372 163.152 153.223 168.777 156.72 169.461C160.216 170.145 165.751 169.461 166.061 168.171C166.37 166.881 169.57 156.559 171.144 151.592C172.718 146.625 171.828 136.742 171.828 136.742Z" fill="#AE7461" stroke="#455A64" stroke-linecap="round" stroke-linejoin="round"/>
<path d="M140.527 141.903C140.527 141.903 140.089 137.503 136.979 137.735C133.87 137.968 134.128 143.825 136.192 147.463C138.257 151.102 141.714 148.302 141.714 148.302" fill="#AE7461"/>
<path d="M140.527 141.903C140.527 141.903 140.089 137.503 136.979 137.735C133.87 137.968 134.128 143.825 136.192 147.463C138.257 151.102 141.714 148.302 141.714 148.302" stroke="#455A64" stroke-linecap="round" stroke-linejoin="round"/>
<path d="M157.931 139.813C157.931 139.813 153.506 138.587 151.48 141.361" stroke="#455A64" stroke-linecap="round" stroke-linejoin="round"/>
<path d="M164.707 139.322C164.707 139.322 168.707 136.51 170.229 140.522Z" fill="#AE7461"/>
<path d="M164.707 139.322C164.707 139.322 168.707 136.51 170.229 140.522" stroke="#455A64" stroke-linecap="round" stroke-linejoin="round"/>
<path d="M163.84 142.664C163.84 142.664 164.691 151.27 164.343 152.199C163.995 153.128 160.885 154.082 159.027 152.818" stroke="#455A64" stroke-linecap="round" stroke-linejoin="round"/>
<path d="M150.785 154.043C150.785 154.043 152.308 157.682 157.817 157.798" stroke="#455A64" stroke-linecap="round" stroke-linejoin="round"/>
<path d="M156.899 145.141C156.899 146.264 156.434 147.167 155.828 147.18C155.221 147.192 154.718 146.289 154.692 145.18C154.667 144.07 155.157 143.154 155.776 143.141C156.395 143.128 156.886 144.031 156.899 145.141Z" fill="#455A64"/>
<path d="M167.351 144.264C167.351 145.373 166.887 146.289 166.28 146.289C165.674 146.289 165.158 145.412 165.145 144.29C165.132 143.167 165.609 142.264 166.216 142.264C166.822 142.264 167.338 143.193 167.351 144.264Z" fill="#455A64"/>
<path d="M111.294 180.608C110.07 179.722 108.592 179.255 107.081 179.276C105.57 179.297 104.107 179.805 102.907 180.725C98.753 184.015 96.5339 232.423 95.9791 238.886C95.4243 245.35 94.8438 249.208 94.8438 249.208L119.254 242.422L121.086 234.68C121.086 234.68 124.634 234.68 124.273 232.1C123.912 229.52 123.692 213.728 123.615 208.244C123.538 202.761 115.642 192.22 115.642 192.22" fill="#FFC727"/>
<path d="M111.294 180.608C110.07 179.722 108.592 179.255 107.081 179.276C105.57 179.297 104.107 179.805 102.907 180.725C98.753 184.015 96.5339 232.423 95.9791 238.886C95.4243 245.35 94.8438 249.208 94.8438 249.208L119.254 242.422L121.086 234.68C121.086 234.68 124.634 234.68 124.273 232.1C123.912 229.52 123.692 213.728 123.615 208.244C123.538 202.761 115.642 192.22 115.642 192.22" stroke="#455A64" stroke-linecap="round" stroke-linejoin="round"/>
<path d="M118.555 233.326C118.555 233.326 113.214 230.746 102.234 232.41Z" fill="#AE7461"/>
<path d="M118.555 233.326C118.555 233.326 113.214 230.746 102.234 232.41" stroke="#455A64" stroke-linecap="round" stroke-linejoin="round"/>
<path d="M109.797 228.771C110.565 228.863 111.325 229.018 112.068 229.236Z" fill="#AE7461"/>
<path d="M109.797 228.771C110.565 228.863 111.325 229.018 112.068 229.236" stroke="#455A64" stroke-linecap="round" stroke-linejoin="round"/>
<path d="M96.1562 231.739C98.8885 230.354 101.817 229.397 104.839 228.9Z" fill="#AE7461"/>
<path d="M96.1562 231.739C98.8885 230.354 101.817 229.397 104.839 228.9" stroke="#455A64" stroke-linecap="round" stroke-linejoin="round"/>
<path d="M90.5586 243.093C90.5586 243.093 93.9905 257.878 96.9064 258.807C99.8222 259.736 120.323 249.453 120.272 245.905C120.22 242.357 124.349 237.777 119.833 237.842C115.317 237.906 93.397 238.216 90.5586 243.093Z" fill="#FFC727" stroke="#455A64" stroke-linecap="round" stroke-linejoin="round"/>
<path d="M160.177 238.887C160.177 238.887 117.975 243.028 110.273 245.712C102.57 248.395 94.2871 255.62 95.2806 258.188C96.274 260.755 102.802 264.858 106.028 264.807C109.253 264.755 114.066 262.755 115.059 262.742C116.053 262.729 157.726 245.97 158.681 245.686C159.635 245.402 166.086 244.602 169.002 243.273C171.918 241.944 176.189 237.687 176.189 237.687C176.189 237.687 192.2 237.687 193.813 236.964C195.425 236.242 196.664 234.384 191.168 233.236C185.672 232.087 183.156 229.829 179.556 229.881C175.956 229.933 160.177 238.887 160.177 238.887Z" fill="#AE7461" stroke="#455A64" stroke-linecap="round" stroke-linejoin="round"/>
<path d="M174.227 235.351C175.596 234.645 177.151 234.38 178.678 234.59C182.964 235.232 187.214 236.093 191.412 237.171" stroke="#455A64" stroke-linecap="round" stroke-linejoin="round"/>
<path d="M177.699 232.216C178.959 231.664 180.371 231.559 181.699 231.92C183.582 232.603 194.433 235.029 194.678 235.79" stroke="#455A64" stroke-linecap="round" stroke-linejoin="round"/>
<path d="M250.997 240.009L161.66 241.272L161.706 244.497L251.043 243.234L250.997 240.009Z" fill="#F9FAFF" stroke="#455A64" stroke-linecap="round" stroke-linejoin="round"/>
<path d="M262.308 195.988L213.616 196.685L202.004 242.654L250.696 241.97L262.308 195.988Z" fill="#F9FAFF" stroke="#455A64" stroke-linecap="round" stroke-linejoin="round"/>
<path d="M144.153 269.761L143.934 276.857L154.9 276.702L155.12 269.284L144.153 269.761Z" fill="#AE7461" stroke="#455A64" stroke-linecap="round" stroke-linejoin="round"/>
<path d="M113.512 442.131C113.512 442.131 112.054 452.104 111.628 457.613C111.202 463.122 107.022 469.148 110.209 471.805C113.395 474.463 122.633 474.063 127.833 472.541C133.032 471.018 129.316 460.736 129.381 457.51C129.353 453.432 128.991 449.363 128.297 445.344C127.704 442.428 127.407 440.815 127.407 440.815L113.512 442.131Z" fill="#455A64" stroke="#455A64" stroke-linecap="round" stroke-linejoin="round"/>
<path d="M118.025 444.853C118.025 444.853 115.225 459.523 118.232 459.471C121.238 459.419 123.392 459.406 123.792 457.252C124.192 455.097 123.186 444.789 123.186 444.789L118.025 444.853Z" fill="#AE7461" stroke="#455A64" stroke-linecap="round" stroke-linejoin="round"/>
<path d="M117.538 470.244C114.692 470.413 111.836 470.139 109.074 469.431C109.094 469.877 109.206 470.314 109.404 470.713C109.602 471.113 109.88 471.468 110.222 471.754C113.396 474.334 122.647 474.012 127.847 472.489C129.679 471.947 130.427 470.296 130.556 468.257C128.195 469.483 124.26 470.141 117.538 470.244Z" fill="#AE7461" stroke="#455A64" stroke-linecap="round" stroke-linejoin="round"/>
<path d="M109.861 436.222L110.7 444.918C110.751 445.294 110.944 445.636 111.239 445.876C111.533 446.116 111.908 446.234 112.287 446.208L128.479 445.163C128.853 445.137 129.204 444.971 129.462 444.699C129.72 444.427 129.867 444.067 129.872 443.692L129.988 434.17C129.992 433.959 129.95 433.75 129.866 433.557C129.782 433.363 129.658 433.19 129.501 433.048C129.345 432.907 129.16 432.8 128.96 432.735C128.759 432.671 128.547 432.65 128.337 432.674L111.177 434.544C110.98 434.565 110.788 434.625 110.614 434.721C110.44 434.818 110.287 434.948 110.164 435.104C110.041 435.261 109.951 435.44 109.899 435.632C109.847 435.824 109.834 436.025 109.861 436.222Z" fill="#AE7461" stroke="#455A64" stroke-linecap="round" stroke-linejoin="round"/>
<path d="M159.481 427.358L138.619 434.571C138.41 434.64 138.216 434.751 138.05 434.896C137.884 435.041 137.748 435.218 137.651 435.416C137.554 435.614 137.497 435.83 137.483 436.05C137.47 436.27 137.501 436.491 137.574 436.699L139.999 443.512C140.157 443.939 140.472 444.29 140.879 444.493C141.287 444.697 141.756 444.738 142.193 444.608L161.094 439.048C161.459 438.948 161.779 438.725 162 438.417C162.221 438.11 162.329 437.735 162.307 437.357L161.855 428.907C161.835 428.633 161.753 428.368 161.613 428.131C161.474 427.895 161.282 427.694 161.052 427.544C160.822 427.394 160.561 427.299 160.289 427.267C160.016 427.235 159.74 427.266 159.481 427.358V427.358Z" fill="#AE7461" stroke="#455A64" stroke-linecap="round" stroke-linejoin="round"/>
<path d="M332.148 62.5945C333.358 56.151 332.638 49.4938 330.08 43.4573C327.522 37.4209 323.239 32.2738 317.768 28.6614C312.297 25.0489 305.882 23.1318 299.326 23.1504C292.769 23.1689 286.365 25.1223 280.914 28.7656C276.945 19.1624 269.77 11.2319 260.611 6.32484C251.451 1.41781 240.874 -0.162311 230.68 1.8536C220.487 3.86952 211.307 9.3568 204.705 17.3809C198.102 25.405 194.486 35.4696 194.471 45.8607C194.471 46.4155 194.471 46.9574 194.471 47.5122C188.012 49.3436 182.38 53.3423 178.522 58.8363C174.663 64.3304 172.813 70.985 173.282 77.6822C173.752 84.3794 176.511 90.7111 181.098 95.6135C185.685 100.516 191.82 103.69 198.471 104.603V104.913H330.716C336.202 104.901 341.471 102.761 345.411 98.9436C349.352 95.1258 351.658 89.9281 351.844 84.4445C352.029 78.9609 350.08 73.6191 346.406 69.5437C342.733 65.4683 337.621 62.9771 332.148 62.5945V62.5945Z" fill="#C3DBFF" stroke="white" stroke-miterlimit="10"/>
<path d="M241.602 16.6765H215.953L228.365 24.9467L241.602 16.6765Z" fill="white"/>
<path d="M228.338 26.8432L214.301 17.4893V35.1133H242.401V18.0569L228.338 26.8432Z" fill="white"/>
<path d="M289.686 34.6487V53.2146C288.924 52.8084 288.072 52.5999 287.209 52.6082C284.796 52.6082 282.848 54.1177 282.848 55.9627C282.848 57.8077 284.796 59.3301 287.209 59.3301C291.26 59.3301 291.556 56.5562 291.556 56.5562V40.2094L303.104 38.558V51.0342C302.339 50.6345 301.489 50.4264 300.627 50.4278C298.214 50.4278 296.266 51.9373 296.266 53.7952C296.266 55.653 298.214 57.1497 300.627 57.1497C301.543 57.2231 302.458 56.9924 303.23 56.4932C304.002 55.9941 304.588 55.2544 304.897 54.3887L304.974 38.2999V32.4683L289.686 34.6487Z" fill="white"/>
<path d="M224.351 50.699C225.387 50.699 226.4 50.3918 227.262 49.8162C228.123 49.2407 228.794 48.4226 229.191 47.4654C229.587 46.5083 229.691 45.455 229.489 44.4389C229.287 43.4228 228.788 42.4895 228.055 41.7569C227.323 41.0243 226.389 40.5254 225.373 40.3233C224.357 40.1212 223.304 40.2249 222.347 40.6214C221.39 41.0179 220.572 41.6892 219.996 42.5507C219.42 43.4121 219.113 44.4248 219.113 45.4608C219.113 46.8501 219.665 48.1825 220.648 49.1648C221.63 50.1472 222.962 50.699 224.351 50.699V50.699Z" fill="white"/>
<path d="M227.525 51.8086H221.177C219.422 51.8086 217.738 52.5059 216.497 53.7472C215.256 54.9884 214.559 56.6719 214.559 58.4273V62.014H234.144V58.4273C234.144 56.6719 233.446 54.9884 232.205 53.7472C230.964 52.5059 229.28 51.8086 227.525 51.8086V51.8086Z" fill="white"/>
<path d="M326.123 78.8251C326.123 72.0903 318.252 66.6457 308.537 66.6457C298.822 66.6457 290.965 72.0903 290.965 78.8251C290.965 85.1342 297.88 90.3208 306.744 90.94L306.434 91.0046L315.801 95.7009L315.401 90.0498C321.697 88.1919 326.123 83.844 326.123 78.8251ZM316.743 79.9992H299.454V78.5929H316.743V79.9992ZM316.743 83.8698H299.454V82.5538H316.743V83.8698ZM316.743 76.2189H299.454V74.8126H316.743V76.2189Z" fill="white"/>
<path d="M256.453 66.207C255.1 66.2053 253.76 66.4716 252.51 66.9904C251.261 67.5093 250.127 68.2706 249.173 69.2302C248.219 70.1899 247.465 71.3289 246.954 72.5816C246.443 73.8342 246.185 75.1757 246.196 76.5286C246.196 82.1925 256.453 93.3656 256.453 93.3656C256.453 93.3656 266.774 82.1925 266.774 76.5286C266.774 73.7911 265.687 71.1658 263.751 69.2302C261.815 67.2945 259.19 66.207 256.453 66.207ZM256.453 81.6894C255.435 81.6766 254.443 81.3632 253.603 80.7884C252.763 80.2137 252.112 79.4033 251.731 78.4592C251.35 77.5152 251.257 76.4796 251.464 75.4828C251.67 74.486 252.166 73.5725 252.891 72.8572C253.615 72.1419 254.535 71.6567 255.534 71.4628C256.533 71.2688 257.567 71.3747 258.507 71.7671C259.446 72.1596 260.248 72.821 260.812 73.6682C261.377 74.5155 261.678 75.5107 261.678 76.5286C261.678 77.2118 261.542 77.8882 261.279 78.5185C261.016 79.1489 260.63 79.7207 260.144 80.2008C259.658 80.6809 259.081 81.0597 258.447 81.3152C257.814 81.5707 257.136 81.6979 256.453 81.6894Z" fill="white"/>
<path d="M216.509 69.7549H191.492V91.1979H216.509V69.7549Z" fill="#C3DBFF" stroke="white" stroke-miterlimit="10"/>
<path d="M216.509 80.0123L212.226 76.1934L206.858 84.0506L200.782 81.9089L191.492 91.2112H216.509V80.0123Z" fill="white"/>
<path d="M199.001 77.9863C200.583 77.9863 201.865 76.7039 201.865 75.122C201.865 73.5402 200.583 72.2578 199.001 72.2578C197.419 72.2578 196.137 73.5402 196.137 75.122C196.137 76.7039 197.419 77.9863 199.001 77.9863Z" fill="white"/>
<path d="M224.017 72.2578H199V93.7008H224.017V72.2578Z" fill="#C3DBFF" stroke="white" stroke-miterlimit="10"/>
<path d="M224.017 82.5022L219.721 78.6962L214.366 86.5534L208.289 84.4117L199 93.714H224.017V82.5022Z" fill="white"/>
<path d="M209.361 77.6254C209.371 78.1966 209.21 78.7579 208.899 79.237C208.587 79.7161 208.14 80.0912 207.614 80.3139C207.087 80.5366 206.507 80.5969 205.946 80.4869C205.385 80.377 204.87 80.1019 204.467 79.6969C204.064 79.2919 203.791 78.7757 203.684 78.2145C203.576 77.6533 203.639 77.0728 203.865 76.5476C204.09 76.0224 204.467 75.5766 204.947 75.2675C205.428 74.9583 205.99 74.7999 206.561 74.8127C207.302 74.8261 208.008 75.1271 208.531 75.652C209.053 76.177 209.351 76.8847 209.361 77.6254Z" fill="white"/>
<path d="M268.23 25.7852V30.9846H274.14L268.23 25.7852Z" fill="white"/>
<path d="M267.369 25.8496H253.848V54.0403H274.142V31.72H267.369V25.8496ZM269.549 47.8603H258.17C257.999 47.8603 257.835 47.7923 257.714 47.6714C257.593 47.5504 257.525 47.3863 257.525 47.2152C257.525 47.0441 257.593 46.88 257.714 46.7591C257.835 46.6381 257.999 46.5701 258.17 46.5701H269.524C269.695 46.5701 269.859 46.6381 269.98 46.7591C270.101 46.88 270.169 47.0441 270.169 47.2152C270.169 47.3863 270.101 47.5504 269.98 47.6714C269.859 47.7923 269.695 47.8603 269.524 47.8603H269.549ZM269.549 43.9897H258.17C257.999 43.9897 257.835 43.9218 257.714 43.8008C257.593 43.6798 257.525 43.5157 257.525 43.3446C257.525 43.1735 257.593 43.0095 257.714 42.8885C257.835 42.7675 257.999 42.6995 258.17 42.6995H269.524C269.695 42.6995 269.859 42.7675 269.98 42.8885C270.101 43.0095 270.169 43.1735 270.169 43.3446C270.169 43.5157 270.101 43.6798 269.98 43.8008C269.859 43.9218 269.695 43.9897 269.524 43.9897H269.549ZM269.549 40.1192H258.17C257.999 40.1192 257.835 40.0512 257.714 39.9302C257.593 39.8092 257.525 39.6451 257.525 39.4741C257.525 39.303 257.593 39.1389 257.714 39.0179C257.835 38.8969 257.999 38.829 258.17 38.829H269.524C269.695 38.829 269.859 38.8969 269.98 39.0179C270.101 39.1389 270.169 39.303 270.169 39.4741C270.169 39.6451 270.101 39.8092 269.98 39.9302C269.859 40.0512 269.695 40.1192 269.524 40.1192H269.549ZM269.549 34.9584C269.72 34.9584 269.884 35.0263 270.005 35.1473C270.126 35.2683 270.194 35.4324 270.194 35.6035C270.194 35.7746 270.126 35.9386 270.005 36.0596C269.884 36.1806 269.72 36.2486 269.549 36.2486H258.17C257.999 36.2486 257.835 36.1806 257.714 36.0596C257.593 35.9386 257.525 35.7746 257.525 35.6035C257.525 35.4324 257.593 35.2683 257.714 35.1473C257.835 35.0263 257.999 34.9584 258.17 34.9584H269.549Z" fill="white"/>
<path d="M230.621 192.272V190.337" stroke="white" stroke-miterlimit="10"/>
<path d="M230.621 186.582V113.286" stroke="white" stroke-miterlimit="10" stroke-dasharray="2.91 2.91"/>
<path d="M230.621 111.403V109.467" stroke="white" stroke-miterlimit="10"/>
<path d="M230.622 105.558L226.016 113.544H235.228L230.622 105.558Z" fill="white"/>
<path d="M284.32 109.467V111.403" stroke="white" stroke-miterlimit="10"/>
<path d="M284.32 115.273V213.934" stroke="white" stroke-miterlimit="10" stroke-dasharray="3 3"/>
<path d="M284.322 215.857V217.792H282.387" stroke="white" stroke-miterlimit="10"/>
<path d="M278.682 217.792H265.703" stroke="white" stroke-miterlimit="10" stroke-dasharray="2.87 2.87"/>
<path d="M263.845 217.792H261.91" stroke="white" stroke-miterlimit="10"/>
<path d="M257.562 217.714L265.549 222.32V213.108L257.562 217.714Z" fill="white"/>
</svg>
