<svg width="507" height="435" viewBox="0 0 507 435" fill="none" xmlns="http://www.w3.org/2000/svg">
<path d="M254.418 434.399C393.533 434.399 506.308 431.257 506.308 427.381C506.308 423.506 393.533 420.364 254.418 420.364C115.302 420.364 2.52734 423.506 2.52734 427.381C2.52734 431.257 115.302 434.399 254.418 434.399Z" fill="#C3DBFF"/>
<path d="M382.024 420.985H358.719V1L382.024 28.0988V420.985Z" stroke="#C3DBFF" stroke-linecap="round" stroke-linejoin="round"/>
<path d="M358.938 322.094H381.802L358.938 299.993H381.802L358.938 322.094Z" stroke="#C3DBFF" stroke-linecap="round" stroke-linejoin="round"/>
<path d="M358.938 299.436H381.802L358.938 277.335H381.802L358.938 299.436Z" stroke="#C3DBFF" stroke-linecap="round" stroke-linejoin="round"/>
<path d="M358.938 367.215H381.802L358.938 345.114H381.802L358.938 367.215Z" stroke="#C3DBFF" stroke-linecap="round" stroke-linejoin="round"/>
<path d="M358.938 344.557H381.802L358.938 322.456H381.802L358.938 344.557Z" stroke="#C3DBFF" stroke-linecap="round" stroke-linejoin="round"/>
<path d="M358.938 276.778H381.802L358.938 254.677H381.802L358.938 276.778Z" stroke="#C3DBFF" stroke-linecap="round" stroke-linejoin="round"/>
<path d="M358.938 254.12H381.802L358.938 232.019H381.802L358.938 254.12Z" stroke="#C3DBFF" stroke-linecap="round" stroke-linejoin="round"/>
<path d="M358.938 231.462H381.802L358.938 209.361H381.802L358.938 231.462Z" stroke="#C3DBFF" stroke-linecap="round" stroke-linejoin="round"/>
<path d="M358.938 208.805H381.802L358.938 186.704H381.802L358.938 208.805Z" stroke="#C3DBFF" stroke-linecap="round" stroke-linejoin="round"/>
<path d="M358.938 186.147H381.802L358.938 164.046H381.802L358.938 186.147Z" stroke="#C3DBFF" stroke-linecap="round" stroke-linejoin="round"/>
<path d="M358.938 163.489H381.802L358.938 141.388H381.802L358.938 163.489Z" stroke="#C3DBFF" stroke-linecap="round" stroke-linejoin="round"/>
<path d="M358.938 140.831H381.802L358.938 118.73H381.802L358.938 140.831Z" stroke="#C3DBFF" stroke-linecap="round" stroke-linejoin="round"/>
<path d="M358.938 118.173H381.802L358.938 96.0723H381.802L358.938 118.173Z" stroke="#C3DBFF" stroke-linecap="round" stroke-linejoin="round"/>
<path d="M358.938 95.5157H381.802L358.938 73.4146H381.802L358.938 95.5157Z" stroke="#C3DBFF" stroke-linecap="round" stroke-linejoin="round"/>
<path d="M358.938 72.8574H381.802L358.938 50.7564H381.802L358.938 72.8574Z" stroke="#C3DBFF" stroke-linecap="round" stroke-linejoin="round"/>
<path d="M358.938 50.1997H381.802L358.938 28.0986H381.802L358.938 50.1997Z" stroke="#C3DBFF" stroke-linecap="round" stroke-linejoin="round"/>
<path d="M490.212 50.8083L478.922 43.7002H398.363L388.523 50.8083H490.212Z" stroke="#C3DBFF" stroke-linecap="round" stroke-linejoin="round"/>
<path d="M492.077 50.1998H295.277V55.3788H492.077V50.1998Z" fill="#C3DBFF" stroke="#C3DBFF" stroke-linecap="round" stroke-linejoin="round"/>
<path d="M478.922 43.7003L358.719 1L398.363 43.7003" stroke="#C3DBFF" stroke-linecap="round" stroke-linejoin="round"/>
<path d="M358.719 1L295.277 50.1998" stroke="#C3DBFF" stroke-linecap="round" stroke-linejoin="round"/>
<path d="M398.857 61.2051H350.305V92.2787H398.857V61.2051Z" fill="#C3DBFF" stroke="#C3DBFF" stroke-linecap="round" stroke-linejoin="round"/>
<path d="M398.857 390.533H350.305V421.607H398.857V390.533Z" fill="#FFE5CF" stroke="#A4A9B9" stroke-linecap="round" stroke-linejoin="round"/>
<path d="M388.73 67.6787H360.414V76.7419H388.73V67.6787Z" fill="white" stroke="#C3DBFF" stroke-linecap="round" stroke-linejoin="round"/>
<path d="M492.078 55.3789V111.208" stroke="#C3DBFF" stroke-linecap="round" stroke-linejoin="round"/>
<path d="M499.47 130.266H485.086V146.567H499.47V130.266Z" fill="#C3DBFF" stroke="#C3DBFF" stroke-linecap="round" stroke-linejoin="round"/>
<path d="M485.086 130.266L492.272 110.146L499.47 130.266" stroke="#C3DBFF" stroke-linecap="round" stroke-linejoin="round"/>
<path d="M300.352 386.571V357.777H215.482V386.597C215.468 396.004 212.274 405.13 206.419 412.492L202.703 417.179H313.079L309.35 412.492C303.517 405.112 300.347 395.978 300.352 386.571V386.571Z" fill="white" stroke="#455A64" stroke-width="1.09543" stroke-linecap="round" stroke-linejoin="round"/>
<g style="mix-blend-mode:multiply">
<path d="M210.266 406.756H305.571C302.163 400.575 300.381 393.63 300.392 386.571V357.776H215.483V386.597C215.478 393.65 213.683 400.586 210.266 406.756V406.756Z" fill="#F9FAFF"/>
</g>
<path d="M300.35 362.088H215.48V374.258H300.35V362.088Z" fill="#F9FAFF" stroke="#455A64" stroke-width="1.09543" stroke-linecap="round" stroke-linejoin="round"/>
<path d="M416.451 111H99.3835C92.7406 111 87.3555 116.386 87.3555 123.029V354.812C87.3555 361.454 92.7406 366.84 99.3835 366.84H416.451C423.094 366.84 428.479 361.454 428.479 354.812V123.029C428.479 116.386 423.094 111 416.451 111Z" fill="#F9FAFF" stroke="#455A64" stroke-width="1.09543" stroke-linecap="round" stroke-linejoin="round"/>
<path d="M87.3555 327.078H428.479V354.812C428.479 358.002 427.211 361.061 424.956 363.317C422.7 365.572 419.641 366.84 416.451 366.84H99.4483C96.2582 366.84 93.1988 365.572 90.9431 363.317C88.6874 361.061 87.4202 358.002 87.4202 354.812V327.078H87.3555Z" fill="white" stroke="#455A64" stroke-width="1.09543" stroke-linecap="round" stroke-linejoin="round"/>
<path d="M411.312 126.926H104.512V307.67H411.312V126.926Z" fill="#FFE393" stroke="#455A64" stroke-width="1.09543" stroke-linecap="round" stroke-linejoin="round"/>
<path d="M264.202 346.966C264.205 345.72 263.838 344.503 263.148 343.466C262.458 342.43 261.476 341.621 260.327 341.143C259.177 340.665 257.911 340.538 256.69 340.779C255.468 341.021 254.346 341.619 253.465 342.499C252.583 343.378 251.983 344.499 251.739 345.72C251.495 346.941 251.619 348.207 252.095 349.358C252.571 350.508 253.377 351.492 254.412 352.184C255.447 352.876 256.665 353.245 257.91 353.245C258.735 353.247 259.553 353.086 260.317 352.771C261.08 352.456 261.774 351.994 262.358 351.41C262.943 350.827 263.406 350.134 263.723 349.372C264.039 348.609 264.202 347.791 264.202 346.966V346.966Z" fill="#A4A9B9" stroke="#49555B" stroke-width="1.09543" stroke-linecap="round" stroke-linejoin="round"/>
<path d="M313.105 417.166H202.742V422.306H313.105V417.166Z" fill="white" stroke="#455A64" stroke-width="1.09543" stroke-linecap="round" stroke-linejoin="round"/>
<path d="M357.763 172.215C361.317 168.655 363.943 164.275 365.408 159.462C366.873 154.649 367.133 149.549 366.166 144.612L346.913 163.864C345.819 164.952 344.339 165.563 342.796 165.563C341.253 165.563 339.773 164.952 338.678 163.864L322.676 147.862C322.133 147.32 321.703 146.678 321.41 145.97C321.116 145.262 320.965 144.504 320.965 143.738C320.965 142.972 321.116 142.213 321.41 141.506C321.703 140.798 322.133 140.155 322.676 139.614L341.915 120.374C336.523 119.321 330.947 119.735 325.77 121.571C320.592 123.408 316.002 126.6 312.478 130.815C308.955 135.03 306.627 140.114 305.738 145.535C304.849 150.957 305.431 156.518 307.424 161.637L257.745 210.177L252.954 205.374L260.723 197.605C261.12 197.201 261.342 196.657 261.342 196.09C261.342 195.524 261.12 194.98 260.723 194.575L254.663 188.516C254.263 188.117 253.72 187.893 253.155 187.893C252.589 187.893 252.047 188.117 251.647 188.516L248.617 191.546L242.053 184.994L244.577 182.47C245.112 181.933 245.412 181.207 245.412 180.45C245.412 179.693 245.112 178.966 244.577 178.43L190.367 124.22C189.075 122.926 187.541 121.9 185.853 121.2C184.165 120.5 182.355 120.14 180.527 120.14C178.699 120.14 176.889 120.5 175.201 121.2C173.512 121.9 171.978 122.926 170.687 124.22L165.145 129.761C163.852 131.052 162.827 132.584 162.127 134.272C161.427 135.959 161.066 137.768 161.066 139.595C161.066 141.421 161.427 143.23 162.127 144.918C162.827 146.605 163.852 148.138 165.145 149.428L219.356 203.652C219.892 204.186 220.619 204.486 221.376 204.486C222.133 204.486 222.859 204.186 223.395 203.652L225.92 201.127L232.472 207.691L229.455 210.708C229.255 210.906 229.097 211.142 228.989 211.402C228.881 211.662 228.825 211.941 228.825 212.223C228.825 212.504 228.881 212.783 228.989 213.043C229.097 213.303 229.255 213.539 229.455 213.738L235.501 219.797C235.906 220.194 236.449 220.416 237.016 220.416C237.583 220.416 238.127 220.194 238.531 219.797L246.299 212.028L251.012 216.741L209.814 256.878C204.693 254.887 199.132 254.306 193.711 255.195C188.289 256.084 183.206 258.412 178.99 261.935C174.774 265.458 171.581 270.047 169.742 275.224C167.904 280.401 167.488 285.977 168.538 291.37L187.79 272.13C188.331 271.588 188.974 271.158 189.682 270.864C190.389 270.571 191.148 270.42 191.914 270.42C192.68 270.42 193.439 270.571 194.146 270.864C194.854 271.158 195.497 271.588 196.038 272.13L212.092 288.029C212.635 288.57 213.065 289.213 213.358 289.921C213.652 290.628 213.803 291.387 213.803 292.153C213.803 292.919 213.652 293.678 213.358 294.385C213.065 295.093 212.635 295.736 212.092 296.277L192.853 315.516C198.245 316.568 203.82 316.154 208.998 314.317C214.175 312.48 218.765 309.288 222.29 305.074C225.814 300.859 228.143 295.777 229.034 290.356C229.926 284.935 229.346 279.374 227.357 274.253L268.556 234.117L324.734 290.23C323.927 292.311 323.742 294.581 324.202 296.765C324.661 298.949 325.746 300.952 327.324 302.53L340.88 316.086L357.141 299.811L343.585 286.268C342.007 284.691 340.004 283.606 337.82 283.146C335.636 282.687 333.366 282.872 331.286 283.679L275.198 227.591L324.928 179.103C330.48 181.263 336.539 181.762 342.369 180.539C348.199 179.316 353.547 176.424 357.763 172.215V172.215Z" fill="#D4DAEC" stroke="#D4DAEC" stroke-width="1.09543" stroke-linecap="round" stroke-linejoin="round"/>
<path d="M223.938 267.352L321.47 172.202C326.593 174.198 332.158 174.781 337.584 173.891C343.01 173 348.097 170.669 352.313 167.14C356.53 163.612 359.722 159.015 361.554 153.832C363.387 148.648 363.794 143.067 362.733 137.672L343.493 156.912C342.952 157.454 342.309 157.884 341.602 158.178C340.894 158.471 340.136 158.622 339.37 158.622C338.603 158.622 337.845 158.471 337.137 158.178C336.43 157.884 335.787 157.454 335.246 156.912L319.243 140.909C318.701 140.369 318.271 139.727 317.978 139.021C317.685 138.314 317.534 137.557 317.534 136.792C317.534 136.027 317.685 135.269 317.978 134.563C318.271 133.856 318.701 133.214 319.243 132.674L338.483 113.422C333.088 112.37 327.51 112.787 322.331 114.627C317.152 116.467 312.562 119.664 309.041 123.884C305.519 128.104 303.195 133.192 302.312 138.617C301.428 144.042 302.017 149.604 304.017 154.724L206.485 249.874C201.365 247.881 195.804 247.299 190.383 248.188C184.961 249.077 179.878 251.405 175.662 254.928C171.447 258.451 168.255 263.042 166.418 268.219C164.582 273.397 164.168 278.973 165.222 284.365L184.461 265.125C185.002 264.583 185.645 264.153 186.353 263.86C187.06 263.566 187.819 263.415 188.585 263.415C189.351 263.415 190.11 263.566 190.817 263.86C191.525 264.153 192.168 264.583 192.709 265.125L208.712 281.128C209.253 281.668 209.683 282.31 209.977 283.017C210.27 283.723 210.421 284.481 210.421 285.246C210.421 286.011 210.27 286.768 209.977 287.475C209.683 288.181 209.253 288.823 208.712 289.363L189.433 308.577C194.825 309.628 200.401 309.214 205.578 307.377C210.756 305.54 215.346 302.348 218.87 298.134C222.394 293.92 224.723 288.837 225.614 283.416C226.506 277.995 225.927 272.434 223.938 267.314V267.352Z" fill="white" stroke="#D4DAEC" stroke-miterlimit="10"/>
<path d="M216.43 257.37C215.684 256.623 215.266 255.61 215.266 254.554C215.266 253.498 215.684 252.486 216.43 251.738L304.122 166.428C304.872 165.682 305.887 165.263 306.945 165.263C308.003 165.263 309.017 165.682 309.767 166.428V166.428C310.514 167.178 310.933 168.193 310.933 169.251C310.933 170.309 310.514 171.323 309.767 172.073L222.075 257.37C221.325 258.116 220.31 258.535 219.252 258.535C218.194 258.535 217.18 258.116 216.43 257.37V257.37Z" fill="white" stroke="#D4DAEC" stroke-miterlimit="10"/>
<path d="M242.438 191.344L235.883 197.899L330.465 292.481L337.02 285.926L242.438 191.344Z" fill="white" stroke="#D4DAEC" stroke-miterlimit="10"/>
<path d="M353.707 292.91L337.445 309.172L323.889 295.629C321.732 293.471 320.52 290.544 320.52 287.492C320.52 284.44 321.732 281.513 323.889 279.354V279.354C324.957 278.286 326.225 277.439 327.62 276.861C329.015 276.283 330.51 275.986 332.02 275.986C333.53 275.986 335.026 276.283 336.421 276.861C337.816 277.439 339.083 278.286 340.151 279.354L353.707 292.91Z" fill="white" stroke="#D4DAEC" stroke-miterlimit="10"/>
<path d="M233.613 172.939L217.473 189.079L230.583 202.189L246.723 186.049L233.613 172.939Z" fill="white" stroke="#D4DAEC" stroke-miterlimit="10"/>
<path d="M161.743 122.754L167.291 117.206C168.582 115.915 170.115 114.891 171.802 114.192C173.489 113.493 175.297 113.133 177.123 113.133C178.95 113.133 180.758 113.493 182.445 114.192C184.132 114.891 185.665 115.915 186.956 117.206L241.173 171.423C241.707 171.957 242.007 172.682 242.007 173.437C242.007 174.192 241.707 174.917 241.173 175.451L219.988 196.636C219.454 197.17 218.729 197.47 217.974 197.47C217.218 197.47 216.494 197.17 215.96 196.636L161.743 142.419C159.135 139.812 157.67 136.275 157.67 132.587C157.67 128.899 159.135 125.362 161.743 122.754Z" fill="white" stroke="#D4DAEC" stroke-miterlimit="10"/>
<path d="M248.234 181.521L226.042 203.714C225.208 204.548 225.208 205.9 226.042 206.735L232.103 212.795C232.937 213.63 234.289 213.63 235.124 212.795L257.316 190.603C258.15 189.769 258.15 188.416 257.316 187.582L251.255 181.521C250.421 180.687 249.068 180.687 248.234 181.521Z" fill="white" stroke="#D4DAEC" stroke-miterlimit="10"/>
<path d="M223.02 188.581L218.567 193.048L165.327 139.808C164.735 139.216 164.402 138.412 164.402 137.575C164.402 136.737 164.735 135.934 165.327 135.341V135.341C165.62 135.047 165.968 134.813 166.351 134.653C166.734 134.493 167.145 134.411 167.561 134.411C167.976 134.411 168.387 134.493 168.77 134.653C169.154 134.813 169.502 135.047 169.794 135.341L223.02 188.581Z" fill="white" stroke="#D4DAEC" stroke-miterlimit="10"/>
<path d="M230.617 180.981L226.137 185.448L172.897 132.208C172.305 131.616 171.973 130.812 171.973 129.975C171.973 129.137 172.305 128.334 172.897 127.741V127.741C173.19 127.447 173.538 127.213 173.921 127.053C174.305 126.893 174.716 126.811 175.131 126.811C175.546 126.811 175.957 126.893 176.341 127.053C176.724 127.213 177.072 127.447 177.364 127.741L230.617 180.981Z" fill="white" stroke="#D4DAEC" stroke-miterlimit="10"/>
<path d="M238.218 173.381L233.738 177.809L180.499 124.608C179.907 124.016 179.574 123.212 179.574 122.375C179.574 121.537 179.907 120.734 180.499 120.141V120.141C180.792 119.846 181.139 119.612 181.523 119.453C181.906 119.293 182.317 119.211 182.732 119.211C183.148 119.211 183.559 119.293 183.942 119.453C184.326 119.612 184.673 119.846 184.966 120.141L238.218 173.381Z" fill="white" stroke="#D4DAEC" stroke-miterlimit="10"/>
<path d="M416.425 423.898H412.114L384.238 195.171H388.563L416.425 423.898Z" fill="white" stroke="#455A64" stroke-miterlimit="10"/>
<path d="M450.089 423.898H445.778L417.902 195.171H422.227L450.089 423.898Z" fill="white" stroke="#455A64" stroke-miterlimit="10"/>
<path d="M422.498 214.126H388.848L387.98 207.069H421.644L422.498 214.126Z" fill="white" stroke="#455A64" stroke-miterlimit="10"/>
<path d="M425.673 240.176H392.022L391.168 233.12H424.818L425.673 240.176Z" fill="white" stroke="#455A64" stroke-miterlimit="10"/>
<path d="M428.857 266.226H395.194L394.34 259.169H427.99L428.857 266.226Z" fill="white" stroke="#455A64" stroke-miterlimit="10"/>
<path d="M432.029 292.289H398.379L397.512 285.232H431.162L432.029 292.289Z" fill="white" stroke="#455A64" stroke-miterlimit="10"/>
<path d="M435.201 318.339H401.551L400.684 311.283H434.334L435.201 318.339Z" fill="white" stroke="#455A64" stroke-miterlimit="10"/>
<path d="M438.372 344.389H404.722L403.867 337.333H437.517L438.372 344.389Z" fill="white" stroke="#455A64" stroke-miterlimit="10"/>
<path d="M441.544 370.452H407.894L407.039 363.396H440.689L441.544 370.452Z" fill="white" stroke="#455A64" stroke-miterlimit="10"/>
<path d="M444.729 396.502H411.065L410.211 389.445H443.861L444.729 396.502Z" fill="white" stroke="#455A64" stroke-miterlimit="10"/>
<path d="M388.332 209.84H392.734" stroke="#455A64" stroke-width="0.5" stroke-miterlimit="10"/>
<path d="M389.367 211.912H397.912" stroke="#455A64" stroke-width="0.5" stroke-miterlimit="10"/>
<path d="M421.98 211.912H415.766" stroke="#455A64" stroke-width="0.5" stroke-miterlimit="10"/>
<path d="M425.087 237.017H419.391" stroke="#455A64" stroke-width="0.5" stroke-miterlimit="10"/>
<path d="M392.473 238.312H405.679" stroke="#455A64" stroke-width="0.5" stroke-miterlimit="10"/>
<path d="M394.805 262.639H406.198" stroke="#455A64" stroke-width="0.5" stroke-miterlimit="10"/>
<path d="M395.32 264.711H401.535" stroke="#455A64" stroke-width="0.5" stroke-miterlimit="10"/>
<path d="M431.807 288.262H424.828" stroke="#455A64" stroke-width="0.5" stroke-miterlimit="10"/>
<path d="M431.301 290.334H419.648" stroke="#455A64" stroke-width="0.5" stroke-miterlimit="10"/>
<path d="M441.439 367.797H430.758" stroke="#455A64" stroke-width="0.5" stroke-miterlimit="10"/>
<path d="M407.453 365.855H413.927" stroke="#455A64" stroke-width="0.5" stroke-miterlimit="10"/>
<path d="M429.142 367.797H420.727" stroke="#455A64" stroke-width="0.5" stroke-miterlimit="10"/>
<path d="M410.691 392.721H419.755" stroke="#455A64" stroke-width="0.5" stroke-miterlimit="10"/>
<path d="M412.633 394.987H422.991" stroke="#455A64" stroke-width="0.5" stroke-miterlimit="10"/>
<path d="M402.273 316.008H405.187" stroke="#455A64" stroke-width="0.5" stroke-miterlimit="10"/>
<path d="M433.994 315.361H423.312" stroke="#455A64" stroke-width="0.5" stroke-miterlimit="10"/>
<path d="M47.4922 287.136L52.6323 293.817L164.148 206.746L159.02 200.065L47.4922 287.136Z" fill="#A4A9B9" stroke="#455A64" stroke-width="1.09543" stroke-linecap="round" stroke-linejoin="round"/>
<path d="M142.331 287.136L137.191 293.817L25.6758 206.746L30.8029 200.065L142.331 287.136Z" fill="white" stroke="#455A64" stroke-width="1.09543" stroke-linecap="round" stroke-linejoin="round"/>
<path d="M25.6758 287.136L30.8029 293.817L142.331 206.746L137.191 200.065L25.6758 287.136Z" fill="white" stroke="#455A64" stroke-width="1.09543" stroke-linecap="round" stroke-linejoin="round"/>
<path d="M142.331 384.94L139.146 393.55L25.6758 304.55L27.3071 295.862L142.331 384.94Z" fill="white" stroke="#455A64" stroke-width="1.09543" stroke-linecap="round" stroke-linejoin="round"/>
<path d="M25.6758 384.94L26.4526 395.039L142.331 304.55L137.191 297.882L25.6758 384.94Z" fill="white" stroke="#455A64" stroke-width="1.09543" stroke-linecap="round" stroke-linejoin="round"/>
<path d="M28.2933 199.146H23.7617V423.911H28.2933V199.146Z" fill="white" stroke="#455A64" stroke-width="1.09543" stroke-linecap="round" stroke-linejoin="round"/>
<path d="M142.942 199.146H138.41V423.911H142.942V199.146Z" fill="white" stroke="#455A64" stroke-width="1.09543" stroke-linecap="round" stroke-linejoin="round"/>
<path d="M148.779 197.061H17.9336V204.182H148.779V197.061Z" fill="white" stroke="#455A64" stroke-width="1.09543" stroke-linecap="round" stroke-linejoin="round"/>
<path d="M148.779 290.334H17.9336V297.455H148.779V290.334Z" fill="white" stroke="#455A64" stroke-width="1.09543" stroke-linecap="round" stroke-linejoin="round"/>
<path d="M164.148 287.136L159.02 293.817L47.4922 206.746L52.6323 200.065L164.148 287.136Z" fill="#A4A9B9"/>
<path d="M164.148 384.94L160.975 393.55L47.4922 304.55L50.742 295.862L164.148 384.94Z" fill="#A4A9B9"/>
<path d="M47.4922 384.94L48.269 395.039L164.148 304.55L159.02 297.882L47.4922 384.94Z" fill="#A4A9B9"/>
<path d="M50.1214 199.146H45.5898V423.911H50.1214V199.146Z" fill="#A4A9B9"/>
<path d="M164.77 199.146H160.238V423.911H164.77V199.146Z" fill="#A4A9B9"/>
<path d="M168.938 197.061H132.621V204.182H168.938V197.061Z" fill="#A4A9B9"/>
<path d="M168.938 290.334H132.621V297.455H168.938V290.334Z" fill="#A4A9B9"/>
<path d="M311.823 423.899H301.582L315.241 343.871H325.496L311.823 423.899Z" fill="#A4A9B9" stroke="#A4A9B9" stroke-width="0.972732" stroke-miterlimit="10"/>
<path d="M332.32 423.899H342.574L328.901 343.871H318.66L332.32 423.899Z" fill="white" stroke="#455A64" stroke-width="0.972732" stroke-miterlimit="10"/>
<path d="M457.249 423.898H447.008L460.667 343.871H470.909L457.249 423.898Z" fill="#A4A9B9" stroke="#A4A9B9" stroke-width="0.972732" stroke-miterlimit="10"/>
<path d="M477.745 423.899H488L474.327 343.871H464.086L477.745 423.899Z" fill="white" stroke="#455A64" stroke-width="0.972732" stroke-miterlimit="10"/>
<path d="M484.919 320.734H289.453V347.885H484.919V320.734Z" fill="#FFE393" stroke="#455A64" stroke-width="0.972732" stroke-miterlimit="10"/>
<path d="M489.681 320.734H294.215V347.885H489.681V320.734Z" fill="#FFE393" stroke="#A4A9B9" stroke-width="0.972732" stroke-miterlimit="10"/>
<path d="M297.414 347.885H314L322.571 320.734H305.985L297.414 347.885Z" fill="#A4A9B9"/>
<path d="M363.084 320.734H346.485L337.914 347.885H354.513L363.084 320.734Z" fill="#A4A9B9"/>
<path d="M484.595 320.734H467.997L459.426 347.885H476.024L484.595 320.734Z" fill="#A4A9B9"/>
<path d="M444.082 320.734H427.497L418.926 347.885H435.511L444.082 320.734Z" fill="#A4A9B9"/>
<path d="M403.584 320.734H386.985L378.414 347.885H395.013L403.584 320.734Z" fill="#A4A9B9"/>
<path d="M488.608 332.788H456.266" stroke="#455A64" stroke-miterlimit="10"/>
<path d="M488.039 337.32H482.938" stroke="#455A64" stroke-miterlimit="10"/>
<path d="M293.387 336.193H325.729" stroke="#455A64" stroke-miterlimit="10"/>
<path d="M293.945 331.079H334.807" stroke="#455A64" stroke-miterlimit="10"/>
</svg>
